<?xml version="1.0"?>
<svg xmlns="http://www.w3.org/2000/svg" xmlns:xlink="http://www.w3.org/1999/xlink" xmlns:svgjs="http://svgjs.com/svgjs" version="1.1" width="512" height="512" x="0" y="0" viewBox="0 0 496 496" style="enable-background:new 0 0 512 512" xml:space="preserve" class=""><g><g xmlns="http://www.w3.org/2000/svg"><g><path d="m248 120c-70.692 0-128 57.308-128 128s57.308 128 128 128 128-57.308 128-128c-.08-70.659-57.341-127.92-128-128zm8 239.711v-7.711c0-4.418-3.582-8-8-8s-8 3.582-8 8v7.711c-55.514-4.049-99.662-48.197-103.711-103.711h7.711c4.418 0 8-3.582 8-8s-3.582-8-8-8h-7.711c4.049-55.514 48.197-99.662 103.711-103.711v7.711c0 4.418 3.582 8 8 8s8-3.582 8-8v-7.711c55.514 4.049 99.662 48.197 103.711 103.711h-7.711c-4.418 0-8 3.582-8 8s3.582 8 8 8h7.711c-4.049 55.514-48.197 99.662-103.711 103.711z" fill="#ffffff" data-original="#000000" style="" class=""/><path d="m269.655 258.34c5.711-11.954.649-26.274-11.305-31.985-.804-.384-1.628-.723-2.47-1.015.077-.443.117-.891.12-1.34v-56c0-4.418-3.582-8-8-8s-8 3.582-8 8v56c.003.448.043.894.12 1.335-12.531 4.321-19.186 17.983-14.864 30.513 4.321 12.531 17.983 19.186 30.513 14.864.877-.302 1.736-.656 2.572-1.057l24 24c3.124 3.124 8.19 3.124 11.314 0s3.124-8.19 0-11.314zm-29.655-10.34c0-4.418 3.582-8 8-8s8 3.582 8 8-3.582 8-8 8c-4.416-.005-7.995-3.584-8-8z" fill="#ffffff" data-original="#000000" style="" class=""/><path d="m488.27 208-44.58-1.48c-5.046-24.061-14.542-46.967-28-67.54l30.48-32.59c2.948-3.149 2.868-8.068-.18-11.12l-45.25-45.26c-3.054-3.048-7.973-3.132-11.13-.19l-32.59 30.49c-20.573-13.458-43.479-22.954-67.54-28l-1.48-44.58c-.151-4.31-3.687-7.727-8-7.73h-64c-4.313.003-7.849 3.42-8 7.73l-1.48 44.58c-24.061 5.046-46.967 14.542-67.54 28l-32.59-30.49c-3.157-2.942-8.076-2.858-11.13.19l-45.25 45.26c-3.048 3.05-3.132 7.967-.19 11.12l30.49 32.59c-13.458 20.573-22.954 43.479-28 67.54l-44.58 1.48c-4.31.151-7.727 3.687-7.73 8v64c.003 4.313 3.42 7.849 7.73 8l44.58 1.48c5.046 24.061 14.542 46.967 28 67.54l-30.49 32.59c-2.942 3.153-2.858 8.07.19 11.12l45.25 45.26c3.054 3.048 7.973 3.132 11.13.19l32.59-30.49c20.573 13.458 43.479 22.954 67.54 28l1.48 44.58c.151 4.31 3.687 7.727 8 7.73h64c4.313-.003 7.849-3.42 8-7.73l1.48-44.58c24.061-5.046 46.967-14.542 67.54-28l32.59 30.49c3.157 2.942 8.076 2.858 11.13-.19l45.25-45.26c3.048-3.052 3.128-7.971.18-11.12l-30.48-32.59c13.458-20.573 22.954-43.479 28-67.54l44.58-1.48c4.31-.151 7.727-3.687 7.73-8v-64c-.003-4.313-3.42-7.849-7.73-8zm-8.27 64.26-43.22 1.44c-3.777.126-6.951 2.879-7.61 6.6-4.614 26.238-14.938 51.142-30.24 72.95-2.16 3.101-1.86 7.289.72 10.05l29.56 31.59-34.32 34.31-31.59-29.55c-2.759-2.584-6.951-2.885-10.05-.72-21.808 15.302-46.712 25.626-72.95 30.24-3.721.659-6.474 3.833-6.6 7.61l-1.44 43.22h-48.52l-1.44-43.22c-.126-3.777-2.879-6.951-6.6-7.61-26.238-4.614-51.142-14.938-72.95-30.24-3.099-2.165-7.291-1.864-10.05.72l-31.59 29.55-34.32-34.31 29.56-31.59c2.58-2.761 2.88-6.949.72-10.05-15.302-21.808-25.626-46.712-30.24-72.95-.659-3.721-3.833-6.474-7.61-6.6l-43.22-1.44v-48.52l43.22-1.44c3.777-.126 6.951-2.879 7.61-6.6 4.614-26.238 14.938-51.142 30.24-72.95 2.16-3.101 1.86-7.289-.72-10.05l-29.56-31.59 34.32-34.31 31.59 29.55c2.761 2.58 6.949 2.88 10.05.72 21.808-15.302 46.712-25.626 72.95-30.24 3.721-.659 6.474-3.833 6.6-7.61l1.44-43.22h48.52l1.44 43.22c.126 3.777 2.879 6.951 6.6 7.61 26.238 4.614 51.142 14.938 72.95 30.24 3.101 2.16 7.289 1.86 10.05-.72l31.59-29.55 34.32 34.31-29.56 31.59c-2.58 2.761-2.88 6.949-.72 10.05 15.302 21.808 25.626 46.712 30.24 72.95.659 3.721 3.833 6.474 7.61 6.6l43.22 1.44z" fill="#ffffff" data-original="#000000" style="" class=""/><path d="m248 88c-88.22 0-160 71.78-160 160s71.78 160 160 160 160-71.78 160-160-71.78-160-160-160zm0 304c-79.4 0-144-64.6-144-144s64.6-144 144-144 144 64.6 144 144-64.6 144-144 144z" fill="#ffffff" data-original="#000000" style="" class=""/></g></g></g></svg>
