<?xml version="1.0" encoding="utf-8"?>
<!-- Generator: Adobe Illustrator 13.0.0, SVG Export Plug-In . SVG Version: 6.00 Build 14948)  -->
<!DOCTYPE svg PUBLIC "-//W3C//DTD SVG 1.1//EN" "http://www.w3.org/Graphics/SVG/1.1/DTD/svg11.dtd">
<svg version="1.1" id="Layer_1" xmlns="http://www.w3.org/2000/svg" xmlns:xlink="http://www.w3.org/1999/xlink" x="0px" y="0px"
	 width="100px" height="100px" viewBox="0 0 100 100" enable-background="new 0 0 100 100" xml:space="preserve">
<g>
	<path fill="#FFA910" d="M21.814,83.258c5.022,2.533,10.959,3.235,16.244,4.292c10.159,2.033,21.955,1.03,31.853-1.849
		c6.803-1.978,23.373-6.123,17.855-16.874c-2.665-5.19-9.003-0.397-13.078,0.877c-7.742,2.422-16.25,2.831-24.277,3.266
		c-7.355,0.397-15.503-0.495-22.56-1.895c-3.937-0.78-9.508-4.288-12.406-0.336l0.319-0.635
		C12.568,74.035,18.182,81.426,21.814,83.258z"/>
	<path fill="#EA9103" d="M74.545,82.83c-5.021,0.921-10.084,1.677-15.166,2.174c-13.206,1.29-40.561,3.15-42.507-15.546
		c-0.522,0.291-1.007,0.704-1.428,1.281l0.319-0.635c-3.195,3.931,2.419,11.321,6.051,13.153c5.022,2.533,10.959,3.235,16.244,4.292
		c10.159,2.033,21.955,1.03,31.853-1.849c6.803-1.978,23.373-6.123,17.855-16.874c-0.496-0.963-1.117-1.581-1.826-1.943
		c1.181,3.433,0.926,7.396-1.171,10.487C82.515,80.698,78.321,82.136,74.545,82.83z"/>
	<path fill="#D17E07" d="M15.35,75.596c0.171,0.11,0.343,0.222,0.521,0.331c1.834,1.126,3.89,0.735,5.942,0.862
		c1.889,0.115,4.032,0.602,5.889,1.512c2.204,0.534,4.41,1.078,6.609,1.167c1.855,0.074,3.67-0.337,5.527-0.216
		c2.22,0.146,4.428,0.563,6.654,0.631c2.312,0.067,4.583-0.328,6.894-0.321c0.981,0.003,1.963,0.03,2.945,0.053
		c2.784-1.312,5.711-2.198,8.873-2.004c1.221,0.077,2.414,0.199,3.589,0.265c0.752-0.12,1.513-0.203,2.283-0.223
		c1.193-0.194,2.391-0.37,3.594-0.52c0.452-0.188,0.902-0.415,1.348-0.692c2.015-1.252,3.873-2.354,5.96-2.976
		c0.463-0.253,0.941-0.468,1.447-0.613c1.645-0.768,3.432-1.261,5.24-1.624c-0.177-0.761-0.468-1.561-0.898-2.4
		c-2.665-5.19-9.003-0.397-13.078,0.877c-7.742,2.422-16.25,2.831-24.277,3.266c-7.355,0.397-15.503-0.495-22.56-1.895
		c-3.937-0.78-9.508-4.288-12.406-0.336l0.319-0.635C14.546,71.599,14.612,73.594,15.35,75.596z"/>
	<path fill="#C7F22C" d="M51.388,76.474c0.168-0.18,0.308-0.389,0.393-0.634C51.563,76.05,51.438,76.263,51.388,76.474z"/>
	<path fill="#C7F22C" d="M84.749,67.813c0.212,0.746,0.745,0.98,1.382,0.983C85.912,68.465,85.476,68.129,84.749,67.813z"/>
	<path fill="#C7F22C" d="M90.718,67.85c0.323,0.028,1.392,0.441,1.546,0.441c1.347,0.001,2.812,0.438,1.573-2.071
		c-0.846-1.71-3.128-4.069-4.669-3.202c-0.03-1.29-0.697-2.376-1.851-2.712c-0.348-4.439-5.887-0.4-9.132,0.548
		c-8.591,2.515-16.23,4.027-25.33,4.395c-9.537,0.385-18.831,0.395-28.229-0.634c-3.821-0.419-4.571-3.479-8.207-3.366
		c-1.048,0.032-4.765-0.151-5.511,2.131c-1.194-0.073-2.771,0.22-2.865,1.798c-0.075,1.236,2.183,2.058,2.898,2.861
		c-0.787,0.591-1.774,1.222-2.388,2.071c1.247,1.135,3.542,0.91,3.171,3.329c1.486,0.194,2.385-1.412,3.585-1.271
		c2.365,0.284,0.704,2.376,2.123,3.398c1.348,0.969,2.813-1.122,4.079-1.326c1.51-0.244,2.29,1.033,3.844,0.039
		c-0.319,1.701,1.12,2.525,2.538,1.761c-0.121,0.239-0.247,0.542-0.389,0.749c2.2-0.739,2.129,0.827,3.865,1.354
		c2.555,0.771,1.336-0.639,3.088-2.077c0.843-0.694,3.698-1.478,4.743-0.597c1.333,1.126-0.17,3.576,2.734,2.452
		c0.476,2.246,3.066,1.218,2.944-0.795c1.345,1.085,2.478-1.105,3.795-1.545c-0.017,1.809,1.807,1.86,2.713,0.892
		c0.051-0.211,0.175-0.424,0.393-0.634c-0.085,0.245-0.225,0.454-0.393,0.634c-0.195,0.803,0.716,1.546,1.729,1.673
		c1.133,0.147,2.443-0.994,3.311-1.536c0,0.606,0.354,1.235,0.377,1.76c1.608-2.362,5.379-2.619,8.221-2.305
		c1.815,0.202,6.97,2.806,7.553-1.004c1.865,1.288,3.444,0.678,3.846-1.882c-0.196-0.289,0.434,0.494,0.447,0.514
		c0.634-2.886,3.146-1.908,5.702-2.028c1.603-0.079,4.488-1.466,3.558-2.868c-0.637-0.003-1.17-0.237-1.382-0.983
		c0.727,0.315,1.163,0.651,1.382,0.983c0.795,0.007,1.749-0.343,2.456-0.514C89.089,68.163,90.283,67.813,90.718,67.85z"/>
	<path fill="#98D827" d="M87.317,62.367c-0.71-1.718-3.674-1.67-5.236-2.466c-0.049-0.023-0.094-0.052-0.139-0.077
		c-0.289-0.05-0.576-0.096-0.864-0.146c-1.03,0.465-2.041,0.928-2.893,1.176c-8.591,2.515-16.23,4.027-25.33,4.395
		c-9.537,0.385-18.831,0.395-28.229-0.634c-3.821-0.419-4.571-3.479-8.207-3.366c-0.861,0.027-3.527-0.09-4.861,1.137
		c0.487,0.063,0.962,0.209,1.407,0.464c1.409,0.812,0.187,2.089,0.24,3.48c0.376,0.274,2.474,0.605,2.729,1.058
		c0.213,0.382-1.912,2.141-1.855,2.535c0.075,0.052,2.366-1.294,2.477-1.228c1.746,1.051-0.51,3.391,1.297,3.211
		c1.094-0.109,3.493-2.143,4.28-1.305c0.548,0.581,2.457,0.455,2.723,1.114c0.305,0.232-0.75,2.688-0.459,2.93
		c0.657-0.127,3.365-2.146,3.786-2.066c1.339,0.255,2.36,1.567,3.669,1.943c0.294,0.087,0.589,0.179,0.883,0.271
		c0.436-0.387,0.824-0.776,1.661-0.868c1.116-0.121,2.252-0.049,3.353,0.172c1.936,0.386,3.893,1.146,5.108,2.723
		c0.804-1.309,2.079-2.101,3.646-2.649c0.629-0.221,1.338-0.057,2.003,0.141c0.154-0.262,0.353-0.478,0.606-0.643
		c1.435-1.119,3.292-0.765,4.792,0.095c0.657,0.377,1.273,0.826,1.935,1.196c0.006,0.004,0.012,0.007,0.018,0.011
		c0.367-0.888,1.186-1.813,2.269-1.684c0.508,0.064,0.892-0.241,1.438-0.393c0.783-0.214,1.698,0.012,2.428,0.303
		c0.608,0.243,1.54,1.076,2.23,0.872c0.772-0.226,1.415-0.674,2.097-1.09c1.117-0.685,1.916,1.45,2.552,2.538
		c0.045,0,0.821-1.684,0.88-1.689c0.258-0.018,0.71-1.032,0.959-1.098c0.78-0.192,3.605,1.814,4.353,1.515
		c1.416-0.572,0.073-3.239,1.254-4.162c0.892-0.692,1.48-1.057,2.63-1.115c0.291-0.014,2.771,1.03,2.953,0.975
		c0.944-0.844-0.033-4.154,0.746-3.235c2.089,2.462,1.192-0.893,2.089-1.571c2.586,5.466,4.384-0.03,2.014-0.729
		C92.561,64.406,87.454,62.708,87.317,62.367z"/>
	<path fill="#A16DAD" d="M57.127,64.944c-0.716,0.07-3.508-0.005-3.975,0.604c-0.799,1.035,1.009,2.545,1.779,3.193
		c2.687,2.262,5.72,3.327,9.226,3.451c1.664,0.058,9.292,0.08,9.353-4.21c-1.181-1.543-4.538-1.793-6.882-2.413
		C63.272,64.686,60.57,64.6,57.127,64.944z"/>
	<path fill="#894899" d="M70.52,70.888c-0.008,0.018-0.01,0.027-0.006,0.037c0.003-0.015,0.008-0.024,0.011-0.038
		C70.534,70.854,70.533,70.856,70.52,70.888z"/>
	<path fill="#894899" d="M73.396,68.188c-0.307-0.114-0.643-0.123-0.973-0.087c-2.149,0.243-4.363,1.016-6.58,1.141
		c-2.009,0.114-5.125-0.911-7.145-0.789c-0.538,0.03-4.82-1.127-4.492-0.592c0.925,1.515,1.938,0.456,2.602,0.972
		c0.12,0.092-0.129,0.742-0.159,0.892c0.288,0.124,0.422-0.362,0.695-0.248c0.332-0.32,0.145,1.313,0.404,0.755
		c0.064,0.078,0.57-0.488,0.612-0.374c0.025-0.073,0.566,0.438,0.592,0.384c0.159,0.114,0.386-0.235,0.352-0.031
		c0.037-0.168,0.506,0.137,0.593,0.01c0.341,0.398,0.077,0.633,0.257,1.06c0.131-0.303,0.592-0.378,0.735-0.7
		c0.103,0.103,0.22,0.262,0.202,0.349c0.018-0.087,0.486-0.026,0.509-0.112c0.044,0.088,0.014,0.582,0.055,0.65
		c0.028-0.034,0.483-0.545,0.512-0.583c0.014,0.072,0.111,0.202,0.121,0.288c0.157-0.069,0.21-0.255,0.268-0.427
		c0.01,0.042,0.05,0.128,0.064,0.19c0.025-0.068,0.119-0.159,0.148-0.253c0.397,0.166,0.328,0.572,0.219,0.92
		c0.234-0.198,0.442-0.519,0.558-0.821c0.3,0.284,0.435,0.717,0.516,1.124c0.19-0.169,0.258-0.545,0.365-0.793
		c0.16,0.048,0.293,0.15,0.42,0.237c0.041-0.106,0.151-0.173,0.177-0.304c0.135,0.075,0.215,0.234,0.278,0.388
		c0.076-0.081,0.164-0.103,0.199-0.258c0.025,0.063,0.128,0.145,0.152,0.188c0.051-0.121,0.153-0.198,0.19-0.336
		c0.045,0.033,0.198,0.161,0.213,0.179c0.149,0.262,0.204,0.645,0.095,0.921c0.239-0.396,0.472-0.951,0.684-1.35
		c0.172,0.442,0.366,0.666,0.283,1.173c0.208-0.363,0.301-0.811,0.524-1.159c0.216,0.341,0.098,0.662,0.002,1.019
		c0.261-0.243,0.39-0.994,0.711-1.027c0.063-0.131,0.145-0.137,0.247-0.217c0.117,0.202,0.321,0.186,0.438-0.03
		c0.021,0.054,0.093,0.13,0.113,0.186c0.14-0.063,0.204-0.222,0.248-0.387c0.07,0.165,0.067,0.359,0.083,0.549
		c0.284-0.082,0.199-0.482,0.451-0.598c0.117,0.259,0.096,0.563,0.073,0.827c0.199-0.234,0.271-0.626,0.401-0.917
		c0.063,0.371-0.108,0.772-0.011,1.127c0.051-0.132,0.087-0.262,0.115-0.396c-0.004-0.01-0.002-0.02,0.006-0.037
		c0.014-0.031,0.015-0.033,0.005-0.001c-0.003,0.014-0.008,0.023-0.011,0.038c0.003,0.009,0.01,0.016,0.024,0.017
		c0.323-0.329,0.527-0.841,0.726-1.248c0.085,0.163,0.063,0.36,0.129,0.527c0.15-0.083,0.237-0.269,0.342-0.4
		c0.249,0.261,0.403-0.125,0.476-0.351c0.002,0.054,0.047,0.173,0.049,0.251c0.188-0.066,0.268-0.337,0.36-0.516
		c0.024,0.092,0.115,0.214,0.126,0.313c0.03-0.115,0.122-0.239,0.149-0.355c0.055,0.138,0.071,0.387,0.065,0.447
		c0.234-0.546,0.502-0.874,0.466-1.506L73.396,68.188z"/>
	<path fill="#C1AFDB" d="M67.129,64.228c-3.354-0.885-6.058-0.972-9.5-0.628c-0.716,0.073-3.508-0.004-3.977,0.605
		c-0.798,1.034,1.01,2.545,1.779,3.193c2.687,2.261,5.723,3.329,9.229,3.451c1.662,0.058,9.396-0.772,8.875-3.451l0.17,0.063
		C72.526,65.918,69.473,64.844,67.129,64.228z"/>
	<path fill="#CBBCE2" d="M66.711,64.211c-3.088-0.835-5.563-0.962-8.709-0.727c-0.651,0.049-3.21-0.068-3.628,0.448
		c-0.711,0.89,0.974,2.24,1.689,2.819c2.504,2.022,5.302,3.011,8.512,3.185c1.524,0.082,8.59-0.494,8.061-2.839l0.157,0.058
		C71.683,65.787,68.868,64.794,66.711,64.211z"/>
	<path fill="#DBCEF4" d="M66.399,63.795c-2.896-0.782-5.217-0.9-8.166-0.681c-0.614,0.046-3.013-0.064-3.403,0.422
		c-0.668,0.833,0.913,2.102,1.583,2.644c2.35,1.897,4.973,2.824,7.986,2.986c1.427,0.077,8.056-0.465,7.559-2.663l0.147,0.056
		C71.065,65.274,68.423,64.344,66.399,63.795z"/>
	<path opacity="0.33" fill="#694A70" d="M70.604,65.392c-1.24-0.695-2.857-1.23-4.204-1.597c-2.896-0.782-5.217-0.9-8.166-0.681
		c-0.614,0.046-3.013-0.064-3.403,0.422c-0.052,0.063-0.084,0.129-0.111,0.199c-0.093,0.031-0.173,0.064-0.236,0.106
		c-0.392,0.08-0.699,0.193-0.83,0.363c-0.252,0.33-0.242,0.709-0.084,1.091c-0.188,0.068-0.339,0.149-0.416,0.252
		c-0.799,1.035,1.009,2.545,1.779,3.193c1.212,1.021,2.5,1.796,3.867,2.355c1.567-0.956,3.507-1.514,5.096-2.05
		c1.232-0.418,2.4-0.777,3.632-0.842c0.969-0.135,1.884,0.02,3.023,0.172c0.964,0.131,1.932,0.136,2.899,0.168
		c0.033-0.18,0.06-0.364,0.061-0.563c0.052-0.185,0.065-0.379,0.026-0.584l0.17,0.063C73.076,66.638,71.909,65.949,70.604,65.392z"
		/>
	<path fill="#A16DAD" d="M33.31,65.414c-3.105-1.526-5.666-2.392-9.118-2.737c-2.412-0.238-5.646-1.181-7.293-0.146
		c-1.442,4.039,5.712,6.688,7.289,7.214c3.327,1.111,6.543,1.175,9.852-0.006c0.947-0.336,3.169-1.119,2.785-2.369
		C36.598,66.638,33.955,65.73,33.31,65.414z"/>
	<path fill="#894899" d="M18.682,66.295c-0.003,0.014-0.001,0.024-0.003,0.04c0.004-0.008,0.006-0.02,0.004-0.035
		C18.683,66.265,18.682,66.263,18.682,66.295z"/>
	<path fill="#894899" d="M28.625,69.307c0.007,0.059,0.055,0.139,0.054,0.216c0.08-0.094,0.212-0.116,0.298-0.169
		c0.049,0.615,0.916,0.599,1.087,1.105c0.298-0.014,0.615-0.027,0.927-0.043c0.151-0.966-0.846-1.817-1.605-2.154
		c-1.85-0.819-3.903-1.062-5.743-1.87c-2.035-0.893-3.836-2.391-5.767-3.372c-0.295-0.149-0.614-0.259-0.942-0.259v-0.087
		c-0.254,0.578-0.116,0.98-0.09,1.573c0.017-0.06,0.119-0.288,0.218-0.396c-0.014,0.118,0.029,0.266,0.017,0.385
		c0.046-0.089,0.172-0.173,0.228-0.246c0.026,0.197,0.004,0.479,0.156,0.606c0.031-0.073,0.114-0.167,0.135-0.217
		c-0.01,0.234-0.001,0.653,0.324,0.493c0.05,0.16,0.068,0.365,0.177,0.494c0.124-0.132,0.169-0.325,0.305-0.449
		c0.048,0.452,0.059,1.003,0.245,1.424c0.014,0.004,0.024,0,0.031-0.007c0.001-0.016,0-0.026,0.003-0.04
		c0-0.032,0.001-0.03,0.001,0.005c0.001,0.016,0,0.027-0.004,0.035c-0.02,0.138-0.033,0.271-0.033,0.412
		c0.218-0.299,0.196-0.732,0.385-1.059c0.021,0.318-0.048,0.711,0.054,0.998c0.075-0.255,0.162-0.549,0.359-0.749
		c0.193,0.196-0.024,0.541,0.213,0.719c0.083-0.175,0.147-0.356,0.27-0.484c-0.017,0.167-0.01,0.341,0.098,0.449
		c0.037-0.046,0.133-0.095,0.17-0.136c0.036,0.241,0.219,0.33,0.401,0.182c0.066,0.109,0.145,0.146,0.157,0.287
		c0.288,0.146,0.147,0.894,0.305,1.214c0.037-0.368,0.037-0.711,0.36-0.954c0.084,0.407,0.016,0.856,0.084,1.269
		c0.1-0.503,0.361-0.646,0.674-0.999c0.061,0.447,0.086,1.048,0.168,1.503c-0.001-0.298,0.181-0.636,0.411-0.828
		c0.021-0.013,0.207-0.079,0.263-0.094c-0.013,0.144,0.055,0.249,0.061,0.382c0.038-0.031,0.164-0.072,0.208-0.125
		c-0.021,0.158,0.054,0.21,0.098,0.313c0.113-0.122,0.243-0.243,0.396-0.267c-0.022,0.131,0.058,0.231,0.058,0.345
		c0.148-0.035,0.313-0.087,0.48-0.074c0.012,0.269-0.058,0.646,0.06,0.87c0.221-0.354,0.499-0.712,0.878-0.874
		c0.002,0.326,0.085,0.7,0.234,0.965c0.021-0.362,0.097-0.768,0.528-0.78c-0.006,0.095,0.051,0.214,0.052,0.285
		c0.035-0.053,0.1-0.118,0.126-0.157c-0.007,0.183-0.022,0.376,0.099,0.497c0.041-0.079,0.176-0.167,0.217-0.227
		c0.011,0.042-0.001,0.08,0.013,0.125c0.064-0.052,0.226-0.103,0.298-0.17c-0.01,0.087,0.03,0.208,0.018,0.294
		c0.101-0.137,0.209-0.279,0.342-0.337c0.02,0.351,0.089,0.688,0.105,1.021c0.319-0.339,0.433-0.712,0.892-0.965
		c0.034,0.149,0.063,0.337,0.039,0.507C28.262,69.489,28.437,69.356,28.625,69.307z"/>
	<path fill="#C1AFDB" d="M24.188,68.312c3.327,1.114,6.543,1.174,9.852-0.005c0.947-0.338,3.169-1.121,2.785-2.37
		c-0.227-0.731-2.87-1.64-3.515-1.955c-3.105-1.528-5.666-2.394-9.118-2.736c-2.412-0.24-5.646-0.304-7.294,0.729h0.182
		C15.654,64.3,22.611,67.784,24.188,68.312z"/>
	<path fill="#CBBCE2" d="M24.586,67.485c3.069,0.961,6.035,1.016,9.086-0.003c0.873-0.294,2.925-0.97,2.568-2.05
		c-0.206-0.635-2.645-1.417-3.241-1.69c-2.865-1.321-5.228-2.069-8.412-2.366c-2.225-0.209-5.208-0.264-6.729,0.631h0.168
		C16.713,64.018,23.129,67.03,24.586,67.485z"/>
	<path fill="#DBCEF4" d="M25.021,66.826c2.881,0.902,5.662,0.95,8.525-0.005c0.821-0.273,2.743-0.908,2.409-1.921
		c-0.196-0.595-2.483-1.329-3.04-1.586c-2.687-1.238-4.903-1.939-7.889-2.218c-2.088-0.195-4.89-0.246-6.313,0.591h0.156
		C17.636,63.574,23.656,66.399,25.021,66.826z"/>
	<path fill="#DED8EF" d="M25.287,66.114c2.742,0.858,5.392,0.905,8.116-0.003c0.779-0.262,2.614-0.866,2.296-1.833
		c-0.187-0.563-2.365-1.262-2.896-1.508c-2.56-1.181-4.67-1.85-7.514-2.113c-1.986-0.184-4.651-0.234-6.009,0.563h0.151
		C18.255,63.018,23.987,65.708,25.287,66.114z"/>
	<path opacity="0.33" fill="#694A70" d="M36.825,65.937c-0.064-0.202-0.314-0.417-0.652-0.63c-0.044-0.061-0.108-0.121-0.184-0.183
		c0-0.073-0.008-0.146-0.034-0.224c-0.03-0.091-0.115-0.188-0.231-0.286c0.019-0.105,0.014-0.218-0.024-0.336
		c-0.187-0.563-2.365-1.262-2.896-1.508c-2.56-1.181-4.67-1.85-7.514-2.113c-1.986-0.184-4.651-0.234-6.009,0.563h0.056
		c-0.953,0.127-1.813,0.361-2.438,0.754h0.182c-0.109,0.179-0.164,0.366-0.181,0.557c-0.005,0.014-0.007,0.029-0.014,0.047
		c2.092,0.446,6.466,1.936,9.119,4.028c1.327,1.05,2.268,1.802,2.876,3.434c0.062,0.175,0.098,0.364,0.115,0.559
		c1.675,0.023,3.347-0.253,5.043-0.859c0.947-0.336,3.169-1.119,2.785-2.369c-0.04-0.122-0.148-0.251-0.304-0.379
		C36.801,66.687,36.947,66.335,36.825,65.937z"/>
	<path fill="#A16DAD" d="M65.431,65.001c-0.386,1.249,1.838,2.033,2.784,2.371c3.309,1.177,6.523,1.117,9.852,0.005
		c1.577-0.526,8.731-3.175,7.29-7.216c-1.648-1.032-4.882-0.093-7.295,0.149c-3.452,0.343-6.012,1.208-9.118,2.734
		C68.3,63.362,65.655,64.269,65.431,65.001z"/>
	<path fill="#894899" d="M84.947,61.621c0.057,0.074,0.184,0.159,0.229,0.245c-0.012-0.117,0.03-0.265,0.016-0.383
		c0.1,0.109,0.198,0.336,0.217,0.397c0.027-0.595,0.164-0.997-0.09-1.575v0.089c-0.326,0-0.646,0.108-0.941,0.258
		c-1.93,0.98-3.732,2.477-5.766,3.371c-1.843,0.809-5.122,0.938-6.97,1.76c-0.493,0.218-4.911,0.631-4.413,1.017
		c1.395,1.094,1.973-0.25,2.776,0c0.143,0.045,0.137,0.739,0.16,0.894c0.314,0.017,0.27-0.491,0.565-0.475
		c0.201-0.419,0.596,1.178,0.645,0.562c0.086,0.054,0.363-0.655,0.444-0.562c-0.006-0.077,0.682,0.209,0.687,0.153
		c0.189,0.047,0.278-0.357,0.317-0.153c-0.023-0.171,0.521-0.051,0.56-0.201c0.458,0.256,0.293,0.568,0.609,0.907
		c0.019-0.331,0.423-0.565,0.444-0.917c0.132,0.06,0.301,0.169,0.313,0.255c-0.012-0.086,0.445-0.192,0.437-0.282
		c0.072,0.07,0.216,0.542,0.279,0.592c0.015-0.043,0.265-0.68,0.275-0.724c0.039,0.061,0.175,0.148,0.216,0.226
		c0.122-0.121,0.106-0.314,0.1-0.496c0.026,0.038,0.093,0.104,0.125,0.158c0.002-0.072,0.058-0.19,0.051-0.288
		c0.434,0.015,0.509,0.42,0.529,0.783c0.152-0.266,0.232-0.639,0.236-0.965c0.378,0.162,0.655,0.521,0.875,0.877
		c0.12-0.229,0.049-0.604,0.063-0.873c0.169-0.013,0.33,0.038,0.479,0.073c0.002-0.112,0.08-0.215,0.058-0.343
		c0.155,0.02,0.283,0.143,0.397,0.266c0.044-0.105,0.117-0.155,0.097-0.315c0.044,0.056,0.17,0.094,0.208,0.126
		c0.005-0.131,0.075-0.236,0.06-0.381c0.056,0.015,0.241,0.081,0.265,0.093c0.229,0.191,0.416,0.53,0.411,0.827
		c0.082-0.451,0.105-1.055,0.168-1.501c0.314,0.354,0.574,0.495,0.674,0.999c0.068-0.411,0-0.862,0.084-1.271
		c0.321,0.242,0.325,0.585,0.361,0.955c0.158-0.319,0.017-1.066,0.305-1.212c0.013-0.142,0.088-0.178,0.155-0.29
		c0.183,0.149,0.368,0.063,0.403-0.18c0.037,0.039,0.133,0.088,0.168,0.135c0.109-0.109,0.116-0.282,0.098-0.449
		c0.124,0.127,0.188,0.31,0.272,0.483c0.235-0.177,0.017-0.52,0.212-0.717c0.199,0.201,0.285,0.494,0.359,0.75
		c0.104-0.291,0.031-0.683,0.053-1c0.188,0.326,0.171,0.759,0.384,1.058c0-0.141-0.01-0.273-0.03-0.411
		c-0.006-0.007-0.008-0.019-0.006-0.036c0-0.035,0.002-0.036,0.002-0.003c0.003,0.013,0.002,0.025,0.004,0.039
		c0.006,0.006,0.016,0.012,0.03,0.006c0.185-0.42,0.199-0.972,0.244-1.422c0.133,0.122,0.18,0.317,0.304,0.447
		c0.111-0.127,0.128-0.332,0.179-0.493c0.325,0.158,0.334-0.258,0.323-0.492c0.021,0.048,0.104,0.144,0.136,0.217
		C84.943,62.099,84.921,61.817,84.947,61.621z"/>
	<path fill="#894899" d="M83.57,63.93c-0.002,0.018,0,0.029,0.006,0.036c-0.002-0.014-0.001-0.026-0.004-0.039
		C83.572,63.894,83.57,63.895,83.57,63.93z"/>
	<path fill="#C1AFDB" d="M65.431,63.568c-0.386,1.25,1.838,2.032,2.784,2.369c3.309,1.181,6.523,1.117,9.852,0.007
		c1.577-0.528,8.534-4.013,7.107-6.338c-1.646-1.034-4.699-0.971-7.112-0.73c-3.452,0.344-6.012,1.21-9.118,2.737
		C68.3,61.93,65.655,62.837,65.431,63.568z"/>
	<path fill="#CBBCE2" d="M77.665,59.008c-3.183,0.298-5.547,1.044-8.411,2.364c-0.596,0.275-3.033,1.059-3.243,1.692
		c-0.355,1.078,1.695,1.756,2.569,2.048c3.052,1.019,6.019,0.965,9.089,0.005c1.455-0.456,7.872-3.47,6.558-5.478
		C82.708,58.746,79.89,58.801,77.665,59.008z"/>
	<path fill="#DBCEF4" d="M77.229,58.728c-2.988,0.278-5.202,0.981-7.89,2.217c-0.558,0.26-2.845,0.995-3.04,1.589
		c-0.335,1.011,1.59,1.648,2.409,1.92c2.863,0.956,5.645,0.906,8.523,0.004c1.367-0.426,7.384-3.252,6.15-5.139h0.159
		C82.117,58.48,79.316,58.533,77.229,58.728z"/>
	<path fill="#DED8EF" d="M76.964,58.289c-2.844,0.265-4.954,0.934-7.513,2.112c-0.531,0.245-2.71,0.943-2.896,1.51
		c-0.316,0.965,1.513,1.569,2.294,1.831c2.728,0.909,5.376,0.861,8.118,0.003c1.301-0.408,7.032-3.098,5.855-4.892h0.151
		C81.618,58.056,78.95,58.104,76.964,58.289z"/>
	<path opacity="0.33" fill="#694A70" d="M65.431,65.001c-0.386,1.249,1.838,2.033,2.784,2.371c0.47,0.166,0.938,0.308,1.402,0.426
		l0.061-0.281c0.216-1.029,1.103-1.619,2.047-1.709c0.653-0.336,1.287-0.531,2.053-0.83c0.933-0.364,1.682-1.159,2.621-1.558
		c1.569-0.666,3.233-1.194,4.688-2.094c1.042-0.643,2.322-1.493,3.645-1.953c-0.548-0.251-1.197-0.417-1.905-0.517
		c-0.001-0.002-0.001-0.002-0.003-0.003h0.151c-1.356-0.798-4.024-0.75-6.011-0.564c-2.844,0.265-4.954,0.934-7.513,2.112
		c-0.531,0.245-2.71,0.943-2.896,1.51c-0.037,0.12-0.044,0.23-0.024,0.338c-0.118,0.095-0.202,0.191-0.231,0.284
		c-0.024,0.077-0.034,0.15-0.034,0.224c-0.076,0.061-0.14,0.121-0.185,0.183c-0.338,0.211-0.587,0.427-0.65,0.629
		c-0.123,0.399,0.021,0.748,0.304,1.052C65.579,64.75,65.471,64.877,65.431,65.001z"/>
	<path fill="#FFD215" d="M83.022,54.225c-4.088,0.31-8.506,2.497-12.6,3.396c-9.439,2.074-19.166,2.218-28.793,2.218
		c-6.9,0-14.196-0.577-20.893-1.992c-2.791-0.59-6.301-1.401-9.082-0.331c0.465,4.142,7.977,5.389,10.916,6.667
		c2.18,0.948,9.166,5.736,8.997,8.493c3.531,0.179,6.966-0.155,10.565-0.155c8.891,0,18.478-1.639,26.495-5.791
		c3.749-1.941,7.839-3.233,11.524-5.3c2.441-1.37,5.552-3.931,8.404-3.792c-0.102-1.81-2.31-3.157-3.74-3.959l0.538,0.546
		C84.82,54.397,83.861,54.159,83.022,54.225z"/>
	<path fill="#FCE665" d="M36.8,71.759c-1.803-0.241-3.709-0.577-5.006-1.992c-0.816-0.893-1.451-1.889-2.208-2.801
		c-0.999-0.674-2.169-1.202-3.213-1.717c-2.624-1.293-5.478-2.592-8.378-3.118c-0.734-0.136-1.51-0.265-2.292-0.424
		c2.41,1.115,5.295,1.792,6.868,2.476c2.18,0.948,9.166,5.736,8.997,8.493c3.531,0.179,6.966-0.155,10.565-0.155
		c7.989,0,16.54-1.331,24.01-4.613c-0.991,0.166-1.985,0.293-2.982,0.399c-3.976,1.093-8.071,1.819-12.061,2.41
		C46.48,71.4,41.467,72.386,36.8,71.759z"/>
	<path fill="#FCB008" d="M83.022,54.225c-4.088,0.31-8.506,2.497-12.6,3.396c-9.439,2.074-19.166,2.218-28.793,2.218
		c-6.9,0-14.196-0.577-20.893-1.992c-2.52-0.532-5.625-1.242-8.249-0.587c1.918,2.76,5.42,4.581,8.732,5.713
		c1.234,0.31,2.475,0.574,3.724,0.805c6.514,1.198,13.169,1.921,19.786,2.122c4.644,0.144,9.299,0.094,13.929-0.296
		c4.545-0.382,9.201-0.194,13.705-0.98c0.548-0.094,1.093-0.2,1.628-0.317c2.094-0.885,4.185-1.768,6.16-2.876
		c0.972-0.545,2.05-1.276,3.175-1.955c1.346-1.421,2.349-3.019,3.46-4.522c-0.653-0.515-1.377-0.94-1.971-1.273l0.538,0.546
		C84.82,54.397,83.861,54.159,83.022,54.225z"/>
	<path fill="#844914" d="M12.875,55.236c0.299,2.856,3.438,4.448,5.843,5.508c6.079,2.675,12.324,3.418,19.009,3.418
		c12.756,0,26.485,2.133,38.62-1.821c3.77-1.229,10.472-5.65,10.037-10.396c-0.68-7.422-13.544-1.435-17.693-0.505
		c-5.025,1.122-10.294,1.597-15.495,1.416c-5.56-0.193-11.01-1.325-16.563-1.637c-4.08-0.227-8.512-0.182-12.4-1.321
		c-2.527-0.739-5.38-1.092-7.884-0.872l0.367-0.364C14.268,49.746,12.593,52.509,12.875,55.236z"/>
	<path opacity="0.78" fill="#683712" d="M76.528,60.353c-0.44-0.003-0.828-0.12-1.158-0.313c-0.464,0.524-0.971,0.998-1.528,1.436
		c-0.859,0.676-1.884,0.968-2.896,0.373c-0.407-0.236-0.715-0.592-0.918-0.999c-1.084,0.748-2.256,1.344-3.623,1.604
		c-0.569,0.111-1.248,0.057-1.803-0.209c-1.388,0.58-2.688,1.343-4.302,1.208c-0.765-0.063-1.452-0.407-1.892-0.957
		c-0.745,0.163-1.49,0.299-2.207,0.179c-0.81,0.411-1.648,0.743-2.562,0.875c-1.07,0.155-2.087-0.086-2.679-1.073
		c-0.058-0.058-0.107-0.12-0.159-0.182c-0.642,0.316-1.287,0.574-1.942,0.694c-2.225,0.403-3.591-0.428-4.22-1.863
		c-1.368,0.496-2.687,1.295-4.13,1.512c-1.084,0.163-2.47-0.314-2.899-1.371c-1.381,0.452-2.867,0.645-4.666,0.729
		c-0.799,0.037-1.447-0.35-1.861-0.922c-1.811,0.346-3.653-0.009-5.703-0.439c-0.666-0.142-1.24-0.678-1.539-1.317
		c-0.659,0.289-1.351,0.469-2.126,0.38c-1.255-0.146-2.225-0.372-2.907-1.536c-0.032-0.056-0.054-0.104-0.076-0.149
		c-0.072,0.02-0.152,0.036-0.259,0.049c-0.401,0.056-0.806,0.092-1.211,0.107c-1.17,0.068-1.999-0.782-2.264-1.794
		c-1.962-1.647-1.284-4.255,0.064-6.626c-1.501,1.362-2.4,3.435-2.187,5.491c0.299,2.856,3.438,4.448,5.843,5.508
		c6.079,2.675,12.324,3.418,19.009,3.418c12.756,0,26.485,2.133,38.62-1.821c3.77-1.229,10.472-5.65,10.037-10.396
		c-0.119-1.29-0.612-2.169-1.355-2.746c0.882,1.132,1.045,2.947,0.34,4.629C83.817,57.527,80.703,60.359,76.528,60.353z"/>
	<path opacity="0.66" fill="#5B2F0B" d="M34.109,60.824c0.326-0.19,0.64-0.111,0.726-0.396c0.606-2.006,3.788-2.396,4.505-0.356
		c0.676-0.713,1.273-1.379,2.219-1.786c0.347-0.216,0.764-0.341,1.231-0.341h0.183c1.11,0,1.859,0.707,2.173,1.575
		c0.008,0.017,0.016,0.034,0.018,0.046c0.004,0.01,0.01,0.021,0.011,0.03c0.268-0.02,0.537,0.002,0.804,0.075
		c0.093,0.025,0.182,0.057,0.268,0.092c0.033-0.014,0.056-0.026,0.092-0.044c0.903-0.664,1.642-1.552,2.422-2.351
		c0.678-0.698,2.063-1.012,2.894-0.374c0.544,0.413,1.211,0.703,1.896,0.971c0.089,0.033,0.179,0.069,0.268,0.104
		c0.643,0.248,1.293,0.494,1.862,0.824c0.294,0.134,0.586,0.267,0.885,0.394c1.472,0.623,2.441,0.432,3.894-0.082
		c1.619-0.573,3.25-0.912,4.788-0.445c1.572-0.839,3.392-0.315,5.016,0.866c0.83,0.604,1.021,0.806,2.027,0.567
		c0.327-0.08,0.657-0.162,0.984-0.26c0.279-0.279,0.567-0.598,0.835-0.888c0.102-0.135,0.218-0.257,0.346-0.366
		c0.161-0.164,0.311-0.298,0.438-0.384c0.514-0.346,1.049-0.539,1.601-0.701c1.497-0.668,3.068-1.153,4.677-1.431
		c0.553-0.159,1.108-0.31,1.675-0.43c0.866-0.185,1.787-0.319,2.697-0.372c0.615-1.09,0.947-2.243,0.84-3.418
		c-0.68-7.422-13.544-1.435-17.693-0.505c-5.025,1.122-10.294,1.597-15.495,1.416c-5.56-0.193-11.01-1.325-16.563-1.637
		c-4.08-0.227-8.512-0.182-12.4-1.321c-2.527-0.739-5.38-1.092-7.884-0.872l0.367-0.364c-1.838,0.813-3.242,2.576-3.706,4.56
		c0.359,0.103,0.708,0.315,1.019,0.68c0.423,0.498,0.836,0.988,1.103,1.592c0.057,0.137,0.123,0.268,0.184,0.401
		c0.886,0.294,1.716,1.295,1.601,2.25c-0.067,0.556-0.105,1.11-0.133,1.666c0.651,0.354,1.316,0.662,1.936,0.933
		c0.695,0.307,1.394,0.585,2.095,0.841c0.244-0.199,0.548-0.355,0.92-0.455c0.393-0.104,0.89-0.118,1.252-0.306
		c1.631-0.843-0.158,0.12,0.537-0.216c0.289-0.142,0.581-0.282,0.856-0.447c0.007-0.005,0.014-0.008,0.022-0.013
		c0.398-0.424,0.943-0.715,1.614-0.744c1.133-0.049,2.538,0.216,3.295,1.169c0.35,0.443,0.642,0.937,0.964,1.401
		c0.337-0.063,0.71-0.051,1.116,0.067c0.411,0.119,0.724,0.158,1.155,0.104c0.474-0.059,0.622-0.429,0.466,0.107
		C33.186,61.652,33.571,61.142,34.109,60.824z"/>
	<path fill="#C7F22C" d="M18.546,48.953l-0.313,0.311c0.023,0,0.043-0.001,0.065-0.001C18.397,49.158,18.483,49.054,18.546,48.953z"
		/>
	<path fill="#C7F22C" d="M18.233,49.264c-0.259,0.002-0.517,0.006-0.758,0.01c-0.23,0.452,0.23,0.359,0.241,0.507
		c0,0,0.002-0.003,0.002-0.005L18.233,49.264z"/>
	<path fill="#C7F22C" d="M37.847,57.283c0.452,3.13,2.945-0.008,3.426-1.378c1.806,1.317,3.435-0.078,4.131,2.953
		c1.96-0.342,2.452-2.579,2.944-4.324c-2.519-2.425-3.876-2.028-7.075-1.699c-3.261,0.336-5.428-0.516-8.359-1.135
		c-1.251-0.263-2.605-0.011-3.868-0.26c-1.514-0.301-2.424-1.002-3.87-1.451c-1.949-0.608-4.707-0.745-6.877-0.728
		c-0.157,0.168-0.354,0.341-0.58,0.514l-0.002,0.005l0,0c-1.271,0.983-3.374,2.041-3.614,2.971
		c-0.305,1.192,2.267,2.224,2.847,3.902c0.322-0.214,0.901-0.282,1.291-0.703c-1.064,1.78-1.064,3.429,1.134,4.275
		c2.322,0.895,4.226-0.979,5.81-2.191c0.857,0.697,1.29,0.735,2.134,0.072c0.4,0.86,1.052,1.065,1.729,1.656
		c0.189-0.254,0.631-0.481,0.85-0.767c0.054,1.324,1.091,2.293,2.465,2.06c2.3-0.393,1.924-3.019,1.935-4.689
		C34.756,57.027,36.533,57.298,37.847,57.283z"/>
	<polygon fill="#C7F22C" points="17.718,49.776 17.716,49.781 17.716,49.781 	"/>
	<path fill="#98D827" d="M21.457,56.093c1.018,1.019,2.348-4.756,2.342-3.472c0,0.616,2.763,1.271,4.453,5.477
		c0.149,0.132,0.286,0.275,0.413,0.428c0.58-0.229,1.054-0.343,1.604-0.369c0.161-0.603,0.561-1.148,1.108-1.526
		c0.249-0.174,0.51-0.323,0.773-0.465c0.202-0.785,0.743-1.463,1.621-1.599c2.088-0.328,4.123-0.641,5.469,0.464
		c0.544,0.019,1.049,0.203,1.454,0.558c0.186-0.077,0.368-0.154,0.553-0.232c0.297-0.148,0.61-0.241,0.937-0.279
		c0.727-0.148,1.662-0.098,2.365,0.16c1.072,0.395,2.198,0.977,2.918,1.907c0.404-0.804,0.643-1.764,0.883-2.609
		c-2.519-2.425-3.876-2.028-7.075-1.699c-3.261,0.336-5.428-0.516-8.359-1.135c-1.251-0.263-2.605-0.011-3.868-0.26
		c-1.514-0.301-2.424-1.002-3.87-1.451c-1.949-0.608-4.707-0.745-6.877-0.728c-0.157,0.168-0.354,0.341-0.58,0.514l0.515-0.513
		c-0.259,0.002-0.517,0.006-0.758,0.01c-0.23,0.452,0.23,0.359,0.241,0.507c-0.029,0.02-0.056,0.041-0.083,0.065
		c1.688,0.258-1.52,2.615-0.583,4.046c0.502-0.18,4.294-1.464,4.795-1.271C22.632,52.523,20.796,55.434,21.457,56.093z"/>
	<path fill="#A4DD05" d="M84.292,43.984c-0.813,0.976-1.752,1.301-2.917,1.752c-1.413,0.547-2.448,0.854-3.542,1.756
		c-0.872,0.721-2.623,2.335-3.635,0.838c-0.316,2.393-7.521,2.845-9.325,2.528c0.238,0.799,0.152,1.849,0.22,2.561
		c0.064,0.688-0.309,3.228,0.028,3.639c0.566,0.69,2.639-0.294,3.709,0.019c1.134,0.332,2.796,1.337,3.589,2.181
		c0.448-1.004,3.705-6.29,4.01-2.872c1.603-0.293,4.066-0.7,5.255-1.861c-0.132,0.007-0.325,0.065-0.454,0.061
		c1.115-0.512,5.375-0.015,5.927-0.837c0.683-1.018-1.506-3.459,1.227-3.4c0.817,0.019,1.386,0.782,2.231,0.813
		c0.885,0.032,1.761-0.479,2.389-1.004c1.123-0.941,2.532-1.583,2.532-3.754c-0.238,1.692-3.472-0.236-4.284-0.87
		c-1.509-1.179-1.493-4.961-4.46-3.299l0.319,0.317C85.244,42.485,85.228,42.856,84.292,43.984z"/>
	<path fill="#C7F22C" d="M88.361,50.378c0.816,0.019,1.383,0.782,2.229,0.814c0.886,0.03,1.762-0.477,2.388-1.004
		c1.123-0.942,2.531-1.585,2.531-3.755c-0.074,0.545-0.46,0.713-0.975,0.671c-1.164,1.778-2.932,2.42-5.125,2.514
		c-0.545,0.023-1.14-0.005-1.665,0.175c-0.112,0.039-1.111,0.587-1.021,0.335c-0.438,0.683-0.414,1.946-0.896,2.707
		c-0.518,0.82-1.703,1.515-2.698,1.098c-1.681-0.704-3.588,1.145-5.416,1.041c-1.185-0.067-2.07-0.449-2.912-0.213
		c-0.021,0.03-0.045,0.056-0.068,0.083c-0.429,0.788-0.863,1.574-1.304,2.353c0.023,0.08,0.053,0.16,0.07,0.241
		c1.126-1.643,2.697-3.345,2.905-1.018c1.603-0.294,4.066-0.701,5.254-1.864c-0.131,0.006-0.323,0.066-0.452,0.062
		c1.114-0.512,5.376-0.016,5.928-0.838C87.814,52.763,85.626,50.318,88.361,50.378z"/>
	<path fill="#72C10A" d="M84.292,44.174c-0.813,0.974-1.752,1.298-2.917,1.75c-1.413,0.55-2.448,0.854-3.542,1.757
		c-0.872,0.721-2.623,2.336-3.635,0.839c-0.316,2.393-7.521,2.846-9.325,2.526c0.238,0.801,0.152,1.851,0.22,2.561
		c0.033,0.333-0.041,1.1-0.084,1.85c0.141-0.014,0.287-0.019,0.442-0.006c0.523,0.039,0.983,0.15,1.407,0.318
		c0.137-0.13,0.274-0.266,0.416-0.388c1.876-1.604,4.169-1.921,5.616-0.566c0.143-0.004,0.289,0.006,0.436,0.016
		c0.767-1.173,2.107-1.944,3.813-2.035c0.774-0.041,1.521-0.024,2.203,0.076c0.383-0.304,0.785-0.571,1.229-0.775
		c0.084-0.264,0.168-0.523,0.253-0.783c0.705-2.125,3.354-2.033,4.352-0.687c0.259-0.279,0.578-0.515,0.979-0.665
		c-0.725,0.271-0.379-0.052-0.1-0.728c0.221-0.539,0.421-1.033,0.742-1.519c0.579-0.874,1.641-1.432,2.698-1.097
		c0.734,0.231,1.335,0.59,1.895,0.998c-0.102-0.18-0.177-0.382-0.216-0.607c-0.085-0.53-0.164-1.059-0.234-1.585
		c-1.213-1.408-1.402-4.541-4.15-3.002l0.319,0.319C85.244,42.675,85.228,43.044,84.292,44.174z"/>
	<path fill="#FFD215" d="M15.855,48.44c0.591,1.173,2.278,1.306,3.546,1.615c2.833,0.696,5.853,1.855,8.819,2.138
		c3.096,0.294,6.226,0.386,9.37,0.438c2.71,0.481,5.5,0.644,8.2,1.397c3.146,0.883,6.293,1.687,9.253,3.029
		c1.505,0.683,3.207,1.161,4.756,1.409c1.945,0.314,2.427-0.139,4.219-1.121c3.204-1.759,6.455-3.262,9.799-4.732
		c1.482-0.652,3.51-1.47,5.119-2.499c1.281-0.468,2.535-0.987,3.74-1.59c2.854-1.426,2.316-3.896,2.168-6.849
		c-3.607,0.429-7.44,1.86-11.231,2.558c-4.388,0.807-8.913,0.509-13.306,1.081c-10.895,1.416-22.614,0.448-33.438-0.933
		c-1.75-0.224-11.63-2.832-11.06,0.195C14.761,44.708,15.348,47.437,15.855,48.44z"/>
	<path fill="#FCE665" d="M58.803,56.397c-2.147-0.377-4.132-1.169-6.196-1.845c-2.802-0.916-5.54-0.956-8.315-0.88
		c0.501,0.104,1.002,0.22,1.5,0.356c3.146,0.883,6.293,1.687,9.253,3.029c1.505,0.683,3.207,1.161,4.756,1.409
		c1.945,0.314,2.427-0.139,4.219-1.121c3.204-1.759,6.455-3.262,9.799-4.732c1.177-0.515,2.689-1.14,4.07-1.889
		c-0.169,0.06-0.339,0.119-0.508,0.177c-4.151,1.441-8.107,3.597-12.326,4.811C63.066,56.285,60.879,56.764,58.803,56.397z"/>
	<path fill="#FCB008" d="M15.36,46.894c3.153,0.996,7.249,1.818,8.762,4.48c1.362,0.369,2.735,0.688,4.098,0.819
		c2.92,0.277,5.872,0.372,8.836,0.428c3.218-1.68,6.918-1.541,10.468-1.308c4.324,0.281,8.568,0.198,12.893-0.11
		c8.458-0.605,16.58-3.047,24.521-5.903c0.117-1.078-0.028-2.302-0.094-3.624c-3.607,0.429-7.44,1.86-11.231,2.558
		c-4.388,0.807-8.913,0.509-13.306,1.081c-10.895,1.416-22.614,0.448-33.438-0.933c-1.75-0.224-11.63-2.832-11.06,0.195
		C15.137,44.66,15.139,45.813,15.36,46.894z"/>
	<path fill="#E84707" d="M48.32,50.568c22.786,0.007,37.438-4.861,38.348-9.18c0.891-4.241-6.072-0.849-7.501-0.643
		c-8.287,1.181-16.724,1.988-24.957,3.612c-6.5,1.284-12.75,1.682-19.225,0.825c-3.921-0.519-7.799-1.256-11.679-1.791
		c-3.023-0.416-5.175-1.122-7.619,1.021v-0.391C12.637,46.213,22.734,50.563,48.32,50.568z"/>
	<path fill="#AA2D0B" d="M15.882,45.946c0.439-0.485,1.065-0.799,1.758-0.799c0.857,0,1.531,0.441,1.964,1.095
		c0.007,0.007,0.016,0.008,0.022,0.014c0.036,0.025,0.063,0.053,0.098,0.077c1.214-0.132,2.525,0.806,2.643,2.045
		c3.999,0.91,9.701,1.662,17.194,2c0.358-0.289,0.731-0.555,1.109-0.811c0.563-0.449,1.188-0.811,1.889-1.054
		c0.464-0.204,0.943-0.371,1.434-0.504c0.727-0.649,1.795-0.94,2.784-0.385c0.126,0.068,0.253,0.134,0.379,0.196
		c0.166,0.057,0.318,0.132,0.458,0.221c0.097,0.042,0.192,0.09,0.289,0.131c0.314-0.025,0.663,0.028,1.04,0.187
		c0.137,0.059,0.276,0.114,0.413,0.171c1.954-0.228,3.802-0.738,5.739-1.343c1.144-0.357,2.732,0.411,2.938,1.667
		c0.077,0.47,0.18,0.928,0.287,1.387c5.748-0.395,10.755-1.116,14.903-2.04c0.051-0.102,0.104-0.203,0.171-0.308
		c2.073-3.181,5.805-3.704,9.24-4.418c0.674-0.14,1.477-0.008,2.076,0.387c1.119-0.82,1.786-1.657,1.959-2.474
		c0.891-4.241-6.072-0.849-7.501-0.643c-8.287,1.181-16.724,1.988-24.957,3.612c-6.5,1.284-12.75,1.682-19.225,0.825
		c-3.921-0.519-7.799-1.256-11.679-1.791c-3.023-0.416-5.175-1.122-7.619,1.021v-0.391C14.933,44.564,14.99,45.237,15.882,45.946z"
		/>
	<path fill="#A4DD05" d="M11.912,36.637c-0.037-0.01-0.079-0.02-0.116-0.031c-0.112,0.008-0.224,0.016-0.351,0.032
		C11.594,36.639,11.766,36.618,11.912,36.637z"/>
	<path fill="#A4DD05" d="M8.979,45.727c0.381,2.188,1.041,0.464,2.602,0.702c1.679,0.256,2.684,6.781,4.073,1.01
		c0.273-1.135-0.254-3.379,1.304-3.768c0.993-0.25,1.95,1.044,2.222,1.703c0.678-0.382,1.355-0.981,1.478-1.798
		c0.017,0.07,0.065,0.1,0.139,0.09c0.313-0.607,0.438-1.261,0.412-1.954c0.755,1.023,2.76-0.183,2.58-1.333
		c-4.17,1.044-3.47-2.998-6.602-4.346c-1.12-0.481-1.423-0.005-2.644,0.421c-1.167,0.407-1.669,0.077-2.746,0.153
		c0.037,0.011,0.079,0.021,0.116,0.031c0.012,0.001,0.024,0,0.036,0.001l1.297,0.372c-0.432-0.121-0.876-0.248-1.333-0.374
		c-0.146-0.02-0.318,0.001-0.466,0.001c0.127-0.016,0.239-0.024,0.351-0.032c-2.456-0.665-5.18-1.193-7.573,0.034
		c1.019,0.689,2.1,0.513,3.249,0.588c-0.686,1.417-3.475,1.641-2.912,3.829c1.95,0.675,5.508-1.528,5.341,1.331
		C9.834,43.54,8.766,44.51,8.979,45.727z"/>
	<path fill="#89C408" d="M12.687,44.262c1.034-0.836,2.793-3.295,4.05-3.329c0.155,0.794,0.474,1.006,1.145,0.696
		c0.08,0.268,0.551,0.724,0.592,1.102c0.244,0.03,0.38-0.163,0.572-0.273c0.131,0.092,0.106,0.338,0.32,0.327
		c0.467-0.525,0.736-1.281,0.741-2.063c0.007-1.434,0.001-1.102-0.926-1.669c-1.346-0.823-3.366-1.106-5.009-1.114l0.558,0.371
		c-2.063-0.64-3.604-0.991-5.684-0.359c1.535,0.24,3.104,0.091,4.538,0.578c0.067,0.174,0.164,0.504,0.19,0.664
		c-0.687,0.542-1.573,0.537-1.988,1.306c0.563,0.193,1.161,0.206,1.801,0.066C13.939,42.025,11.482,43.131,12.687,44.262z"/>
	<path fill="#C7F22C" d="M10.428,39.771c-0.778-1.155-3.27-1.33-4.38-0.183c-0.002-0.162-0.029-0.354-0.068-0.514
		c-0.061-0.031-0.516-0.043-0.339,0.164l0.185,0.369c-0.112,0.161-0.244,0.372-0.352,0.516C6.932,40.823,9.206,39.763,10.428,39.771
		z"/>
	<path fill="#C7F22C" d="M10.091,44.613c0.001,0,0.035-0.041,0.086-0.104c0.175-0.403,0.355-0.806,0.472-1.194L10.091,44.613z"/>
	<path fill="#C7F22C" d="M16.55,42.792c-0.007-0.006,0.375,0.521,0.366,0.504c0.385-2.958-2.941,1.125-3.269,1.155
		c0.061,0.76-0.203,1.382-0.926,1.43c-0.432-0.718-1.519-1.929-2.28-1.332c0.128-0.205,0.287-0.656,0.406-0.797
		c-0.188,0.171-0.515,0.567-0.669,0.758c-0.175,0.401-0.343,0.802-0.433,1.184c0.31-0.044,1.386-0.449,1.641-0.339
		c0.974,0.413,0.344,0.525,0.934,1.302c0.68,0.894,1.422,1.505,1.853,2.54C14.172,47.597,13.984,42.535,16.55,42.792z"/>
	<path fill="#FFA910" d="M15.703,24.709c-1.282,2.112-3.573,8.805-2.273,11.559c0.608,3.645,6.712,5.449,9.828,6.12
		c9.087,1.961,40.246,4.08,55.638-1.481c6.839-2.475,4.911-12.139,3-15.469c-5.567-9.704-14.764-14.28-35.592-14.314
		C34.288,11.106,21.853,14.58,15.703,24.709z"/>
	<path fill="#EA9103" d="M82.047,25.461c-0.503-0.875-1.048-1.692-1.613-2.485c-0.348,3.279-1.857,6.511-4.182,8.665
		c-5.426,5.026-14.823,5.529-21.785,5.937c-6.394,0.375-36.627,1.437-40.245-8.958c-0.866,2.714-1.454,5.954-0.642,7.673
		c0.608,3.643,6.713,5.448,9.828,6.118c9.087,1.96,40.245,4.082,55.639-1.484C85.886,38.457,83.956,28.792,82.047,25.461z"/>
	<path fill="#FFD215" d="M38.838,50.178c1.566-1.24,3.14-2.62,5.049-3.11c2.067-0.534,4.955-1.489,5.237-3.959
		c-4.799-0.234-10.254,0.087-14.889-0.285c-2.612-0.21-6.294-0.26-8.751-0.739c-1.808-0.352-3.922-1.707-4.822-0.623v0.186
		c-0.373,0.679,0.529,2.818,0.787,3.705c0.485,1.657,0.992,2.839,2.364,3.853c1.968,1.45,4.69,4.046,4.49,6.888
		C31.63,53.107,35.436,52.87,38.838,50.178z"/>
	<path fill="#FCE665" d="M38.838,50.178c1.566-1.24,3.14-2.62,5.049-3.11c2.067-0.534,4.955-1.489,5.237-3.959
		c-0.069-0.003-0.143-0.005-0.212-0.006c-5.471,3.054-12.216,4.044-16.691,8.664c-1.174,1.21-2.847,0.704-3.753-0.483
		c-2.478-3.244-6.871-5.655-6.625-10.226c-0.484-0.038-0.894,0.061-1.181,0.405v0.186c-0.373,0.679,0.529,2.818,0.787,3.705
		c0.485,1.657,0.992,2.839,2.364,3.853c1.968,1.45,4.69,4.046,4.49,6.888C31.63,53.107,35.436,52.87,38.838,50.178z"/>
	<path fill="#A4DD05" d="M54.603,44.8l0.602,0.04C55.037,44.792,54.845,44.772,54.603,44.8z"/>
	<path fill="#A4DD05" d="M83.132,40.373c-0.262-0.023-0.386,0.078-0.638,0.139c0.062-0.098,0.091-0.202,0.09-0.316
		c-2.162,0.007-4.379,0.785-6.479,1.405c-2.138,0.632-4.424-0.126-6.245,0.835c-2.268,1.2-3.379,2-5.984,2.365
		c-2.174,0.305-4.518-0.617-6.491,0.186l-2.18-0.146c0.997,0.276,0.936,1.628,3.478,1.628c0.073,1.126,0.438,1.661,0.214,2.755
		c1.837,0.227,3.732-0.638,5.517,0.261c-0.302,0.253-0.542,0.835-0.839,1.079c2.722-0.279,3.421-0.793,3.297-3.324
		c1.825-0.092,3.024,0.807,4.433,0.53c1.439-0.286,2.651-1.891,1.168-2.978c0.478,0.049,1.569,1.107,2.472,0.588
		c0.546-0.366,0-2.271,1.711-1.839c-0.073,0.164-0.205,0.303-0.288,0.487C77.886,44.078,83.137,42.154,83.132,40.373z"/>
	<path fill="#A4DD05" d="M81.84,38.064c-1.095,0.813-2.017,1.722-3.361,0.849c-0.825-0.537-1.187-2.304-1.753-2.658
		c-1.729-1.087-3.886,1.155-5.071,2.201c-2.19,1.938-2.429,0.152-4.628-0.157c-1.965-0.277-3.107-0.429-3.551-2.93
		c-0.984-0.157-3.767-0.155-4.469,0.483c-0.586,0.53-0.265,1.411-0.511,2.084c-0.325,0.89-0.385,0.84-1.066,1.531
		c-4.457,4.519-4.699,0.728-7.047,1.464c-0.429,0.17-0.665,1.729-1.258,2.177c-1.153,0.87-2.908-0.084-1.756,1.692
		c0.143,0.141,0.492-0.098,0.391,0.178c-1.191,1.906,0.496,2.57,2.207,2.604c2.177,0.042,2.645-0.995,4.315-1.999
		c1.438-0.864,7.96-0.569,8.657,0.911c1.506-1.6,3.108-0.155,4.829-0.396c1.771-0.249,1.899-2.291,3.339-2.79
		c0.361-0.124,1.718,0.07,2.216,0.004c0.866-0.119,1.759-0.346,2.607-0.598c1.74-0.517,3.428-1.417,5.174-1.845
		C80.954,40.352,82.167,38.523,81.84,38.064z"/>
	<path fill="#9DC606" d="M59.193,39.371c-0.771,0.95-1.013,2.425-1.804,3.411c-0.092-0.308-0.363-0.44-0.403-0.926
		c-1.113,0.303-1.921,1.445-2.936,2.035c-1.117-0.266-1.974-0.897-2.925-0.708c-1.021,0.202-2.027,1.686-2.638,1.804
		c0.073,0.306-0.253,0.41-0.145,0.718c0.309-0.38,0.912-0.468,1.227-0.695c-0.007,0.365,0.247,0.685,0.243,1.061
		c0.718-0.125,1.385,0.204,1.783,0.742c0.328-0.498,0.757-1.045,1.124-1.437c-0.032,0.142-0.097,0.365-0.119,0.514
		c0.548-0.808,1.424-2.176,2.529-1.292c0.098-0.248,0.28-0.424,0.402-0.645c1.653,1.144,3.504-1.031,5.771,0.407
		c-1.764-2.493-1.498-3.691,0.552-6.896C61.111,38.331,59.896,38.512,59.193,39.371z"/>
	<path fill="#9DC606" d="M61.893,37.404c-0.016,0.021-0.024,0.039-0.038,0.059c0.014-0.017,0.031-0.029,0.048-0.048
		C61.966,37.343,61.965,37.34,61.893,37.404z"/>
	<path fill="#9DC606" d="M74.817,39.469c-0.841,0.608-1.849,0.907-2.403,1.743c-1.656-1.586-1.256,1.504-2.354,1.896
		c1.21-0.528,2.077,0.757,3.096,0.537c1.261-0.272,2.231-2.555,3.153-2.597c2.175-0.097,4.576,0.667,4.37-0.67
		c-1.804-0.53-5.294-0.728-3.67-3.159C76.202,37.849,75.717,38.813,74.817,39.469z"/>
	<path fill="#9DC606" d="M94.404,37.37c-0.743,1.095-4.88-0.533-6.05,0.755c-0.98,0.898-1.376,2.063-1.687,3.263
		c1.854-1.302,2.489-1.683,4.468-1.226C92.999,40.593,94.337,39.36,94.404,37.37z"/>
	<path fill="#A4DD05" d="M83.115,36.598c-1.068,0.885-3.123,2.345-2.921,3.78c0.397-0.307,0.39-0.183,0.909-0.028
		c0.669,0.536,1.695,0.396,2.586,0.774c-0.241,0.736,0.051,0.851,0.261,1.422c1.557-1.146,1.131,2.507,3.115,1.706
		c1.173-0.473,0.663-2.706,1.054-3.718c0.465-1.207,1.569-2.506,2.831-2.786c1.139-0.25,2.62,0.654,3.5-0.236
		c-3.271,1-2.894-1.553-4.575-3.694c-0.8-1.022-0.787-1.607-2.447-1.031c-1.015,0.353-1.883,0.958-1.7,2.152
		C85.224,35.829,83.99,35.875,83.115,36.598z"/>
	<path fill="#C7F22C" d="M58.682,37.011l0.185,0.556c0.029-0.153,0.087-0.313,0.164-0.466c-0.044,0.023-0.094,0.047-0.131,0.073
		C58.836,36.662,58.691,37.016,58.682,37.011z"/>
	<path fill="#C7F22C" d="M64.472,40.33c0.755-0.596,1.823-1.003,2.577-0.472c-0.68-0.739-1.204-1.142-2.29-1.503
		c-1.716-0.572-1.093-0.296-1.665-2.005c-0.188,0.212-1.396,0.096-1.594,0.261c-0.572-1.345-1.97-0.501-2.47,0.489
		c0.317-0.174,0.794-0.284,1.088-0.433c0.063,0.234,0.217,0.395,0.264,0.69c0.671-0.077,1.539-0.242,2.161-0.509
		c0.219,1.323-0.795,2.701-1.47,3.806c0.322-0.325,0.729-0.541,1.05-0.839c-0.058,0.103-0.082,0.21-0.071,0.326
		C62.842,39.539,64.224,38.872,64.472,40.33z"/>
	<path fill="#C7F22C" d="M67.049,39.858c0.146,0.156,0.295,0.323,0.459,0.513C67.377,40.146,67.221,39.978,67.049,39.858z"/>
	<path fill="#C7F22C" d="M85.291,37.993c-0.441-0.357-0.824-0.199-1.271-0.362c-0.611,1.74-1.18,0.778-1.729,1.413
		c-0.912,0.971-0.119,1.331,1.147,1.36c0.676-0.352,1.203,0.288,1.636,0.699c-0.452-1.76,0.472-2.621,1.849-1.114
		c0.854-1.612-0.264-4.442,2.603-3.152c0.284-0.928-0.042-1.619-1.054-1.486c0.185-4.465-2.781-0.373-1.908,1.46
		C86.269,37.296,85.785,37.72,85.291,37.993z"/>
	<path fill="#C7F22C" d="M74.213,37.901c-0.468,0.436-2.723,1.741-3.106,1.893v0.369c0.444-0.201,0.615-0.674,0.969-0.021
		c0.501-0.605,1.35-0.876,2.156-0.748c0.02-0.524,0.351-0.928,0.436-1.442c0.158,0.112,0.523,0.227,0.673,0.339
		c0.16-0.59,0.58-1.181,0.97-1.354C76.31,35.282,74.506,37.626,74.213,37.901z"/>
	<path fill="#9DC606" d="M65.862,45.847c2.227-2.501,3.724-0.337,5.619,0.974c1.115-1.93-1.286-1.384-1.634-2.058
		c-0.484-0.93,0.388-1.957,1.231-1.849c-0.057-1.48-2.211,0.195-1.114-2.535c-0.667,0.405-1.163,1.087-1.788,1.576
		c-0.894-2.216-2.158,0.229-2.594,0.969c-0.109-0.516-0.511-0.928-0.643-1.443c-1.771,0.179-0.783,1.906-1.942,2.628
		c-1.005,0.625-2.343-0.94-3.39-0.05v-0.372c-0.782-0.286-1.722-0.2-2.582-0.152c0.889,0.922,3.658,1.78,2.564,3.241
		c1.032-1.571,2.34-0.152,2.987,0.825c0.488-0.439,1.065-0.609,1.631-0.407C64.106,46.148,65.183,44.057,65.862,45.847z"/>
	<path fill="#FFC127" d="M17.055,31.905v-0.579C17.048,31.516,17.048,31.708,17.055,31.905z"/>
	<path fill="#FFC127" d="M20.377,25.141c1.125-2.704,4.172-3.384,6.674-3.285c1.679,0.07,2.57,0.085,3.955-1.119
		c1.83-1.59,1.649-1.717,3.839-1.605c3.289,0.169,5.982-0.744,8.805-1.919c3.704-1.54,6.575-0.427,10.501-0.239
		c2.346,0.112,5.292,0.573,7.471,1.363c2.015,0.729,4.63,1.785,6.403,2.516c1.629,0.672,2.764,3.969,4.482,3.776
		c1.046-0.115,2.514-2.751,1.26-4.701c-0.492-0.771-4.323-3.136-8.237-3.937c-3.619-0.741-7.667-1.441-11.328-2.158
		c-6.075-1.191-12.86-1.207-18.77,0.988c-1.389,0.516-2.628,1.428-4.078,1.786c-1.544,0.38-3.575,1.581-5.086,1.973
		C24.406,19.067,16.783,23.228,20.377,25.141z"/>
	<path fill="#FFC127" d="M17.065,32.09c-0.003-0.063-0.008-0.125-0.01-0.186v0.202C17.057,32.101,17.062,32.096,17.065,32.09z"/>
	<path fill="#BA793E" d="M35.734,60.84c0.478-0.085,1.032-0.143,1.607-0.201c0.043-0.097,0.09-0.188,0.146-0.269
		C36.867,60.326,36.248,60.495,35.734,60.84z"/>
	<path fill="#BA793E" d="M45.108,60.37c-0.444,0.12-0.856,0.111-1.338,0.305c0.32-0.373,0.6-0.836,0.969-1.188
		c-0.512,0.351-1.053,0.704-1.572,1.022c0.154-0.294,0.195-0.867,0.373-1.201c-0.653,0.248-1.321,0.734-1.818,1.188
		c0.28-0.576,0.775-1.088,1.236-1.549c-0.847,0.408-1.753,0.833-2.377,1.559c0.17-0.021,0.306-0.199,0.389-0.173l-0.548,0.363
		c0.051-0.066,0.106-0.128,0.16-0.19c-0.042,0.008-0.085,0.007-0.13-0.014c-0.058-0.116-0.059-0.337-0.055-0.456
		c-0.859,0.355-1.992,0.488-3.054,0.602c-0.116,0.259-0.206,0.557-0.361,0.756c0.951-0.249,2.231-1.126,3.202-0.701
		c-0.411,0.354-0.673,0.849-1.063,1.212c0.654-0.287,1.268-0.542,1.969-0.668c-0.3,0.275-0.502,0.626-0.787,0.902
		c0.481-0.264,1.084-0.442,1.555-0.685c0.01,0.156-0.153,0.156-0.128,0.313C42.852,61.312,44.02,60.93,45.108,60.37z"/>
	<path fill="#BA793E" d="M40.969,60.334c-0.083-0.026-0.219,0.152-0.389,0.173c-0.054,0.063-0.109,0.124-0.16,0.19L40.969,60.334z"
		/>
	<path fill="#BA793E" d="M57.864,60.913c-0.201,0.084-0.406,0.184-0.613,0.282c-0.011,0.01-0.019,0.017-0.028,0.023
		C57.417,61.129,57.663,60.995,57.864,60.913z"/>
	<path fill="#BA793E" d="M49.952,58.911c0.244-0.115,0.474-0.234,0.668-0.374C50.405,58.64,50.179,58.766,49.952,58.911z"/>
	<path fill="#BA793E" d="M55.805,60.888c0.396-0.246,0.741-0.522,1.157-0.702c-1.053,0.357-2.072,0.971-3.164,1.256
		c0.98-0.848,2.282-1.223,3.342-1.981c-1.722,0.131-3.33,1.669-5.032,1.753c0.462-0.542,1.108-1.026,1.753-1.438
		c-0.729,0.188-1.413,0.553-2.117,0.719c0.361-0.552,0.971-0.978,1.571-1.367c-0.966,0.556-1.978,1.133-3.03,1.367
		c0.345-0.535,0.931-0.989,1.475-1.396c-0.789,0.495-1.572,1.028-2.402,1.416c0.304-0.355,0.529-0.868,0.938-1.205
		c-0.665,0.327-1.365,0.678-2.003,0.997c0.422-0.484,1.044-1.004,1.66-1.395c-0.519,0.244-1.109,0.467-1.627,0.765
		c0.101-0.025,0.2-0.056,0.304-0.071l-1.277,0.912c0.234-0.357,0.584-0.619,0.973-0.841c-0.611,0.146-1.189,0.408-1.729,0.764
		c0.181-0.076,0.376-0.188,0.545-0.261c-0.586,0.753-1.538,1.175-2.277,1.81c1.044-0.296,2.079-0.88,3.155-0.933
		c-0.212,0.176-0.389,0.389-0.598,0.567c0.672-0.281,1.403-0.632,2.101-0.896c-0.19,0.172-0.43,0.483-0.657,0.678
		c0.527-0.261,1.023-0.248,1.568-0.305c-0.142,0.203-0.228,0.493-0.323,0.662c0.741-0.021,1.473-0.37,2.143-0.158
		c-0.069,0.202-0.062,0.518-0.128,0.715c0.788-0.262,1.731-0.668,2.537-0.872c-0.082,0.104-0.304,0.641-0.549,0.856
		c1.075-0.021,2.136-0.618,3.138-1.107c0.611-0.535,1.676-0.896,2.306-1.371C58.318,59.963,57.073,60.664,55.805,60.888z"/>
	<path fill="#BA793E" d="M47.352,60.517l1.277-0.912c-0.104,0.016-0.204,0.046-0.304,0.071
		C47.936,59.897,47.586,60.159,47.352,60.517z"/>
	<path fill="#BA793E" d="M57.746,61.975c0.448-0.234,0.908-0.462,1.379-0.685c0.089-0.072,0.183-0.145,0.263-0.227L57.746,61.975z"
		/>
	<path fill="#BA793E" d="M59.125,61.29c-0.492,0.405-1.12,0.688-1.68,1.058c0.686-0.176,1.306-0.457,1.942-0.455
		c0.546-0.344,1.093-0.743,1.68-0.991c0.671-0.594,1.514-1.137,2.316-1.448C62.052,60.002,60.556,60.613,59.125,61.29z"/>
	<path fill="#BA793E" d="M68.624,59.409c-0.921,0.346-1.894,0.817-2.799,1.084c0.494-0.462,1.021-0.853,1.53-1.275
		c-1.136,0.389-2.167,1.112-3.236,1.653c0.417-0.563,1.004-1.029,1.58-1.462c-0.918,0.427-1.946,0.958-2.828,1.448
		c0.513-0.621,1.306-1.236,1.973-1.729c-1.298,0.665-2.66,1.244-3.925,1.908c-0.289,0.233-0.533,0.506-0.783,0.728
		c0.867-0.268,1.619-0.873,2.476-1.034c-0.367,0.247-1.03,0.83-1.195,0.935c0.565-0.245,1.148-0.453,1.737-0.614
		c-0.332,0.282-0.459,0.656-0.643,0.891c1.304-0.028,2.663-0.885,3.924-1.257c-0.269,0.229-0.514,0.517-0.783,0.72
		C66.714,60.868,67.643,60.054,68.624,59.409z"/>
	<path fill="#BA793E" d="M61.067,60.901c-0.053,0.05-0.115,0.096-0.165,0.144c0.006-0.004,0.01-0.007,0.017-0.008
		c0.072-0.06,0.144-0.117,0.222-0.169C61.118,60.878,61.093,60.893,61.067,60.901z"/>
	<path fill="#BA793E" d="M72.517,60.882c0.016-0.016,0.037-0.028,0.053-0.042c0.037-0.102,0.083-0.201,0.13-0.323L72.517,60.882z"/>
	<path fill="#BA793E" d="M83.39,56.305c-1.181,0.363-2.076,1.271-3.151,1.817c0.367-0.463,0.81-0.989,1.187-1.409
		c-0.799,0.409-1.624,1.07-2.313,1.592c0.311-0.47,0.799-0.981,1.224-1.363c-0.692,0.487-1.427,1.071-2.101,1.549
		c0.321-0.42,0.524-0.952,0.827-1.374c-0.863,0.531-1.687,1.122-2.514,1.685c0.173-0.17,0.663-0.691,0.688-0.712
		c-1.508,0.979-3.308,1.583-4.666,2.751c-0.062,0.165-0.093,0.325-0.014,0.569c1.506-0.813,2.912-1.883,4.456-2.732
		c-0.325,0.219-0.64,0.456-0.97,0.673c0.405-0.313,0.926-0.474,1.334-0.634c-0.257,0.314-0.408,0.744-0.643,1.038
		c0.712-0.25,1.564-0.672,2.287-1.083c-0.122,0.228-0.194,0.548-0.279,0.727c0.781-0.102,1.441-0.727,2.109-1.082
		c-0.355,0.245-0.633,0.472-0.971,0.755C81.123,58.39,82.505,57.45,83.39,56.305z"/>
	<g>
		<path fill="#FCE665" d="M25,43.347c-2.748,1.311,0.781,3.438,2.862,2.393C31.053,44.138,26.88,42.657,25,43.347z"/>
		<path fill="#E5BB0A" d="M25.323,43.559c-2.527,1.205,0.717,3.163,2.633,2.201C30.889,44.286,27.052,42.921,25.323,43.559z"/>
	</g>
	<g>
		<path fill="#FCE665" d="M34.154,45.799c-1.701,1.431,1.183,2.287,2.463,1.165C38.577,45.246,35.356,44.964,34.154,45.799z"/>
		<path fill="#E5BB0A" d="M34.42,45.888c-1.564,1.317,1.087,2.104,2.266,1.074C38.49,45.381,35.525,45.12,34.42,45.888z"/>
	</g>
	<g>
		<path fill="#FCE665" d="M29.354,49.708c-1.317,0.712,0.469,1.67,1.465,1.105C32.348,49.945,30.26,49.321,29.354,49.708z"/>
		<path fill="#E5BB0A" d="M29.518,49.803c-1.212,0.657,0.431,1.538,1.35,1.018C32.271,50.023,30.353,49.447,29.518,49.803z"/>
	</g>
	<g>
		<path fill="#FCE665" d="M53.93,52.777c-2.746,1.311,0.779,3.438,2.862,2.393C59.982,53.567,55.81,52.084,53.93,52.777z"/>
		<path fill="#E5BB0A" d="M54.253,52.988c-2.527,1.206,0.717,3.163,2.632,2.201C59.819,53.718,55.983,52.351,54.253,52.988z"/>
	</g>
	<g>
		<path fill="#FCE665" d="M45.48,68.194c-2.744,1.312,0.781,3.438,2.863,2.394C51.534,68.983,47.362,67.5,45.48,68.194z"/>
		<path fill="#E5BB0A" d="M45.803,68.405c-2.525,1.205,0.718,3.161,2.633,2.201C51.372,69.131,47.534,67.767,45.803,68.405z"/>
	</g>
	<g>
		<path fill="#FCE665" d="M54.037,67.762c-1.701,1.431,1.184,2.287,2.465,1.166C58.461,67.208,55.239,66.926,54.037,67.762z"/>
		<path fill="#E5BB0A" d="M54.305,67.851c-1.565,1.317,1.087,2.104,2.264,1.073C58.373,67.343,55.408,67.084,54.305,67.851z"/>
	</g>
	<g>
		<path fill="#FCE665" d="M67.671,52.461c-0.843,1.234,1.183,1.268,1.811,0.311C70.444,51.301,68.303,51.7,67.671,52.461z"/>
		<path fill="#E5BB0A" d="M67.861,52.47c-0.777,1.137,1.089,1.168,1.666,0.284C70.413,51.4,68.44,51.77,67.861,52.47z"/>
	</g>
	<g>
		<path fill="#FCE665" d="M30.711,66.606c-1.437,0.421,0.106,1.732,1.203,1.39C33.589,67.472,31.681,66.421,30.711,66.606z"/>
		<path fill="#E5BB0A" d="M30.852,66.736c-1.323,0.385,0.099,1.592,1.105,1.277C33.5,67.532,31.743,66.563,30.852,66.736z"/>
	</g>
	<g>
		<path opacity="0.48" fill="#BC8122" d="M43.915,14.57c-1.25,0-1.621,0.686-2.288,1.471C42.9,16.884,45.684,14.898,43.915,14.57z"
			/>
		<path fill="#FCECBB" d="M43.862,14.212c-1.25,0.067-1.583,0.773-2.206,1.594C42.974,16.578,45.647,14.446,43.862,14.212z"/>
		<path fill="#FFFFFF" d="M43.635,14.383c-0.241,0.029-0.516,0.102-0.728,0.212c-0.376,0.198-0.767,0.538-0.906,0.951v0.021
			c0.043-0.044,0.084-0.088,0.13-0.135c0.119-0.126,0.215-0.281,0.34-0.392c0.167-0.153,0.404-0.257,0.613-0.343
			c0.179-0.069,0.372-0.132,0.56-0.168c0.149-0.026,0.418,0.058,0.539-0.032C44.101,14.332,43.792,14.363,43.635,14.383z"/>
	</g>
	<g>
		<path opacity="0.48" fill="#BC8122" d="M53.067,20.066c-1.251,0-1.622,0.687-2.288,1.472
			C52.054,22.381,54.835,20.396,53.067,20.066z"/>
		<path fill="#FCECBB" d="M53.016,19.708c-1.249,0.065-1.583,0.773-2.208,1.594C52.125,22.074,54.8,19.943,53.016,19.708z"/>
		<path fill="#FFFFFF" d="M52.785,19.878c-0.239,0.031-0.513,0.103-0.728,0.213c-0.376,0.197-0.766,0.537-0.905,0.951v0.023
			c0.047-0.046,0.086-0.089,0.13-0.139c0.12-0.124,0.217-0.28,0.34-0.39c0.168-0.154,0.405-0.258,0.615-0.342
			c0.18-0.07,0.372-0.131,0.56-0.168c0.15-0.028,0.419,0.058,0.538-0.033C53.251,19.827,52.944,19.859,52.785,19.878z"/>
	</g>
	<g>
		<path opacity="0.48" fill="#BC8122" d="M25.737,21.548c-1.249,0-1.622,0.689-2.288,1.474
			C24.724,23.862,27.507,21.878,25.737,21.548z"/>
		<path fill="#FCECBB" d="M25.686,21.191c-1.248,0.067-1.582,0.773-2.207,1.593C24.798,23.558,27.47,21.425,25.686,21.191z"/>
		<path fill="#FFFFFF" d="M25.458,21.362c-0.24,0.03-0.515,0.1-0.729,0.213c-0.375,0.198-0.764,0.538-0.906,0.951v0.023
			c0.046-0.045,0.086-0.089,0.133-0.137c0.119-0.126,0.215-0.281,0.337-0.392c0.168-0.153,0.403-0.256,0.615-0.34
			c0.179-0.073,0.371-0.133,0.561-0.17c0.148-0.027,0.417,0.059,0.538-0.034C25.923,21.309,25.615,21.343,25.458,21.362z"/>
	</g>
	<g>
		<path opacity="0.48" fill="#BC8122" d="M38.23,22.295c-0.757-0.55-1.286-0.296-2.035-0.116
			C36.597,23.251,39.157,23.275,38.23,22.295z"/>
		<path fill="#FCECBB" d="M38.354,22.055c-0.785-0.508-1.298-0.227-2.038-0.006C36.776,23.099,39.333,22.983,38.354,22.055z"/>
		<path fill="#FFFFFF" d="M38.141,22.058c-0.156-0.087-0.354-0.163-0.534-0.189c-0.314-0.047-0.7-0.013-0.965,0.176l-0.014,0.013
			c0.049-0.006,0.093-0.016,0.142-0.025c0.127-0.023,0.254-0.076,0.378-0.087c0.168-0.019,0.356,0.021,0.521,0.064
			c0.142,0.035,0.283,0.083,0.415,0.144c0.105,0.049,0.229,0.219,0.341,0.216C38.447,22.233,38.247,22.115,38.141,22.058z"/>
	</g>
	<g>
		<path opacity="0.48" fill="#BC8122" d="M60.232,30.074c-0.758-0.551-1.286-0.298-2.035-0.116
			C58.599,31.03,61.159,31.053,60.232,30.074z"/>
		<path fill="#FCECBB" d="M60.358,29.834c-0.787-0.51-1.3-0.227-2.04-0.008C58.779,30.875,61.335,30.762,60.358,29.834z"/>
		<path fill="#FFFFFF" d="M60.144,29.836c-0.159-0.086-0.354-0.165-0.535-0.19c-0.315-0.046-0.698-0.01-0.967,0.176l-0.01,0.014
			c0.047-0.007,0.09-0.016,0.139-0.024c0.128-0.024,0.255-0.076,0.379-0.089c0.168-0.019,0.356,0.022,0.522,0.065
			c0.141,0.035,0.283,0.082,0.414,0.145c0.104,0.047,0.227,0.217,0.339,0.216C60.449,30.01,60.247,29.895,60.144,29.836z"/>
	</g>
	<g>
		<path opacity="0.48" fill="#BC8122" d="M58.802,17.314c-0.757-0.55-1.287-0.297-2.036-0.114
			C57.169,18.27,59.729,18.293,58.802,17.314z"/>
		<path fill="#FCECBB" d="M58.927,17.074c-0.787-0.509-1.298-0.229-2.038-0.004C57.347,18.118,59.905,18.002,58.927,17.074z"/>
		<path fill="#FFFFFF" d="M58.713,17.079c-0.158-0.089-0.355-0.167-0.532-0.191c-0.317-0.048-0.702-0.013-0.968,0.176l-0.012,0.015
			c0.047-0.009,0.092-0.019,0.14-0.028c0.126-0.023,0.256-0.073,0.378-0.087c0.168-0.019,0.357,0.021,0.521,0.064
			c0.143,0.036,0.282,0.083,0.414,0.144c0.104,0.049,0.229,0.219,0.34,0.217C59.019,17.25,58.818,17.136,58.713,17.079z"/>
	</g>
	<g>
		<path opacity="0.48" fill="#BC8122" d="M75.095,23.674c-0.758-0.552-1.287-0.299-2.035-0.117
			C73.461,24.628,76.021,24.653,75.095,23.674z"/>
		<path fill="#FCECBB" d="M75.22,23.434c-0.785-0.51-1.3-0.23-2.038-0.006C73.64,24.476,76.197,24.36,75.22,23.434z"/>
		<path fill="#FFFFFF" d="M75.006,23.435c-0.158-0.085-0.355-0.164-0.533-0.19c-0.314-0.047-0.701-0.014-0.968,0.178l-0.01,0.012
			c0.046-0.006,0.089-0.015,0.141-0.025c0.125-0.024,0.252-0.075,0.376-0.088c0.169-0.019,0.357,0.023,0.522,0.064
			c0.14,0.038,0.283,0.083,0.413,0.144c0.104,0.049,0.228,0.22,0.342,0.217C75.313,23.609,75.11,23.493,75.006,23.435z"/>
	</g>
	<g>
		<path opacity="0.48" fill="#BC8122" d="M31.697,30.613c-0.758-0.552-1.284-0.299-2.036-0.117
			C30.064,31.569,32.624,31.592,31.697,30.613z"/>
		<path fill="#FCECBB" d="M31.824,30.373c-0.787-0.51-1.301-0.229-2.04-0.006C30.244,31.416,32.8,31.3,31.824,30.373z"/>
		<path fill="#FFFFFF" d="M31.61,30.376c-0.16-0.087-0.357-0.164-0.537-0.191c-0.315-0.046-0.7-0.011-0.966,0.178l-0.011,0.013
			c0.048-0.008,0.091-0.015,0.139-0.024c0.127-0.024,0.255-0.075,0.378-0.089c0.171-0.02,0.359,0.023,0.522,0.065
			c0.14,0.035,0.284,0.083,0.415,0.144c0.104,0.048,0.228,0.218,0.341,0.216C31.915,30.549,31.714,30.433,31.61,30.376z"/>
	</g>
	<g>
		<path opacity="0.48" fill="#BC8122" d="M67.893,27.686c-0.758-0.551-1.284-0.3-2.035-0.116
			C66.26,28.642,68.82,28.666,67.893,27.686z"/>
		<path fill="#FCECBB" d="M68.019,27.446c-0.786-0.509-1.298-0.23-2.038-0.006C66.44,28.489,68.998,28.375,68.019,27.446z"/>
		<path fill="#FFFFFF" d="M67.804,27.449c-0.157-0.088-0.354-0.165-0.532-0.192c-0.316-0.047-0.701-0.012-0.967,0.178l-0.012,0.014
			c0.047-0.008,0.092-0.016,0.141-0.026c0.126-0.023,0.253-0.075,0.377-0.088c0.169-0.02,0.358,0.022,0.521,0.065
			c0.142,0.035,0.284,0.083,0.414,0.144c0.104,0.049,0.229,0.219,0.343,0.214C68.11,27.624,67.909,27.506,67.804,27.449z"/>
	</g>
	<g>
		<path opacity="0.48" fill="#BC8122" d="M71.833,20.722c-0.917-0.201-1.297,0.245-1.91,0.711
			C70.722,22.252,73.076,21.243,71.833,20.722z"/>
		<path fill="#FCECBB" d="M71.851,20.451c-0.923-0.15-1.28,0.313-1.868,0.814C70.822,22.04,73.12,20.906,71.851,20.451z"/>
		<path fill="#FFFFFF" d="M71.656,20.539c-0.18-0.016-0.393-0.008-0.566,0.041c-0.307,0.083-0.646,0.271-0.814,0.55l-0.002,0.018
			c0.039-0.024,0.076-0.051,0.116-0.08c0.107-0.072,0.204-0.17,0.311-0.232c0.147-0.084,0.335-0.124,0.504-0.151
			c0.145-0.024,0.293-0.038,0.437-0.034c0.115,0.001,0.299,0.107,0.397,0.06C72.008,20.575,71.775,20.549,71.656,20.539z"/>
	</g>
	<g>
		<path opacity="0.48" fill="#BC8122" d="M22.263,27.066c-0.76-0.549-1.287-0.296-2.038-0.113
			C20.628,28.022,23.189,28.047,22.263,27.066z"/>
		<path fill="#FCECBB" d="M22.387,26.828c-0.784-0.511-1.298-0.229-2.037-0.007C20.807,27.869,23.366,27.754,22.387,26.828z"/>
		<path fill="#FFFFFF" d="M22.174,26.83c-0.16-0.087-0.357-0.165-0.535-0.19c-0.316-0.047-0.7-0.012-0.966,0.176l-0.012,0.015
			c0.047-0.007,0.092-0.016,0.14-0.025c0.126-0.024,0.254-0.075,0.378-0.089c0.169-0.019,0.358,0.022,0.521,0.064
			c0.141,0.035,0.283,0.083,0.414,0.144c0.104,0.049,0.229,0.219,0.341,0.216C22.479,27.003,22.277,26.887,22.174,26.83z"/>
	</g>
	<g>
		<path opacity="0.48" fill="#BC8122" d="M61.765,15.312c1.251,0,1.621,0.689,2.289,1.475
			C62.777,17.627,59.995,15.642,61.765,15.312z"/>
		<path fill="#FCECBB" d="M61.817,14.957c1.249,0.065,1.58,0.771,2.207,1.591C62.706,17.321,60.033,15.19,61.817,14.957z"/>
		<path fill="#FFFFFF" d="M62.045,15.126c0.239,0.031,0.512,0.102,0.727,0.213c0.377,0.198,0.767,0.538,0.906,0.95v0.023
			c-0.044-0.045-0.083-0.09-0.132-0.137c-0.117-0.124-0.214-0.281-0.336-0.392c-0.17-0.153-0.404-0.257-0.616-0.34
			c-0.179-0.074-0.371-0.133-0.559-0.168c-0.152-0.029-0.418,0.057-0.541-0.036C61.578,15.072,61.886,15.106,62.045,15.126z"/>
	</g>
	<g>
		<path opacity="0.48" fill="#BC8122" d="M61.558,22.262c0.729-1.017,1.504-0.915,2.531-0.999
			C64.027,22.789,60.791,23.892,61.558,22.262z"/>
		<path fill="#FCECBB" d="M61.297,22.011c0.784-0.976,1.552-0.833,2.582-0.861C63.737,22.669,60.447,23.596,61.297,22.011z"/>
		<path fill="#FFFFFF" d="M61.569,21.925c0.164-0.178,0.381-0.359,0.598-0.466c0.379-0.191,0.883-0.31,1.301-0.181l0.018,0.014
			c-0.062,0.01-0.123,0.017-0.188,0.026c-0.169,0.023-0.354,0.01-0.518,0.044c-0.22,0.049-0.442,0.18-0.634,0.301
			c-0.162,0.105-0.324,0.225-0.462,0.357c-0.111,0.105-0.2,0.374-0.343,0.417C61.255,22.273,61.461,22.042,61.569,21.925z"/>
	</g>
	<g>
		<path opacity="0.48" fill="#BC8122" d="M45.77,30.839c0.733-1.016,1.508-0.915,2.535-0.998
			C48.245,31.367,45.007,32.468,45.77,30.839z"/>
		<path fill="#FCECBB" d="M45.512,30.589c0.786-0.977,1.554-0.833,2.583-0.861C47.952,31.247,44.663,32.174,45.512,30.589z"/>
		<path fill="#FFFFFF" d="M45.787,30.501c0.164-0.176,0.381-0.358,0.597-0.465c0.38-0.191,0.882-0.307,1.302-0.181l0.015,0.013
			c-0.061,0.011-0.12,0.018-0.186,0.026c-0.172,0.024-0.354,0.011-0.516,0.046c-0.223,0.049-0.445,0.178-0.634,0.3
			c-0.165,0.106-0.325,0.226-0.464,0.357c-0.112,0.104-0.199,0.372-0.343,0.415C45.471,30.849,45.677,30.621,45.787,30.501z"/>
	</g>
	<g>
		<path opacity="0.48" fill="#BC8122" d="M67.173,18.799c0.73-1.017,1.508-0.914,2.533-0.999
			C69.644,19.326,66.409,20.428,67.173,18.799z"/>
		<path fill="#FCECBB" d="M66.915,18.546c0.784-0.974,1.552-0.831,2.582-0.86C69.354,19.207,66.063,20.135,66.915,18.546z"/>
		<path fill="#FFFFFF" d="M67.187,18.46c0.165-0.176,0.382-0.357,0.599-0.466c0.379-0.191,0.882-0.306,1.3-0.181l0.019,0.014
			c-0.063,0.011-0.121,0.018-0.188,0.026c-0.171,0.022-0.354,0.012-0.515,0.045c-0.223,0.049-0.447,0.178-0.636,0.301
			c-0.163,0.104-0.325,0.225-0.463,0.357c-0.111,0.105-0.199,0.372-0.343,0.416C66.874,18.81,67.079,18.58,67.187,18.46z"/>
	</g>
	<g>
		<path opacity="0.48" fill="#BC8122" d="M31.396,23.968c1.251,0,1.621,0.688,2.287,1.475
			C32.409,26.283,29.627,24.299,31.396,23.968z"/>
		<path fill="#FCECBB" d="M31.447,23.611c1.249,0.067,1.583,0.773,2.206,1.593C32.337,25.978,29.664,23.846,31.447,23.611z"/>
		<path fill="#FFFFFF" d="M31.675,23.783c0.24,0.029,0.516,0.099,0.729,0.213c0.375,0.196,0.764,0.536,0.905,0.95v0.023
			c-0.046-0.046-0.086-0.088-0.132-0.137c-0.118-0.125-0.215-0.281-0.337-0.392c-0.169-0.153-0.405-0.258-0.615-0.342
			c-0.181-0.071-0.373-0.132-0.56-0.169c-0.15-0.027-0.419,0.057-0.538-0.033C31.21,23.73,31.518,23.763,31.675,23.783z"/>
	</g>
	<g>
		<path opacity="0.48" fill="#BC8122" d="M50.054,14.863c0.756-0.553,1.286-0.297,2.034-0.117
			C51.688,15.816,49.126,15.841,50.054,14.863z"/>
		<path fill="#FCECBB" d="M49.93,14.622c0.786-0.51,1.299-0.229,2.038-0.007C51.508,15.664,48.952,15.55,49.93,14.622z"/>
		<path fill="#FFFFFF" d="M50.142,14.625c0.158-0.088,0.357-0.166,0.535-0.191c0.315-0.047,0.699-0.013,0.968,0.176l0.011,0.015
			c-0.048-0.007-0.092-0.015-0.141-0.026c-0.127-0.024-0.255-0.075-0.377-0.088c-0.17-0.018-0.358,0.023-0.522,0.064
			c-0.143,0.036-0.283,0.084-0.414,0.144c-0.104,0.051-0.229,0.219-0.341,0.218C49.837,14.798,50.039,14.682,50.142,14.625z"/>
	</g>
	<g>
		<path opacity="0.48" fill="#BC8122" d="M41.155,28.306c0.757-0.551,1.286-0.298,2.035-0.115
			C42.789,29.261,40.229,29.285,41.155,28.306z"/>
		<path fill="#FCECBB" d="M41.031,28.066c0.785-0.509,1.298-0.23,2.039-0.006C42.611,29.108,40.052,28.993,41.031,28.066z"/>
		<path fill="#FFFFFF" d="M41.245,28.068c0.158-0.087,0.354-0.165,0.534-0.191c0.314-0.045,0.698-0.011,0.967,0.178l0.01,0.014
			c-0.046-0.008-0.089-0.016-0.141-0.026c-0.126-0.023-0.252-0.075-0.376-0.089c-0.168-0.017-0.357,0.025-0.522,0.064
			c-0.141,0.037-0.284,0.083-0.413,0.145c-0.105,0.047-0.228,0.22-0.342,0.216C40.939,28.241,41.139,28.126,41.245,28.068z"/>
	</g>
	<g>
		<path opacity="0.48" fill="#BC8122" d="M56.044,23.133c0.759-0.553,1.287-0.298,2.036-0.114
			C57.678,24.089,55.117,24.11,56.044,23.133z"/>
		<path fill="#FCECBB" d="M55.919,22.893c0.786-0.511,1.3-0.227,2.037-0.006C57.5,23.936,54.94,23.821,55.919,22.893z"/>
		<path fill="#FFFFFF" d="M56.133,22.896c0.158-0.088,0.355-0.165,0.535-0.192c0.314-0.046,0.7-0.01,0.968,0.178l0.01,0.015
			c-0.047-0.008-0.093-0.018-0.141-0.028c-0.126-0.021-0.254-0.074-0.378-0.088c-0.169-0.017-0.358,0.023-0.521,0.064
			c-0.141,0.037-0.284,0.083-0.414,0.146c-0.104,0.049-0.229,0.219-0.342,0.216C55.829,23.069,56.028,22.952,56.133,22.896z"/>
	</g>
	<g>
		<path opacity="0.48" fill="#BC8122" d="M47.145,17.934c0.757-0.551,1.287-0.297,2.035-0.115
			C48.779,18.889,46.218,18.914,47.145,17.934z"/>
		<path fill="#FCECBB" d="M47.02,17.694c0.786-0.511,1.3-0.228,2.039-0.006C48.599,18.736,46.042,18.621,47.02,17.694z"/>
		<path fill="#FFFFFF" d="M47.233,17.696c0.158-0.085,0.357-0.164,0.536-0.191c0.313-0.046,0.7-0.011,0.965,0.176l0.012,0.015
			c-0.047-0.005-0.092-0.015-0.14-0.026c-0.126-0.023-0.254-0.073-0.378-0.087c-0.168-0.018-0.357,0.023-0.522,0.064
			c-0.139,0.034-0.283,0.083-0.412,0.145c-0.104,0.049-0.229,0.219-0.341,0.216C46.929,17.869,47.128,17.754,47.233,17.696z"/>
	</g>
	<g>
		<path opacity="0.48" fill="#BC8122" d="M32.964,20.371c0.759-0.55,1.284-0.298,2.033-0.115
			C34.597,21.327,32.036,21.349,32.964,20.371z"/>
		<path fill="#FCECBB" d="M32.838,20.13c0.785-0.509,1.3-0.227,2.037-0.005C34.417,21.174,31.861,21.06,32.838,20.13z"/>
		<path fill="#FFFFFF" d="M33.053,20.135c0.156-0.09,0.356-0.166,0.535-0.191c0.314-0.047,0.7-0.011,0.966,0.178l0.01,0.014
			c-0.047-0.008-0.091-0.017-0.141-0.027c-0.126-0.022-0.254-0.075-0.379-0.088c-0.167-0.017-0.356,0.021-0.521,0.064
			c-0.139,0.037-0.281,0.083-0.412,0.146c-0.104,0.049-0.23,0.217-0.341,0.215C32.747,20.308,32.944,20.191,33.053,20.135z"/>
	</g>
	<g>
		<path opacity="0.48" fill="#BC8122" d="M34.005,16.696c0.756-0.551,1.286-0.297,2.035-0.116
			C35.636,17.652,33.076,17.675,34.005,16.696z"/>
		<path fill="#FCECBB" d="M33.878,16.456c0.786-0.51,1.301-0.228,2.039-0.006C35.458,17.498,32.9,17.383,33.878,16.456z"/>
		<path fill="#FFFFFF" d="M34.092,16.459c0.157-0.088,0.354-0.165,0.532-0.19c0.317-0.048,0.702-0.014,0.971,0.176l0.009,0.014
			c-0.047-0.008-0.091-0.018-0.139-0.026c-0.127-0.023-0.255-0.073-0.377-0.089c-0.17-0.018-0.358,0.023-0.524,0.065
			c-0.141,0.037-0.283,0.083-0.415,0.144c-0.103,0.05-0.226,0.22-0.338,0.215C33.787,16.632,33.987,16.516,34.092,16.459z"/>
	</g>
	<g>
		<path opacity="0.48" fill="#BC8122" d="M44.558,21.252c0.757-0.55,1.287-0.296,2.035-0.114
			C46.191,22.21,43.63,22.233,44.558,21.252z"/>
		<path fill="#FCECBB" d="M44.432,21.012c0.786-0.509,1.301-0.227,2.039-0.005C46.013,22.055,43.454,21.94,44.432,21.012z"/>
		<path fill="#FFFFFF" d="M44.646,21.015c0.159-0.088,0.357-0.165,0.534-0.19c0.318-0.047,0.702-0.012,0.969,0.176l0.01,0.014
			c-0.048-0.006-0.091-0.016-0.14-0.024c-0.126-0.024-0.255-0.075-0.378-0.089c-0.17-0.019-0.357,0.022-0.523,0.064
			c-0.14,0.035-0.282,0.082-0.413,0.145c-0.103,0.048-0.229,0.217-0.342,0.216C44.34,21.19,44.541,21.075,44.646,21.015z"/>
	</g>
	<g>
		<path opacity="0.48" fill="#BC8122" d="M51.998,26.787c-0.76-0.551-1.286-0.297-2.037-0.114
			C50.364,27.743,52.924,27.766,51.998,26.787z"/>
		<path fill="#FCECBB" d="M52.123,26.547c-0.786-0.509-1.3-0.229-2.04-0.007C50.542,27.588,53.101,27.475,52.123,26.547z"/>
		<path fill="#FFFFFF" d="M51.909,26.55c-0.158-0.088-0.356-0.164-0.534-0.19c-0.316-0.047-0.7-0.013-0.969,0.176l-0.008,0.014
			c0.046-0.006,0.091-0.016,0.139-0.024c0.126-0.024,0.254-0.075,0.379-0.089c0.168-0.02,0.356,0.021,0.521,0.065
			c0.139,0.035,0.282,0.082,0.413,0.144c0.104,0.049,0.227,0.219,0.341,0.216C52.216,26.725,52.014,26.608,51.909,26.55z"/>
	</g>
</g>
</svg>
