<?xml version="1.0" encoding="utf-8"?>
<!-- Generator: Adobe Illustrator 13.0.0, SVG Export Plug-In . SVG Version: 6.00 Build 14948)  -->
<!DOCTYPE svg PUBLIC "-//W3C//DTD SVG 1.1//EN" "http://www.w3.org/Graphics/SVG/1.1/DTD/svg11.dtd">
<svg version="1.1" id="Layer_1" xmlns="http://www.w3.org/2000/svg" xmlns:xlink="http://www.w3.org/1999/xlink" x="0px" y="0px"
	 width="100px" height="100px" viewBox="0 0 100 100" enable-background="new 0 0 100 100" xml:space="preserve">
<g>
	<polygon fill="#F4D9A4" points="21.207,43.509 17.787,35.738 19.91,27.896 40.416,22.55 46.11,25.652 49.208,35.262 	"/>
	<polygon fill="#F4D9A4" points="49.211,35.244 53.218,26.15 58.731,23.179 81.425,28.678 82.952,34.85 79.744,43.704 	"/>
	<polygon fill="#F9D6A7" points="21.251,43.579 29.606,87.262 50.762,97.126 49.469,54.732 	"/>
	<path fill="#E8B989" d="M49.469,54.732L21.251,43.579l2.343,12.241c0.334,0.075,0.677,0.217,1.021,0.456
		c4.476,3.089,10.95,2.884,15.9,4.921c0.364-0.033,0.762,0.008,1.184,0.145c6.535,2.143,7.25,11.771,7.73,17.437
		c0.401,4.729,0.432,9.465,0.333,14.203c0.09,1.251,0.149,2.507,0.167,3.757l0.833,0.389L49.469,54.732z"/>
	<polygon fill="#D8A26C" points="79.785,43.793 49.469,54.732 50.762,97.126 73.99,85.81 	"/>
	<path fill="#C48E62" d="M51.807,91.46c0.195-6.388-0.172-12.824,0.186-19.214c0.296-5.348,0.937-10.17,7.193-11.235
		c3.015-0.514,5.014,0.363,9.174-2.118c3.046-1.815,6.468-2.933,9.889-3.95l1.537-11.149L49.469,54.732l1.293,42.394l0.957-0.466
		C51.631,94.595,51.773,92.585,51.807,91.46z"/>
	<g>
		<defs>
			<polygon id="SVGID_1_" points="21.253,43.485 49.312,56.083 79.788,43.7 49.258,35.239 			"/>
		</defs>
		<clipPath id="SVGID_2_">
			<use xlink:href="#SVGID_1_"  overflow="visible"/>
		</clipPath>
		<polygon clip-path="url(#SVGID_2_)" fill="#C9985D" points="21.253,43.485 49.312,56.083 79.788,43.7 49.257,35.239 		"/>
		<path clip-path="url(#SVGID_2_)" fill="#CC7E17" d="M27.414,47.069c-0.008,0.003-0.018,0.007-0.025,0.008
			C27.411,47.082,27.416,47.076,27.414,47.069z"/>
		<path clip-path="url(#SVGID_2_)" fill="#CC7E17" d="M68.045,41.952c-1.98-0.688-4.593-1.535-6.634-1.805
			c-2.424-0.322-4.78,1.613-7.031,1.33c-1.137-0.144-2.174-1.097-3.225-1.508c-1.31-0.509-2.837-0.562-4.217-0.752
			c-2.623-0.364-4.943,0.02-7.443,0.914c-2.327,0.829-4.047,2.521-6.152,3.594c-1.046,0.535-1.105,1.33-1.976,2.065
			c-1.06,0.893-2.611,0.819-3.89,1.26c0.037,0.022,0.071,0.045,0.114,0.068c1.3,0.792,4.443,1.513,6.255,2.72
			c2.866,1.904,5.199,2.845,8.6,3.584c4.465,0.967,8.669,2.517,13.253,3.206c2.33,0.349,2.993,0.842,4.87-0.691
			c1.909-1.557,3.782-3.203,6.139-4.055c2.458-0.891,7.73-0.901,5.757-4.786C71.427,45.052,70.338,42.746,68.045,41.952z"/>
		<path clip-path="url(#SVGID_2_)" fill="#CC7E17" d="M27.414,47.069c0.022-0.006,0.044-0.011,0.063-0.021
			C26.78,46.626,27.4,47.005,27.414,47.069z"/>
		<g clip-path="url(#SVGID_2_)">
			<path fill="#F7B54B" d="M66.442,40.724c-3.211-1.532-9.617-3.551-14.165,2.104c-0.266,0.501-0.327,0.973-0.08,1.56
				c0.222,0.021,0.433,0.071,0.674,0.137c2.196-3.969,8.768-4.242,12.763-2.57c3.929,1.646,8.173,5.49,7.34,10.162
				c2.756,1.578,0.802-4.799,0.173-5.784C71.633,43.959,69.003,41.942,66.442,40.724z"/>
			<path fill="#F7B54B" d="M52.186,42.936c0.031-0.038,0.059-0.072,0.092-0.108c0.017-0.034,0.026-0.068,0.046-0.101L52.186,42.936z
				"/>
			<path fill="#E28F20" d="M73.16,48.073c-0.51-1.081-1.077-2.146-1.896-2.961c-0.878-0.881-1.861-1.638-2.807-2.442
				c-0.29-0.072-0.582-0.191-0.879-0.375c-5.358-3.359-11.402-2.428-15.466,1.819c0.023,0.09,0.044,0.178,0.084,0.274
				c0.222,0.021,0.433,0.071,0.674,0.137c2.196-3.969,8.768-4.242,12.763-2.57c3.929,1.646,8.173,5.49,7.34,10.162
				c0.258,0.149,0.475,0.226,0.654,0.245c-0.005-0.333,0.052-0.688,0.195-1.063c0.033-0.082,0.046-0.159,0.064-0.238
				c-0.006-0.019-0.015-0.031-0.021-0.051C73.543,50.053,73.498,49.02,73.16,48.073z"/>
		</g>
		<g clip-path="url(#SVGID_2_)">
			<path fill="#FCBE59" d="M66.445,42.674c-1.129-1.247-3.229-3.567-4.932-2.413c-1.497,1.02-1.358,4.016-1.229,5.257
				c0.044,0.431,0.085,0.866,0.128,1.299c0.094,0.96,0.199,1.939,0.329,2.919c0.311,0.894,0.523,1.994,0.464,2.732
				c0,0.001,0,0.01,0,0.014c0.063,0.298,0.123,0.602,0.182,0.912c0.121,0.643,0.247,1.285,0.401,1.919
				c0.461,0.17,0.923,0.339,1.386,0.512c-0.253-0.853-0.429-1.762-0.597-2.655c-0.084-0.443-0.168-0.878-0.259-1.299
				c-0.363-1.697-0.532-3.464-0.7-5.168c-0.043-0.439-0.085-0.875-0.13-1.312c-0.177-1.698-0.026-3.63,0.705-4.129
				c0.689-0.469,2.073,0.856,2.916,1.751c0.17,0.18,0.317,0.348,0.436,0.476c0.116,0.126,0.216,0.237,0.301,0.327
				c3.31,3.521,7.009,8.676,5.829,13.243c-0.171,0.655-0.559,1.413-1.081,1.848c0.391,0.178,0.783,0.355,1.175,0.541
				c0.542-0.615,0.903-1.407,1.08-2.086c1.315-5.102-2.601-10.632-6.12-14.375C66.648,42.901,66.554,42.795,66.445,42.674z"/>
			<path fill="#F2AB44" d="M64.272,41.643c-1.694-1.234-2.387-0.672-2.634,0.515c0,0.016,0.002,0.036,0,0.054
				c0.126-0.438,0.306-0.777,0.556-0.949c0.689-0.469,2.073,0.856,2.916,1.751c0.17,0.18,0.317,0.348,0.436,0.476
				c0.116,0.126,0.216,0.237,0.301,0.327c3.31,3.521,7.009,8.676,5.829,13.243c-0.171,0.655-0.559,1.413-1.081,1.848
				c0.289,0.131,0.577,0.265,0.866,0.396c0.049-0.118,0.104-0.237,0.175-0.359c2.347-4.077,0.031-9.1-2.624-12.46
				C67.628,44.731,66.086,42.969,64.272,41.643z"/>
			<path fill="#F2AB44" d="M62.809,39.994c0.008-0.009,0.017-0.014,0.026-0.018c-0.451-0.075-0.9-0.002-1.321,0.285
				c-1.497,1.02-1.358,4.016-1.229,5.257c0.044,0.431,0.085,0.866,0.128,1.299c0.073,0.753,0.156,1.524,0.247,2.294
				c0.072,0.216,0.103,0.46,0.111,0.721c0.295,0.875,0.491,1.928,0.435,2.637c0,0.001,0,0.01,0,0.014
				c0.063,0.298,0.123,0.602,0.182,0.912c0.121,0.643,0.247,1.285,0.401,1.919c0.18,0.07,0.363,0.138,0.544,0.206
				c-0.604-2.774-1.122-5.615-1.439-8.416C60.618,44.695,60.613,41.566,62.809,39.994z"/>
		</g>
		<g clip-path="url(#SVGID_2_)">
			<path fill="#FCBE59" d="M65.23,47.45c-1.127-1.247-3.23-3.569-4.933-2.413c-1.497,1.019-1.358,4.016-1.228,5.254
				c0.044,0.433,0.086,0.867,0.127,1.302c0.095,0.958,0.199,1.938,0.33,2.918c0.311,0.896,0.522,1.996,0.465,2.733
				c0,0.002,0,0.008,0,0.011c0.059,0.304,0.121,0.604,0.18,0.914c0.122,0.642,0.249,1.286,0.397,1.919
				c0.465,0.172,0.928,0.341,1.389,0.511c-0.25-0.852-0.427-1.761-0.596-2.656c-0.086-0.439-0.169-0.874-0.258-1.297
				c-0.364-1.695-0.535-3.464-0.701-5.171c-0.042-0.436-0.084-0.872-0.13-1.308c-0.176-1.696-0.025-3.632,0.706-4.128
				c0.687-0.467,2.073,0.851,2.915,1.75c0.171,0.182,0.321,0.347,0.437,0.474c0.114,0.127,0.216,0.237,0.301,0.329
				c3.31,3.519,7.009,8.675,5.827,13.244c-0.169,0.653-0.557,1.411-1.079,1.844c0.39,0.182,0.783,0.358,1.174,0.545
				c0.542-0.618,0.904-1.411,1.079-2.088c1.317-5.102-2.599-10.631-6.118-14.375C65.434,47.676,65.337,47.57,65.23,47.45z"/>
			<path fill="#F2AB44" d="M63.058,46.418c-1.692-1.235-2.388-0.674-2.632,0.512c-0.002,0.018,0,0.036,0,0.054
				c0.121-0.437,0.303-0.776,0.554-0.945c0.687-0.467,2.073,0.851,2.915,1.75c0.171,0.182,0.321,0.347,0.437,0.474
				c0.114,0.127,0.216,0.237,0.301,0.329c3.31,3.519,7.009,8.675,5.827,13.244c-0.169,0.653-0.557,1.411-1.079,1.844
				c0.288,0.133,0.574,0.267,0.863,0.4c0.05-0.123,0.107-0.241,0.178-0.36c2.346-4.079,0.029-9.101-2.624-12.461
				C66.411,49.503,64.873,47.745,63.058,46.418z"/>
			<path fill="#F2AB44" d="M61.592,44.765c0.009-0.005,0.021-0.011,0.027-0.018c-0.45-0.071-0.897,0-1.321,0.29
				c-1.497,1.019-1.358,4.016-1.228,5.254c0.044,0.433,0.086,0.867,0.127,1.302c0.075,0.753,0.155,1.523,0.245,2.291
				c0.071,0.218,0.104,0.461,0.114,0.721c0.294,0.876,0.489,1.927,0.436,2.64c0,0.002,0,0.008,0,0.011
				c0.059,0.304,0.121,0.604,0.18,0.914c0.122,0.642,0.249,1.286,0.397,1.919c0.185,0.068,0.367,0.14,0.549,0.204
				c-0.604-2.772-1.122-5.614-1.44-8.412C59.406,49.471,59.398,46.34,61.592,44.765z"/>
		</g>
		<g clip-path="url(#SVGID_2_)">
			<path fill="#F4A640" d="M30.714,47.629c0.004-0.04,0.013-0.076,0.017-0.115c-0.003-0.043-0.007-0.088-0.008-0.132L30.714,47.629z
				"/>
			<path fill="#F4A640" d="M50.38,39.623c-2.526-1.238-5.825-1.59-8.644-1.302c-3.542,0.365-10.076,1.979-11.005,9.193
				c0.038,0.555,0.238,0.982,0.748,1.35c0.202-0.099,0.406-0.163,0.648-0.232c-0.19-4.532,5.278-8.188,9.559-8.837
				c4.211-0.64,9.835,0.432,11.554,4.855C56.415,44.563,51.43,40.136,50.38,39.623z"/>
			<path fill="#DF901E" d="M53.476,43.272c-0.017-0.012-0.03-0.018-0.044-0.03c-0.775-0.651-1.353-1.508-2.137-2.14
				c-0.996-0.658-2.034-1.271-3.157-1.545c-1.208-0.294-2.444-0.427-3.668-0.623c-0.285,0.088-0.597,0.142-0.945,0.135
				c-6.326-0.08-11,3.86-12.261,9.604c0.069,0.065,0.132,0.131,0.215,0.19c0.202-0.099,0.406-0.163,0.648-0.232
				c-0.19-4.532,5.278-8.188,9.559-8.837c4.211-0.64,9.835,0.432,11.554,4.855c0.298-0.005,0.523-0.052,0.688-0.128
				c-0.178-0.283-0.312-0.616-0.386-1.014C53.527,43.424,53.497,43.352,53.476,43.272z"/>
		</g>
		<g clip-path="url(#SVGID_2_)">
			<path fill="#E89F28" d="M37.485,44.506c0.029-0.039,0.059-0.071,0.088-0.108c0.019-0.034,0.029-0.066,0.047-0.1L37.485,44.506z"
				/>
			<path fill="#E89F28" d="M51.737,42.292c-3.21-1.532-9.618-3.551-14.164,2.105c-0.263,0.499-0.326,0.971-0.08,1.559
				c0.224,0.022,0.431,0.071,0.677,0.139c2.195-3.971,8.764-4.245,12.759-2.57c3.929,1.646,8.173,5.487,7.34,10.16
				c2.755,1.577,0.803-4.797,0.174-5.784C56.93,45.53,54.297,43.514,51.737,42.292z"/>
			<path fill="#DF901E" d="M58.457,49.641c-0.509-1.08-1.079-2.143-1.896-2.959c-0.878-0.881-1.862-1.639-2.807-2.443
				c-0.29-0.072-0.582-0.19-0.878-0.375c-5.36-3.361-11.403-2.429-15.466,1.821c0.022,0.086,0.042,0.176,0.083,0.271
				c0.224,0.022,0.431,0.071,0.677,0.139c2.195-3.971,8.764-4.245,12.759-2.57c3.929,1.646,8.173,5.487,7.34,10.16
				c0.259,0.146,0.477,0.227,0.655,0.246c-0.003-0.333,0.052-0.688,0.195-1.063c0.031-0.08,0.044-0.159,0.065-0.237
				c-0.007-0.018-0.016-0.033-0.021-0.052C58.84,51.622,58.796,50.587,58.457,49.641z"/>
		</g>
		<g clip-path="url(#SVGID_2_)">
			<path fill="#F7B54B" d="M41.44,46.074c-3.21-1.531-9.616-3.55-14.165,2.105c-0.264,0.5-0.325,0.972-0.078,1.559
				c0.222,0.021,0.431,0.073,0.673,0.139c2.197-3.97,8.766-4.243,12.762-2.57c3.928,1.646,8.172,5.484,7.34,10.161
				c2.752,1.578,0.802-4.801,0.174-5.786C46.631,49.312,44,47.294,41.44,46.074z"/>
			<path fill="#F7B54B" d="M27.186,48.285c0.029-0.036,0.061-0.07,0.09-0.106c0.019-0.034,0.027-0.065,0.047-0.101L27.186,48.285z"
				/>
			<path fill="#E28F20" d="M48.16,53.425c-0.511-1.081-1.08-2.146-1.895-2.96c-0.881-0.881-1.862-1.64-2.81-2.444
				c-0.288-0.071-0.582-0.189-0.876-0.374c-5.358-3.361-11.403-2.431-15.468,1.819c0.025,0.09,0.045,0.177,0.086,0.272
				c0.222,0.021,0.431,0.073,0.673,0.139c2.197-3.97,8.766-4.243,12.762-2.57c3.928,1.646,8.172,5.484,7.34,10.161
				c0.257,0.146,0.474,0.224,0.652,0.245c-0.003-0.333,0.055-0.688,0.2-1.065c0.029-0.078,0.044-0.155,0.063-0.236
				c-0.007-0.017-0.015-0.03-0.021-0.05C48.542,55.404,48.497,54.371,48.16,53.425z"/>
		</g>
		<g clip-path="url(#SVGID_2_)">
			<g>
				<path fill="#FCBE59" d="M53.134,44.356c-1.332,0.018-1.933,0.555-2.204,1.004c-0.291,0.482-0.491,1.342,0.201,2.696
					c1,1.962,2.283,3.061,4.425,3.789c0.602,0.204,1.201,0.318,1.795,0.406c0.747-0.315,1.493-0.625,2.245-0.922
					c-0.131-0.022-0.263-0.048-0.388-0.064c-0.242-0.03-0.481-0.06-0.72-0.088c-0.887-0.103-1.726-0.202-2.542-0.477
					c-1.834-0.626-2.883-1.521-3.738-3.194c-0.336-0.662-0.425-1.219-0.239-1.521c0.156-0.259,0.578-0.411,1.184-0.418
					c0.07,0,0.143,0,0.213,0.005c2.276,0.078,4.238,1.936,6.02,3.944c0.458,0.513,0.836,0.971,1.155,1.443
					c0.382-0.151,0.766-0.297,1.149-0.445c-0.437-0.69-0.937-1.285-1.398-1.802C58.262,46.427,55.982,44.327,53.134,44.356z"/>
				<path fill="#FCBE59" d="M63.853,43.085c-0.245-0.067-0.48-0.139-0.703-0.209c-0.813-0.266-1.615-0.543-2.41-0.823
					c-2.475-0.857-5.03-1.749-7.756-2.15c-3.775-0.558-6.938-0.609-9.677-0.159l-0.312,0.049c-1.944,0.312-5.987,0.956-7.168,3.049
					c-0.416,0.735-0.443,1.557-0.086,2.437c0.366,0.901,1.403,1.29,2.318,1.63c0.422,0.156,0.819,0.303,1.08,0.474l0.171,0.11
					c1.292,0.839,2.515,1.629,4.013,2.292c0.692,0.305,1.422,0.565,2.127,0.817c1.04,0.368,2.12,0.751,3.064,1.282
					c1.304,0.738,2.768,1.975,2.612,3.03l0.291,0.044c0.305-0.147,0.609-0.295,0.916-0.438c-0.109-1.124-0.99-2.092-1.869-2.784
					c0.168,0.115,0.336,0.227,0.508,0.339c0.353,0.231,0.709,0.476,1.071,0.726c0.537,0.368,1.082,0.738,1.637,1.082
					c0.445-0.208,0.894-0.41,1.344-0.614c-0.778-0.429-1.543-0.95-2.295-1.467c-0.371-0.253-0.734-0.505-1.097-0.74
					c-1.452-0.95-2.818-2.083-4.138-3.179c-0.337-0.281-0.674-0.561-1.013-0.84c-1.319-1.081-2.576-2.558-2.405-3.426
					c0.158-0.819,2.073-0.855,3.303-0.812c0.249,0.009,0.472,0.021,0.645,0.031c0.169,0.008,0.318,0.018,0.444,0.022
					c4.828,0.17,11.082,1.227,13.459,5.3c0.342,0.585,0.602,1.398,0.534,2.074c0.404-0.148,0.809-0.297,1.215-0.441
					c-0.047-0.82-0.349-1.637-0.7-2.243c-2.653-4.551-9.331-5.723-14.464-5.904c-0.12-0.003-0.262-0.01-0.42-0.021
					c-1.682-0.09-4.811-0.258-5.205,1.759c-0.347,1.778,1.862,3.807,2.827,4.597c0.339,0.275,0.672,0.555,1.007,0.834
					c0.957,0.792,1.934,1.605,2.965,2.365c-0.215-0.14-0.411-0.256-0.575-0.35c-1.038-0.585-2.165-0.984-3.255-1.372
					c-0.717-0.252-1.392-0.492-2.044-0.78c-1.41-0.623-2.537-1.354-3.841-2.198l-0.171-0.113c-0.373-0.24-0.853-0.422-1.316-0.595
					c-0.683-0.252-1.453-0.54-1.619-0.948c-0.216-0.527-0.211-0.983,0.018-1.384c0.895-1.586,4.826-2.217,6.306-2.451L43.5,40.94
					c2.615-0.43,5.659-0.377,9.306,0.163c2.611,0.386,5.002,1.218,7.533,2.096c0.805,0.28,1.614,0.561,2.438,0.83
					c0.231,0.077,0.48,0.147,0.74,0.22c1.034,0.301,2.21,0.64,2.688,1.427c0.44,0.727,0.664,1.918,0.813,3
					c0.236-0.074,0.473-0.152,0.711-0.226c0.161-0.05,0.314-0.079,0.466-0.102c-0.167-1.156-0.427-2.427-0.956-3.3
					C66.519,43.855,65.038,43.429,63.853,43.085z"/>
			</g>
			<g>
				<path fill="#F2AB44" d="M46.842,50.627c-2.42-1.085-6.583-3.068-8.935-4.287c-2.007-1.043-1.797-1.339-2.035-3.563
					c-0.013,0.025-0.034,0.045-0.045,0.067c-0.416,0.735-0.443,1.557-0.086,2.437c0.366,0.901,1.403,1.29,2.318,1.63
					c0.422,0.156,0.819,0.303,1.08,0.474l0.171,0.11c1.292,0.839,2.515,1.629,4.013,2.292c0.692,0.305,1.422,0.565,2.127,0.817
					c1.04,0.368,2.12,0.751,3.064,1.282c1.304,0.738,2.768,1.975,2.612,3.03l0.291,0.044c0.155-0.076,0.31-0.15,0.468-0.224
					C50.971,52.076,49.198,51.684,46.842,50.627z"/>
			</g>
			<g>
				<path fill="#F2AB44" d="M52.594,42.524c-2.22-0.271-4.553-0.437-6.777-0.101c-2.071,0.313-2.166,1.202-1.508,2.215
					c0.014,0.016,0.025,0.027,0.039,0.041c-0.218-0.399-0.33-0.766-0.272-1.063c0.158-0.819,2.073-0.855,3.303-0.812
					c0.249,0.009,0.472,0.021,0.645,0.031c0.169,0.008,0.318,0.018,0.444,0.022c4.828,0.17,11.082,1.227,13.459,5.3
					c0.342,0.585,0.602,1.398,0.534,2.074c0.299-0.109,0.596-0.217,0.893-0.326c-0.047-0.121-0.092-0.245-0.125-0.379
					C62.023,44.979,56.841,43.042,52.594,42.524z"/>
			</g>
			<g>
				<path fill="#F2AB44" d="M54.242,45.233c-1.152-0.322-2.706,0.135-2.376,1.102c0.006-0.137,0.026-0.259,0.084-0.352
					c0.158-0.259,0.579-0.41,1.184-0.418c0.074-0.002,0.144,0,0.215,0.001c2.274,0.082,4.236,1.939,6.019,3.948
					c0.457,0.514,0.835,0.972,1.154,1.444c0.12-0.046,0.244-0.094,0.366-0.14C58.982,48.163,57.71,46.208,54.242,45.233z"/>
			</g>
			<path fill="#F2AB44" d="M50.939,45.347c-0.002,0.005-0.008,0.009-0.01,0.013c-0.291,0.482-0.491,1.342,0.201,2.696
				c1,1.962,2.283,3.061,4.425,3.789c0.602,0.204,1.201,0.318,1.795,0.406c0.061-0.027,0.124-0.052,0.187-0.076
				C53.951,51.009,50.79,48.731,50.939,45.347z"/>
			<path fill="#F2AB44" d="M43.618,42.282c0.001-0.01,0.003-0.021,0.005-0.032c-0.372,0.266-0.64,0.631-0.738,1.134
				c-0.347,1.778,1.862,3.807,2.827,4.597c0.339,0.275,0.672,0.555,1.007,0.834c0.584,0.484,1.182,0.971,1.79,1.454
				c0.262,0.135,0.515,0.328,0.754,0.584c0.143,0.11,0.275,0.221,0.421,0.327c-0.103-0.067-0.201-0.129-0.293-0.184
				c0.005,0.009,0.01,0.014,0.015,0.021c0.576,0.703,1.314,1.115,1.982,1.585c-0.283-0.321-0.604-0.611-0.926-0.865
				c0.168,0.115,0.336,0.227,0.508,0.339c0.353,0.231,0.709,0.476,1.071,0.726c0.537,0.368,1.082,0.738,1.637,1.082
				c0.176-0.08,0.354-0.161,0.531-0.241c-2.382-1.541-4.752-3.199-6.948-4.964C45.371,47.161,43.163,44.944,43.618,42.282z"/>
			<path fill="#F2AB44" d="M63.412,43.724c-2.817-1.01-5.598-2.219-8.496-2.983c-5.099-1.34-11.34-1.365-16.247,0.885
				c-0.238,0.129-0.481,0.246-0.732,0.351c-0.132,0.065-0.266,0.114-0.398,0.159c-0.422,0.472-0.632,0.927-0.701,1.409
				c0.016-0.037,0.025-0.071,0.042-0.103c0.895-1.586,4.826-2.217,6.306-2.451L43.5,40.94c2.615-0.43,5.659-0.377,9.306,0.163
				c2.611,0.386,5.002,1.218,7.533,2.096c0.805,0.28,1.614,0.561,2.438,0.83c0.231,0.077,0.48,0.147,0.74,0.22
				c1.034,0.301,2.21,0.64,2.688,1.427c0.44,0.727,0.664,1.918,0.813,3c0.22-0.067,0.438-0.141,0.657-0.209
				c-0.106-0.9-0.316-1.801-0.717-2.581C66.244,44.473,64.809,44.227,63.412,43.724z"/>
		</g>
		<g clip-path="url(#SVGID_2_)">
			<g>
				<path fill="#FCBE59" d="M57.155,46.685c-1.284,0.368-1.725,1.043-1.868,1.545c-0.153,0.544-0.123,1.422,0.897,2.551
					c1.479,1.634,3.004,2.359,5.262,2.504c0.633,0.038,1.245-0.008,1.84-0.076c0.636-0.5,1.278-0.993,1.926-1.479
					c-0.132,0.013-0.265,0.025-0.39,0.041c-0.244,0.031-0.482,0.067-0.719,0.103c-0.884,0.132-1.719,0.255-2.58,0.202
					c-1.934-0.123-3.178-0.716-4.439-2.107c-0.498-0.551-0.729-1.063-0.631-1.405c0.083-0.292,0.453-0.546,1.035-0.714
					c0.068-0.02,0.137-0.037,0.209-0.053c2.216-0.516,4.593,0.767,6.839,2.239c0.574,0.378,1.062,0.722,1.489,1.095
					c0.33-0.245,0.661-0.492,0.997-0.731c-0.604-0.553-1.243-0.996-1.823-1.377C62.643,47.345,59.9,45.912,57.155,46.685z"/>
				<path fill="#FCBE59" d="M70.951,43.671c-1.008-0.961-2.547-0.988-3.782-1.008c-0.253-0.003-0.5-0.007-0.73-0.019
					c-0.857-0.043-1.702-0.103-2.545-0.165c-2.611-0.18-5.311-0.372-8.047-0.052c-3.79,0.449-6.857,1.222-9.384,2.374l-0.287,0.131
					c-1.796,0.804-5.527,2.482-6.124,4.813c-0.208,0.816-0.022,1.619,0.552,2.374c0.589,0.773,1.69,0.877,2.664,0.969
					c0.449,0.04,0.87,0.078,1.168,0.176l0.195,0.06c1.465,0.473,2.85,0.918,4.466,1.164c0.752,0.117,1.522,0.175,2.269,0.234
					c1.103,0.085,2.242,0.173,3.295,0.441c1.45,0.371,3.187,1.18,3.313,2.242l0.291-0.037c0.255-0.224,0.513-0.44,0.768-0.66
					c-0.396-1.056-1.498-1.758-2.53-2.199c0.194,0.068,0.387,0.133,0.58,0.196c0.402,0.131,0.808,0.273,1.224,0.42
					c0.614,0.215,1.236,0.43,1.861,0.618c0.377-0.317,0.757-0.632,1.139-0.942c-0.867-0.211-1.74-0.519-2.597-0.819
					c-0.427-0.15-0.843-0.297-1.253-0.431c-1.652-0.535-3.265-1.274-4.825-1.986c-0.4-0.186-0.798-0.364-1.196-0.547
					c-1.557-0.696-3.153-1.799-3.218-2.68c-0.061-0.831,1.777-1.366,2.977-1.644c0.246-0.058,0.462-0.103,0.632-0.141
					c0.166-0.036,0.311-0.066,0.433-0.094c4.709-1.096,11.021-1.706,14.378,1.605c0.484,0.474,0.944,1.191,1.056,1.861
					c0.353-0.247,0.703-0.499,1.058-0.743c-0.259-0.78-0.763-1.489-1.26-1.979c-3.751-3.702-10.504-3.091-15.506-1.925
					c-0.116,0.027-0.254,0.056-0.411,0.09c-1.643,0.352-4.709,1.002-4.563,3.053c0.128,1.806,2.791,3.189,3.93,3.701
					c0.396,0.18,0.791,0.36,1.188,0.543c1.131,0.516,2.288,1.045,3.479,1.51c-0.243-0.079-0.462-0.14-0.646-0.187
					c-1.153-0.296-2.347-0.387-3.5-0.474c-0.758-0.06-1.473-0.115-2.178-0.224c-1.521-0.233-2.801-0.643-4.283-1.12l-0.195-0.063
					c-0.422-0.134-0.932-0.183-1.424-0.227c-0.723-0.068-1.543-0.144-1.808-0.496c-0.347-0.453-0.458-0.895-0.345-1.343
					c0.448-1.763,4.078-3.393,5.446-4.009l0.291-0.13c2.412-1.099,5.365-1.841,9.027-2.272c2.619-0.31,5.145-0.129,7.818,0.057
					c0.85,0.061,1.705,0.12,2.567,0.164c0.246,0.013,0.507,0.019,0.773,0.024c1.08,0.017,2.3,0.039,2.968,0.673
					c0.614,0.586,1.141,1.681,1.567,2.683c0.21-0.134,0.416-0.271,0.627-0.403c0.146-0.091,0.283-0.159,0.424-0.221
					C72.273,45.537,71.692,44.375,70.951,43.671z"/>
			</g>
			<g>
				<path fill="#F2AB44" d="M52.717,54.383c-2.619-0.415-7.154-1.244-9.745-1.808c-2.209-0.479-2.082-0.819-2.893-2.907
					c-0.007,0.025-0.02,0.054-0.027,0.078c-0.208,0.816-0.022,1.619,0.552,2.374c0.589,0.773,1.69,0.877,2.664,0.969
					c0.449,0.04,0.87,0.078,1.168,0.176l0.195,0.06c1.465,0.473,2.85,0.918,4.466,1.164c0.752,0.117,1.522,0.175,2.269,0.234
					c1.103,0.085,2.242,0.173,3.295,0.441c1.45,0.371,3.187,1.18,3.313,2.242l0.291-0.037c0.128-0.113,0.261-0.224,0.393-0.337
					C57.081,54.705,55.266,54.786,52.717,54.383z"/>
			</g>
			<g>
				<path fill="#F2AB44" d="M56.154,45.061c-2.214,0.317-4.508,0.763-6.569,1.669c-1.917,0.844-1.776,1.726-0.877,2.536
					c0.017,0.008,0.034,0.017,0.049,0.026c-0.316-0.325-0.52-0.653-0.542-0.954c-0.061-0.831,1.777-1.366,2.977-1.644
					c0.246-0.058,0.462-0.103,0.632-0.141c0.166-0.036,0.311-0.066,0.433-0.094c4.709-1.096,11.021-1.706,14.378,1.605
					c0.484,0.474,0.944,1.191,1.056,1.861c0.261-0.183,0.519-0.367,0.778-0.548c-0.077-0.104-0.153-0.21-0.224-0.334
					C65.896,44.967,60.392,44.452,56.154,45.061z"/>
			</g>
			<g>
				<path fill="#F2AB44" d="M56.446,48.927c-0.029-0.131-0.042-0.254-0.009-0.362c0.083-0.291,0.45-0.545,1.034-0.712
					c0.068-0.018,0.137-0.038,0.206-0.052c2.218-0.518,4.598,0.765,6.84,2.239c0.577,0.377,1.062,0.72,1.491,1.093
					c0.105-0.077,0.21-0.152,0.317-0.23c-2.532-2.067-4.272-3.623-7.875-3.659C57.256,47.232,55.875,48.082,56.446,48.927z"/>
			</g>
			<path fill="#F2AB44" d="M55.295,48.217c-0.002,0.003-0.006,0.008-0.008,0.013c-0.153,0.544-0.123,1.422,0.897,2.551
				c1.479,1.634,3.004,2.359,5.262,2.504c0.633,0.038,1.245-0.008,1.84-0.076c0.051-0.044,0.106-0.082,0.159-0.123
				C59.68,52.897,56.035,51.523,55.295,48.217z"/>
			<path fill="#F2AB44" d="M47.424,47.169c0-0.012,0-0.022,0-0.034c-0.292,0.354-0.452,0.777-0.417,1.287
				c0.128,1.806,2.791,3.189,3.93,3.701c0.396,0.18,0.791,0.36,1.188,0.543c0.691,0.313,1.394,0.63,2.107,0.937
				c0.288,0.062,0.583,0.184,0.884,0.368c0.161,0.066,0.324,0.14,0.488,0.205c-0.116-0.039-0.226-0.071-0.329-0.1
				c0.008,0.005,0.014,0.009,0.022,0.012c0.737,0.532,1.557,0.735,2.325,1.015c-0.358-0.236-0.745-0.433-1.122-0.594
				c0.194,0.068,0.387,0.133,0.58,0.196c0.402,0.131,0.808,0.273,1.224,0.42c0.614,0.215,1.236,0.43,1.861,0.618
				c0.15-0.126,0.301-0.25,0.447-0.374c-2.698-0.869-5.42-1.847-7.999-2.977C50.394,51.42,47.683,49.855,47.424,47.169z"/>
			<path fill="#F2AB44" d="M66.91,43.394c-2.981-0.238-5.981-0.682-8.979-0.662c-5.271,0.036-11.306,1.638-15.453,5.096
				c-0.198,0.182-0.4,0.361-0.612,0.528c-0.115,0.098-0.23,0.181-0.346,0.258c-0.286,0.563-0.371,1.059-0.308,1.544
				c0.005-0.041,0.001-0.075,0.014-0.114c0.448-1.763,4.078-3.393,5.446-4.009l0.291-0.13c2.412-1.099,5.365-1.841,9.027-2.272
				c2.619-0.31,5.145-0.129,7.818,0.057c0.85,0.061,1.705,0.12,2.567,0.164c0.246,0.013,0.507,0.019,0.773,0.024
				c1.08,0.017,2.3,0.039,2.968,0.673c0.614,0.586,1.141,1.681,1.567,2.683c0.195-0.124,0.388-0.249,0.58-0.374
				c-0.336-0.841-0.776-1.657-1.362-2.305C69.842,43.379,68.392,43.514,66.91,43.394z"/>
		</g>
		<g clip-path="url(#SVGID_2_)">
			<path fill="#FCBE59" d="M35.663,45.159c-1.218-0.54-1.992-0.301-2.426-0.01c-0.461,0.319-1.001,1.015-0.94,2.535
				c0.091,2.204,0.798,3.735,2.443,5.291c0.46,0.437,0.959,0.789,1.46,1.119c0.809,0.021,1.618,0.055,2.426,0.094
				c-0.108-0.073-0.218-0.148-0.326-0.217c-0.206-0.131-0.413-0.256-0.619-0.38c-0.76-0.464-1.481-0.903-2.111-1.496
				c-1.406-1.333-1.985-2.582-2.064-4.46c-0.031-0.741,0.119-1.282,0.416-1.482c0.252-0.172,0.696-0.132,1.25,0.113
				c0.064,0.029,0.128,0.059,0.194,0.092c2.033,1.021,3.041,3.529,3.825,6.096c0.2,0.657,0.353,1.231,0.445,1.794
				c0.409,0.024,0.822,0.049,1.232,0.076c-0.108-0.812-0.317-1.559-0.52-2.222C39.459,49.176,38.265,46.317,35.663,45.159z"/>
			<path fill="#F2AB44" d="M36.301,46.416c-0.912-0.773-2.515-1.005-2.619,0.012c0.063-0.122,0.133-0.225,0.224-0.286
				c0.252-0.169,0.697-0.131,1.252,0.113c0.066,0.03,0.13,0.061,0.193,0.093c2.035,1.023,3.042,3.528,3.827,6.097
				c0.201,0.658,0.354,1.23,0.445,1.795c0.13,0.007,0.26,0.018,0.389,0.022C39.389,51.056,39.048,48.745,36.301,46.416z"/>
			<path fill="#F2AB44" d="M33.253,45.144c-0.004,0.001-0.011,0.005-0.016,0.005c-0.461,0.319-1.001,1.015-0.94,2.535
				c0.091,2.204,0.798,3.735,2.443,5.291c0.46,0.437,0.959,0.789,1.46,1.119c0.068,0.002,0.135,0.003,0.2,0.003
				C33.628,51.546,31.708,48.157,33.253,45.144z"/>
		</g>
		<g clip-path="url(#SVGID_2_)">
			<path fill="#F7CD6F" d="M46.541,48.823c-0.116,0.027-0.254,0.056-0.413,0.089c-1.644,0.351-4.708,1.004-4.563,3.055
				c0.131,1.805,2.793,3.189,3.931,3.701c0.396,0.178,0.791,0.359,1.188,0.539c0.877,0.403,1.778,0.804,2.691,1.184
				c0.929,0.178,1.99,0.547,2.594,0.967c0,0,0.011,0.008,0.013,0.008c0.292,0.099,0.583,0.197,0.882,0.302
				c0.614,0.217,1.236,0.431,1.863,0.621c0.374-0.317,0.755-0.631,1.135-0.944c-0.864-0.211-1.739-0.517-2.597-0.818
				c-0.425-0.148-0.842-0.295-1.251-0.432c-1.653-0.535-3.265-1.274-4.827-1.987c-0.396-0.181-0.795-0.363-1.197-0.546
				c-1.553-0.694-3.152-1.796-3.216-2.679c-0.059-0.831,1.778-1.367,2.978-1.644c0.244-0.06,0.46-0.104,0.63-0.139
				c0.166-0.036,0.313-0.07,0.436-0.098c4.706-1.094,11.019-1.707,14.376,1.605c0.483,0.476,0.944,1.193,1.056,1.864
				c0.352-0.25,0.703-0.498,1.057-0.744c-0.259-0.78-0.76-1.489-1.261-1.982C58.295,47.046,51.545,47.659,46.541,48.823z"/>
			<path fill="#EFB754" d="M50.715,48.603c-2.216,0.318-4.509,0.768-6.569,1.673c-1.918,0.842-1.779,1.723-0.878,2.533
				c0.017,0.013,0.034,0.016,0.049,0.026c-0.318-0.327-0.521-0.652-0.543-0.953c-0.059-0.831,1.778-1.367,2.978-1.644
				c0.244-0.06,0.46-0.104,0.63-0.139c0.166-0.036,0.313-0.07,0.436-0.098c4.706-1.094,11.019-1.707,14.376,1.605
				c0.483,0.476,0.944,1.193,1.056,1.864c0.261-0.186,0.521-0.367,0.779-0.548c-0.079-0.102-0.154-0.214-0.223-0.334
				C60.455,48.509,54.95,47.995,50.715,48.603z"/>
			<path fill="#EFB754" d="M41.983,50.712c0-0.011,0-0.022-0.002-0.033c-0.289,0.354-0.45,0.779-0.416,1.288
				c0.131,1.805,2.793,3.189,3.931,3.701c0.396,0.178,0.791,0.359,1.188,0.539c0.69,0.318,1.396,0.633,2.108,0.938
				c0.222,0.05,0.45,0.146,0.68,0.266c0.907,0.186,1.912,0.543,2.497,0.947c0,0,0.011,0.008,0.013,0.008
				c0.292,0.099,0.583,0.197,0.882,0.302c0.614,0.217,1.236,0.431,1.863,0.621c0.147-0.128,0.299-0.249,0.448-0.375
				c-2.701-0.866-5.423-1.845-8.003-2.975C44.953,54.965,42.242,53.398,41.983,50.712z"/>
		</g>
		<g clip-path="url(#SVGID_2_)">
			<path fill="#F7CD6F" d="M62.78,48.576c-0.245-0.076-0.479-0.149-0.7-0.225c-0.809-0.281-1.605-0.572-2.396-0.865
				c-2.459-0.903-4.998-1.837-7.716-2.291c-3.762-0.625-6.926-0.734-9.672-0.332l-0.313,0.045c-1.949,0.274-6.001,0.848-7.221,2.92
				c-0.428,0.724-0.472,1.545-0.128,2.434c0.349,0.908,1.379,1.313,2.288,1.669c0.417,0.165,0.813,0.32,1.07,0.495l0.169,0.114
				c1.278,0.86,2.484,1.672,3.969,2.359c0.687,0.319,1.411,0.592,2.114,0.857c1.034,0.388,2.105,0.788,3.04,1.339
				c1.29,0.76,2.733,2.021,2.557,3.076l0.292,0.047c0.307-0.143,0.614-0.278,0.922-0.423c-0.044-0.59-0.31-1.141-0.675-1.638
				c-0.229-0.202-0.462-0.396-0.697-0.584c-0.637-0.413-1.253-0.857-1.87-1.295c-0.792-0.488-1.613-0.943-2.457-1.4
				c-0.23-0.086-0.459-0.174-0.686-0.256c-0.71-0.268-1.382-0.519-2.028-0.821c-1.398-0.646-2.512-1.397-3.799-2.267l-0.173-0.116
				c-0.369-0.247-0.844-0.434-1.305-0.616c-0.676-0.266-1.442-0.567-1.601-0.976c-0.202-0.535-0.191-0.988,0.044-1.388
				c0.922-1.567,4.864-2.124,6.346-2.334l0.319-0.043c2.62-0.384,5.664-0.276,9.301,0.33c2.604,0.433,4.979,1.306,7.494,2.231
				c0.8,0.295,1.603,0.593,2.419,0.874c0.232,0.08,0.482,0.154,0.739,0.234c1.029,0.317,2.197,0.677,2.658,1.474
				c0.429,0.732,0.633,1.931,0.763,3.014c0.236-0.067,0.476-0.143,0.714-0.213c0.164-0.047,0.318-0.073,0.469-0.095
				c-0.145-1.157-0.381-2.437-0.896-3.315C65.428,49.39,63.961,48.938,62.78,48.576z"/>
			<path fill="#EFB754" d="M45.636,55.808c-2.401-1.13-6.525-3.188-8.857-4.449c-1.988-1.078-1.773-1.368-1.969-3.601
				c-0.016,0.026-0.034,0.046-0.048,0.07c-0.428,0.724-0.472,1.545-0.128,2.434c0.349,0.908,1.379,1.313,2.288,1.669
				c0.417,0.165,0.813,0.32,1.07,0.495l0.169,0.114c1.278,0.86,2.484,1.672,3.969,2.359c0.687,0.319,1.411,0.592,2.114,0.857
				c1.034,0.388,2.105,0.788,3.04,1.339c1.29,0.76,2.733,2.021,2.557,3.076l0.292,0.047c0.153-0.071,0.311-0.143,0.466-0.213
				C49.736,57.328,47.973,56.904,45.636,55.808z"/>
			<path fill="#EFB754" d="M62.326,49.205c-2.798-1.061-5.556-2.324-8.44-3.137c-5.073-1.432-11.316-1.573-16.258,0.592
				c-0.241,0.121-0.486,0.236-0.737,0.337c-0.135,0.063-0.272,0.109-0.404,0.15c-0.43,0.462-0.648,0.917-0.726,1.397
				c0.018-0.036,0.023-0.071,0.045-0.106c0.922-1.567,4.864-2.124,6.346-2.334l0.319-0.043c2.62-0.384,5.664-0.276,9.301,0.33
				c2.604,0.433,4.979,1.306,7.494,2.231c0.8,0.295,1.603,0.593,2.419,0.874c0.232,0.08,0.482,0.154,0.739,0.234
				c1.029,0.317,2.197,0.677,2.658,1.474c0.429,0.732,0.633,1.931,0.763,3.014c0.22-0.065,0.439-0.133,0.661-0.196
				c-0.09-0.903-0.287-1.808-0.669-2.597C65.145,50.001,63.716,49.729,62.326,49.205z"/>
		</g>
	</g>
	<polygon fill="#F4D9A4" points="21.192,43.437 10.912,43.074 8.831,46.408 34.715,58.321 40.369,58.521 49.312,56.083 	"/>
	<polygon fill="#F4D9A4" points="79.725,43.704 87.589,45.831 85.42,49.825 66.687,58.42 60.702,59.238 49.312,56.083 	"/>
	<g>
		<g>
			<path fill="#96CC52" d="M50.918,50.604c-0.432,1.146-2.151,2.491-3.371,2.109c-0.737,0.049-2.232-0.492-2.353-1.032
				c-0.223-1.011,0.745-2.62,1.323-3.393c1.378-1.84,3.791-2.139,5.882-1.564c-0.054,0.598-0.539,1.274-0.791,1.846
				C51.318,49.235,51.166,49.952,50.918,50.604z"/>
			<path fill="#B7EA6E" d="M45.227,50.821c0.21-0.912,0.86-1.957,1.291-2.533c1.378-1.84,3.791-2.139,5.882-1.564
				c-0.017,0.179-0.072,0.37-0.148,0.555c-0.21-0.501-1.034-0.616-1.553-0.582c-0.382,0.021-0.802,0.065-1.205,0.149
				c-0.228,0.011-0.453,0.037-0.667,0.078c-0.173,0.032-0.188-0.009-0.348,0.063c-0.163,0.075-0.445,0.244-0.555,0.375
				c-0.721,0.402-1.475,1.018-1.591,1.667c-0.121,0.179-0.26,0.199-0.396,0.391C45.667,49.799,45.41,50.376,45.227,50.821z"/>
			<path fill="#B7EA6E" d="M52.278,46.695c0.042,0.011,0.082,0.019,0.122,0.029c-0.054,0.598-0.539,1.274-0.791,1.846
				c-0.291,0.665-0.443,1.381-0.691,2.033c-0.322,0.861-1.374,1.833-2.391,2.102c1.008-0.552,1.87-1.424,2.328-2.417
				c0.131-0.278,0.225-0.564,0.305-0.851c0.01-0.023,0.022-0.045,0.03-0.068c-0.005,0.014-0.01,0.029-0.015,0.046
				c0.157-0.464,0.347-0.912,0.486-1.38C51.916,47.604,52.135,47.179,52.278,46.695z"/>
			<path fill="#83B739" d="M46.783,50.854c0.274-0.339,0.761-0.389,0.944-0.786c0.335-0.726,0.835-1.026,1.419-1.488
				c0.453-0.359,0.996-0.598,1.5-0.868c0.316-0.169,0.525-0.453,0.822-0.629c-0.139,0.142-0.295,0.271-0.45,0.4
				c-0.231,0.194-0.382,0.395-0.579,0.615c-0.232,0.259-0.658,0.242-0.91,0.515c0.208,0.04,0.449-0.019,0.673,0.029
				c0.188,0.039,0.396,0.123,0.567,0.208c-0.154,0.101-0.474,0.09-0.663,0.115c-0.254,0.037-0.479,0.067-0.731,0.058
				c-0.211-0.007-0.462-0.092-0.662,0.001c-0.155,0.074-0.226,0.246-0.335,0.375c0.318,0.378,0.893,0.418,1.335,0.393
				c0.127-0.007,0.943,0.127,0.569,0.311c-0.156,0.077-0.459-0.062-0.609-0.096c-0.212-0.047-0.407-0.058-0.621-0.064
				c-0.261-0.007-0.706-0.095-0.909,0.107c0.115,0.13,0.275,0.167,0.431,0.228c0.227,0.094,0.416,0.215,0.624,0.332
				c-0.314,0.101-0.708-0.279-1.033-0.085c0.159,0.149,0.22,0.334,0.357,0.44c0.291,0.224,0.916,0.172,1.263,0.194
				c0.121,0.006,0.489-0.051,0.384,0.154c-0.095,0.178-0.617,0.125-0.769,0.125c-0.624-0.003-1.094-0.101-1.675-0.295
				c-0.178-0.062-0.384-0.151-0.564-0.042c-0.169,0.104-0.209,0.249-0.038,0.315c0.222,0.083,0.486,0.055,0.724,0.151
				c0.187,0.084,0.396,0.199,0.56,0.307c-0.189,0.194-1.044-0.308-1.17-0.057c-0.092,0.181,0.799,0.457,0.892,0.559
				c-0.125,0.137-0.914-0.043-1.11-0.1c-0.154-0.044-0.319-0.14-0.477-0.164c-0.177-0.022-0.799-0.046-0.959,0.016
				c0.075-0.087,0.42-0.407,0.433-0.511C46.221,51.354,46.567,51.123,46.783,50.854z"/>
			<path fill="#83B739" d="M49.995,47.042c-0.206,0.429-0.588,0.984-0.944,1.321l0.144-0.137c-0.11,0.179-0.284,0.448-0.446,0.563
				c0.126-0.327,0.44-0.565,0.641-0.86C49.555,47.688,49.739,47.177,49.995,47.042z"/>
			<path fill="#83B739" d="M48.067,48.425c0.028-0.305-0.04-0.721,0.119-0.984c0,0.25-0.015,0.499-0.021,0.75
				c-0.007,0.224,0.083,0.944-0.101,1.067l0.073-0.054c-0.031,0.229-0.125,0.342-0.268,0.521c-0.198,0.254-0.186,0.113-0.411-0.056
				c-0.281-0.216-0.736-0.503-0.852-0.806c0.273,0.228,0.56,0.394,0.821,0.637c0.144,0.131,0.225,0.271,0.376,0.202
				c0.127-0.054,0.18-0.229,0.207-0.345C48.075,49.061,48.04,48.731,48.067,48.425z"/>
			<path fill="#83B739" d="M46.591,50.179c-0.151-0.165-0.338-0.341-0.413-0.556c0.132,0.051,0.28,0.31,0.375,0.432
				c0.117,0.147,0.256,0.321,0.41,0.433l0.077-0.021c-0.235,0.281-0.279,0.479-0.67,0.377c-0.301-0.075-0.571-0.198-0.836-0.33
				c0.214-0.093,0.358,0.053,0.553,0.134c0.196,0.086,0.398,0.126,0.613,0.086c-0.014-0.02-0.033-0.026-0.042-0.046
				c0.034-0.091,0.176-0.151,0.169-0.248C46.821,50.356,46.646,50.242,46.591,50.179z"/>
		</g>
		<path opacity="0.48" fill="#608420" d="M45.582,52.128c0.002,0,0.002,0,0.002,0c0.02,0.014,0.039,0.027,0.059,0.038
			c0.311-0.274,0.655-0.505,0.99-0.753c0.459-0.499,0.892-1.016,1.251-1.586c0.685-1.104,0.607-2.32,1.904-3.324
			c-1.266,0.144-2.451,0.69-3.27,1.785c-0.031,0.042-0.065,0.089-0.101,0.138c-0.009,0.012-0.019,0.027-0.031,0.043
			c-0.025,0.038-0.052,0.076-0.08,0.117c-0.011,0.013-0.02,0.029-0.032,0.044c-0.037,0.056-0.073,0.113-0.112,0.169
			c-0.002,0.004-0.004,0.007-0.007,0.011c-0.034,0.054-0.069,0.111-0.105,0.17c-0.013,0.018-0.026,0.04-0.035,0.058
			c-0.028,0.044-0.056,0.09-0.083,0.135c-0.01,0.022-0.024,0.042-0.036,0.063c-0.038,0.064-0.073,0.127-0.108,0.195
			c-0.005,0.012-0.012,0.023-0.019,0.036c-0.03,0.056-0.059,0.11-0.085,0.164c-0.014,0.027-0.028,0.053-0.04,0.078
			c-0.022,0.045-0.042,0.09-0.064,0.135c-0.011,0.027-0.023,0.053-0.035,0.078c-0.032,0.066-0.06,0.134-0.088,0.2
			c-0.008,0.018-0.014,0.037-0.023,0.058c-0.02,0.051-0.038,0.101-0.056,0.154c-0.012,0.026-0.021,0.056-0.031,0.084
			c-0.015,0.045-0.03,0.086-0.042,0.13c-0.009,0.027-0.018,0.056-0.025,0.082c-0.018,0.063-0.036,0.129-0.052,0.192l0,0
			c-0.069,0.31-0.09,0.603-0.032,0.859c0.032,0.155,0.181,0.308,0.39,0.447H45.582z"/>
		<g>
			<path fill="#96CC52" d="M43.147,45.373c-0.983,1.099-1.458,3.68-0.374,4.772c0.359,0.815,1.769,2.11,2.41,1.938
				c1.203-0.322,2.383-2.254,2.887-3.303c1.196-2.493,0.173-5.233-1.606-7.147c-0.607,0.39-1.059,1.286-1.529,1.87
				C44.386,44.183,43.708,44.748,43.147,45.373z"/>
			<path fill="#B7EA6E" d="M46.083,51.567c0.857-0.731,1.612-2.003,1.987-2.788c1.196-2.493,0.173-5.233-1.606-7.147
				c-0.182,0.117-0.35,0.28-0.509,0.464c0.653-0.049,1.235,0.764,1.489,1.335c0.183,0.421,0.372,0.894,0.508,1.372
				c0.115,0.249,0.213,0.503,0.291,0.758c0.06,0.2,0.109,0.193,0.124,0.406c0.012,0.212-0.014,0.611-0.088,0.798
				c-0.03,0.994-0.271,2.139-0.899,2.626c-0.121,0.227-0.067,0.389-0.194,0.637C46.929,50.529,46.458,51.128,46.083,51.567z"/>
			<path fill="#B7EA6E" d="M46.563,41.744c-0.034-0.037-0.065-0.074-0.099-0.112c-0.607,0.39-1.059,1.286-1.529,1.87
				c-0.549,0.681-1.227,1.246-1.788,1.871c-0.737,0.826-1.189,2.486-0.91,3.724c0.025-1.384,0.476-2.791,1.283-3.833
				c0.224-0.292,0.474-0.552,0.74-0.799c0.018-0.024,0.037-0.048,0.058-0.071c-0.015,0.014-0.029,0.027-0.041,0.041
				c0.405-0.427,0.782-0.879,1.202-1.285C45.794,42.634,46.128,42.167,46.563,41.744z"/>
			<path fill="#83B739" d="M45.184,49.926c0.209-0.478-0.011-1.027,0.313-1.445c0.589-0.759,0.63-1.458,0.799-2.342
				c0.132-0.682,0.082-1.396,0.091-2.088c0.009-0.43,0.191-0.812,0.213-1.229c-0.07,0.232-0.121,0.469-0.174,0.707
				c-0.076,0.355-0.208,0.625-0.334,0.962c-0.15,0.391,0.108,0.835-0.04,1.257c-0.163-0.202-0.235-0.491-0.408-0.704
				c-0.147-0.178-0.354-0.356-0.537-0.487c-0.022,0.214,0.169,0.555,0.244,0.771c0.101,0.288,0.195,0.547,0.347,0.811
				c0.124,0.222,0.354,0.445,0.366,0.708c0.01,0.207-0.134,0.376-0.213,0.566c-0.582-0.128-0.943-0.721-1.161-1.205
				c-0.064-0.142-0.662-0.937-0.65-0.436c0.005,0.207,0.321,0.457,0.441,0.596c0.168,0.2,0.287,0.402,0.415,0.628
				c0.151,0.277,0.491,0.7,0.389,1.029c-0.205-0.049-0.332-0.198-0.483-0.332c-0.222-0.193-0.463-0.327-0.699-0.481
				c0.065,0.39,0.692,0.598,0.665,1.055c-0.249-0.088-0.481-0.047-0.668-0.137c-0.4-0.186-0.698-0.879-0.909-1.24
				c-0.077-0.124-0.22-0.55-0.38-0.321c-0.135,0.197,0.208,0.727,0.295,0.888c0.349,0.663,0.714,1.11,1.248,1.625
				c0.159,0.155,0.375,0.324,0.357,0.577c-0.02,0.239-0.151,0.362-0.315,0.218c-0.215-0.193-0.33-0.492-0.566-0.687
				c-0.193-0.157-0.43-0.314-0.638-0.434c-0.103,0.313,0.912,0.946,0.712,1.22c-0.144,0.202-0.932-0.595-1.09-0.638
				c-0.08,0.208,0.551,0.949,0.719,1.127c0.135,0.143,0.33,0.267,0.443,0.425c0.122,0.169,0.491,0.825,0.517,1.027
				c0.051-0.131,0.198-0.675,0.305-0.746C44.963,50.805,45.016,50.305,45.184,49.926z"/>
			<path fill="#83B739" d="M47.466,44.375c-0.343,0.46-0.723,1.174-0.885,1.745l0.064-0.234c-0.127,0.218-0.32,0.557-0.354,0.795
				c0.281-0.319,0.361-0.786,0.562-1.164C47.018,45.207,47.462,44.724,47.466,44.375z"/>
			<path fill="#83B739" d="M47.062,47.204c0.309-0.198,0.791-0.357,0.983-0.674c-0.27,0.137-0.525,0.291-0.785,0.44
				c-0.237,0.128-1.056,0.437-1.085,0.703l0.015-0.108c-0.225,0.161-0.292,0.325-0.408,0.575c-0.159,0.354-0.017,0.262,0.292,0.408
				c0.386,0.182,0.945,0.506,1.334,0.46c-0.394-0.168-0.732-0.379-1.136-0.525c-0.221-0.078-0.415-0.089-0.426-0.285
				c-0.01-0.164,0.143-0.32,0.252-0.411C46.379,47.55,46.75,47.404,47.062,47.204z"/>
			<path fill="#83B739" d="M46.009,49.758c0.262,0.066,0.554,0.169,0.826,0.129c-0.128-0.112-0.489-0.128-0.67-0.164
				c-0.225-0.04-0.483-0.093-0.694-0.194l-0.017-0.093c-0.167,0.406-0.355,0.564-0.03,0.925c0.249,0.278,0.53,0.502,0.818,0.708
				c-0.019-0.285-0.255-0.354-0.452-0.517c-0.196-0.162-0.354-0.354-0.428-0.606c0.025,0.004,0.046,0.019,0.071,0.021
				c0.076-0.088,0.064-0.274,0.172-0.32C45.691,49.608,45.912,49.731,46.009,49.758z"/>
		</g>
	</g>
	<polygon fill="#FF8500" points="70.05,42.984 79.446,5.489 78.1,4.666 68.764,42.043 	"/>
	<polygon fill="#E56A0E" points="81.156,5.359 79.446,5.489 70.05,42.984 70.897,43.612 	"/>
	<polygon fill="#FFAA00" points="78.1,4.666 79.691,4.561 81.156,5.359 79.446,5.489 	"/>
	<polygon fill="#FF8500" points="72.038,44.875 88.577,9.934 87.415,8.864 70.989,43.709 	"/>
	<polygon fill="#E56A0E" points="90.277,10.14 88.577,9.934 72.038,44.875 72.724,45.717 	"/>
	<polygon fill="#FFAA00" points="87.415,8.864 88.996,9.071 90.277,10.14 88.577,9.934 	"/>
</g>
</svg>
