<?xml version="1.0" encoding="utf-8"?>
<!-- Generator: Adobe Illustrator 13.0.0, SVG Export Plug-In . SVG Version: 6.00 Build 14948)  -->
<!DOCTYPE svg PUBLIC "-//W3C//DTD SVG 1.1//EN" "http://www.w3.org/Graphics/SVG/1.1/DTD/svg11.dtd">
<svg version="1.1" id="Layer_1" xmlns="http://www.w3.org/2000/svg" xmlns:xlink="http://www.w3.org/1999/xlink" x="0px" y="0px"
	 width="100px" height="100px" viewBox="0 0 100 100" enable-background="new 0 0 100 100" xml:space="preserve">
<g>
	<path fill="#E38A2F" d="M43.981,54.573c5.406,11.582,26.064,11.693,35.59,7.785c8.186-3.357,13.412-12.556,10.053-21.474
		c-3.338-8.859-10.643-10.23-21.273-10.23C55.183,29.421,36.071,37.613,43.981,54.573z"/>
	<path opacity="0.53" fill="#D3741E" d="M58.233,58.013c-3.516,0.34-8.713,0.168-13.02-1.342c6.795,9.482,25.445,9.344,34.357,5.688
		c8.186-3.357,13.412-12.556,10.053-21.474c-1.039-2.756-2.463-4.787-4.25-6.279c0.758,3.855-0.48,8.275-2.924,11.648
		C77.019,53.753,67.165,57.146,58.233,58.013z"/>
	<path opacity="0.47" fill="#D17019" d="M81.747,54.849c-8.461,6.379-22.018,5.719-30.967,0.66
		c-2.588-1.463-6.264-4.585-8.646-8.076c0.068,2.176,0.645,4.553,1.848,7.14c5.406,11.582,26.064,11.693,35.59,7.785
		c8.186-3.357,13.412-12.556,10.053-21.474c-0.531-1.408-1.164-2.627-1.893-3.684C89.376,43.537,87.319,50.646,81.747,54.849z"/>
	<path opacity="0.35" fill="#894509" d="M82.616,58.888c-0.297,0.213-0.596,0.416-0.896,0.607
		c-5.084,4.168-13.064,4.457-19.559,3.939c-0.707-0.057-1.443-0.141-2.197-0.254c-3.563-0.318-7.135-1.143-9.664-2.857
		c-0.377-0.256-0.73-0.52-1.074-0.787c-3.764-2.309-6.441-5.742-6.096-10.582c-0.402-4.535,1.375-9.18,4.67-12.809
		c-5.129,4.027-7.66,10.191-3.818,18.427c5.406,11.582,26.064,11.693,35.59,7.785c8.186-3.357,13.412-12.556,10.053-21.474
		c-0.99-2.621-2.328-4.586-3.996-6.059c2.387,2.637,3.715,6.025,3.504,9.969C88.845,50.228,87.21,55.575,82.616,58.888z"/>
	<path opacity="0.36" fill="#9B5012" d="M42.312,49.152c2.09,1.328,4.611-1.016,6.744-1.131c3.156-0.166,3.268,3.114,4.881,4.749
		c2.35,2.384,5.299,2.987,8.4,1.798c1.234-0.471,2.842-0.91,4.143-0.381c1.359,0.547,2.842,1.672,4.342,1.617
		c1.6-0.061,2.66-0.688,3.742-1.855c0.857-0.919,0.963-2.085,1.67-3.028c1.658-2.2,3.496-2.313,5.928-1.284
		c4.867,2.063,5.779-3.381,8.252-2.928c0.088,0.018,0.176-0.035,0.262-0.057c0.021-1.893-0.301-3.836-1.027-5.768
		c-3.34-8.859-10.645-10.23-21.277-10.23C56.696,29.56,40.349,35.882,42.312,49.152z"/>
	<path fill="#FFCC3E" d="M63.392,30.251c-2.715,0.146-6.359,0.861-8.908,1.629c-2.236,0.674-8.07,2.799-11.572,7.098
		c-1.504,1.74-3.025,5.213-1.832,7.473c1.748,3.309,5.375,0.971,7.836,0.605c3.068-0.461,3.287,1.727,4.742,3.762
		c1.494,2.088,4.291,3.595,6.939,3.052c1.625-0.334,1.984-1.468,3.732-1.3c1.637,0.156,2.803,0.966,4.219,1.624
		c2.809,1.303,5.699-0.338,6.779-3.054c0.42-1.057,0.66-2.586,1.822-3.084c0.938-0.402,2.984,0.049,3.855,0.369
		c1.205,0.443,2.148,1.309,3.607,0.902c1.922-0.535,2.549-3.137,4.256-3.568c1.387-0.355,2.35,0.555,3.086-1.066
		c0.461-1.012,0.111-2.631-0.236-3.602c-1.652-4.59-7.23-8.088-11.656-9.295C74.731,30.345,69.204,29.933,63.392,30.251z"/>
	<path fill="#FFAE2C" d="M75.804,46.96c-1.648,2.639-3.359,7.083-7.451,4.684c-0.369-0.277-0.734-0.564-1.09-0.855
		c-0.66,0.24-1.314,0.516-1.984,0.695c-1.738,0.473-3.428,0.504-5.203,0.193c-1.932-0.334-4.189-1.012-5.588-2.491
		c-1.059-1.119-1.676-2.865-2.791-3.85c-1.309-1.156-4.773,0.582-6.4,0.633c-1.473,0.049-3.168-0.201-4.273-1.287
		c-0.139-0.133-0.262-0.273-0.381-0.414c-0.041,0.777,0.074,1.531,0.416,2.182c1.744,3.309,5.375,0.971,7.834,0.605
		c3.068-0.461,3.291,1.727,4.746,3.762c1.492,2.088,4.287,3.595,6.936,3.052c1.627-0.334,1.98-1.468,3.734-1.3
		c1.637,0.156,2.803,0.966,4.221,1.624c2.807,1.303,5.699-0.338,6.775-3.054c0.424-1.057,0.664-2.586,1.822-3.084
		c0.941-0.402,2.988,0.049,3.859,0.369c1.203,0.443,2.145,1.309,3.604,0.902c1.92-0.535,2.549-3.137,4.26-3.568
		c1.383-0.355,2.348,0.555,3.086-1.066c0.143-0.314,0.199-0.693,0.207-1.088c-0.383,0.248-0.787,0.469-1.221,0.635
		c-1.045,0.404-2.129,0.402-3.152,0.125c-0.1,0.098-0.207,0.203-0.32,0.328c-0.604,0.662-1.277,1.188-2.082,1.588
		c-2.068,1.031-3.986,0.506-5.973-0.137c-0.23,0.025-0.461,0.049-0.691,0.063C77.745,46.269,76.388,46.027,75.804,46.96z"/>
	<path opacity="0.6" fill="#894509" d="M67.343,33.46c-2.666-0.008-11.725,1.219-11.93,5.455c0.104,2.41,4.031,4.039,5.262,4.408
		c2.551,0.76,5.717,0.66,8.438,0.523c2.709-0.139,11.518-2.395,10.061-6.816C77.751,32.714,70.739,33.468,67.343,33.46z"/>
	<path fill="#FFAE2C" d="M67.343,33.46c-2.666-0.008-11.725,1.219-11.93,5.455c0.035,0.805,0.496,1.525,1.139,2.139
		c1.285,1.221,2.928-1.064,3.75-0.818c1.678,0.498,2.451,2.752,4.229,2.059c2.775-1.088,0.762-3.955,2.852-3.955
		c2.021,0,2.174,2.6,4.338,2.6c2.885,0,2.104-1.969,3.68-2.26c1.369-0.254,3.363,1.074,3.799,0.172
		c0.252-0.523,0.16-1.25-0.025-1.82C77.751,32.714,70.739,33.468,67.343,33.46z"/>
	<path fill="#F9920B" d="M75.108,37.468c-1.916,0.816-3.453,1.014-5.463,0.318c-0.818-0.285-1.504-0.799-2.285-1.139
		c-0.672-0.291-1.494,1.641-1.676,1.965c-0.93,1.684-3.793,2.301-5.096,0.658c-0.084-0.107-0.158-0.199-0.227-0.281
		c-0.236,0.059-0.469,0.117-0.705,0.174c-0.943,0.17-1.975,0.408-2.932,0.135c-0.482-0.137-0.91-0.334-1.289-0.576
		c-0.01,0.064-0.02,0.129-0.023,0.193c0.035,0.805,0.496,1.525,1.139,2.139c1.285,1.221,2.928-1.064,3.75-0.818
		c1.678,0.498,2.451,2.752,4.229,2.059c2.775-1.088,0.762-3.955,2.852-3.955c2.021,0,2.174,2.6,4.338,2.6
		c2.885,0,2.104-1.969,3.68-2.26c1.369-0.254,3.363,1.074,3.799,0.172c0.066-0.146,0.109-0.311,0.129-0.482
		c-0.012-0.004-0.029-0.006-0.043-0.012C78.024,37.994,76.411,36.91,75.108,37.468z"/>
	<path fill="#FCCDC5" d="M56.47,35.203l-0.328,0.326c0.006-0.004,0.008-0.006,0.016-0.01C56.261,35.414,56.364,35.31,56.47,35.203z"
		/>
	<path fill="#FFF097" d="M55.413,45.914c2.152,1.492,4.537-1.412,6.732,0.168c4.242,3.045,11.348,1.027,13.813-2.447
		c-0.09-0.084-0.264-0.248-0.346-0.334c-0.363,0.098-0.762,0.266-1.129,0.346c-4.586,0.977-9.641,2.363-14.285,0.93
		c-2.143-0.662-4.799-1.83-6.004-3.855c-1.348-2.26,0.486-3.738,1.963-5.201c-0.008,0.004-0.01,0.006-0.016,0.01l0.328-0.326
		c-0.105,0.107-0.209,0.211-0.313,0.316c0.965-0.629,1.541-1.326,2.592-1.766c0.879-0.371,2.697-0.496,3.051-1.439
		c-1.381-0.48-3.9,0.049-5.297,0.49c-1.814,0.572-3.033,0.957-4.539,2.113c-1.324,1.02-2.883,1.432-4.252,2.76
		c-1.234,1.197-2.125,3.584,0.479,3.852c0.637,0.066,1.24-0.357,1.947-0.322c0.93,0.047,2.645,0.914,3.246,1.193
		C54.433,42.892,52.573,43.941,55.413,45.914z"/>
	<path fill="#D57DD8" d="M48.872,38.845c0.605-0.217,2.041-0.465,2.484-0.803c0.721-0.551-0.25-1.541-1.137-1.135l0.102,0.104
		c-0.721-0.041-1.646,0.521-2.141,1.057C47.267,39.064,47.856,39.21,48.872,38.845z"/>
	<path fill="#98D8D8" d="M64.077,31.527c-1.287,0.42-0.846,0.834,0.219,1.016c0.635,0.105,2.01,0.592,2.561,0.516
		c0.896-0.131,0.535-1.465-0.436-1.547l0.037,0.143C65.851,31.263,64.767,31.302,64.077,31.527z"/>
	<path fill="#98D8D8" d="M49.081,42.484c-1.285,0.42-0.846,0.836,0.219,1.016c0.633,0.107,2.01,0.594,2.559,0.516
		c0.9-0.129,0.537-1.465-0.436-1.547l0.039,0.141C50.854,42.218,49.772,42.257,49.081,42.484z"/>
	<path fill="#8BD69F" d="M74.708,33.582c-1.289,0.422-0.848,0.838,0.219,1.016c0.633,0.105,2.008,0.592,2.557,0.516
		c0.902-0.127,0.541-1.465-0.434-1.547l0.043,0.141C76.478,33.318,75.397,33.357,74.708,33.582z"/>
	<path fill="#8BD69F" d="M45.042,42c-0.6,1.219,0.006,1.191,0.881,0.559c0.521-0.379,1.828-1.02,2.158-1.469
		c0.537-0.73-0.67-1.408-1.408-0.771l0.127,0.068C46.095,40.55,45.368,41.351,45.042,42z"/>
	<path fill="#8BD69F" d="M62.157,48.652c-0.602,1.211,0.006,1.189,0.881,0.555c0.52-0.381,1.826-1.02,2.158-1.467
		c0.537-0.732-0.674-1.41-1.412-0.773l0.129,0.072C63.208,47.199,62.479,48,62.157,48.652z"/>
	<path fill="#8BD69F" d="M86.573,39.304l0.027,0.135c0.68,0.1,0.404-1.162-0.305-1.457c-0.432-0.18-1.24,0.051-1.658,0.039
		c-0.705-0.023-0.857,0.307,0.25,0.965C85.479,39.339,86.284,39.582,86.573,39.304z"/>
	<path fill="#8BD69F" d="M52.163,34.167c-0.705-0.021-0.859,0.311,0.248,0.969c0.596,0.354,1.4,0.592,1.688,0.32l0.027,0.135
		c0.676,0.096,0.404-1.164-0.303-1.459C53.39,33.951,52.583,34.181,52.163,34.167z"/>
	<path fill="#D57DD8" d="M56.907,45.287c-0.707-0.021-0.859,0.309,0.248,0.969c0.596,0.352,1.398,0.592,1.688,0.318l0.029,0.131
		c0.674,0.104,0.4-1.16-0.305-1.453C58.134,45.072,57.327,45.298,56.907,45.287z"/>
	<path fill="#D57DD8" d="M70.8,33.039c-0.375,0.283-0.584,1.096-0.811,1.451c-0.373,0.6-0.166,0.898,0.965,0.275
		c0.605-0.332,1.219-0.906,1.129-1.293l0.129,0.043C72.638,32.982,71.413,32.58,70.8,33.039z"/>
	<path fill="#D57DD8" d="M52.116,38.912c-0.377,0.287-0.588,1.098-0.811,1.453c-0.375,0.596-0.166,0.898,0.961,0.275
		c0.605-0.334,1.221-0.906,1.129-1.295l0.131,0.043C53.952,38.855,52.728,38.455,52.116,38.912z"/>
	<path fill="#D57DD8" d="M58.114,33.191l-0.082-0.105c-0.648,0.203,0.145,1.223,0.912,1.178c0.461-0.023,1.094-0.58,1.475-0.752
		c0.645-0.287,0.641-0.652-0.646-0.764C59.085,32.687,58.259,32.822,58.114,33.191z"/>
	<path fill="#D57DD8" d="M76.604,43.714l-0.084-0.105c-0.652,0.203,0.141,1.221,0.908,1.178c0.469-0.023,1.094-0.58,1.477-0.75
		c0.645-0.293,0.641-0.654-0.641-0.764C77.575,43.21,76.747,43.345,76.604,43.714z"/>
	<path fill="#D57DD8" d="M88.845,42.326c0.641-0.287,0.637-0.65-0.645-0.764c-0.689-0.061-1.518,0.072-1.66,0.443l-0.086-0.107
		c-0.65,0.207,0.143,1.223,0.91,1.182C87.833,43.054,88.46,42.496,88.845,42.326z"/>
	<path fill="#F46F14" d="M78.798,37.605l-0.086-0.107c-0.648,0.205,0.143,1.221,0.91,1.18c0.467-0.025,1.096-0.582,1.479-0.754
		c0.645-0.287,0.641-0.652-0.645-0.764C79.765,37.101,78.938,37.232,78.798,37.605z"/>
	<path fill="#F46F14" d="M56.593,49.33l-0.084-0.109c-0.652,0.207,0.143,1.225,0.908,1.184c0.467-0.027,1.096-0.582,1.479-0.754
		c0.643-0.289,0.639-0.656-0.645-0.768C57.562,48.824,56.733,48.958,56.593,49.33z"/>
	<path fill="#F46F14" d="M45.019,38.625c-0.652,0.225-1.354,0.68-1.336,1.08l-0.117-0.064c-0.516,0.449,0.625,1.057,1.307,0.709
		c0.416-0.213,0.766-0.973,1.049-1.285C46.392,38.539,46.241,38.208,45.019,38.625z"/>
	<path fill="#F46F14" d="M62.817,34.009c-0.654,0.225-1.357,0.682-1.336,1.08l-0.117-0.066c-0.516,0.453,0.621,1.059,1.303,0.713
		c0.418-0.213,0.768-0.979,1.051-1.289C64.188,33.923,64.036,33.591,62.817,34.009z"/>
	<path fill="#F46F14" d="M73.872,31.376L73.86,31.24c-0.662-0.168-0.518,1.115,0.156,1.479c0.414,0.225,1.238,0.08,1.654,0.131
		c0.699,0.092,0.889-0.223-0.148-0.988C74.97,31.451,74.19,31.13,73.872,31.376z"/>
	<path fill="#98D8D8" d="M80.786,34.144c-1.287,0.418-0.846,0.838,0.219,1.014c0.635,0.107,2.01,0.596,2.561,0.516
		c0.896-0.127,0.535-1.463-0.436-1.547l0.039,0.139C82.56,33.88,81.478,33.917,80.786,34.144z"/>
	<path fill="#98D8D8" d="M81.888,41.837c-0.77,1.115-0.164,1.176,0.789,0.674c0.568-0.299,1.959-0.748,2.346-1.143
		c0.639-0.646-0.457-1.49-1.283-0.965l0.119,0.086C83.138,40.55,82.3,41.24,81.888,41.837z"/>
	<path fill="#98D8D8" d="M69.062,49.439c-0.766,1.114-0.162,1.178,0.793,0.672c0.568-0.297,1.955-0.746,2.346-1.141
		c0.637-0.648-0.461-1.49-1.283-0.967l0.117,0.09C70.312,48.15,69.476,48.841,69.062,49.439z"/>
</g>
<g>
	<path fill="#E38A2F" d="M12.542,40.142c6.08,13.032,29.327,13.157,40.045,8.759c9.21-3.775,15.091-14.125,11.312-24.164
		c-3.758-9.966-11.977-11.512-23.942-11.512C25.144,11.84,3.641,21.06,12.542,40.142z"/>
	<path opacity="0.53" fill="#D3741E" d="M28.578,44.011c-3.961,0.386-9.805,0.191-14.653-1.509
		c7.645,10.665,28.637,10.511,38.662,6.398c9.21-3.775,15.091-14.125,11.312-24.164c-1.17-3.102-2.772-5.385-4.786-7.064
		c0.856,4.339-0.541,9.311-3.289,13.107C49.709,39.213,38.624,43.032,28.578,44.011z"/>
	<path opacity="0.47" fill="#D17019" d="M55.032,40.452c-9.521,7.178-24.776,6.432-34.842,0.742
		c-2.912-1.647-7.048-5.155-9.727-9.088c0.071,2.446,0.722,5.126,2.078,8.035c6.08,13.032,29.327,13.157,40.045,8.759
		c9.21-3.775,15.091-14.125,11.312-24.164c-0.602-1.584-1.311-2.954-2.133-4.142C63.619,27.722,61.305,35.721,55.032,40.452z"/>
	<path opacity="0.35" fill="#894509" d="M56.011,44.995c-0.334,0.24-0.669,0.466-1.01,0.684c-5.721,4.688-14.697,5.015-22.009,4.432
		c-0.792-0.062-1.62-0.158-2.472-0.281c-4.01-0.361-8.025-1.289-10.869-3.218c-0.424-0.287-0.825-0.583-1.214-0.888
		c-4.231-2.598-7.244-6.458-6.858-11.903c-0.447-5.104,1.549-10.33,5.254-14.414c-5.768,4.531-8.613,11.471-4.291,20.735
		c6.08,13.032,29.327,13.157,40.045,8.759c9.21-3.775,15.091-14.125,11.312-24.164c-1.115-2.95-2.621-5.16-4.498-6.813
		c2.684,2.964,4.178,6.774,3.943,11.215C63.018,35.249,61.182,41.269,56.011,44.995z"/>
	<path opacity="0.36" fill="#9B5012" d="M10.661,34.04c2.352,1.493,5.183-1.142,7.588-1.27c3.554-0.189,3.677,3.5,5.494,5.341
		c2.642,2.68,5.959,3.366,9.451,2.026c1.387-0.533,3.195-1.026,4.656-0.433c1.534,0.618,3.202,1.882,4.888,1.818
		c1.798-0.067,2.993-0.771,4.21-2.085c0.964-1.035,1.084-2.347,1.881-3.404c1.865-2.478,3.933-2.609,6.671-1.449
		c5.473,2.325,6.502-3.806,9.281-3.293c0.104,0.019,0.201-0.043,0.297-0.063c0.025-2.131-0.34-4.318-1.156-6.492
		c-3.755-9.966-11.976-11.512-23.94-11.512C26.848,11.997,8.454,19.11,10.661,34.04z"/>
	<path fill="#FCAA97" d="M34.379,12.772c-3.055,0.166-7.159,0.972-10.023,1.834c-2.514,0.759-9.08,3.149-13.021,7.987
		C9.645,24.552,7.932,28.456,9.276,31c1.962,3.72,6.044,1.095,8.813,0.682c3.453-0.515,3.701,1.945,5.339,4.233
		c1.682,2.35,4.826,4.048,7.806,3.433c1.829-0.377,2.229-1.649,4.202-1.457c1.843,0.174,3.15,1.085,4.746,1.824
		c3.16,1.466,6.415-0.381,7.626-3.434c0.477-1.193,0.744-2.914,2.05-3.472c1.06-0.455,3.36,0.055,4.343,0.415
		c1.354,0.496,2.414,1.467,4.058,1.011c2.158-0.598,2.868-3.524,4.787-4.015c1.563-0.396,2.646,0.624,3.473-1.197
		c0.518-1.136,0.129-2.957-0.266-4.053c-1.857-5.166-8.135-9.101-13.118-10.455C47.136,12.88,40.921,12.417,34.379,12.772z"/>
	<path fill="#F48071" d="M48.346,31.573c-1.856,2.973-3.782,7.97-8.385,5.273c-0.415-0.313-0.821-0.636-1.226-0.962
		c-0.739,0.27-1.479,0.578-2.235,0.782c-1.955,0.532-3.855,0.566-5.852,0.217c-2.176-0.377-4.713-1.14-6.287-2.803
		c-1.19-1.258-1.887-3.228-3.14-4.336c-1.477-1.299-5.378,0.657-7.201,0.716c-1.659,0.056-3.563-0.229-4.809-1.449
		c-0.155-0.15-0.293-0.307-0.43-0.466C8.737,29.424,8.862,30.269,9.25,31c1.965,3.72,6.045,1.095,8.818,0.682
		c3.451-0.515,3.7,1.945,5.337,4.233c1.681,2.35,4.823,4.048,7.806,3.433c1.829-0.377,2.23-1.649,4.2-1.457
		c1.843,0.174,3.151,1.085,4.745,1.824c3.161,1.466,6.415-0.381,7.629-3.434c0.473-1.193,0.744-2.914,2.049-3.472
		c1.06-0.455,3.36,0.055,4.342,0.415c1.354,0.496,2.414,1.467,4.057,1.011c2.158-0.598,2.868-3.524,4.787-4.015
		c1.563-0.396,2.646,0.624,3.473-1.197c0.166-0.354,0.227-0.779,0.238-1.224c-0.434,0.277-0.885,0.526-1.375,0.715
		c-1.174,0.453-2.395,0.451-3.547,0.141c-0.115,0.108-0.23,0.227-0.357,0.368c-0.682,0.745-1.442,1.34-2.345,1.789
		c-2.329,1.155-4.482,0.568-6.722-0.155c-0.26,0.027-0.52,0.054-0.778,0.067C50.528,30.793,49.001,30.525,48.346,31.573z"/>
	<path opacity="0.6" fill="#894509" d="M38.826,16.384c-3.001-0.007-13.19,1.372-13.423,6.142c0.112,2.71,4.533,4.542,5.916,4.957
		c2.874,0.857,6.436,0.744,9.497,0.587c3.047-0.151,12.959-2.691,11.318-7.668C50.535,15.544,42.649,16.395,38.826,16.384z"/>
	<path fill="#F48C7A" d="M38.826,16.384c-3.001-0.007-13.19,1.372-13.423,6.142c0.039,0.906,0.557,1.711,1.28,2.401
		c1.448,1.373,3.296-1.195,4.221-0.921c1.887,0.563,2.755,3.098,4.755,2.316c3.122-1.221,0.858-4.447,3.21-4.447
		c2.273,0,2.448,2.922,4.881,2.922c3.245,0,2.369-2.21,4.14-2.54c1.54-0.287,3.781,1.206,4.271,0.194
		c0.288-0.588,0.187-1.411-0.025-2.05C50.535,15.544,42.649,16.395,38.826,16.384z"/>
	<path fill="#EF736A" d="M47.563,20.895c-2.156,0.919-3.884,1.142-6.148,0.356c-0.918-0.319-1.689-0.895-2.573-1.28
		c-0.75-0.328-1.679,1.846-1.881,2.21c-1.051,1.896-4.271,2.59-5.737,0.743c-0.092-0.121-0.176-0.226-0.254-0.32
		c-0.262,0.067-0.528,0.136-0.789,0.199c-1.064,0.193-2.226,0.463-3.297,0.152c-0.547-0.157-1.03-0.377-1.455-0.651
		c-0.011,0.075-0.023,0.146-0.025,0.222c0.039,0.906,0.557,1.711,1.28,2.401c1.448,1.373,3.296-1.195,4.221-0.921
		c1.887,0.563,2.755,3.098,4.755,2.316c3.122-1.221,0.858-4.447,3.21-4.447c2.273,0,2.448,2.922,4.881,2.922
		c3.245,0,2.369-2.21,4.14-2.54c1.54-0.287,3.781,1.206,4.271,0.194c0.084-0.166,0.124-0.352,0.152-0.544
		c-0.019-0.003-0.034-0.006-0.053-0.01C50.844,21.486,49.029,20.268,47.563,20.895z"/>
	<path fill="#FCCDC5" d="M26.588,18.346l-0.364,0.366c0.004-0.005,0.009-0.009,0.016-0.011
		C26.355,18.584,26.473,18.465,26.588,18.346z"/>
	<path fill="#FFE2DE" d="M25.403,30.396c2.42,1.681,5.104-1.586,7.575,0.188c4.772,3.427,12.77,1.155,15.542-2.752
		c-0.101-0.096-0.297-0.281-0.389-0.375c-0.41,0.109-0.857,0.3-1.273,0.391c-5.159,1.094-10.844,2.658-16.071,1.043
		c-2.41-0.746-5.403-2.058-6.758-4.335c-1.511-2.545,0.549-4.208,2.21-5.854c-0.007,0.002-0.012,0.006-0.016,0.011l0.364-0.366
		c-0.115,0.119-0.232,0.238-0.349,0.355c1.085-0.707,1.735-1.491,2.914-1.987c0.989-0.415,3.04-0.56,3.438-1.619
		c-1.557-0.541-4.391,0.055-5.963,0.554c-2.036,0.644-3.413,1.071-5.106,2.378c-1.489,1.146-3.245,1.608-4.785,3.104
		c-1.389,1.347-2.392,4.035,0.54,4.335c0.715,0.075,1.395-0.402,2.191-0.363c1.042,0.051,2.973,1.026,3.651,1.344
		C24.3,26.994,22.205,28.177,25.403,30.396z"/>
	<path fill="#FFB600" d="M18.043,22.442c0.677-0.241,2.299-0.524,2.795-0.903c0.812-0.62-0.278-1.734-1.283-1.275l0.122,0.114
		c-0.816-0.044-1.855,0.589-2.41,1.19C16.234,22.689,16.899,22.855,18.043,22.442z"/>
	<path fill="#FFD16C" d="M35.147,14.209c-1.444,0.473-0.948,0.94,0.252,1.142c0.713,0.119,2.26,0.669,2.878,0.581
		c1.014-0.145,0.605-1.649-0.488-1.74l0.043,0.157C37.147,13.91,35.929,13.955,35.147,14.209z"/>
	<path fill="#FFD16C" d="M18.276,26.54c-1.45,0.47-0.952,0.937,0.25,1.142c0.712,0.118,2.258,0.664,2.875,0.579
		c1.015-0.147,0.608-1.649-0.488-1.741l0.046,0.16C20.273,26.238,19.055,26.283,18.276,26.54z"/>
	<path fill="#8BD69F" d="M47.109,16.524c-1.446,0.469-0.952,0.937,0.247,1.142c0.712,0.117,2.26,0.664,2.881,0.575
		c1.01-0.143,0.604-1.646-0.49-1.738l0.045,0.157C49.104,16.225,47.89,16.269,47.109,16.524z"/>
	<path fill="#8BD69F" d="M13.735,25.996c-0.676,1.365,0.004,1.338,0.99,0.624c0.579-0.425,2.059-1.15,2.428-1.649
		c0.606-0.826-0.753-1.589-1.586-0.87l0.145,0.08C14.918,24.364,14.097,25.263,13.735,25.996z"/>
	<path fill="#8BD69F" d="M32.992,33.476c-0.679,1.368,0.002,1.34,0.987,0.628c0.583-0.427,2.057-1.15,2.428-1.652
		c0.606-0.825-0.753-1.586-1.586-0.871l0.146,0.078C34.175,31.844,33.354,32.742,32.992,33.476z"/>
	<path fill="#8BD69F" d="M60.461,22.962l0.034,0.149c0.761,0.113,0.451-1.309-0.346-1.639c-0.483-0.202-1.393,0.053-1.865,0.039
		c-0.795-0.022-0.968,0.352,0.279,1.09C59.231,23,60.137,23.269,60.461,22.962z"/>
	<path fill="#8BD69F" d="M21.748,17.178c-0.796-0.021-0.968,0.352,0.276,1.094c0.671,0.396,1.574,0.667,1.902,0.358l0.029,0.15
		c0.761,0.11,0.452-1.308-0.342-1.639C23.128,16.938,22.216,17.191,21.748,17.178z"/>
	<path fill="#D57DD8" d="M27.081,29.689c-0.794-0.022-0.964,0.35,0.279,1.09c0.67,0.399,1.575,0.67,1.901,0.358l0.034,0.152
		c0.758,0.11,0.451-1.31-0.346-1.639C28.465,29.445,27.553,29.703,27.081,29.689z"/>
	<path fill="#D57DD8" d="M42.718,15.911c-0.422,0.317-0.662,1.232-0.912,1.632c-0.422,0.672-0.186,1.01,1.082,0.311
		c0.682-0.375,1.371-1.021,1.271-1.455l0.143,0.049C44.785,15.846,43.405,15.395,42.718,15.911z"/>
	<path fill="#D57DD8" d="M21.692,22.521c-0.42,0.315-0.663,1.231-0.912,1.632c-0.42,0.669-0.188,1.012,1.082,0.311
		c0.683-0.377,1.372-1.021,1.272-1.457l0.145,0.05C23.759,22.458,22.38,22.004,21.692,22.521z"/>
	<path fill="#D57DD8" d="M28.445,16.084l-0.094-0.125c-0.735,0.234,0.157,1.379,1.019,1.33c0.526-0.027,1.233-0.654,1.664-0.847
		c0.724-0.322,0.722-0.734-0.723-0.86C29.534,15.517,28.604,15.664,28.445,16.084z"/>
	<path fill="#D57DD8" d="M49.244,27.924l-0.093-0.122c-0.733,0.231,0.161,1.375,1.022,1.328c0.525-0.028,1.233-0.652,1.663-0.847
		c0.727-0.325,0.721-0.734-0.725-0.862C50.338,27.354,49.407,27.507,49.244,27.924z"/>
	<path fill="#D57DD8" d="M63.018,26.362c0.727-0.326,0.717-0.737-0.727-0.863c-0.773-0.065-1.705,0.084-1.866,0.501l-0.092-0.122
		c-0.734,0.233,0.157,1.377,1.021,1.332C61.879,27.178,62.588,26.554,63.018,26.362z"/>
	<path fill="#F7CFF9" d="M51.713,21.049L51.62,20.93c-0.733,0.229,0.159,1.372,1.021,1.324c0.528-0.027,1.233-0.653,1.661-0.847
		c0.727-0.324,0.723-0.735-0.722-0.86C52.805,20.479,51.874,20.632,51.713,21.049z"/>
	<path fill="#F7CFF9" d="M26.729,34.24l-0.096-0.121c-0.732,0.229,0.161,1.373,1.023,1.325c0.526-0.027,1.232-0.65,1.666-0.844
		c0.72-0.324,0.718-0.737-0.727-0.862C27.821,33.67,26.888,33.82,26.729,34.24z"/>
	<path fill="#F7CFF9" d="M13.709,22.197c-0.737,0.252-1.529,0.765-1.503,1.212l-0.135-0.07c-0.577,0.508,0.701,1.191,1.472,0.797
		c0.468-0.236,0.863-1.095,1.176-1.446C15.25,22.098,15.084,21.725,13.709,22.197z"/>
	<path fill="#F7CFF9" d="M33.733,16.999c-0.737,0.254-1.528,0.771-1.504,1.216l-0.135-0.072c-0.573,0.508,0.703,1.193,1.472,0.8
		c0.472-0.239,0.864-1.098,1.178-1.447C35.273,16.905,35.107,16.53,33.733,16.999z"/>
	<path fill="#F7CFF9" d="M46.174,14.037l-0.019-0.15c-0.741-0.188-0.578,1.253,0.182,1.664c0.461,0.249,1.394,0.087,1.861,0.147
		c0.787,0.102,0.998-0.254-0.168-1.112C47.403,14.121,46.528,13.765,46.174,14.037z"/>
	<path fill="#FFD16C" d="M53.95,17.152c-1.444,0.473-0.95,0.942,0.25,1.142c0.712,0.122,2.26,0.67,2.877,0.58
		c1.013-0.143,0.605-1.646-0.487-1.739l0.043,0.158C55.947,16.854,54.73,16.898,53.95,17.152z"/>
	<path fill="#FFD16C" d="M55.19,25.808c-0.867,1.255-0.186,1.327,0.889,0.762c0.642-0.34,2.203-0.844,2.641-1.284
		c0.719-0.729-0.52-1.68-1.443-1.089l0.13,0.1C56.597,24.364,55.654,25.14,55.19,25.808z"/>
	<path fill="#FFD16C" d="M40.762,34.364c-0.866,1.253-0.186,1.323,0.886,0.756c0.642-0.336,2.203-0.842,2.642-1.284
		c0.721-0.727-0.518-1.68-1.444-1.087l0.132,0.098C42.165,32.915,41.223,33.688,40.762,34.364z"/>
</g>
<g>
	<g>
		<path fill="#DC873B" d="M61.597,54.736c-7.607-3.939-29.668-7.795-37.949,6.518c-5.076,8.77-2.844,22.168,5.828,27.121
			c14.75,8.428,41.666,7.824,40.932-17.223C70.202,64.129,67.243,57.664,61.597,54.736z M55.452,69.586
			c-1.783,2.715-18.891,2.086-18.055-2.131c0.5-0.924,1.438-1.055,2.354-1.344C42.013,65.393,57.925,65.818,55.452,69.586z"/>
	</g>
	<g>
		<path fill="#D17A33" d="M67.919,69.373c-0.672,1.109-1.289,2.172-2.018,3.154c0.395,0.539,0.635,1.182,0.607,1.838
			c-0.219,4.924-4.781,8.689-8.867,10.793c-2.027,1.043-4.557,2.297-6.926,2.039c-3.416-0.375-6.68-0.389-10.098-0.533
			c-8.551-0.361-18.986-5.6-16.248-15.057c-0.104-0.148-0.207-0.299-0.314-0.445c-1.01-1.371-1.93-2.66-2.604-4.066
			c-1.695,8.049,1.125,17.34,8.023,21.279c14.75,8.428,41.666,7.824,40.932-17.223c-0.043-1.494-0.221-2.957-0.512-4.371
			C69.165,67.584,68.491,68.436,67.919,69.373z"/>
	</g>
	<path opacity="0.35" fill="#894509" d="M69.761,71.402c0.678,4.549-2.873,10.725-6.021,13.434
		c-5.137,4.406-11.139,6.326-17.859,5.709c-6.039-0.553-12.867-1.287-17.713-5.334c-2.533-2.119-4.049-4.41-4.893-6.938
		c-1.707-3.314-2.311-6.789-1.996-10.199c-1.305,7.832,1.553,16.584,8.197,20.375c14.75,8.428,41.666,7.826,40.93-17.221
		c-0.031-1.072-0.133-2.129-0.293-3.164C70.075,69.18,69.964,70.297,69.761,71.402z"/>
	<g opacity="0.36">
		<g>
			<g>
				<g>
					<path fill="#9B5012" d="M61.595,54.744c-7.605-3.939-29.668-7.793-37.947,6.516c-1.795,3.102-2.672,6.779-2.678,10.459
						c3.365,1.598,2.252,6.887,4.084,9.512c1.9,2.723,5.098,2.15,7.965,1.639c1.643-0.293,3.287-0.49,4.951-0.244
						c1.279,0.189,3.328,1.395,4.564,1.223c1.57-0.215,2.842-1.113,4.451-1.289c1.381-0.148,1.158-0.08,2.285,0.557
						c2.266,1.281,2.912,5.295,7.492,3.682c1.406-0.494,5.629-2.359,5.787-3.99c0.123-1.307-0.049-3.467,1.193-4.168
						c0.625-0.352,2.059-0.338,2.486-0.617c1.504-0.795,0.139-6.211,4.18-6.551c0-0.105,0-0.207-0.004-0.309
						C70.202,64.139,67.243,57.668,61.595,54.744z M55.452,69.596c-1.783,2.715-18.891,2.082-18.055-2.133
						c0.5-0.922,1.438-1.053,2.354-1.344C42.009,65.398,57.923,65.826,55.452,69.596z"/>
				</g>
			</g>
		</g>
	</g>
	<path fill="#71DB89" d="M61.597,54.736c-4.961-2.566-16.061-5.098-25.482-2.582c-0.705,0.209-1.412,0.43-2.088,0.66
		c-4.188,1.51-7.902,4.158-10.379,8.439c-1.324,2.283-2.141,4.881-2.488,7.559c0.039,0.4,0.107,0.789,0.221,1.15
		c0.559,1.777,2.314,1.773,3.063,3.322c0.68,1.406,0.129,3.355,0.506,4.885c0.383,1.543,1.465,2.723,2.729,3.67
		c1.67,1.258,2.754,1.186,4.66,0.479c1.709-0.631,3.357-0.885,5.191-0.939c0.91-0.025,1.684-0.033,2.451,0.412
		c0.682,0.393,1.145,1.111,1.963,1.299c2.029,0.459,2.838-2.049,4.834-2.082c1.783-0.029,3.166,0.82,4.207,2.266
		c1.283,1.775,1.613,2.992,4.09,2.809c2.496-0.191,5.271-1.422,6.371-3.727c0.59-1.244,0.615-4.455,1.967-4.928
		c0.906-0.32,1.949,0.564,2.758-0.367c0.521-0.6,0.311-1.904,0.381-2.664c0.072-0.77-0.004-2.221,0.559-2.801
		c0.576-0.594,1.67-0.426,2.381-0.627c0.381-0.111,0.67-0.258,0.883-0.432C70.017,63.754,67.077,57.574,61.597,54.736z
		 M55.452,69.586c-1.783,2.715-18.891,2.086-18.055-2.131c0.5-0.924,1.438-1.055,2.354-1.344
		C42.013,65.393,57.925,65.818,55.452,69.586z"/>
	<path fill="#51B764" d="M68.632,66.496c-0.117,1.961-1.105,3.162-2.418,4.5c-0.822,0.84-0.131,2.832-1.273,3.932
		c-0.77,0.744-2.764,2.178-3.145,3.045c-0.787,1.822-1.68,3.324-3.346,4.449c-2.879,1.945-5.76-0.629-8.271-1.756
		c-2.391-1.08-4.504,0.529-6.904,0.287c-1.605-0.16-3.65-1.328-5.211-1.309c-1.002,0.381-2.02,0.658-3.053,0.66
		c-1.98,0.594-4.055,1.176-5.789-0.094c-3.25-2.377-2.791-6.357-4.746-9.605c-0.025-0.008-0.047-0.018-0.072-0.029
		c-1.459-0.648-2.533-1.857-2.953-3.246c-0.105,0.508-0.199,1.023-0.266,1.541c0.041,0.398,0.109,0.787,0.219,1.15
		c0.563,1.775,2.318,1.773,3.068,3.32c0.676,1.41,0.127,3.357,0.506,4.885c0.381,1.541,1.463,2.723,2.725,3.67
		c1.672,1.262,2.756,1.186,4.656,0.482c1.715-0.633,3.363-0.887,5.195-0.939c0.91-0.025,1.684-0.037,2.451,0.406
		c0.682,0.396,1.143,1.113,1.963,1.301c2.029,0.461,2.84-2.045,4.834-2.08c1.781-0.029,3.168,0.82,4.209,2.264
		c1.281,1.775,1.611,2.994,4.088,2.809c2.5-0.189,5.275-1.418,6.371-3.729c0.594-1.242,0.613-4.453,1.965-4.928
		c0.91-0.314,1.953,0.568,2.762-0.363c0.52-0.6,0.309-1.904,0.383-2.664c0.07-0.77-0.008-2.219,0.557-2.801
		c0.574-0.594,1.67-0.426,2.379-0.627c0.383-0.111,0.67-0.258,0.887-0.434c-0.176-3.332-0.984-6.502-2.4-9.215
		C68.478,63.064,68.729,64.797,68.632,66.496z"/>
	<path fill="#B4F9C4" d="M62.126,68.363c-0.049-0.121-0.115-0.23-0.229-0.32C61.962,68.211,62.042,68.313,62.126,68.363z"/>
	<path fill="#B4F9C4" d="M62.446,62.309c0.49,1.736-0.145,4.555-1.537,5.713c-0.703,0.586-1.063,0.818-1.627,1.564
		c-0.596,0.795-1.23,1.061-2.131,1.471c-1.563,0.715-2.795,1.076-4.537,1.029c-1.361-0.039-2.303-0.148-3.65,0.252
		c-2.203,0.652-3.598,1.564-5.928,0.857c-1.252-0.379-2.318-0.814-3.486-1.35c-1.051-0.475-2.223-0.57-3.26-1.105
		c-0.867-0.445-2.053-1.43-2.295-2.447c-0.248-1.043,0.783-1.762,0.58-2.824c-0.232-1.191-1.549-1.137-2.1-2.018
		c-0.684-1.092,0.643-2.75,1.396-3.539c1.193-1.254,3.301-2.168,5.002-2.391c1.332-0.174,2.557,0.305,3.789,0.236
		c1.447-0.08,2.248-1.619,3.643-1.986c1.375-0.361,2.68-0.576,4.105-0.416c1.814,0.195,5.805,2.598,7.266,0.521
		c-1.111-1.063-3.438-1.596-4.908-1.865c-1.467-0.27-2.791-1.463-4.352-1.221l0.217-0.113c-2.184-0.264-4.172,0.197-6.271,0.533
		c-2.131,0.344-4.49,0.094-6.668,0.336c-1.717,0.193-5.619,0.875-6.557,2.627c-0.424,0.795-0.18,1.482-0.826,2.291
		c-0.477,0.59-1.131,0.938-1.602,1.518c-1.043,1.277-1.736,3.924-1.039,5.424c0.465,1,0.98,1.172,1.994,1.365
		c1.154,0.221,1.393,0.145,1.73,1.166c0.373,1.129,0.262,1.268,1.438,1.896c1.002,0.533,1.314,1.016,1.463,2.166
		c0.182,1.42-0.889,4.949,1.395,5.285c1.607,0.234,2.439-2.656,4.279-2.898c1.121-0.152,1.375,0.527,2.158,1.082
		c0.92,0.654,1.633,0.436,2.648,0.061c1.857-0.689,3.602-0.35,5.387,0.422c2.01,0.865,4.49,0.617,5.363-1.531
		c0.08-0.199,0.035-0.609,0.025-0.826c1.896,0.496,4.467-0.227,6.018-1.385c0.68-0.506,2.984-2.73,2.557-3.846
		c-0.084-0.051-0.164-0.152-0.229-0.32c0.113,0.09,0.18,0.199,0.229,0.32c0.387,0.242,0.902-0.623,1.039-1.004
		c0.318-0.916-0.006-1.664,0.041-2.574C63.229,64.396,64.146,61.203,62.446,62.309z"/>
	<g>
		<g>
			<g>
				<path fill="#DC873B" d="M48.138,61.145c-8.73-0.615-11.908,1.734-12.246,3.834c-0.408,2.541,1.361,3.217,1.662,3.484
					c-0.162-0.307-0.227-0.631-0.156-0.986c0.5-0.922,1.438-1.055,2.35-1.342c2.262-0.723,18.176-0.297,15.703,3.475
					c-0.086,0.129-0.217,0.252-0.371,0.367c1.586-0.449,3.328-1.133,3.699-2.834C59.456,64.045,52.202,61.438,48.138,61.145z"/>
			</g>
		</g>
	</g>
	<g opacity="0.39">
		<g>
			<g>
				<path fill="#9B5012" d="M48.103,61.119c-8.73-0.617-11.906,1.729-12.24,3.83c-0.223,1.381,0.197,2.207,0.678,2.721
					c0.213-0.357,0.506-0.691,0.891-0.986c1.014-0.768,2.17-1.586,3.26-2.248c1.277-0.779,2.602-0.334,3.928-0.029
					c1.248,0.287,2.445-0.215,3.688,0.469c0.387,0.211,1.299,0.43,0.936,0.537c0.42-0.078,1.74-0.318,2.131-0.566
					c2.408-1.523,3.648,0.229,3.535,2.629c2.693,0.965,1.08,1.564,0.512,2.105c-0.111,0.105-0.219,0.25-0.375,0.369
					c1.586-0.453,3.33-1.135,3.703-2.836C59.423,64.016,52.167,61.406,48.103,61.119z"/>
			</g>
		</g>
	</g>
	<path fill="#51B764" d="M55.579,62.701c-3.1-1.627-6.453-2.086-9.898-2.197c-3.568-0.115-13.391,1.359-9.227,7.066
		c-1.201-1.969,1.209-1.385,2.045-2.502c1.004-1.342,2.383-2.439,4.256-1.855c0.996,0.309,1.193,1.029,2.346,0.682
		c0.697-0.209,1.484-0.98,2.244-0.678c0.646,0.254,0.771,1.244,1.486,1.488c0.807,0.275,1.846-0.248,2.549-0.498
		c1.551-0.555,4.504-0.832,4.365,1.738c-0.018,0.305-0.516,0.689-0.469,0.99c0.098,0.59,0.355,0.289,0.732,0.623
		c0.607,0.543,0.98,0.789,0.971,1.705c1.045-0.498,2.633-1.934,2-3.48C58.479,64.551,56.728,63.301,55.579,62.701z"/>
</g>
</svg>
