<?xml version="1.0" encoding="utf-8"?>
<!-- Generator: Adobe Illustrator 13.0.0, SVG Export Plug-In . SVG Version: 6.00 Build 14948)  -->
<!DOCTYPE svg PUBLIC "-//W3C//DTD SVG 1.1//EN" "http://www.w3.org/Graphics/SVG/1.1/DTD/svg11.dtd">
<svg version="1.1" id="Layer_1" xmlns="http://www.w3.org/2000/svg" xmlns:xlink="http://www.w3.org/1999/xlink" x="0px" y="0px"
	 width="100px" height="100px" viewBox="0 0 100 100" enable-background="new 0 0 100 100" xml:space="preserve">
<g>
	<path fill="#996F41" d="M42.829,48.189v-0.004c0,0-0.058,0.004-0.105,0.004c-0.054,0-0.111-0.004-0.111-0.004v0.004
		c-1.688,0.032-13.518,0.125-15.897-2.934l5.127,45.41c0,0,2.103,2.518,10.771,2.561v0.005c0.037,0,0.072-0.001,0.111-0.001
		c0.035,0,0.066,0.001,0.105,0.001v-0.005c8.669-0.043,10.769-2.561,10.769-2.561l5.127-45.41
		C56.348,48.314,44.518,48.221,42.829,48.189z"/>
	<path opacity="0.52" fill="#845F3A" d="M42.816,48.189v-0.004c0,0-0.055,0.004-0.107,0.004c-0.052,0-0.11-0.004-0.11-0.004v0.004
		c-1.688,0.032-13.516,0.125-15.895-2.934l0.615,5.447c0.314-0.031,0.647-0.015,1.001,0.03c4.761,0.629,15.406,0.818,19.052,8.765
		c2.924,6.377,2.798,10.664,1.675,17.596c-1.534,9.473-9.577,12.685-17.638,9.853l0.421,3.72c0,0,2.101,2.518,10.767,2.561v0.005
		c0.04,0,0.072-0.001,0.11-0.001c0.037,0,0.071,0.001,0.107,0.001v-0.005c8.668-0.043,10.772-2.561,10.772-2.561l5.125-45.41
		C56.334,48.314,44.506,48.221,42.816,48.189z"/>
	<path opacity="0.57" fill="#C49E7A" d="M36.822,74.177c-0.059-8.726-0.407-17.448-0.486-26.172
		c-2.785-0.209-5.839-0.649-7.844-1.529c0.36,2.056,4.817,39.445,5.137,44.186c0.027,0.384,0.052,0.769,0.081,1.155
		c0.896,0.378,2.174,0.771,3.946,1.045c0.028-1.644,0.028-3.289-0.083-4.938C37.261,83.349,36.854,78.764,36.822,74.177z"/>
	<path opacity="0.65" fill="#845F3A" d="M42.829,48.189v-0.004c0,0-0.058,0.004-0.105,0.004c-0.054,0-0.111-0.004-0.111-0.004v0.004
		c-1.688,0.032-13.518,0.125-15.897-2.934l0.26,2.301c0.566,0.109,1.129,0.376,1.65,0.855c2.084,1.905,6.051,1.518,8.659,1.397
		c2.551-0.118,5.312,0.105,7.643,1.22c5.577,2.67,8.329,8.851,7.976,14.333c-0.441,6.85-2.012,16.997-6.032,22.692
		c-2.8,3.965-8.267,4.808-13.725,3.505c1.442,0.729,4.274,1.643,9.466,1.667v0.005c0.037,0,0.072-0.001,0.111-0.001
		c0.035,0,0.066,0.001,0.105,0.001v-0.005c8.669-0.043,10.769-2.561,10.769-2.561l5.127-45.41
		C56.348,48.314,44.518,48.221,42.829,48.189z"/>
	<path opacity="0.54" fill="#6D4929" d="M42.829,48.189v-0.004c0,0-0.058,0.004-0.105,0.004c-0.054,0-0.111-0.004-0.111-0.004v0.004
		c-1.688,0.032-13.518,0.125-15.897-2.934l0.26,2.301c0.566,0.109,1.129,0.376,1.65,0.855c0.125,0.112,0.255,0.216,0.392,0.314
		c8.226,2.15,16.63,0.013,24.921,1.857c1.516,0.338,2.854,0.843,4.018,1.484l0.77-6.812C56.348,48.314,44.518,48.221,42.829,48.189z
		"/>
	<path opacity="0.54" fill="#683B16" d="M51.457,75.19c-0.334,5.782-0.875,11.545-1.686,17.271c1.899-0.488,2.942-1.094,3.436-1.465
		c0.477-7.785,1.195-15.559,1.779-23.336c0.539-7.202,0.889-14.517,2.674-21.538c-1.277,0.749-3.256,1.224-5.357,1.532
		C51.639,56.818,51.988,66.019,51.457,75.19z"/>
	<path fill="#913F06" d="M12.305,13.581c1.737,0.337,2.115-2.542,1.102-3.416C12.365,10.086,11.359,13.396,12.305,13.581z"/>
	<path fill="#BECFD3" d="M42.723,39.183c-9.254,0-16.767,1.081-16.767,2.058c0,0.976,7.498,4.565,16.751,4.565
		s16.753-3.589,16.753-4.565C59.461,40.264,51.975,39.183,42.723,39.183z"/>
	<path fill="#97A9AA" d="M42.734,39.628c-9.253,0-16.768,1.081-16.768,2.056c0,0.208,0.335,0.527,0.944,0.904
		c0.197-0.107,0.412-0.2,0.646-0.277c5.902-1.905,12.32-1.916,18.467-1.813c4.27,0.071,8.691,0.368,12.639,2.011
		c0.525-0.342,0.813-0.632,0.813-0.824C59.475,40.709,51.988,39.628,42.734,39.628z"/>
	<path fill="#DCE8EA" d="M42.734,39.183c-9.253,0-16.768,1.081-16.768,2.058c0,0.204,0.335,0.525,0.944,0.902
		c0.197-0.105,0.412-0.202,0.646-0.277c5.902-1.903,12.32-1.917,18.467-1.815c4.27,0.073,8.691,0.37,12.639,2.014
		c0.525-0.344,0.813-0.634,0.813-0.823C59.475,40.264,51.988,39.183,42.734,39.183z"/>
	<path fill="#DCE8EA" d="M58.576,40.642c-4.168,2.286-8.719,3.121-13.752,3.17c-5.959,0.063-12.356,0.072-17.582-3.199
		c-0.035-0.021-0.065-0.044-0.099-0.066c-0.765,0.225-1.188,0.462-1.188,0.693c0,0.976,7.498,4.565,16.751,4.565
		s16.753-3.589,16.753-4.565C59.461,41.041,59.148,40.837,58.576,40.642z"/>
	<path fill="#B2CACE" d="M42.723,44.807h-0.004c-0.016,0.001-12.252,0.446-16.699-3.699l-1.375,3.699c0,0,3.98,4.03,18.063,4.019
		c14.083,0.011,18.089-4.019,18.089-4.019l-1.377-3.699C54.973,45.253,42.736,44.809,42.723,44.807z"/>
	<path fill="#97ADAF" d="M42.723,44.807h-0.004c-0.016,0.001-12.252,0.446-16.699-3.699l-1.375,3.699c0,0,0.131,0.133,0.424,0.344
		c2.201-1.098,4.651-0.708,7.179-0.277c4.005,0.684,7.778,1.226,11.851,1.014c5.278-0.275,11.095-0.98,15.687-3.796l-0.365-0.984
		C54.973,45.253,42.736,44.809,42.723,44.807z"/>
	<ellipse fill="#456063" cx="35.752" cy="42.116" rx="2.85" ry="0.722"/>
	<path fill="#FF8B00" d="M21.756,17.038c-1.184,0.423-1.868-0.021-1.868-0.021L33.977,42.68c1.275,0.39,3.221,0.059,3.221,0.059
		l-14.439-26.85C22.681,16.173,22.398,16.804,21.756,17.038z"/>
	<path fill="#FFC50B" d="M21.987,16.845l14.02,26.013c0.414-0.019,0.77-0.058,0.984-0.088L22.578,16.158
		C22.501,16.442,22.349,16.673,21.987,16.845z"/>
	<path fill="#F97203" d="M21.036,17.202c-0.735,0.078-1.148-0.186-1.148-0.186L33.977,42.68c0.332,0.102,0.708,0.153,1.083,0.176
		c-2.61-4.731-5.158-9.558-7.53-14.383C25.616,24.582,23.005,20.732,21.036,17.202z"/>
	<path fill="#FF8B00" d="M19.708,12.743l-6.302-2.578c0.236,0.215,0.252,1.334,0.006,1.974c-0.469,1.226-1.234,1.404-1.234,1.404
		l6.587,1.954c0.41,0.065,1.497-1.757,1.377-2.192C20.1,13.15,20.006,12.876,19.708,12.743z"/>
	<path fill="#FFC50B" d="M18.159,12.304c-0.908-0.356-1.784-0.79-2.672-1.196c-0.675-0.239-1.345-0.496-1.999-0.79
		c0.07,0.179,0.103,0.474,0.096,0.795c0.18,0.054,0.359,0.118,0.536,0.195c1.917,0.853,4.083,1.406,5.951,2.41
		c0.059-0.171,0.095-0.327,0.072-0.414c-0.021-0.08-0.059-0.19-0.129-0.298C19.398,12.772,18.777,12.548,18.159,12.304z"/>
	<path fill="#F97203" d="M13.264,12.465c-0.465,0.924-1.085,1.078-1.085,1.078l6.587,1.954c0.167,0.027,0.441-0.258,0.704-0.631
		c-1.782-0.816-3.51-1.676-5.44-2.105C13.755,12.702,13.499,12.596,13.264,12.465z"/>
	<path fill="#E26305" d="M19.708,12.743l-0.054-0.022c-0.103,0.822-0.342,1.734-0.84,2.011c-1.071,0.597-2.474-0.256-3.636-0.453
		c-0.805-0.139-3-0.736-3-0.736l6.587,1.954c0.41,0.065,1.497-1.757,1.377-2.192C20.1,13.15,20.006,12.876,19.708,12.743z"/>
	<path fill="#FF8B00" d="M22.694,14.922c-0.23-0.102-0.465-0.152-0.709-0.19c-0.048,0.473-0.396,0.822-0.884,1.134
		c-0.223,0.145-0.532,0.335-0.777,0.435c-0.213,0.09-0.666,0.162-0.666,0.162c-0.56,0.716,1.264,0.91,1.625,0.829
		c0.853-0.192,1.474-0.693,1.679-1.47C23.05,15.478,23.05,15.082,22.694,14.922z"/>
	<path fill="#E26305" d="M21.567,16.32c-0.498,0.289-1.037,0.435-1.615,0.437c-0.131-0.018-0.266-0.035-0.399-0.053
		c-0.031,0.518,1.41,0.661,1.729,0.589c0.853-0.192,1.474-0.693,1.679-1.47c0.078-0.297,0.073-0.627-0.16-0.813
		C22.524,15.55,22.098,16.01,21.567,16.32z"/>
	<path fill="#FF8B00" d="M21.695,13.495c-0.253-0.032-0.496-0.011-0.742,0.025c0.093,0.471-0.142,0.913-0.519,1.363
		c-0.172,0.206-0.417,0.483-0.622,0.652c-0.181,0.15-0.599,0.354-0.599,0.354c-0.329,0.861,1.494,0.506,1.822,0.319
		c0.767-0.442,1.219-1.11,1.186-1.922C22.207,13.925,22.087,13.54,21.695,13.495z"/>
	<path fill="#E26305" d="M21.827,13.543c-0.107,0.607-0.385,1.18-0.804,1.638c-0.399,0.429-0.875,0.732-1.436,0.904
		c-0.135,0.024-0.267,0.046-0.403,0.068c0.126,0.512,1.564,0.219,1.853,0.055c0.767-0.442,1.219-1.11,1.186-1.922
		C22.21,13.97,22.106,13.655,21.827,13.543z"/>
	<path fill="#FF8B00" d="M20.397,12.486c-0.247,0.051-0.469,0.148-0.689,0.257c0.226,0.412,0.138,0.896-0.087,1.434
		c-0.104,0.248-0.252,0.581-0.396,0.802c-0.127,0.196-0.459,0.518-0.459,0.518c-0.057,0.905,1.559,0.003,1.815-0.274
		c0.593-0.651,0.822-1.417,0.551-2.163C21.009,12.727,20.783,12.41,20.397,12.486z"/>
	<path fill="#E26305" d="M20.536,12.492c0.081,0.599-0.011,1.221-0.273,1.779c-0.247,0.524-0.612,0.954-1.086,1.291
		c-0.122,0.066-0.24,0.126-0.361,0.189c0.271,0.439,1.542-0.286,1.766-0.528c0.593-0.651,0.822-1.417,0.551-2.163
		C21.026,12.772,20.835,12.51,20.536,12.492z"/>
</g>
<g>
	<path fill="#996F41" d="M70.995,43.356v-0.004c0,0-0.058,0.004-0.105,0.004c-0.054,0-0.111-0.004-0.111-0.004v0.004
		c-1.688,0.032-13.519,0.125-15.897-2.934l5.127,45.41c0,0,2.103,2.518,10.771,2.561v0.005c0.036,0,0.071-0.001,0.111-0.001
		c0.034,0,0.066,0.001,0.105,0.001v-0.005c8.669-0.043,10.77-2.561,10.77-2.561l5.127-45.41
		C84.514,43.481,72.685,43.388,70.995,43.356z"/>
	<path opacity="0.52" fill="#845F3A" d="M70.982,43.356v-0.004c0,0-0.055,0.004-0.107,0.004c-0.052,0-0.109-0.004-0.109-0.004v0.004
		c-1.688,0.032-13.516,0.125-15.895-2.934l0.615,5.447c0.314-0.031,0.647-0.015,1.002,0.03c4.76,0.629,15.406,0.818,19.051,8.765
		c2.925,6.377,2.799,10.664,1.676,17.596c-1.534,9.473-9.576,12.685-17.638,9.853l0.421,3.72c0,0,2.102,2.518,10.768,2.561v0.005
		c0.039,0,0.072-0.001,0.109-0.001s0.071,0.001,0.107,0.001v-0.005c8.669-0.043,10.771-2.561,10.771-2.561l5.126-45.41
		C84.5,43.481,72.673,43.388,70.982,43.356z"/>
	<path opacity="0.57" fill="#C49E7A" d="M64.988,69.344c-0.059-8.726-0.406-17.448-0.486-26.172
		c-2.784-0.209-5.839-0.649-7.844-1.529c0.36,2.056,4.817,39.445,5.137,44.186c0.027,0.384,0.053,0.769,0.08,1.155
		c0.896,0.378,2.175,0.771,3.946,1.045c0.028-1.644,0.028-3.289-0.083-4.938C65.428,78.516,65.02,73.931,64.988,69.344z"/>
	<path opacity="0.65" fill="#845F3A" d="M70.995,43.356v-0.004c0,0-0.058,0.004-0.105,0.004c-0.054,0-0.111-0.004-0.111-0.004v0.004
		c-1.688,0.032-13.519,0.125-15.897-2.934l0.26,2.301c0.566,0.109,1.129,0.376,1.65,0.855c2.085,1.905,6.052,1.518,8.66,1.397
		c2.551-0.118,5.312,0.105,7.643,1.22c5.577,2.67,8.329,8.851,7.976,14.333c-0.441,6.85-2.013,16.997-6.032,22.692
		c-2.801,3.965-8.267,4.808-13.725,3.505c1.441,0.729,4.274,1.643,9.466,1.667v0.005c0.036,0,0.071-0.001,0.111-0.001
		c0.034,0,0.066,0.001,0.105,0.001v-0.005c8.669-0.043,10.77-2.561,10.77-2.561l5.127-45.41
		C84.514,43.481,72.685,43.388,70.995,43.356z"/>
	<path opacity="0.54" fill="#6D4929" d="M70.995,43.356v-0.004c0,0-0.058,0.004-0.105,0.004c-0.054,0-0.111-0.004-0.111-0.004v0.004
		c-1.688,0.032-13.519,0.125-15.897-2.934l0.26,2.301c0.566,0.109,1.129,0.376,1.65,0.855c0.125,0.112,0.256,0.216,0.393,0.314
		c8.225,2.15,16.629,0.013,24.921,1.857c1.516,0.338,2.854,0.843,4.018,1.484l0.77-6.812C84.514,43.481,72.685,43.388,70.995,43.356
		z"/>
	<path opacity="0.54" fill="#683B16" d="M79.624,70.357c-0.334,5.782-0.876,11.545-1.687,17.271
		c1.898-0.488,2.942-1.094,3.437-1.465c0.477-7.785,1.194-15.559,1.778-23.336c0.539-7.202,0.889-14.517,2.675-21.538
		c-1.277,0.749-3.256,1.224-5.357,1.532C79.806,51.985,80.154,61.186,79.624,70.357z"/>
	<path fill="#913F06" d="M40.471,8.748c1.737,0.337,2.115-2.542,1.102-3.416C40.531,5.253,39.525,8.563,40.471,8.748z"/>
	<path fill="#BECFD3" d="M70.89,34.35c-9.254,0-16.767,1.081-16.767,2.058c0,0.976,7.498,4.565,16.751,4.565
		c9.254,0,16.754-3.589,16.754-4.565C87.628,35.431,80.142,34.35,70.89,34.35z"/>
	<path fill="#97A9AA" d="M70.9,34.795c-9.253,0-16.768,1.081-16.768,2.056c0,0.208,0.335,0.527,0.943,0.904
		c0.197-0.107,0.412-0.2,0.646-0.277c5.902-1.905,12.32-1.916,18.467-1.813c4.271,0.071,8.691,0.368,12.639,2.011
		c0.525-0.342,0.813-0.632,0.813-0.824C87.641,35.876,80.154,34.795,70.9,34.795z"/>
	<path fill="#DCE8EA" d="M70.9,34.35c-9.253,0-16.768,1.081-16.768,2.058c0,0.204,0.335,0.525,0.943,0.902
		c0.197-0.105,0.412-0.202,0.646-0.277c5.902-1.903,12.32-1.917,18.467-1.815c4.271,0.073,8.691,0.37,12.639,2.014
		c0.525-0.344,0.813-0.634,0.813-0.823C87.641,35.431,80.154,34.35,70.9,34.35z"/>
	<path fill="#DCE8EA" d="M86.743,35.809c-4.168,2.286-8.72,3.121-13.753,3.17c-5.959,0.063-12.355,0.072-17.581-3.199
		c-0.035-0.021-0.065-0.044-0.099-0.066c-0.765,0.225-1.188,0.462-1.188,0.693c0,0.976,7.498,4.565,16.751,4.565
		c9.254,0,16.754-3.589,16.754-4.565C87.628,36.208,87.315,36.004,86.743,35.809z"/>
	<path fill="#B2CACE" d="M70.89,39.974h-0.004c-0.016,0.001-12.252,0.446-16.699-3.699l-1.376,3.699c0,0,3.98,4.03,18.063,4.019
		c14.084,0.011,18.089-4.019,18.089-4.019l-1.376-3.699C83.14,40.42,70.902,39.976,70.89,39.974z"/>
	<path fill="#97ADAF" d="M70.89,39.974h-0.004c-0.016,0.001-12.252,0.446-16.699-3.699l-1.376,3.699c0,0,0.132,0.133,0.424,0.344
		c2.201-1.098,4.651-0.708,7.18-0.277c4.005,0.684,7.777,1.226,11.851,1.014c5.278-0.275,11.096-0.98,15.688-3.796l-0.365-0.984
		C83.14,40.42,70.902,39.976,70.89,39.974z"/>
	<ellipse fill="#456063" cx="63.919" cy="37.283" rx="2.851" ry="0.722"/>
	<path fill="#FF8B00" d="M49.922,12.205c-1.184,0.423-1.867-0.021-1.867-0.021l14.089,25.664c1.275,0.39,3.222,0.059,3.222,0.059
		l-14.439-26.85C50.848,11.34,50.564,11.971,49.922,12.205z"/>
	<path fill="#FFC50B" d="M50.153,12.012l14.02,26.013c0.413-0.019,0.771-0.058,0.983-0.088L50.744,11.325
		C50.668,11.609,50.516,11.84,50.153,12.012z"/>
	<path fill="#F97203" d="M49.203,12.369c-0.735,0.078-1.148-0.186-1.148-0.186l14.089,25.664c0.332,0.102,0.708,0.153,1.083,0.176
		c-2.61-4.731-5.158-9.558-7.53-14.383C53.782,19.749,51.172,15.899,49.203,12.369z"/>
	<path fill="#FF8B00" d="M47.875,7.91l-6.302-2.578c0.236,0.215,0.252,1.334,0.006,1.974C41.11,8.532,40.345,8.71,40.345,8.71
		l6.587,1.954c0.41,0.065,1.497-1.757,1.378-2.192C48.266,8.317,48.172,8.043,47.875,7.91z"/>
	<path fill="#FFC50B" d="M46.326,7.471c-0.908-0.356-1.784-0.79-2.672-1.196c-0.675-0.239-1.345-0.496-1.999-0.79
		c0.07,0.179,0.103,0.474,0.096,0.795c0.18,0.054,0.359,0.118,0.536,0.195c1.917,0.853,4.083,1.406,5.951,2.41
		c0.059-0.171,0.096-0.327,0.072-0.414c-0.021-0.08-0.06-0.19-0.13-0.298C47.565,7.939,46.944,7.715,46.326,7.471z"/>
	<path fill="#F97203" d="M41.431,7.632c-0.465,0.924-1.085,1.078-1.085,1.078l6.587,1.954c0.167,0.027,0.441-0.258,0.704-0.631
		c-1.782-0.816-3.51-1.676-5.44-2.105C41.922,7.869,41.666,7.763,41.431,7.632z"/>
	<path fill="#E26305" d="M47.875,7.91l-0.054-0.022c-0.103,0.822-0.342,1.734-0.84,2.011c-1.071,0.597-2.474-0.256-3.636-0.453
		c-0.805-0.139-3-0.736-3-0.736l6.587,1.954c0.41,0.065,1.497-1.757,1.378-2.192C48.266,8.317,48.172,8.043,47.875,7.91z"/>
	<path fill="#FF8B00" d="M50.86,10.089c-0.229-0.102-0.465-0.152-0.71-0.19c-0.047,0.473-0.396,0.822-0.884,1.134
		c-0.224,0.145-0.532,0.335-0.776,0.435c-0.214,0.09-0.667,0.162-0.667,0.162c-0.56,0.716,1.264,0.91,1.625,0.829
		c0.854-0.192,1.475-0.693,1.679-1.47C51.217,10.645,51.217,10.249,50.86,10.089z"/>
	<path fill="#E26305" d="M49.734,11.487c-0.498,0.289-1.037,0.435-1.615,0.437c-0.131-0.018-0.266-0.035-0.399-0.053
		c-0.031,0.518,1.409,0.661,1.729,0.589c0.854-0.192,1.475-0.693,1.679-1.47c0.077-0.297,0.073-0.627-0.159-0.813
		C50.691,10.717,50.265,11.177,49.734,11.487z"/>
	<path fill="#FF8B00" d="M49.861,8.662c-0.253-0.032-0.496-0.011-0.742,0.025c0.094,0.471-0.141,0.913-0.518,1.363
		c-0.172,0.206-0.417,0.483-0.623,0.652c-0.181,0.15-0.598,0.354-0.598,0.354c-0.329,0.861,1.495,0.506,1.823,0.319
		c0.767-0.442,1.219-1.11,1.186-1.922C50.373,9.092,50.254,8.707,49.861,8.662z"/>
	<path fill="#E26305" d="M49.993,8.71c-0.106,0.607-0.385,1.18-0.804,1.638c-0.399,0.429-0.875,0.732-1.436,0.904
		c-0.135,0.024-0.267,0.046-0.403,0.068c0.126,0.512,1.564,0.219,1.853,0.055c0.767-0.442,1.219-1.11,1.186-1.922
		C50.377,9.137,50.272,8.822,49.993,8.71z"/>
	<path fill="#FF8B00" d="M48.564,7.653c-0.247,0.051-0.47,0.148-0.689,0.257c0.227,0.412,0.138,0.896-0.087,1.434
		c-0.104,0.248-0.252,0.581-0.396,0.802c-0.127,0.196-0.459,0.518-0.459,0.518c-0.057,0.905,1.559,0.003,1.815-0.274
		c0.592-0.651,0.821-1.417,0.551-2.163C49.176,7.894,48.949,7.577,48.564,7.653z"/>
	<path fill="#E26305" d="M48.703,7.659c0.08,0.599-0.012,1.221-0.273,1.779c-0.248,0.524-0.612,0.954-1.087,1.291
		c-0.122,0.066-0.24,0.126-0.361,0.189c0.271,0.439,1.542-0.286,1.767-0.528c0.592-0.651,0.821-1.417,0.551-2.163
		C49.193,7.939,49.002,7.677,48.703,7.659z"/>
</g>
</svg>
