<?xml version="1.0" encoding="utf-8"?>
<!-- Generator: Adobe Illustrator 13.0.0, SVG Export Plug-In . SVG Version: 6.00 Build 14948)  -->
<!DOCTYPE svg PUBLIC "-//W3C//DTD SVG 1.1//EN" "http://www.w3.org/Graphics/SVG/1.1/DTD/svg11.dtd">
<svg version="1.1" id="Layer_1" xmlns="http://www.w3.org/2000/svg" xmlns:xlink="http://www.w3.org/1999/xlink" x="0px" y="0px"
	 width="100px" height="100px" viewBox="0 0 100 100" enable-background="new 0 0 100 100" xml:space="preserve">
<g>
	<g>
		<path fill="#EA9807" d="M43.043,8.603c-0.411,0.007-2.173,0.164-3.026,1.095c-0.44,0.485-1.613,1.258-1.629,1.878l0.02,0.113
			c1.279,1.083,4.05,0.619,5.636,0.502c1.261-0.092,1.623-0.258,2.204-1.411c0.336-0.666,1.034-1.428,0.6-2.095
			C46.849,8.685,44.387,8.577,43.043,8.603z"/>
		<path fill="#C17A08" d="M44.577,11.43c0.774,4.246,0.618,10.377,1.138,14.876c0.945,8.176,3.998,16.243,5.953,24.144l1.458-1.512
			c0.064-1.862-4.903-39.104-6.276-40.253C46.193,9.253,45.054,11.088,44.577,11.43z"/>
		<path fill="#D88809" d="M38.387,11.584c0.829,6.249,3.401,12.26,5.048,18.316c1.082,3.976,3.281,17.565,4.522,20.196
			c0.769,0.069,2.941,0.452,3.71,0.354c0.493-2.959-6.142-37.7-6.938-39.194C42.002,12.142,39.377,11.819,38.387,11.584z"/>
		<path fill="#F4AA06" d="M50.149,38.756c0.478,2.827,0.822,4.918,0.887,5.405C51.032,43.693,50.678,41.612,50.149,38.756z"/>
		<path fill="#F4AA06" d="M39.89,11.896c0.586-0.021,1.167,0.064,1.763,0.09c0.527,0.025,1.076,0.123,1.618-0.027
			c0.418-0.116,1.006-0.397,1.477-0.298c0.211,0.879,0.385,1.654,0.544,2.558c0.237,1.335,0.605,2.581,0.866,3.92
			c1.015,5.21,2.888,14.625,3.992,20.617c-1.294-7.686-3.567-20.823-3.894-22.173c-0.167-0.7-0.708-3.43-0.934-4.078
			c-0.2-0.564-0.266-1.013,0.011-1.579c0.356-0.731,1.016-1.646,1.516-2.241c-0.362,0.237-1.062,1.024-1.345,1.357
			c-0.337,0.398-0.573,0.89-1.05,1.081c-0.548,0.225-1.387,0.165-1.993,0.271c-0.675,0.122-1.335,0.241-1.995,0.227
			c-0.596-0.011-1.296,0.071-1.885-0.076l-0.025,0.052C38.836,11.967,39.465,11.909,39.89,11.896z"/>
		<path fill="#F4AA06" d="M38.555,11.598c0-0.006-0.008-0.008-0.009-0.014c-0.071,0.029-0.008,0.045-0.024,0.096L38.555,11.598z"/>
	</g>
	<g>
		<path fill="#F9B63E" d="M48.895,9.148c-0.348,0.428-1.254,1.067-1.293,1.675l0.014,0.112c0.921,1.192,3.017,1.015,4.212,1.061
			c0.952,0.038,1.227-0.089,1.706-1.161c0.275-0.621,0.827-1.295,0.527-1.995c0,0-1.844-0.35-2.854-0.461
			C50.896,8.347,49.571,8.319,48.895,9.148z"/>
		<path fill="#E09727" d="M52.563,26c0.409,8.108,2.406,16.328,3.583,24.27l1.15-1.334c0.116-1.819-2.248-38.828-3.235-40.095
			c-0.515,0.495-1.436,2.177-1.807,2.464C52.679,15.545,52.338,21.539,52.563,26z"/>
		<path fill="#EB9E28" d="M47.6,10.834c0.396,6.207,2.104,12.361,3.117,18.461c0.669,4.008,1.819,17.549,2.658,20.253
			c0.575,0.146,2.191,0.74,2.771,0.723c0.479-2.852-3.229-37.577-3.771-39.122C50.295,11.741,48.335,11.161,47.6,10.834z"/>
		<path fill="#FFC45C" d="M47.729,10.861c-0.004-0.006-0.004-0.006-0.009-0.012c-0.052,0.022-0.006,0.045-0.021,0.091L47.729,10.861
			z"/>
		<path fill="#FFC45C" d="M55.436,38.65c0.254,2.82,0.435,4.906,0.466,5.391C55.917,43.582,55.727,41.507,55.436,38.65z"/>
		<path fill="#FFC45C" d="M48.718,11.288c0.441,0.041,0.873,0.18,1.32,0.265c0.394,0.079,0.802,0.231,1.213,0.14
			c0.318-0.073,0.774-0.288,1.124-0.146c0.123,0.885,0.229,1.662,0.313,2.564c0.132,1.333,0.36,2.591,0.507,3.929
			c0.572,5.209,1.629,14.624,2.241,20.61c-0.69-7.663-1.916-20.771-2.108-22.125c-0.104-0.702-0.406-3.43-0.554-4.089
			c-0.127-0.577-0.161-1.021,0.066-1.547c0.296-0.683,0.822-1.512,1.221-2.047c-0.279,0.198-0.835,0.902-1.058,1.197
			c-0.27,0.356-0.463,0.813-0.831,0.956c-0.419,0.163-1.046,0.017-1.504,0.064c-0.515,0.048-1.013,0.1-1.509,0.02
			c-0.446-0.073-0.973-0.063-1.41-0.268l-0.021,0.05C47.926,11.254,48.397,11.261,48.718,11.288z"/>
	</g>
	<g>
		<path fill="#FFD664" d="M56.429,9.244c-3.691,1.462-2.608,5.45-1.951,8.788c2.131,10.88,5.493,21.851,9.309,32.251
			c1.793,0.587,3.683,1.086,5.907-0.564c-1.711-11.914-5.876-24.371-7.967-36.941C61.001,8.414,60.014,7.82,56.429,9.244z"/>
		<path fill="#F9C850" d="M57.692,13.436c-0.472,0.35-0.931,0.649-1.355,0.896c1.691,12.616,7.056,24.295,10.424,36.5
			c0.921-0.039,1.889-0.339,2.933-1.112c-1.711-11.914-5.876-24.371-7.967-36.941c-0.157-0.95-0.33-1.712-0.538-2.321
			C60.284,11.7,59.028,12.761,57.692,13.436z"/>
		<path fill="#EAA50C" d="M54.806,12.302c-0.272-0.206-0.522-0.418-0.743-0.642c-0.594,1.835-0.006,4.237,0.415,6.372
			c2.131,10.88,5.493,21.851,9.309,32.251c0.598,0.198,2.556,0.45,3.186,0.548c-0.28-0.987-3.619-11.012-4.386-15.037
			c-0.992-5.225-3.831-16.106-4.795-22.363C57.791,13.431,56.777,13.765,54.806,12.302z"/>
		<path fill="#FFE197" d="M60.915,10.811c-2.849,2.292-4.266,2.616-6.853,0.85c-0.488,0.362,3.014,1.684,3.28,2.225
			c0.325,0.669,0.794,4.312,0.958,5.109c0.769,3.737,3.293,13.757,3.837,15.51c0.511,1.634,3.877,13.583,4.153,15.376
			c-0.468-3.039-5.61-22.973-5.973-24.754c-0.367-1.829-2.162-8.519-2.265-11.435C58.049,13.417,59.85,12.515,60.915,10.811z"/>
	</g>
	<g>
		<path fill="#F9B132" d="M39.434,13.964c-3.949,0.444-3.943,4.579-4.185,7.972c-0.792,11.059-0.42,22.525,0.542,33.565
			c1.575,1.035,3.268,2.013,5.849,1c1.466-11.948,0.708-25.058,1.981-37.737C44.062,14.365,43.264,13.532,39.434,13.964z"/>
		<path fill="#ED9726" d="M38.011,18.854c-1.67,12.615,0.45,25.293,0.506,37.956c0.898,0.199,1.912,0.162,3.122-0.309
			c1.466-11.948,0.708-25.058,1.981-37.737c0.098-0.96,0.131-1.741,0.089-2.384c-1.2,0.964-2.693,1.66-4.155,1.959
			C39.009,18.554,38.486,18.722,38.011,18.854z"/>
		<path fill="#FFAB15" d="M39.65,18.362c0,0-1.066,0.058-2.581-1.873c-0.214-0.266-0.397-0.54-0.554-0.814
			c-1.054,1.618-1.113,4.09-1.267,6.261c-0.792,11.059-0.42,22.525,0.542,33.565c0.523,0.346,2.348,1.101,2.931,1.36
			c-0.014-1.024-0.612-11.575-0.298-15.662C38.834,35.898,38.942,24.656,39.65,18.362z"/>
		<path fill="#F9C83E" d="M39.03,30.313c0.121-1.862,0.141-8.789,0.806-11.63c0.064-0.27,2.042-0.665,3.516-2.032
			c-3.35,1.463-4.803,1.406-6.836-0.976c-0.565,0.223,2.47,2.416,2.581,3.01c0.139,0.729-0.361,4.367-0.413,5.18
			c-0.235,3.806-0.425,14.139-0.354,15.974c0.063,1.711,0.188,14.127-0.017,15.929C38.655,52.71,38.911,32.124,39.03,30.313z"/>
	</g>
	<polygon fill="#961605" points="45.797,53.595 79.984,39.911 59.812,34.778 22.25,39.894 	"/>
	<g>
		<path fill="#FFD664" d="M46.651,16.56c-0.489,0.438-1.729,1.092-1.808,1.707l0.008,0.114c1.17,1.207,3.97,1.011,5.561,1.054
			c1.265,0.033,1.64-0.098,2.331-1.189c0.401-0.631,1.168-1.318,0.802-2.026c0,0-2.438-0.344-3.778-0.453
			C49.357,15.735,47.592,15.714,46.651,16.56z"/>
		<path fill="#F4B516" d="M50.692,33.643c0.136,8.231,2.385,16.559,3.556,24.612l1.598-1.359c0.247-1.847-1.044-39.397-2.3-40.677
			c-0.706,0.505-2.018,2.218-2.529,2.512C51.37,23.03,50.615,29.116,50.692,33.643z"/>
		<path fill="#F9C850" d="M44.841,18.278c0.215,6.295,2.184,12.536,3.229,18.719c0.684,4.065,1.544,17.801,2.522,20.543
			c0.761,0.143,2.881,0.737,3.656,0.714c0.781-2.895-2.416-38.121-3.063-39.685C48.384,19.184,45.804,18.604,44.841,18.278z"/>
		<path fill="#FFE197" d="M46.31,18.734c0.584,0.038,1.149,0.176,1.742,0.262c0.522,0.074,1.058,0.226,1.613,0.129
			c0.426-0.073,1.042-0.296,1.5-0.151c0.121,0.896,0.221,1.687,0.291,2.597c0.105,1.355,0.349,2.63,0.476,3.987
			c0.5,5.291,1.439,14.849,1.953,20.919c-0.534-7.776-1.51-21.082-1.701-22.457c-0.1-0.711-0.368-3.48-0.531-4.147
			c-0.142-0.587-0.165-1.035,0.165-1.57c0.429-0.696,1.174-1.539,1.729-2.085c-0.383,0.202-1.157,0.918-1.47,1.219
			c-0.376,0.366-0.659,0.829-1.152,0.976c-0.566,0.167-1.396,0.023-2.008,0.073c-0.687,0.054-1.353,0.109-2.007,0.03
			c-0.595-0.07-1.299-0.057-1.872-0.261l-0.027,0.048C45.253,18.703,45.885,18.705,46.31,18.734z"/>
		<path fill="#FFE197" d="M53.885,46.478c0.198,2.857,0.334,4.967,0.351,5.458C54.278,51.471,54.129,49.368,53.885,46.478z"/>
		<path fill="#FFE197" d="M45.01,18.304c-0.004-0.004-0.007-0.008-0.009-0.011c-0.072,0.023-0.012,0.044-0.035,0.092L45.01,18.304z"
			/>
	</g>
	<g>
		<path fill="#EA9807" d="M72.463,31.788c-3.319,10.574-5.603,21.817-7.215,32.778c1.296,1.373,2.717,2.714,5.461,2.322
			c4.185-11.284,6.471-24.218,10.634-36.26c1.446-4.18,0.86-5.172-2.968-5.636C74.43,24.515,73.482,28.537,72.463,31.788z"/>
		<path fill="#C17A08" d="M67.602,66.47c0.827,0.402,1.822,0.603,3.107,0.419c4.185-11.284,6.471-24.218,10.634-36.26
			c0.313-0.91,0.528-1.665,0.638-2.3c-1.392,0.661-3.002,0.997-4.497,0.95c-0.581,0.083-1.129,0.127-1.62,0.143
			C71.328,41.313,70.468,54.137,67.602,66.47z"/>
		<path fill="#D88809" d="M75.143,25.985c-1.4,1.33-2.026,3.722-2.68,5.803c-3.319,10.574-5.603,21.817-7.215,32.778
			c0.434,0.46,2.033,1.616,2.539,2.001c0.225-0.999,2.075-11.403,3.324-15.307c1.623-5.06,4.32-15.979,6.462-21.938
			c0,0-1.053-0.192-2.085-2.416C75.346,26.594,75.229,26.289,75.143,25.985z"/>
		<path fill="#F4AA06" d="M71.335,49.914C71,51.594,68.256,63.706,67.644,65.41c1.037-2.896,6.036-22.869,6.567-24.604
			c0.55-1.783,2.167-8.516,3.47-11.13c0.123-0.243,2.138-0.177,3.888-1.164c-3.599,0.651-4.997,0.262-6.426-2.527
			c-0.601,0.086,1.844,2.92,1.818,3.524c-0.035,0.743-1.361,4.165-1.598,4.943C74.259,38.106,71.688,48.115,71.335,49.914z"/>
	</g>
	<g>
		<path fill="#EEA017" d="M30.004,18.037c-0.413,0.007-2.175,0.161-3.028,1.092c-0.442,0.485-1.611,1.258-1.631,1.88l0.022,0.113
			c1.279,1.083,4.05,0.616,5.635,0.5c1.264-0.094,1.622-0.257,2.204-1.411c0.337-0.667,1.035-1.428,0.597-2.095
			C33.803,18.116,31.347,18.01,30.004,18.037z"/>
		<path fill="#CE8817" d="M31.533,20.862c0.778,4.245,0.62,10.378,1.14,14.876c0.943,8.174,3.997,16.246,5.953,24.144l1.456-1.51
			c0.067-1.86-4.901-39.106-6.278-40.256C33.15,18.687,32.014,20.524,31.533,20.862z"/>
		<path fill="#E09317" d="M25.345,21.018c0.832,6.247,3.401,12.26,5.045,18.314c1.082,3.977,3.282,17.565,4.528,20.195
			c0.771,0.068,2.939,0.452,3.708,0.354c0.493-2.958-6.143-37.7-6.94-39.192C28.961,21.574,26.334,21.251,25.345,21.018z"/>
		<path fill="#F7B016" d="M37.11,48.189c0.476,2.827,0.818,4.916,0.884,5.405C37.99,53.127,37.636,51.046,37.11,48.189z"/>
		<path fill="#F7B016" d="M25.513,21.03c-0.002-0.004-0.006-0.01-0.01-0.012c-0.07,0.031-0.007,0.045-0.025,0.094L25.513,21.03z"/>
		<path fill="#F7B016" d="M26.847,21.33c0.587-0.018,1.166,0.064,1.762,0.09c0.526,0.025,1.077,0.121,1.618-0.029
			c0.42-0.114,1.009-0.396,1.478-0.295c0.209,0.875,0.385,1.654,0.545,2.554c0.239,1.337,0.603,2.585,0.862,3.92
			c1.018,5.214,2.889,14.63,3.998,20.621c-1.296-7.684-3.573-20.823-3.896-22.175c-0.169-0.696-0.71-3.428-0.935-4.074
			c-0.199-0.571-0.265-1.017,0.01-1.58c0.358-0.735,1.015-1.649,1.514-2.245c-0.358,0.239-1.06,1.025-1.337,1.357
			c-0.341,0.4-0.579,0.89-1.054,1.087c-0.548,0.219-1.389,0.158-1.993,0.265c-0.677,0.12-1.337,0.241-1.995,0.229
			c-0.598-0.013-1.296,0.071-1.887-0.08l-0.023,0.055C25.795,21.401,26.424,21.341,26.847,21.33z"/>
	</g>
	<g>
		<path fill="#F5A926" d="M61.888,18.556c-3.319,10.578-5.603,21.823-7.215,32.784c1.295,1.372,2.719,2.712,5.462,2.322
			c4.184-11.285,6.468-24.217,10.633-36.262c1.444-4.181,0.86-5.174-2.969-5.635C63.854,11.288,62.906,15.31,61.888,18.556z"/>
		<path fill="#E09727" d="M57.026,53.244c0.829,0.401,1.82,0.599,3.108,0.418c4.184-11.285,6.468-24.217,10.633-36.262
			c0.314-0.911,0.527-1.663,0.636-2.3c-1.391,0.662-3.002,0.996-4.497,0.949c-0.577,0.086-1.125,0.129-1.616,0.146
			C60.751,28.087,59.895,40.91,57.026,53.244z"/>
		<path fill="#EB9E28" d="M64.566,12.758c-1.399,1.327-2.028,3.719-2.679,5.797c-3.319,10.578-5.603,21.823-7.215,32.784
			c0.433,0.46,2.034,1.615,2.537,2c0.225-0.997,2.076-11.403,3.326-15.304c1.623-5.065,4.32-15.981,6.459-21.942
			c0,0-1.049-0.189-2.08-2.415C64.77,13.369,64.652,13.059,64.566,12.758z"/>
		<path fill="#FAB725" d="M60.759,36.686c-0.333,1.68-3.078,13.792-3.692,15.497c1.039-2.896,6.037-22.867,6.571-24.604
			c0.546-1.781,2.162-8.518,3.465-11.127c0.125-0.248,2.142-0.177,3.888-1.169c-3.597,0.653-4.994,0.262-6.424-2.524
			c-0.603,0.083,1.844,2.917,1.818,3.521c-0.035,0.744-1.361,4.168-1.6,4.946C63.68,24.877,61.113,34.888,60.759,36.686z"/>
	</g>
	<g>
		<path fill="#F5A926" d="M68.452,19.843c-0.38,0.402-1.336,0.97-1.414,1.575v0.111c0.827,1.26,2.932,1.243,4.121,1.379
			c0.948,0.112,1.229,0.004,1.791-1.031c0.322-0.594,0.925-1.226,0.674-1.944c0,0-1.809-0.488-2.81-0.678
			C70.51,19.197,69.189,19.07,68.452,19.843z"/>
		<path fill="#E09727" d="M72.557,61.398l1.246-1.243c0.256-1.805,0.713-38.887-0.179-40.223c-0.545,0.452-1.596,2.06-1.987,2.318
			c0.103,4.26-0.693,10.209-0.807,14.677C70.618,45.044,71.986,53.391,72.557,61.398z"/>
		<path fill="#EB9E28" d="M67.032,21.425c-0.076,6.218,1.159,12.486,1.707,18.644c0.36,4.053,0.479,17.64,1.108,20.4
			c0.562,0.188,2.128,0.904,2.709,0.93c0.692-2.804-0.363-37.713-0.786-39.293C69.653,22.538,67.742,21.811,67.032,21.425z"/>
		<path fill="#FAB725" d="M72.786,55.17c0.05-0.458,0.019-2.539-0.058-5.407C72.77,52.596,72.793,54.686,72.786,55.17z"/>
		<path fill="#FAB725" d="M73.624,19.933c-0.29,0.172-0.899,0.833-1.144,1.111c-0.296,0.338-0.525,0.778-0.899,0.89
			c-0.43,0.131-1.046-0.061-1.506-0.051c-0.514,0.012-1.018,0.024-1.504-0.094c-0.442-0.105-0.968-0.133-1.389-0.371l-0.024,0.046
			c0.167,0.407,0.641,0.446,0.954,0.501c0.438,0.074,0.858,0.249,1.298,0.367c0.388,0.108,0.782,0.288,1.201,0.227
			c0.322-0.046,0.792-0.227,1.128-0.057c0.058,0.89,0.102,1.677,0.12,2.579c0.027,1.337,0.16,2.609,0.202,3.955
			c0.175,5.243,0.515,14.717,0.667,20.726c-0.101-7.69-0.328-20.859-0.418-22.223c-0.049-0.708-0.145-3.456-0.24-4.122
			c-0.082-0.584-0.084-1.03,0.184-1.541C72.6,21.222,73.188,20.435,73.624,19.933z"/>
		<path fill="#FAB725" d="M67.125,21.539l0.033-0.075c0-0.005-0.007-0.007-0.007-0.011C67.097,21.47,67.14,21.495,67.125,21.539z"/>
	</g>
	<g>
		<path fill="#FFD664" d="M36.445,23.347c-3.87,0.883-3.404,4.991-3.266,8.392c0.448,11.077,2.101,22.432,4.287,33.292
			c1.684,0.853,3.475,1.634,5.928,0.34c0.123-12.035-2.097-24.98-2.25-37.72C41.094,23.226,40.206,22.489,36.445,23.347z"/>
		<path fill="#F9C850" d="M37.057,27.683c-0.519,0.273-1.021,0.5-1.479,0.682c-0.248,12.726,3.276,25.084,4.749,37.662
			c0.913,0.1,1.917-0.048,3.066-0.656c0.123-12.035-2.097-24.98-2.25-37.72c-0.01-0.964-0.066-1.745-0.177-2.378
			C39.881,26.363,38.479,27.221,37.057,27.683z"/>
		<path fill="#F4B516" d="M34.38,26.123c-0.245-0.243-0.456-0.493-0.64-0.745c-0.868,1.723-0.651,4.187-0.562,6.361
			c0.448,11.077,2.101,22.432,4.287,33.292c0.563,0.286,2.46,0.834,3.066,1.025c-0.127-1.015-1.9-11.433-2.043-15.53
			c-0.184-5.313-1.333-16.498-1.333-22.83C37.155,27.695,36.101,27.871,34.38,26.123z"/>
		<path fill="#FFE197" d="M40.642,25.581c-3.167,1.828-4.616,1.936-6.901-0.204c-0.539,0.281,2.722,2.122,2.9,2.699
			c0.219,0.709,0.129,4.381,0.168,5.194c0.194,3.81,1.162,14.1,1.431,15.911c0.256,1.697,1.766,14.02,1.766,15.834
			c-0.002-3.075-2.047-23.563-2.134-25.377c-0.085-1.862-0.838-8.747-0.496-11.646C37.407,27.72,39.33,27.102,40.642,25.581z"/>
	</g>
	<g>
		<path fill="#FFD664" d="M64.888,13.951c-3.962,0.252-4.162,4.38-4.572,7.758c-1.33,11.005-1.524,22.481-1.107,33.548
			c1.525,1.114,3.166,2.173,5.794,1.286c2.052-11.856,1.94-24.99,3.833-37.594C69.493,14.579,68.737,13.707,64.888,13.951z"/>
		<path fill="#F4BD40" d="M65.002,56.543c2.052-11.856,1.94-24.99,3.833-37.594c0.146-0.952,0.216-1.729,0.208-2.376
			c-1.248,0.906-2.771,1.528-4.248,1.756c-0.555,0.188-1.086,0.331-1.563,0.437c-2.291,12.519-0.795,25.284-1.362,37.932
			C62.757,56.944,63.771,56.958,65.002,56.543z"/>
		<path fill="#F2A319" d="M61.891,15.519c-1.132,1.562-1.313,4.028-1.575,6.19c-1.33,11.005-1.524,22.481-1.107,33.548
			c0.508,0.371,2.294,1.218,2.861,1.507c0.038-1.024-0.039-11.592,0.475-15.658c0.669-5.274,1.328-16.501,2.346-22.751
			c0,0-1.068,0.005-2.488-1.993C62.202,16.081,62.034,15.799,61.891,15.519z"/>
		<path fill="#FFE197" d="M62.515,39.737c-0.02,1.714-0.506,14.123-0.798,15.912c0.492-3.035,1.761-23.584,1.965-25.392
			c0.216-1.852,0.575-8.766,1.377-11.573c0.079-0.263,2.075-0.563,3.612-1.858c-3.416,1.299-4.865,1.172-6.78-1.308
			c-0.575,0.193,2.35,2.533,2.431,3.131c0.103,0.737-0.577,4.345-0.666,5.153C63.234,27.595,62.536,37.907,62.515,39.737z"/>
	</g>
	<g>
		<path fill="#FFD664" d="M57.312,22.424c-3.972,0.073-4.355,4.185-4.919,7.542c-1.826,10.934-2.538,22.388-2.62,33.466
			c1.47,1.18,3.063,2.311,5.726,1.547c2.587-11.755,3.066-24.88,5.53-37.382C61.884,23.259,61.168,22.355,57.312,22.424z"/>
		<path fill="#F9C850" d="M52.363,64.991c0.874,0.285,1.889,0.346,3.135-0.012c2.587-11.755,3.066-24.88,5.53-37.382
			c0.186-0.945,0.294-1.72,0.313-2.365c-1.284,0.847-2.835,1.401-4.32,1.563c-0.566,0.158-1.1,0.281-1.585,0.361
			C52.582,39.561,53.504,52.382,52.363,64.991z"/>
		<path fill="#EAA50C" d="M54.244,23.856c-1.2,1.511-1.493,3.964-1.852,6.11c-1.826,10.934-2.538,22.388-2.62,33.466
			c0.488,0.395,2.234,1.32,2.786,1.634c0.085-1.023,0.483-11.586,1.184-15.62c0.907-5.241,2.072-16.42,3.372-22.622
			c0,0-1.068-0.047-2.396-2.106C54.533,24.429,54.373,24.142,54.244,23.856z"/>
		<path fill="#FFE197" d="M53.773,48.08c-0.098,1.708-1.144,14.083-1.514,15.856c0.628-3.01,2.819-23.479,3.109-25.274
			c0.295-1.84,0.97-8.735,1.899-11.499c0.087-0.262,2.094-0.471,3.691-1.696c-3.473,1.142-4.914,0.95-6.716-1.61
			c-0.582,0.165,2.234,2.633,2.287,3.237c0.07,0.74-0.773,4.314-0.896,5.116C55.041,35.98,53.879,46.247,53.773,48.08z"/>
	</g>
	<g>
		<path fill="#FFD664" d="M26.907,28.137c-0.415,0.007-2.172,0.161-3.025,1.094c-0.444,0.482-1.614,1.256-1.631,1.879l0.017,0.111
			c1.281,1.083,4.053,0.618,5.638,0.503c1.266-0.095,1.622-0.258,2.204-1.412c0.337-0.668,1.035-1.426,0.598-2.097
			C30.709,28.214,28.251,28.111,26.907,28.137z"/>
		<path fill="#F4B516" d="M28.439,30.962c0.773,4.246,0.619,10.377,1.138,14.876c0.944,8.174,3.999,16.243,5.953,24.144l1.457-1.511
			c0.066-1.861-4.902-39.107-6.278-40.257C30.056,28.786,28.917,30.622,28.439,30.962z"/>
		<path fill="#F9C850" d="M22.25,31.116c0.829,6.249,3.401,12.262,5.045,18.314c1.084,3.979,3.284,17.566,4.526,20.199
			c0.771,0.066,2.941,0.452,3.71,0.353c0.494-2.958-6.143-37.7-6.938-39.192C25.867,31.672,23.239,31.35,22.25,31.116z"/>
		<path fill="#FFE197" d="M34.014,58.295c0.475,2.824,0.82,4.913,0.885,5.4C34.895,63.226,34.541,61.146,34.014,58.295z"/>
		<path fill="#FFE197" d="M22.42,31.128c-0.004-0.004-0.01-0.006-0.012-0.012c-0.068,0.03-0.008,0.045-0.025,0.095L22.42,31.128z"/>
		<path fill="#FFE197" d="M23.753,31.43c0.585-0.022,1.164,0.063,1.762,0.087c0.524,0.023,1.075,0.124,1.617-0.027
			c0.417-0.116,1.007-0.397,1.477-0.298c0.212,0.881,0.385,1.654,0.546,2.558c0.239,1.333,0.602,2.583,0.864,3.919
			c1.015,5.215,2.889,14.633,3.995,20.625c-1.294-7.683-3.568-20.83-3.897-22.18c-0.167-0.7-0.704-3.428-0.933-4.075
			c-0.197-0.572-0.266-1.014,0.012-1.581c0.356-0.735,1.015-1.647,1.513-2.246c-0.359,0.239-1.059,1.029-1.342,1.362
			c-0.338,0.396-0.575,0.886-1.052,1.081c-0.546,0.223-1.386,0.161-1.992,0.268c-0.677,0.12-1.335,0.243-1.995,0.231
			c-0.596-0.011-1.294,0.066-1.887-0.078l-0.021,0.05C22.699,31.501,23.329,31.441,23.753,31.43z"/>
	</g>
	<g>
		<path fill="#FFD664" d="M65.85,26.446c-3.872,0.885-3.407,4.991-3.268,8.39c0.449,11.079,2.102,22.431,4.29,33.29
			c1.68,0.854,3.471,1.637,5.923,0.342c0.121-12.034-2.098-24.978-2.248-37.723C70.495,26.323,69.607,25.586,65.85,26.446z"/>
		<path fill="#F9C850" d="M66.459,30.78c-0.518,0.273-1.021,0.502-1.476,0.683c-0.251,12.727,3.272,25.083,4.743,37.661
			c0.916,0.098,1.919-0.05,3.068-0.656c0.121-12.034-2.098-24.978-2.248-37.723c-0.012-0.962-0.064-1.741-0.179-2.378
			C69.285,29.46,67.881,30.318,66.459,30.78z"/>
		<path fill="#F4B516" d="M63.782,29.222c-0.24-0.245-0.456-0.493-0.64-0.75c-0.868,1.725-0.65,4.187-0.561,6.364
			c0.449,11.079,2.102,22.431,4.29,33.29c0.56,0.285,2.456,0.833,3.063,1.031c-0.125-1.019-1.901-11.439-2.041-15.532
			c-0.186-5.314-1.338-16.498-1.338-22.833C66.556,30.792,65.503,30.968,63.782,29.222z"/>
		<path fill="#FFE197" d="M70.046,28.679c-3.166,1.829-4.615,1.934-6.903-0.206c-0.538,0.286,2.723,2.126,2.902,2.703
			c0.217,0.709,0.128,4.38,0.168,5.191c0.193,3.81,1.16,14.103,1.431,15.913c0.256,1.695,1.767,14.02,1.767,15.832
			c-0.004-3.077-2.05-23.561-2.134-25.377c-0.087-1.86-0.841-8.747-0.499-11.646C66.812,30.816,68.731,30.202,70.046,28.679z"/>
	</g>
	<g>
		<path fill="#F5A926" d="M40.049,28.299c-0.383,0.402-1.333,0.971-1.417,1.573l0.006,0.112c0.825,1.261,2.929,1.244,4.118,1.378
			c0.946,0.109,1.229,0.006,1.792-1.026c0.323-0.596,0.923-1.231,0.675-1.948c0,0-1.81-0.491-2.809-0.679
			C42.106,27.654,40.785,27.529,40.049,28.299z"/>
		<path fill="#E09727" d="M44.152,69.854l1.248-1.241c0.256-1.808,0.712-38.889-0.177-40.224c-0.548,0.454-1.596,2.059-1.989,2.319
			c0.104,4.259-0.693,10.208-0.808,14.674C42.214,53.502,43.581,61.847,44.152,69.854z"/>
		<path fill="#EB9E28" d="M38.632,29.881c-0.079,6.221,1.156,12.487,1.704,18.645c0.359,4.052,0.48,17.637,1.108,20.402
			c0.563,0.186,2.129,0.904,2.708,0.927c0.694-2.804-0.361-37.713-0.786-39.293C41.248,30.993,39.34,30.266,38.632,29.881z"/>
		<path fill="#FAB725" d="M38.722,29.995l0.035-0.072c-0.004-0.006-0.006-0.01-0.008-0.014
			C38.694,29.926,38.738,29.949,38.722,29.995z"/>
		<path fill="#FAB725" d="M44.383,63.627c0.048-0.458,0.017-2.547-0.054-5.422C44.367,61.044,44.389,63.14,44.383,63.627z"/>
		<path fill="#FAB725" d="M45.222,28.389c-0.293,0.171-0.9,0.833-1.147,1.11c-0.294,0.338-0.523,0.777-0.898,0.892
			c-0.431,0.129-1.047-0.064-1.504-0.052c-0.517,0.011-1.017,0.023-1.506-0.094c-0.442-0.106-0.966-0.133-1.389-0.373l-0.021,0.05
			c0.167,0.404,0.637,0.444,0.954,0.5c0.438,0.073,0.856,0.246,1.294,0.366c0.387,0.105,0.785,0.29,1.204,0.227
			c0.323-0.047,0.79-0.225,1.126-0.058c0.059,0.891,0.101,1.676,0.119,2.578c0.029,1.339,0.16,2.614,0.206,3.956
			c0.176,5.241,0.512,14.701,0.669,20.713c-0.106-7.694-0.333-20.846-0.421-22.211c-0.049-0.706-0.145-3.454-0.243-4.12
			c-0.083-0.585-0.083-1.031,0.187-1.537C44.197,29.676,44.785,28.891,45.222,28.389z"/>
	</g>
	<g>
		<path fill="#FFD664" d="M45.541,30.925c-3.673,1.512-2.537,5.486-1.839,8.818c2.271,10.849,5.773,21.775,9.721,32.126
			c1.8,0.566,3.693,1.039,5.898-0.642c-1.863-11.89-6.186-24.29-8.436-36.833C50.104,30.041,49.107,29.458,45.541,30.925z"/>
		<path fill="#F4B516" d="M50.315,32.077c-0.89,1.258-2.133,2.335-3.458,3.024c-0.466,0.358-0.922,0.665-1.342,0.917
			c1.852,12.591,7.366,24.2,10.888,36.364c0.921-0.053,1.886-0.366,2.918-1.154c-1.863-11.89-6.186-24.29-8.436-36.833
			C50.713,33.444,50.531,32.687,50.315,32.077z"/>
		<path fill="#F9C850" d="M43.958,34.007c-0.275-0.204-0.528-0.411-0.752-0.634c-0.571,1.844,0.048,4.235,0.496,6.37
			c2.271,10.849,5.773,21.775,9.721,32.126c0.6,0.189,2.563,0.417,3.189,0.509c-0.29-0.983-3.76-10.965-4.573-14.979
			c-1.06-5.212-4.038-16.056-5.083-22.302C46.956,35.097,45.947,35.444,43.958,34.007z"/>
		<path fill="#FFE197" d="M50.046,32.437c-2.819,2.325-4.232,2.672-6.84,0.937c-0.483,0.367,3.037,1.646,3.306,2.187
			c0.334,0.663,0.849,4.3,1.023,5.091c0.819,3.73,3.47,13.716,4.036,15.459c0.532,1.631,4.052,13.536,4.352,15.326
			c-0.509-3.034-5.903-22.902-6.289-24.678c-0.394-1.823-2.271-8.487-2.409-11.405C47.21,35.08,49.004,34.154,50.046,32.437z"/>
	</g>
	<g>
		<g>
			<defs>
				<polygon id="SVGID_1_" points="79.984,39.911 42.114,47.802 43.849,91.043 74.312,82.474 				"/>
			</defs>
			<clipPath id="SVGID_2_">
				<use xlink:href="#SVGID_1_"  overflow="visible"/>
			</clipPath>
			<polygon clip-path="url(#SVGID_2_)" fill="#DD270A" points="43.849,91.028 74.312,82.457 79.984,39.894 42.114,47.784 			"/>
			<g clip-path="url(#SVGID_2_)">
				<path fill="#BF1B00" d="M65.233,40.138c-2.986,0.866-6.041,1.522-9.107,2.103L41.332,60.691
					c0.278,3.432-0.225,6.866-0.835,10.296L65.233,40.138z"/>
			</g>
			<g clip-path="url(#SVGID_2_)">
				<path fill="#BF1B00" d="M41.907,91.364l0.36,0.291L79.912,45.12c0.373-1.423,0.825-2.823,1.281-4.221
					c0.106-0.933,0.215-1.864,0.358-2.78c-1.253,0.204-2.537,0.304-3.781,0.443L42.173,82.564
					C42.146,85.5,41.987,88.435,41.907,91.364z"/>
			</g>
			<g clip-path="url(#SVGID_2_)">
				<path fill="#BF1B00" d="M77.901,69.493c0.01-0.145,0.014-0.288,0.02-0.421c0.07-1.805,0.215-3.602,0.392-5.396
					c0.166-1.681,0.488-3.332,0.868-4.968L52.569,91.604c3.133-1.031,6.315-1.862,9.537-2.581L77.901,69.493z"/>
			</g>
		</g>
		<g>
			<defs>
				<path id="SVGID_3_" d="M29.603,84.465l14.32,6.578l-1.738-43.241c-0.474-0.317-19.936-7.892-19.936-7.892L29.603,84.465z"/>
			</defs>
			<clipPath id="SVGID_4_">
				<use xlink:href="#SVGID_3_"  overflow="visible"/>
			</clipPath>
			<path clip-path="url(#SVGID_4_)" fill="#C62405" d="M29.603,84.465l14.32,6.578l-1.738-43.241
				c-0.474-0.317-19.936-7.892-19.936-7.892L29.603,84.465z"/>
			<g clip-path="url(#SVGID_4_)">
				<path fill="#9E1402" d="M38.688,42.831c-3.064-0.581-6.115-1.237-9.105-2.1l24.736,30.85c-0.61-3.431-1.111-6.868-0.834-10.299
					L38.688,42.831z"/>
			</g>
			<g clip-path="url(#SVGID_4_)">
				<path fill="#9E1402" d="M13.266,38.708c0.145,0.919,0.252,1.848,0.358,2.779c0.456,1.4,0.907,2.801,1.279,4.222l37.646,46.538
					l0.361-0.292c-0.082-2.931-0.236-5.863-0.266-8.798L17.048,39.154C15.804,39.014,14.52,38.916,13.266,38.708z"/>
			</g>
			<g clip-path="url(#SVGID_4_)">
				<path fill="#9E1402" d="M16.504,64.266c0.175,1.798,0.323,3.592,0.391,5.396c0.005,0.138,0.011,0.277,0.02,0.423l15.795,19.53
					c3.219,0.719,6.407,1.547,9.538,2.579l-26.61-32.895C16.017,60.938,16.338,62.59,16.504,64.266z"/>
			</g>
		</g>
	</g>
	<path opacity="0.31" fill="#5B0703" d="M42.206,66.556c0.229,2.866,0.294,5.745,0.5,8.615c0.313,4.333,0.689,8.671,1.095,12.998
		l-1.623-40.371c-0.404-0.271-14.696-5.849-18.828-7.459c2.135,1.07,3.94,2.722,6.191,3.624c2.741,1.101,6.178,1.883,8.563,3.668
		c3.233,2.416,3.724,7.007,3.771,10.746c0.02,1.517-0.035,3.026-0.098,4.539C41.931,64.131,42.11,65.341,42.206,66.556z"/>
	<path opacity="0.3" fill="#FFFFFF" d="M47.859,48.377c3.341-1.314,6.847-2.003,10.359-2.66c7.379-1.381,14.555-3.538,21.748-5.688
		l0.018-0.118l-37.79,7.886l1.68,41.851c0.119-2.037,0.471-13.756,0.277-17.624c-0.191-3.956-0.242-7.909-0.242-11.872
		c0-1.849-0.248-7.348-0.083-8.249C44.208,49.844,46.118,49.062,47.859,48.377z"/>
</g>
</svg>
