<?xml version="1.0" encoding="utf-8"?>
<!-- Generator: Adobe Illustrator 13.0.0, SVG Export Plug-In . SVG Version: 6.00 Build 14948)  -->
<!DOCTYPE svg PUBLIC "-//W3C//DTD SVG 1.1//EN" "http://www.w3.org/Graphics/SVG/1.1/DTD/svg11.dtd">
<svg version="1.1" id="Layer_1" xmlns="http://www.w3.org/2000/svg" xmlns:xlink="http://www.w3.org/1999/xlink" x="0px" y="0px"
	 width="100px" height="100px" viewBox="0 0 100 100" enable-background="new 0 0 100 100" xml:space="preserve">
<g>
	<path fill="#F7B116" d="M64.698,30.603c-3.793,0.188-7.927,0.817-11.795,1.574c-3.609,0.709-6.878,2.663-10.399,3.851
		c-7.024,2.365-13.653,5.058-20.659,7.172c-3.059,0.923-6.319,1.417-8.917,3.406c-2.477,1.898-3.577,5.197-4.129,8.025
		c-0.539,2.748,0.723,5.809,2.151,8.061c1.572,2.475,2.667,5.559,5.692,6.645c10.401,4.662,17.255,1.545,19.509,0.969
		c1.701-0.436,2.583-1.102,4.122-1.91c6.607-3.477,13.479-6.342,19.181-11.43c3.655-3.266,8.182-5.646,11.393-9.336
		c1.514-1.745,3.784-3.816,4.431-6.088c0.811-2.844-0.084-6.76-2.284-8.654C70.697,30.913,67.618,30.461,64.698,30.603z"/>
	<path fill="#EA940A" d="M8.674,56.141c0.046,2.314,1.104,4.703,2.277,6.551c1.572,2.475,2.667,5.559,5.692,6.645
		c10.401,4.66,17.255,1.545,19.509,0.969c1.701-0.436,2.583-1.102,4.122-1.91c6.607-3.477,13.479-6.342,19.181-11.43
		c3.655-3.266,8.182-5.646,11.393-9.336c1.514-1.745,3.784-3.816,4.431-6.088c0.811-2.844-0.084-6.76-2.284-8.654
		c-2.296-1.973-5.375-2.425-8.295-2.283c-0.418,0.022-0.843,0.049-1.271,0.082c-0.277,0.282-0.627,0.519-1.063,0.68
		c-2.359,0.869-4.805,0.889-7.216,1.499c-1.759,0.443-3.245,1.458-4.992,1.928c-2.322,0.623-4.831,0.457-7.174,1.123
		c-1.917,0.542-2.439,1.449-3.901,2.607c-2.72,2.16-6.822,0.873-9.542,3.233c-0.845,0.731-1.637,0.507-2.56,0.942
		c-0.882,0.412-1.712,0.773-2.674,0.941c-1.282,0.229-2.578,0.157-3.858-0.043c-2.633,0.711-5.315,1.325-7.519,3.011
		c-1.336,1.025-2.271,2.462-2.936,4.009c1.033,0.779,1.509,2.398,0.729,3.521C10.151,54.961,9.466,55.643,8.674,56.141z"/>
	<path fill="#FCE9B4" d="M38.699,71.846c-0.185,0.047-0.375,0.088-0.559,0.133c-0.182,0.381-0.352,0.762-0.516,1.121L38.699,71.846z
		"/>
	<path fill="#FCE9B4" d="M65.773,32.04c-6.274,0.102-8.728,1.208-14.947,3.052c-3.841,1.139-13.503,6.368-17.328,7.392
		c-3.714,0.994-14.917,1.614-19.677,7.162c-1.954,2.277-2.834,6.344-2.558,9.109c0.539,5.301,3.396,10.531,9.146,12.203
		c5.419,1.576,12.263,2.299,17.732,1.02c0.804-1.73,1.823-3.641,3.468-5.111c1.878-1.678,4.554-2.494,6.775-3.766
		c1.979-1.129,4.161-1.832,6.098-3.047c1.85-1.158,3.172-2.775,4.835-4.178c3.364-2.84,7.615-4.426,10.942-7.342
		c2.158-1.894,4.215-3.757,6.097-5.918c1.659-1.906,5.093-2.393,2.331-4.661C74.135,34.217,70.441,31.963,65.773,32.04z"/>
	<path fill="#C7F22C" d="M58.799,34.976c0.856,0.435,1.84,1.3,2.784,1.692c1.641,0.684,7.067,1.39,8.788,0.277
		c1.23-0.796,1.976-2.094,3.414-2.822c1.012-0.512,2.67-0.84,2.907-2.147c0.485-2.662-4.903-2.513-3.249-5.178
		c-0.706-0.08-1.932,0.544-2.492,0.334c-1.065-0.401-0.215-0.441-0.718-1.258c-0.701-1.145-1.62-2.396-3.587-1.798
		c-1.932,0.59-1.965,6.266-4.808,5.533c-0.278-0.678,0.039-1.699-0.562-2.129c-0.871-0.622-1.858,0.328-2.171,0.904
		c-0.683,1.269,0.254,4.236-2.115,4.277c0.104-0.293,0.026-0.769,0.131-1.059c-0.948-2.145-2.31-0.877-2.102,0.214
		c-0.05,0.955,0.578,1.75,1.408,2.126l-0.18,0.357C57.304,34.397,57.886,34.51,58.799,34.976z"/>
	<path fill="#98D827" d="M61.986,36.81c-0.048-0.06-0.1-0.126-0.147-0.189c-0.196,0.002-0.387,0.009-0.57,0.011L61.986,36.81z"/>
	<path fill="#98D827" d="M62.533,30.825c-0.771-0.603-2.593,0.283-3.208,0.903c0.355,1.724,1.615,3.438,2.514,4.893
		c2.805-0.052,6.546,0.144,9.274-2.066c-0.88-0.545-1.165-1.585-0.175-2.144c-0.736,0.114-1.397-0.246-1.633-1.138
		c-1.017-0.155-1.306-1.331-2.117-1.836c-0.981-0.607-1.637-0.177-2.851,0.262c0.33,1.461,0.159,2.76-1.3,3.091
		C62.989,31.671,63.361,31.476,62.533,30.825z"/>
	<path fill="#C7F22C" d="M20.397,43.514c-0.141,0.14-0.264,0.295-0.37,0.456C20.194,43.851,20.326,43.705,20.397,43.514z"/>
	<path fill="#C7F22C" d="M7.248,52.102c0.38,0.684,1.917,0.213,2.568,0.301c2.136,0.285,2.678,0.568,3.25,2.672
		c1.853,0.082,4.067-0.523,5.698-1.229c1.451-0.627,2.382-3.109,2.129-4.811c-0.272-0.15-0.543-0.228-0.866-0.208l0.358-0.182
		c-0.971-1.205-1.296-3.276-0.358-4.676c-0.86,0.619-2.767,0.467-3.597,1.387c0.013-1.179,0.36-3.061-1.245-2.859
		c-1.249,0.155-1.416,2.308-3.019,2.053c-0.376,1.564,1.638,2.406-0.208,3.021c-1.377,0.457-3.205-0.78-4.465-0.37
		c0.352,1.214,1.488,2.698,1.391,3.928C8.259,51.018,6.775,51.252,7.248,52.102z"/>
	<path fill="#98D827" d="M16.082,54.385c-0.021-0.033-0.052-0.063-0.082-0.096c-0.11,0.021-0.21,0.051-0.274,0.096H16.082z"/>
	<path fill="#98D827" d="M16,54.289c0.551-0.105,1.56,0.02,2.233-0.121c1.521-0.324,0.884-0.68,1.741-1.443
		c1.679-1.492,2.596-1.691,1.456-4.23c-1.876,0.884-2.541-0.325-2.329-1.969c-1.461-1.302-2.595-0.202-2.3,1.609
		c-0.021-0.35-1.058-1.826-1.938-1.064c-0.57,0.494,0.321,1.682-0.071,2.445c-0.328-0.279-0.612-0.106-0.904-0.672
		c-0.78,1.612-1.36-0.047-2.427,0.376c-1.088,0.433-1.146,2.036-1.085,2.979c1.258,0.604,1.88-1.443,3.36-1.187
		C12.54,52.533,15.149,53.279,16,54.289z"/>
	<path fill="#C7F22C" d="M31.841,45.891c0.898,0.697,1.832,0.478,2.913,0.312c2.695-0.41,6.25-0.594,8.792-1.473
		c1.166-0.403,1.551-1.272,2.456-1.976c1.137-0.884,2.588-1.158,3.994-1.44c1.375-0.279,3.238-0.158,4.124-1.387
		c0.405-0.564,0.41-1.824,0.692-2.478c-1.061,0.223-1.547-0.494-1.079-1.449c-1.482,0.881-3.989-0.283-5.702,0.888
		c-1.386,0.946-0.108,0.337-0.541,1.965c-0.248,0.919-0.94,1.593-1.951,1.044c0.156-0.47-0.091-0.632,0.271-1.062
		c-0.443,0.213-0.763,0.058-1.174,0.168c0.985-2.242-1.543-5.092-3.298-2.494c-0.308,0.454-0.067,1.225-0.298,1.635
		c-0.229,0.396-0.673,0.405-0.906,0.708c-0.532,0.691-1.546,2.213-1.967,0.6c-0.78,0.856-1.922,0.515-2.913,0.607
		c-1.66,0.149-1.515,0.39-2.881-0.809c-0.851-0.75-1.566-1.76-2.424,0.135c-0.518,1.146,0.278,3.059,0.684,4.129h-0.542
		C30.984,43.768,30.999,45.236,31.841,45.891z"/>
	<path fill="#98D827" d="M32.792,44.313c1.455,0.074,3.036,0.106,4.452,0.038c1.714-0.082,3.167-1.171,4.833-1.581
		c1.973-0.487,4.188-0.372,6.104-0.977c1.262-0.401,2.736-2.377,3.956-1.998c-0.02-0.992,0.452-3.039-0.011-3.525
		c-0.779-0.822-1.61-0.106-2.421-0.792c0.246,0-1.725-0.911-1.213-0.245c-0.892,0.374-1.208,0.173-2.106,0.545
		c-1.382,0.574-1.015,1.27-1.106,2.618c-0.537,0.209-1.013,0.484-1.562,0.605c0.455,0.561,0.333,0.969,0.114,1.549
		c-0.831-0.939-1.199-1.755-2.618-1.017c-0.021,1.067,0.578,2.367-0.555,3c-0.682-0.669-1.488-0.985-2.296-1.399
		c-0.106,1.732-2.381,1.884-2.009,0.044c-0.623,0.678-1.713,1.526-2.193,0.499c-1.776,0.491-1.917-0.187-2.801-1.439
		c-0.058,0.974-0.354,2.651,0.685,3.03l-0.182,0.36C32.319,43.879,32.594,43.755,32.792,44.313z"/>
	<path fill="#FF6C39" d="M27.493,43.021c-1.616,0.403-4.945,2.202-6.213,3.414c-1.001,0.957-3.023,4.071-2.068,5.42
		c2.009,0.668,5.709-1.6,7.886-2.592c3.179-1.449,6.625-3.138,9.961-3.999C36.809,42.208,29.584,42.497,27.493,43.021z"/>
	<path opacity="0.45" fill="#F99F87" d="M25.168,46.612c0.077-0.029,0.168-0.05,0.264-0.064c0.323-0.449,0.762-0.826,1.406-0.972
		c0.359-0.095,0.726-0.155,1.098-0.185c0.179,0.014,0.318,0.027,0.428,0.04c0.367-0.208,0.734-0.403,1.136-0.545
		c1.936-0.678,4.144-0.31,5.75,0.911c0.592-0.198,1.185-0.381,1.772-0.532c-0.252-3.059-7.476-2.768-9.568-2.244
		c-1.616,0.403-4.945,2.202-6.213,3.414c-1.002,0.957-3.025,4.071-2.067,5.42c1.055,0.35,2.573-0.111,4.09-0.769
		c-0.559-0.844-0.665-2.011-0.106-2.874C23.704,47.37,24.244,46.984,25.168,46.612z"/>
	<path fill="#E84707" d="M27.493,43.021c-1.616,0.403-4.945,2.202-6.213,3.414c-1.001,0.957-3.023,4.071-2.068,5.42
		c0.493,0.162,1.087,0.146,1.736,0.02c0.6-5.595,6.368-8.005,11.9-7.602c1.413-0.006,2.81,0.189,4.132,0.601
		C36.165,42.235,29.491,42.521,27.493,43.021z"/>
	<path opacity="0.58" fill="#AA2D0B" d="M31.354,45.104c-3.982,1.054-5.805,2.66-9.744,4.074c-1.683,0.605-2.015,0.043-2.264,0.103
		c-0.424,0.978-0.608,1.959-0.173,2.574c2.007,0.668,5.709-1.6,7.886-2.592c3.179-1.449,6.623-3.138,9.963-3.999
		c-0.069-0.865-0.699-1.459-1.61-1.86C34.34,44.218,32.975,44.674,31.354,45.104z"/>
	<path fill="#FF6C39" d="M54.945,33.504c-1.611,0.401-4.942,2.202-6.213,3.414c-1,0.957-3.021,4.069-2.064,5.419
		c2.007,0.665,5.708-1.602,7.883-2.591c3.181-1.449,6.624-3.14,9.964-4C64.261,32.688,57.04,32.979,54.945,33.504z"/>
	<path opacity="0.45" fill="#F99F87" d="M52.623,37.097c0.076-0.031,0.168-0.051,0.264-0.069c0.321-0.449,0.762-0.824,1.406-0.97
		c0.357-0.095,0.725-0.157,1.098-0.184c0.177,0.012,0.316,0.024,0.429,0.04c0.365-0.21,0.733-0.403,1.137-0.545
		c1.93-0.676,4.145-0.31,5.743,0.908c0.598-0.197,1.189-0.38,1.776-0.532c-0.251-3.058-7.478-2.766-9.569-2.242
		c-1.614,0.401-4.943,2.2-6.214,3.414c-0.998,0.957-3.021,4.069-2.064,5.419c1.052,0.349,2.57-0.113,4.088-0.77
		c-0.56-0.842-0.661-2.011-0.105-2.871C51.155,37.85,51.697,37.467,52.623,37.097z"/>
	<path fill="#E84707" d="M54.945,33.504c-1.611,0.401-4.942,2.202-6.213,3.414c-1,0.957-3.021,4.069-2.064,5.419
		c0.491,0.162,1.087,0.147,1.736,0.018c0.599-5.593,6.368-8.001,11.901-7.598c1.409-0.011,2.805,0.185,4.131,0.599
		C63.618,32.716,56.944,33.004,54.945,33.504z"/>
	<path opacity="0.58" fill="#AA2D0B" d="M58.81,35.585c-3.982,1.056-5.806,2.662-9.745,4.075c-1.684,0.606-2.014,0.044-2.266,0.104
		c-0.423,0.976-0.609,1.958-0.17,2.573c2.004,0.665,5.708-1.602,7.885-2.591c3.18-1.449,6.625-3.14,9.963-4
		c-0.071-0.863-0.7-1.459-1.609-1.86C61.795,34.699,60.431,35.157,58.81,35.585z"/>
	<path fill="#ED7743" d="M83.705,26.122c-7.044-0.288-14.031,5.85-20.439,8.286c-3.867,1.473-7.628,3.233-11.522,4.668
		c-4.211,1.551-8.619,2.516-12.865,3.94c-5.327,1.786-10.904,3.901-15.958,6.369c-2.042,1-5.506,1.81-7.352,3.185
		c-8.42,3.316-11.117,11.564-6.644,17.346c4.136,5.346,10.705,3.389,16.687,2.109c9.577-2.049,18.565-6.232,28.012-9.014
		c5.215-1.535,10.809-2.484,15.693-4.963c3.741-1.9,6.914-4.311,10.267-6.785c4.714-3.48,12.363-6.458,13.846-12.771
		c0.666-2.839,1.038-7.176-1.294-9.143C89.84,27.413,86.549,26.236,83.705,26.122z"/>
	<path fill="#E06D20" d="M91.115,28.585c-0.469,3.083-4.15,3.706-7.047,3.379c-4.49-0.507-8.796,1.46-13.172,2.395
		c-2.709,1.265-5.479,2.402-8.264,3.504c-4.101,1.624-8.109,3.531-12.246,5.052c-4.828,1.779-9.968,2.933-14.776,4.826
		c-1.605,0.873-3.233,1.705-4.87,2.521c-0.306,0.41-0.751,0.753-1.354,0.966c-3.271,1.16-6.496,2.645-9.327,4.676
		c-1.405,1.006-2.873,2.146-3.948,3.52c-0.606,0.771-1.005,1.709-1.7,2.418c-2.497,2.557-5.73,1.785-7.352-0.355
		c-0.682,2.869-0.104,5.887,1.863,8.43c4.136,5.346,10.705,3.389,16.687,2.109c9.577-2.049,18.565-6.232,28.012-9.014
		c5.215-1.535,10.809-2.484,15.693-4.963c3.741-1.9,6.914-4.311,10.267-6.785c4.714-3.48,12.363-6.458,13.846-12.771
		c0.666-2.839,1.038-7.176-1.294-9.143C91.813,29.079,91.471,28.827,91.115,28.585z"/>
	<path fill="#D6561D" d="M11.794,70.455c-2.003-0.711-3.703-2.184-4.64-4.002c0.343,1.209,0.93,2.379,1.77,3.463
		c3.668,4.738,9.247,3.738,14.631,2.559c-0.898-0.947-1.8-1.883-2.649-2.871C18.15,71.197,15.411,71.738,11.794,70.455z"/>
	<path fill="#D6561D" d="M84.752,47.922c3.835-2.406,7.673-5.152,8.677-9.43c0.479-2.04,0.797-4.85,0.079-7.001
		c-0.396,1.871-1.659,3.566-3.998,4.565c-1.198,0.512-2.452,0.735-3.725,0.801c0.217,1.541,0.075,3.154-0.133,4.685
		C85.361,43.668,85.091,45.804,84.752,47.922z"/>
	<path fill="#E06D20" d="M63.266,34.408c-3.867,1.473-7.628,3.233-11.522,4.668c-4.211,1.549-8.619,2.516-12.865,3.94
		c-5.327,1.786-10.904,3.899-15.958,6.369c-2.042,0.999-5.506,1.81-7.352,3.183c-3.679,1.451-6.257,3.842-7.63,6.561
		c1.947-2.398,4.365-4.305,6.995-5.254c1.524-0.869,3.127-1.553,4.775-2.129c0.208-0.094,0.414-0.184,0.621-0.271
		c10.414-4.448,21.635-6.607,32.034-11.101c4.962-2.143,9.661-4.946,14.765-6.739c1.707-0.6,3.354-1.229,4.98-1.936
		c4.354-3.228,9.219-4.754,14.272-5.176c-0.905-0.223-1.809-0.366-2.675-0.401C76.661,25.834,69.674,31.972,63.266,34.408z"/>
	<path fill="#C7F22C" d="M91.94,44.878c2.968-2.625,4.996-3.207,4.026-5.793c-0.581-1.536-0.458-1.297-1.675-2.36
		c-0.882-0.77-2.348-0.09-1.85-1.909c-0.955,0.16-2.744,0.884-3.745,0.518c-1.837-0.67-0.697-1.498-1.61-2.434
		c-1.188-1.216-3.858-1.188-4.84,1.344l0.538,4.034c-2.712,1.344-0.027,10.125,2.061,10.901c1.534,0.126,4.023,0.484,3.504-1.257
		c-0.633-2.112,1.01,1.146,4.157-0.304C93.864,46.188,88.972,47.5,91.94,44.878z"/>
	<path fill="#98D827" d="M93.816,39.963c-1.392,0.024-3.362-0.15-2.096-1.75c-0.978-0.044-1.797,0.558-2.737,0.64
		c-0.141-0.567-0.466-1.039-0.722-1.524c-0.507,0.399-1.514,1.141-1.746,1.377l-0.173-0.352c0.343,0.933-0.232,2.179-0.854,2.928
		c1.499-0.108,3.896,0.292,5.323,0.702c-0.524-0.268-1.029-0.64-1.483-1.05C90.144,39.226,92.783,42.548,93.816,39.963z"/>
	<path fill="#FF6C39" d="M43.523,42.949c-1.615,0.403-4.942,2.202-6.213,3.414c-1.001,0.957-3.023,4.07-2.065,5.419
		c2.005,0.668,5.708-1.601,7.883-2.591c3.181-1.449,6.625-3.138,9.963-4C52.837,42.133,45.615,42.426,43.523,42.949z"/>
	<path opacity="0.45" fill="#F99F87" d="M41.199,46.542c0.076-0.031,0.168-0.049,0.264-0.069c0.323-0.447,0.763-0.821,1.408-0.968
		c0.357-0.097,0.725-0.157,1.095-0.184c0.179,0.013,0.316,0.025,0.429,0.038c0.366-0.21,0.731-0.403,1.137-0.545
		c1.932-0.675,4.144-0.308,5.748,0.911c0.591-0.197,1.184-0.381,1.771-0.534c-0.251-3.057-7.475-2.764-9.566-2.241
		c-1.614,0.403-4.945,2.2-6.214,3.414c-1.001,0.957-3.023,4.07-2.069,5.419c1.057,0.35,2.573-0.109,4.095-0.769
		c-0.562-0.841-0.668-2.011-0.108-2.872C39.735,47.294,40.273,46.909,41.199,46.542z"/>
	<path fill="#E84707" d="M43.523,42.949c-1.615,0.403-4.942,2.202-6.213,3.414c-1.001,0.957-3.023,4.07-2.065,5.419
		c0.492,0.162,1.088,0.148,1.734,0.021c0.599-5.594,6.368-8.003,11.9-7.601c1.411-0.011,2.807,0.185,4.132,0.597
		C52.196,42.163,45.522,42.449,43.523,42.949z"/>
	<path opacity="0.58" fill="#AA2D0B" d="M47.385,45.032c-3.98,1.056-5.803,2.661-9.745,4.074c-1.68,0.605-2.014,0.043-2.266,0.104
		c-0.425,0.977-0.607,1.956-0.173,2.571c2.009,0.668,5.712-1.601,7.89-2.591c3.175-1.449,6.622-3.138,9.96-4
		c-0.07-0.861-0.7-1.458-1.61-1.857C50.371,44.146,49.004,44.601,47.385,45.032z"/>
	<path fill="#C7F22C" d="M79.8,34.984c-0.321-0.667-0.524-1.366-0.82-2.046c-1.438-0.22-4.103-1.531-5.548-0.793
		c-1.714,0.881-1.146,4.37-2.984,4.472c0.032-0.108,0.212-0.611,0.208-0.718c-1.728,0.485-4.438-0.426-5.957,0.418
		c-1.377,0.762-1.899,3.876-3.968,1.929c-0.637,0.729-1.476,1.404-2.439,1.681c-0.358-0.154-0.083-0.343-0.243-0.485
		c-1.411,2.995-4.833-0.21-6.683,0.765c0.157,4.656-2.479,3.566-5.931,4.571c0.246,1.174,0.655,2.572,1.309,3.721l-0.266,0.806
		c3.93-1.842,8.675-1.41,13.112-2.144c3.498-0.578,8.588-1.313,11.705-2.953c2.659-1.4,4.279-4.053,6.816-5.594
		C75.523,37.396,78.479,35.744,79.8,34.984z"/>
	<path fill="#F98D62" d="M19.994,52.289c-0.039,0.002-0.078,0.01-0.118,0.014c-0.162,0.072-0.323,0.143-0.48,0.229L19.994,52.289z"
		/>
	<path fill="#F98D62" d="M19.876,52.303c0.04-0.004,0.08-0.012,0.118-0.014l-0.599,0.242C19.553,52.445,19.714,52.375,19.876,52.303
		c-2.447,0.195-5.741,2.336-7.517,3.945c-0.666,0.604-1.838,0.982-2.328,1.662c-0.751,1.035,0.029,1.76,0.288,2.738
		c0.705-0.08,1.564-1.268,2.133-1.775c0.822-0.73,1.67-1.695,2.485-2.303c1.472-1.094,3.129-2.074,4.578-3.107
		c1.502-1.074,3.636-1.191,5.389-1.979c1.079-0.484,1.998-1.235,3.112-1.678c0.81-0.322,1.826-0.551,2.504-0.961
		c-2.067-0.443-3.927,0.878-5.644,1.739C23.245,51.4,21.482,51.582,19.876,52.303z"/>
	<path fill="#C7F22C" d="M14.753,70.008c1.644,0.242,4.581,2.32,6.182,1.838c2.002-0.604,4.311-3.314,4.767-3.967
		c1.179-1.691,1.728-3.693,2.284-5.66c0.483-1.729,2.618-6.383,1.812-7.533c0.126-3.289-5.668-6.357-6.534-3.599
		c4.71,6.087-8.039,2.456-4.864,7.382c-5.333-3.395,0.13,4.816-2.251,5.15c-1.539,0.219-1.458,1.697,1.227,2.834
		C13.571,66.215,10.689,69.418,14.753,70.008z"/>
	<path fill="#F7B116" d="M61.269,40.925c-4.758,1.862-26.367,9.491-31.49,11.413c-6.582,2.34-15.975,9.064-9.371,18.621
		c5.203,7.521,24.392,1.346,31.404-1.445c13.064-5.199,38.689-14.348,35.659-31.198C85.403,26.8,67.959,38.305,61.269,40.925z"/>
	<path opacity="0.6" fill="#EA940A" d="M61.269,58.324c-8.078,3.334-26.213,9.73-32.776,9.502c-8.465-0.297-8.559-6.086-8.602-8.336
		c-0.006-0.045-0.021-0.092-0.028-0.141c-2.111,3.109-2.618,7.035,0.545,11.609c5.198,7.521,24.392,1.346,31.402-1.447
		c13.063-5.197,38.685-14.346,35.661-31.196c-0.405-2.25-1.397-3.617-2.781-4.348c1.095,2.891,0.536,7.608-2.731,10.913
		C78.099,48.781,71.113,54.26,61.269,58.324z"/>
	<path opacity="0.61" fill="#DD870B" d="M83.375,48.781c-4.393,5.497-6.379,7.467-12.262,11.258
		C61.166,66.453,37.624,73.1,28.472,72.475c-3.876-0.268-6.693-0.332-8.981-3.018c0.264,0.492,0.566,0.992,0.917,1.502
		c5.203,7.521,24.392,1.346,31.404-1.447c13.064-5.197,38.689-14.346,35.659-31.196c-0.107-0.618-0.27-1.163-0.462-1.653
		C86.645,40.669,85.725,45.841,83.375,48.781z"/>
	<path fill="#FFC043" d="M24.769,57.031c-0.088,0.037-0.181,0.084-0.271,0.129c-0.019,0.012-0.035,0.023-0.051,0.035L24.769,57.031z
		"/>
	<path fill="#FFC043" d="M62.686,41.366c-3.848,1.951-7.971,3.158-11.916,4.801c-3.256,1.356-6.325,2.452-9.688,3.315
		c-1.817,0.465-3.345,1.365-5.005,2.186c-1.493,0.734-2.993,0.939-4.525,1.615c-2.426,1.068-5.026,2.439-7.053,3.877
		c0.089-0.045,0.183-0.092,0.271-0.129l-0.322,0.164c0.016-0.012,0.032-0.023,0.051-0.035c-1.025,0.498-2.184,1.514-2.283,2.59
		c2.104,1.266,6.436-0.129,8.563-1.063c1.932-0.85,3.619-2.129,5.619-2.824c1.588-0.553,3.314-0.629,4.882-1.25
		c3.604-1.426,6.206-4.131,9.939-5.375c4.065-1.35,7.89-2.199,11.701-4.194c3.668-1.921,8.302-1.998,11.751-4.159
		c2.385-1.495,5.839-3.231,6.6-6.107c-2.252-0.928-5.93,1.021-8.056,1.869C69.7,38.056,66.092,39.642,62.686,41.366z"/>
	<g>
		<g>
			<g>
				<path opacity="0.48" fill="#BC8122" d="M73.213,49.357c-0.971,0.394-1.041,1.047-1.312,1.868
					C73.157,51.475,74.69,49.056,73.213,49.357z"/>
				<path fill="#FCECBB" d="M73.058,49.095c-0.946,0.447-0.981,1.103-1.209,1.936C73.115,51.215,74.518,48.716,73.058,49.095z"/>
				<path fill="#FFFFFF" d="M72.436,49.696c-0.227,0.274-0.421,0.66-0.401,1.023l0.009,0.018c0.021-0.049,0.039-0.095,0.058-0.148
					c0.052-0.133,0.08-0.285,0.14-0.41c0.08-0.172,0.232-0.326,0.368-0.457c0.119-0.113,0.247-0.221,0.381-0.308
					c0.109-0.068,0.343-0.088,0.409-0.196c-0.119-0.104-0.345,0.02-0.464,0.084C72.76,49.401,72.568,49.542,72.436,49.696z"/>
			</g>
			<g>
				<path opacity="0.48" fill="#BC8122" d="M65.319,49.596c0.651,0.703,2.646-0.087,1.616-0.555
					C66.174,48.852,65.844,49.215,65.319,49.596z"/>
				<path fill="#FCECBB" d="M65.372,49.455c0.69,0.668,2.636-0.227,1.584-0.636C66.185,48.668,65.877,49.049,65.372,49.455z"/>
				<path fill="#FFFFFF" d="M66.315,48.909c-0.257,0.062-0.545,0.209-0.692,0.439l-0.007,0.013c0.039-0.019,0.069-0.04,0.102-0.063
					c0.091-0.058,0.173-0.137,0.268-0.187c0.125-0.071,0.284-0.097,0.424-0.117c0.121-0.018,0.248-0.025,0.368-0.018
					c0.096,0.002,0.245,0.098,0.333,0.059c-0.025-0.112-0.219-0.137-0.318-0.152C66.64,48.869,66.464,48.871,66.315,48.909z"/>
			</g>
			<g>
				<path opacity="0.48" fill="#BC8122" d="M80.832,50.047c0.649,0.707,2.645-0.083,1.614-0.553
					C81.685,49.305,81.356,49.669,80.832,50.047z"/>
				<path fill="#FCECBB" d="M80.887,49.908c0.686,0.669,2.634-0.224,1.582-0.638C81.697,49.124,81.39,49.502,80.887,49.908z"/>
				<path fill="#FFFFFF" d="M81.831,49.361c-0.263,0.064-0.55,0.212-0.695,0.44l-0.007,0.017c0.033-0.023,0.064-0.044,0.103-0.066
					c0.09-0.059,0.177-0.137,0.265-0.188c0.127-0.069,0.284-0.096,0.426-0.114c0.119-0.017,0.245-0.026,0.365-0.017
					c0.096,0.004,0.246,0.095,0.335,0.058c-0.029-0.114-0.216-0.14-0.317-0.151C82.152,49.324,81.976,49.326,81.831,49.361z"/>
			</g>
			<g>
				<path opacity="0.48" fill="#BC8122" d="M65.992,55.438c0.647,0.705,2.645-0.088,1.617-0.553
					C66.846,54.695,66.518,55.059,65.992,55.438z"/>
				<path fill="#FCECBB" d="M66.046,55.299c0.688,0.666,2.638-0.229,1.584-0.639C66.86,54.512,66.549,54.893,66.046,55.299z"/>
				<path fill="#FFFFFF" d="M66.989,54.75c-0.26,0.063-0.547,0.209-0.696,0.441l-0.002,0.014c0.035-0.021,0.064-0.041,0.1-0.063
					c0.092-0.059,0.175-0.139,0.267-0.189c0.124-0.068,0.285-0.096,0.428-0.115c0.119-0.016,0.243-0.023,0.364-0.018
					c0.096,0.004,0.246,0.098,0.333,0.061c-0.025-0.113-0.217-0.141-0.316-0.152C67.314,54.709,67.138,54.711,66.989,54.75z"/>
			</g>
			<g>
				<path opacity="0.48" fill="#BC8122" d="M82.881,42.728c-0.718,0.319-0.753,0.809-0.937,1.431
					C82.891,44.313,83.978,42.464,82.881,42.728z"/>
				<path fill="#FCECBB" d="M82.758,42.537c-0.696,0.355-0.709,0.846-0.856,1.476C82.852,44.117,83.843,42.214,82.758,42.537z"/>
				<path fill="#FFFFFF" d="M82.309,43.002c-0.167,0.208-0.302,0.5-0.274,0.773l0.007,0.013c0.012-0.036,0.024-0.071,0.038-0.111
					c0.036-0.102,0.051-0.215,0.093-0.31c0.058-0.133,0.166-0.251,0.264-0.353c0.087-0.088,0.179-0.173,0.281-0.241
					c0.076-0.054,0.253-0.073,0.297-0.157c-0.087-0.074-0.259,0.023-0.343,0.075C82.542,42.77,82.404,42.882,82.309,43.002z"/>
			</g>
			<g>
				<path opacity="0.48" fill="#BC8122" d="M75.815,42.416c-1.271,0.813,1.518,1.477,2.243,0.42
					C77.291,42.437,76.785,42.021,75.815,42.416z"/>
				<path fill="#FCECBB" d="M75.742,42.121c-1.311,0.747,1.436,1.557,2.217,0.541C77.216,42.223,76.734,41.78,75.742,42.121z"/>
				<path fill="#FFFFFF" d="M75.977,42.183c-0.131,0.033-0.38,0.106-0.394,0.263c0.124,0.033,0.306-0.119,0.432-0.144
					c0.155-0.033,0.324-0.046,0.483-0.046c0.192,0,0.407,0.004,0.587,0.071c0.131,0.046,0.254,0.137,0.387,0.195
					c0.048,0.024,0.096,0.044,0.145,0.067l-0.007-0.016c-0.239-0.277-0.649-0.418-1.003-0.454
					C76.402,42.098,76.17,42.129,75.977,42.183z"/>
			</g>
			<g>
				<path opacity="0.48" fill="#BC8122" d="M59.117,63.857c-0.079,1.506,2.085-0.371,1.652-1.572
					C59.999,62.672,59.364,62.838,59.117,63.857z"/>
				<path fill="#FCECBB" d="M58.838,63.744c-0.159,1.498,2.101-0.258,1.732-1.482C59.777,62.609,59.138,62.74,58.838,63.744z"/>
				<path fill="#FFFFFF" d="M59.021,63.592c-0.045,0.123-0.135,0.367-0.014,0.469c0.096-0.078,0.081-0.314,0.135-0.434
					c0.064-0.145,0.151-0.287,0.246-0.418c0.109-0.158,0.241-0.328,0.398-0.438c0.115-0.074,0.262-0.125,0.386-0.195
					c0.049-0.029,0.093-0.055,0.137-0.082l-0.02-0.004c-0.363,0.033-0.715,0.281-0.95,0.553
					C59.204,63.191,59.094,63.4,59.021,63.592z"/>
			</g>
			<g>
				<path opacity="0.48" fill="#BC8122" d="M66.549,60.402c-0.765-0.398-1.271-0.816-2.242-0.424
					C63.038,60.795,65.827,61.457,66.549,60.402z"/>
				<path fill="#FCECBB" d="M66.453,60.229c-0.744-0.441-1.225-0.885-2.217-0.543C62.927,60.43,65.671,61.242,66.453,60.229z"/>
				<path fill="#FFFFFF" d="M64.467,59.746c-0.131,0.037-0.375,0.109-0.391,0.262c0.122,0.033,0.304-0.117,0.431-0.145
					c0.156-0.029,0.324-0.043,0.486-0.043c0.187-0.002,0.405,0.004,0.585,0.07c0.131,0.047,0.255,0.137,0.386,0.197
					c0.051,0.023,0.095,0.045,0.146,0.064l-0.009-0.018c-0.239-0.277-0.647-0.418-1.004-0.451
					C64.897,59.662,64.663,59.695,64.467,59.746z"/>
			</g>
			<g>
				<path opacity="0.48" fill="#BC8122" d="M76.965,55.355c-0.407,1.053,1.57,0.229,1.542-0.729
					C77.869,54.721,77.381,54.688,76.965,55.355z"/>
				<path fill="#FCECBB" d="M76.792,55.209c-0.466,1.029,1.558,0.313,1.58-0.646C77.729,54.621,77.243,54.568,76.792,55.209z"/>
				<path fill="#FFFFFF" d="M77.313,54.828c-0.131,0.076-0.26,0.199-0.354,0.316c-0.066,0.076-0.186,0.232-0.121,0.33
					c0.088-0.033,0.132-0.203,0.196-0.275c0.081-0.088,0.178-0.17,0.275-0.24c0.113-0.088,0.248-0.176,0.386-0.217
					c0.1-0.025,0.215-0.027,0.318-0.049c0.044-0.008,0.079-0.016,0.118-0.025l-0.012-0.006C77.853,54.6,77.541,54.693,77.313,54.828
					z"/>
			</g>
			<g>
				<path opacity="0.48" fill="#BC8122" d="M73.608,56.121c-0.641,0.096-1.127,0.064-1.545,0.732
					C71.656,57.906,73.636,57.078,73.608,56.121z"/>
				<path fill="#FCECBB" d="M73.474,56.059c-0.646,0.061-1.132,0.004-1.581,0.646C71.425,57.734,73.446,57.018,73.474,56.059z"/>
				<path fill="#FFFFFF" d="M72.413,56.322c-0.128,0.078-0.261,0.201-0.354,0.316c-0.063,0.082-0.184,0.232-0.121,0.33
					c0.087-0.033,0.129-0.201,0.195-0.271c0.083-0.09,0.18-0.174,0.275-0.242c0.114-0.086,0.249-0.178,0.387-0.217
					c0.098-0.027,0.211-0.029,0.319-0.051c0.042-0.008,0.082-0.014,0.117-0.021l-0.013-0.01
					C72.953,56.094,72.644,56.189,72.413,56.322z"/>
			</g>
			<g>
				<path opacity="0.48" fill="#BC8122" d="M85.645,45.375c-0.64,0.097-1.127,0.066-1.543,0.732
					C83.691,47.162,85.671,46.333,85.645,45.375z"/>
				<path fill="#FCECBB" d="M85.51,45.313c-0.644,0.06-1.13,0.006-1.581,0.649C83.463,46.991,85.481,46.271,85.51,45.313z"/>
				<path fill="#FFFFFF" d="M84.451,45.581c-0.132,0.075-0.261,0.196-0.356,0.314c-0.063,0.08-0.182,0.233-0.118,0.331
					c0.087-0.033,0.129-0.204,0.193-0.274c0.082-0.089,0.179-0.171,0.274-0.24c0.116-0.088,0.25-0.177,0.388-0.217
					c0.099-0.027,0.213-0.027,0.319-0.053c0.042-0.005,0.079-0.012,0.118-0.022l-0.01-0.008
					C84.989,45.35,84.682,45.443,84.451,45.581z"/>
			</g>
		</g>
		<g>
			<g>
				<path opacity="0.48" fill="#BC8122" d="M47.356,54.818c-0.972,0.395-1.041,1.045-1.311,1.863
					C47.301,56.936,48.834,54.514,47.356,54.818z"/>
				<path fill="#FCECBB" d="M47.204,54.557c-0.948,0.447-0.983,1.1-1.209,1.932C47.262,56.674,48.664,54.176,47.204,54.557z"/>
				<path fill="#FFFFFF" d="M46.582,55.156c-0.229,0.273-0.421,0.66-0.401,1.023l0.004,0.02c0.024-0.051,0.04-0.096,0.062-0.146
					c0.05-0.135,0.077-0.287,0.137-0.412c0.082-0.174,0.233-0.328,0.372-0.459c0.115-0.113,0.244-0.221,0.381-0.307
					c0.106-0.07,0.341-0.088,0.405-0.197c-0.116-0.104-0.345,0.02-0.461,0.086C46.904,54.863,46.711,55.004,46.582,55.156z"/>
			</g>
			<g>
				<path opacity="0.48" fill="#BC8122" d="M38.027,59.463c-0.971,0.395-1.039,1.049-1.311,1.865
					C37.972,61.58,39.505,59.162,38.027,59.463z"/>
				<path fill="#FCECBB" d="M37.875,59.203c-0.95,0.445-0.984,1.1-1.21,1.934C37.932,61.32,39.333,58.822,37.875,59.203z"/>
				<path fill="#FFFFFF" d="M37.254,59.803c-0.23,0.271-0.422,0.658-0.403,1.025l0.005,0.016c0.024-0.049,0.04-0.096,0.062-0.146
					c0.051-0.137,0.078-0.285,0.139-0.41c0.081-0.174,0.23-0.33,0.368-0.461c0.116-0.111,0.247-0.219,0.381-0.307
					c0.106-0.07,0.341-0.088,0.408-0.195c-0.118-0.102-0.346,0.02-0.463,0.084C37.574,59.508,37.385,59.648,37.254,59.803z"/>
			</g>
			<g>
				<path opacity="0.48" fill="#BC8122" d="M48.2,61.611c0.649,0.707,2.641-0.084,1.613-0.551
					C49.051,60.871,48.722,61.232,48.2,61.611z"/>
				<path fill="#FCECBB" d="M48.251,61.475c0.688,0.666,2.637-0.229,1.587-0.639C49.064,60.686,48.754,61.066,48.251,61.475z"/>
				<path fill="#FFFFFF" d="M49.196,60.926c-0.26,0.063-0.547,0.211-0.695,0.441l-0.006,0.016c0.035-0.021,0.068-0.041,0.104-0.064
					c0.089-0.061,0.172-0.139,0.264-0.188c0.125-0.068,0.285-0.098,0.424-0.117c0.12-0.016,0.248-0.025,0.368-0.016
					c0.096,0.004,0.248,0.096,0.33,0.059c-0.022-0.113-0.215-0.141-0.314-0.15C49.519,60.887,49.344,60.889,49.196,60.926z"/>
			</g>
			<g>
				<path opacity="0.48" fill="#BC8122" d="M30.304,62.756c0.649,0.705,2.643-0.086,1.616-0.553
					C31.155,62.014,30.829,62.379,30.304,62.756z"/>
				<path fill="#FCECBB" d="M30.357,62.615c0.688,0.67,2.636-0.225,1.584-0.639C31.17,61.832,30.862,62.211,30.357,62.615z"/>
				<path fill="#FFFFFF" d="M31.301,62.068c-0.258,0.063-0.547,0.211-0.695,0.441l-0.004,0.014c0.036-0.02,0.067-0.041,0.101-0.064
					c0.093-0.057,0.174-0.139,0.268-0.188c0.122-0.068,0.282-0.096,0.424-0.113c0.121-0.018,0.248-0.025,0.366-0.02
					c0.099,0.004,0.248,0.1,0.333,0.059c-0.026-0.111-0.217-0.137-0.316-0.15C31.626,62.029,31.449,62.031,31.301,62.068z"/>
			</g>
			<g>
				<path opacity="0.48" fill="#BC8122" d="M36.981,67.824c0.649,0.705,2.643-0.084,1.618-0.553
					C37.836,67.082,37.505,67.447,36.981,67.824z"/>
				<path fill="#FCECBB" d="M37.035,67.686c0.688,0.67,2.637-0.227,1.585-0.639C37.848,66.898,37.538,67.279,37.035,67.686z"/>
				<path fill="#FFFFFF" d="M37.979,67.137c-0.259,0.063-0.546,0.211-0.696,0.441v0.016c0.031-0.021,0.062-0.041,0.1-0.064
					c0.089-0.059,0.17-0.137,0.264-0.186c0.124-0.07,0.285-0.098,0.427-0.117c0.118-0.016,0.246-0.027,0.364-0.018
					c0.096,0.004,0.25,0.098,0.333,0.061c-0.025-0.115-0.217-0.139-0.314-0.154C38.304,67.096,38.127,67.1,37.979,67.137z"/>
			</g>
			<g>
				<path opacity="0.48" fill="#BC8122" d="M50.346,67.813c-0.763-0.402-1.269-0.82-2.237-0.424
					C46.838,68.203,49.627,68.863,50.346,67.813z"/>
				<path fill="#FCECBB" d="M50.25,67.635c-0.742-0.439-1.225-0.883-2.214-0.539C46.723,67.84,49.472,68.65,50.25,67.635z"/>
				<path fill="#FFFFFF" d="M48.267,67.154c-0.129,0.037-0.376,0.107-0.392,0.26c0.124,0.033,0.305-0.115,0.429-0.141
					c0.158-0.033,0.328-0.043,0.488-0.047c0.19-0.002,0.406,0.006,0.585,0.072c0.133,0.047,0.254,0.137,0.387,0.195
					c0.05,0.025,0.096,0.047,0.145,0.066l-0.007-0.02c-0.239-0.275-0.649-0.418-1.005-0.451
					C48.694,67.068,48.462,67.102,48.267,67.154z"/>
			</g>
			<g>
				<path opacity="0.48" fill="#BC8122" d="M33.578,71.992c-0.766-0.4-1.271-0.816-2.244-0.422
					C30.065,72.385,32.854,73.047,33.578,71.992z"/>
				<path fill="#FCECBB" d="M33.48,71.816c-0.742-0.438-1.225-0.881-2.215-0.539C29.956,72.021,32.702,72.832,33.48,71.816z"/>
				<path fill="#FFFFFF" d="M31.496,71.336c-0.128,0.037-0.378,0.107-0.39,0.262c0.122,0.033,0.303-0.117,0.43-0.143
					c0.155-0.033,0.324-0.045,0.487-0.045c0.188-0.002,0.405,0.004,0.585,0.07c0.13,0.047,0.252,0.137,0.385,0.197
					c0.05,0.023,0.093,0.043,0.146,0.064l-0.008-0.02c-0.241-0.273-0.649-0.416-1.002-0.451
					C31.927,71.252,31.691,71.285,31.496,71.336z"/>
			</g>
			<g>
				<path opacity="0.48" fill="#BC8122" d="M43.627,64.564c-0.763-0.4-1.27-0.818-2.242-0.424
					C40.119,64.957,42.904,65.619,43.627,64.564z"/>
				<path fill="#FCECBB" d="M43.531,64.389c-0.746-0.439-1.225-0.881-2.219-0.541C40.005,64.594,42.75,65.402,43.531,64.389z"/>
				<path fill="#FFFFFF" d="M41.547,63.908c-0.131,0.035-0.377,0.107-0.391,0.262c0.12,0.033,0.302-0.117,0.427-0.145
					c0.157-0.031,0.326-0.043,0.49-0.047c0.19,0,0.406,0.008,0.583,0.074c0.131,0.045,0.253,0.137,0.385,0.197
					c0.051,0.023,0.097,0.045,0.147,0.064l-0.009-0.02c-0.24-0.275-0.648-0.416-1.002-0.451
					C41.979,63.824,41.741,63.857,41.547,63.908z"/>
			</g>
			<g>
				<path opacity="0.48" fill="#BC8122" d="M28.866,67.535c-0.641,0.094-1.127,0.064-1.545,0.729
					C26.911,69.316,28.891,68.492,28.866,67.535z"/>
				<path fill="#FCECBB" d="M28.729,67.473c-0.646,0.059-1.131,0.004-1.581,0.646C26.682,69.146,28.703,68.432,28.729,67.473z"/>
				<path fill="#FFFFFF" d="M27.67,67.738c-0.132,0.076-0.258,0.197-0.354,0.316c-0.064,0.078-0.184,0.232-0.123,0.33
					c0.087-0.033,0.133-0.203,0.2-0.275c0.08-0.09,0.175-0.17,0.272-0.244c0.113-0.082,0.25-0.174,0.386-0.213
					c0.098-0.029,0.215-0.029,0.319-0.051c0.042-0.008,0.079-0.016,0.119-0.025l-0.015-0.008
					C28.21,67.508,27.901,67.602,27.67,67.738z"/>
			</g>
			<g>
				<path opacity="0.48" fill="#BC8122" d="M56.546,58.527c-0.64,0.096-1.127,0.066-1.544,0.73
					C54.59,60.311,56.572,59.486,56.546,58.527z"/>
				<path fill="#FCECBB" d="M56.411,58.465c-0.645,0.061-1.131,0.004-1.58,0.646C54.366,60.141,56.385,59.422,56.411,58.465z"/>
				<path fill="#FFFFFF" d="M55.35,58.732c-0.128,0.076-0.254,0.197-0.352,0.313c-0.063,0.082-0.186,0.232-0.125,0.334
					c0.092-0.035,0.136-0.205,0.202-0.275c0.076-0.09,0.175-0.172,0.272-0.244c0.113-0.082,0.248-0.176,0.384-0.215
					c0.1-0.027,0.217-0.027,0.322-0.051c0.04-0.006,0.077-0.014,0.118-0.025l-0.012-0.008C55.893,58.5,55.582,58.596,55.35,58.732z"
					/>
			</g>
			<g>
				<path opacity="0.48" fill="#BC8122" d="M56.017,55.266c0.651,0.707,2.641-0.084,1.615-0.551
					C56.869,54.525,56.539,54.889,56.017,55.266z"/>
				<path fill="#FCECBB" d="M56.068,55.129c0.688,0.666,2.637-0.23,1.585-0.641C56.883,54.34,56.572,54.721,56.068,55.129z"/>
				<path fill="#FFFFFF" d="M57.013,54.578c-0.259,0.064-0.547,0.213-0.694,0.443l-0.003,0.012c0.031-0.02,0.066-0.041,0.103-0.063
					c0.087-0.059,0.168-0.139,0.262-0.186c0.13-0.068,0.285-0.098,0.427-0.117c0.12-0.016,0.245-0.025,0.365-0.018
					c0.096,0.004,0.246,0.1,0.335,0.059c-0.027-0.113-0.22-0.139-0.317-0.15C57.339,54.541,57.16,54.541,57.013,54.578z"/>
			</g>
		</g>
	</g>
	<path opacity="0.4" fill="#602A05" d="M80.944,40.719c0.464,0.429,1.186,0.401,1.615-0.062c0.43-0.466,0.399-1.189-0.066-1.618
		c-3.994-3.685-9.486-6.702-12.485-7.49c-2.341-0.616-12.875-2.108-15.146-0.99c-0.482,0.235-0.766,0.511-0.934,0.782l0,0
		c-0.007,0.004-0.007,0.015-0.015,0.021c-0.044,0.078-0.081,0.151-0.112,0.229c-0.007,0.016-0.011,0.029-0.018,0.044
		c-0.024,0.068-0.04,0.141-0.056,0.207c0,0.015-0.006,0.03-0.008,0.044c-0.008,0.064-0.013,0.128-0.015,0.188
		c0,0.012,0,0.025,0,0.039c0,0.069,0.007,0.132,0.012,0.19c0.201,1.325,1.827,1.819,6.31,2.549c0.439,0.071,0.795,0.131,1.007,0.173
		c3.059,0.645,10.987,5.963,11.587,7.451c0.067,0.178,0.124,0.413,0.052,0.492c-0.031,0.031-0.08,0.06-0.14,0.088
		c-0.22,0.098-0.622,0.135-1.07-0.011c-2.43-0.782-5.127-2.196-7.731-3.562c-2.333-1.223-4.743-2.489-6.936-3.275
		c-4.346-1.56-14.096-3.02-16.556-0.995c-0.237,0.195-0.394,0.445-0.474,0.713c-0.022,0.077-0.04,0.157-0.052,0.237
		c-0.002,0.029-0.002,0.062-0.002,0.095c-0.003,0.105-0.002,0.211,0.021,0.317c0.246,1.165,1.668,1.624,5.744,2.782
		c1.823,0.516,3.892,1.104,4.999,1.643c1.746,0.846,7.73,5.196,8.486,6.618c0.033,0.061,0.055,0.11,0.072,0.155
		c0.018,0.046,0.029,0.08,0.036,0.106c-0.113,0.078-0.447,0.249-1.329,0.378c-0.875-0.177-4.412-2.136-6.771-3.444
		c-2.512-1.393-4.685-2.598-5.693-2.93c-0.23-0.078-0.509-0.171-0.826-0.277c-6.095-2.064-12.007-3.681-14.514-1.914
		c-0.067,0.051-0.146,0.09-0.208,0.142l-0.655,0.937c-0.018,0.182-0.024,0.802,0.653,1.16l0.901,0.343
		c1.99,0.865,7.332,3.476,9.631,6.386c0.15,0.191,0.302,0.391,0.449,0.596c0.004,0.009,0.013,0.02,0.02,0.027
		c0.145,0.204,0.288,0.412,0.426,0.622c0.006,0.013,0.017,0.027,0.024,0.04c0.137,0.214,0.272,0.426,0.398,0.642
		c0.006,0.014,0.018,0.025,0.022,0.037c0.126,0.217,0.252,0.433,0.364,0.643c0.004,0.009,0.008,0.02,0.015,0.027
		c0.114,0.217,0.219,0.428,0.314,0.633c0.002,0.004,0.002,0.008,0.005,0.012c0.094,0.209,0.177,0.408,0.248,0.598
		c0,0,0,0,0.002,0.002c0.142,0.381,0.223,0.713,0.232,0.973c0,0.045,0.004,0.088,0.002,0.125c-0.99-0.473-3.248-2.041-4.957-3.226
		c-3.245-2.25-6.92-4.799-9.133-5.458c-0.823-0.244-1.56-0.485-2.248-0.709c-2.46-0.803-2.739-1.354-5.509-1.339
		c-0.5,0.004-1.934,0.254-2.704,0.673c-0.01,0-0.018,0.004-0.027,0c-0.135,0.077-0.237,0.161-0.323,0.246
		c-0.01,0.011-0.018,0.022-0.029,0.033c-0.022,0.029-0.058,0.054-0.072,0.083c-0.082,0.138-0.115,0.258-0.108,0.366
		c0.009,0.322,0.374,0.499,0.85,0.499c2.753,0,4.854,0.846,7.212,1.614c0.707,0.23,1.462,0.478,2.304,0.727
		c1.863,0.553,5.533,3.098,8.479,5.143c4.018,2.791,5.546,3.77,6.534,3.77c0.237,0,0.439-0.053,0.639-0.148
		c0.684-0.334,1.133-0.904,1.306-1.648c0.553-2.439-2.354-6.274-2.942-7.022c-1.577-1.99-4.899-4.235-7.699-5.741
		c0.021,0.006,0.038,0.015,0.058,0.02c-0.187-0.102-0.37-0.198-0.552-0.294c1.85,0.183,4.886,0.865,9.86,2.549
		c0.32,0.106,0.603,0.204,0.84,0.283c0.804,0.264,3.092,1.53,5.3,2.757c5.413,3.001,7.13,3.851,8.1,3.721
		c1.172-0.16,2.594-0.488,3.177-1.626c0.246-0.479,0.418-1.277-0.157-2.361c-1.125-2.125-7.809-6.784-9.506-7.608
		c-1.287-0.624-3.364-1.211-5.374-1.785c-0.656-0.185-1.455-0.412-2.187-0.636c3.081-0.129,8.486,0.541,12.111,1.842
		c2.04,0.729,4.276,1.905,6.643,3.146c2.691,1.412,5.478,2.872,8.094,3.716c1.372,0.439,2.778,0.168,3.581-0.697
		c0.697-0.742,0.84-1.801,0.398-2.902c-1.01-2.529-9.774-8.112-13.239-8.837c-0.231-0.05-0.624-0.113-1.106-0.194
		c-0.146-0.022-0.332-0.054-0.554-0.087c3.251,0.187,7.562,0.726,9.584,1.256C71.664,34.348,76.874,36.966,80.944,40.719z"/>
	<g>
		<path fill="#F45C08" d="M80.944,40.183c0.464,0.429,1.186,0.399,1.615-0.066c0.43-0.463,0.399-1.188-0.066-1.613
			c-3.994-3.689-9.486-6.704-12.484-7.49c-2.342-0.616-12.876-2.108-15.146-0.992c-1.138,0.558-1.204,1.333-1.142,1.743
			c0.2,1.325,1.824,1.821,6.307,2.552c0.439,0.071,0.797,0.128,1.009,0.173c3.057,0.64,10.987,5.961,11.585,7.448
			c0.067,0.176,0.124,0.413,0.052,0.492c-0.14,0.15-0.639,0.262-1.21,0.078c-2.43-0.782-5.127-2.194-7.731-3.562
			c-2.333-1.225-4.743-2.489-6.936-3.273C52.45,34.111,42.7,32.649,40.24,34.674c-0.424,0.347-0.613,0.859-0.505,1.362
			c0.243,1.165,1.666,1.624,5.743,2.782c1.823,0.518,3.892,1.104,4.997,1.643c1.746,0.846,7.73,5.201,8.486,6.619
			c0.066,0.125,0.094,0.21,0.108,0.263c-0.113,0.074-0.445,0.249-1.329,0.375c-0.875-0.174-4.412-2.138-6.771-3.443
			c-2.512-1.393-4.685-2.598-5.691-2.93c-0.23-0.075-0.511-0.168-0.823-0.277c-6.264-2.121-12.342-3.776-14.725-1.771l-0.658,0.938
			c-0.018,0.18-0.024,0.798,0.653,1.156l0.903,0.347c1.987,0.863,7.329,3.475,9.631,6.386c1.289,1.631,2.589,4.003,2.521,4.974
			c-0.99-0.473-3.248-2.037-4.957-3.225c-3.245-2.25-6.92-4.797-9.133-5.456c-0.823-0.246-1.558-0.485-2.248-0.712
			c-2.46-0.802-2.739-1.354-5.509-1.336c-0.633,0.004-2.779,0.406-3.154,1.046c-0.321,0.542,0.113,0.853,0.744,0.853
			c2.753,0,4.855,0.846,7.209,1.613c0.709,0.231,1.463,0.476,2.306,0.726c1.863,0.558,5.531,3.101,8.477,5.15
			c4.018,2.785,5.546,3.768,6.541,3.768c0.23,0,0.432-0.057,0.632-0.152c0.684-0.334,1.133-0.904,1.306-1.646
			c0.553-2.439-2.354-6.277-2.942-7.019c-1.674-2.12-5.331-4.525-8.222-6.022c1.846,0.179,4.891,0.859,9.89,2.551
			c0.322,0.11,0.605,0.206,0.84,0.281c0.804,0.268,3.092,1.535,5.302,2.759c5.411,3.001,7.128,3.852,8.098,3.722
			c1.172-0.16,2.594-0.49,3.177-1.628c0.246-0.479,0.418-1.276-0.153-2.357c-1.129-2.126-7.812-6.786-9.51-7.609
			c-1.287-0.623-3.364-1.214-5.374-1.784c-0.656-0.186-1.453-0.412-2.185-0.638c3.079-0.131,8.484,0.541,12.109,1.843
			c2.04,0.731,4.279,1.905,6.643,3.146c2.693,1.414,5.478,2.871,8.094,3.716c1.372,0.441,2.778,0.168,3.581-0.697
			c0.697-0.742,0.84-1.801,0.4-2.9c-1.01-2.529-9.774-8.115-13.238-8.84c-0.232-0.046-0.627-0.112-1.107-0.192
			c-0.147-0.022-0.334-0.056-0.553-0.089c3.253,0.188,7.559,0.725,9.581,1.256C71.667,33.812,76.874,36.429,80.944,40.183z"/>
		<path fill="#AF2308" d="M40.741,46.87c-1.675-1.763-3.318-3.085-5.558-4.056c-1.741-0.755-3.382-1.53-4.729-2.901
			c-0.227-0.228-0.394-0.487-0.518-0.755c-0.067,0.048-0.146,0.09-0.206,0.14l-0.658,0.938c-0.018,0.18-0.024,0.798,0.653,1.156
			l0.903,0.347c1.987,0.863,7.329,3.475,9.631,6.386c1.24,1.566,2.483,3.814,2.518,4.849c0.021,0.045,0.034,0.078,0.051,0.117
			c0.054,0.01,0.102,0.014,0.158,0.029c0.033,0.008,0.062,0.018,0.092,0.025c0.045-0.029,0.112-0.068,0.225-0.129
			c0.133-0.1,0.183-0.219,0.276-0.438c0.044-0.104,0.073-0.238,0.1-0.391c0-0.002,0-0.004,0-0.004c0-0.201,0.006-0.393,0.006-0.592
			C43.066,49.819,42.054,48.253,40.741,46.87z"/>
		<path fill="#AF2308" d="M47.979,38.411c-2.424-0.835-5.471-0.95-7.521-2.58c-0.24-0.191-0.446-0.397-0.629-0.611
			c-0.115,0.257-0.153,0.536-0.093,0.817c0.243,1.165,1.666,1.624,5.743,2.782c1.823,0.518,3.892,1.104,4.997,1.643
			c1.746,0.846,7.73,5.201,8.486,6.619c0.033,0.06,0.057,0.11,0.072,0.154c0.267,0.014,0.522-0.006,0.774-0.061
			c-0.013-0.492-0.354-1.289-0.612-1.53c-0.99-0.923-2.056-1.762-3.147-2.56C53.571,41.264,50.911,39.421,47.979,38.411z"/>
		<path fill="#AF2308" d="M72.533,42.516c0.022,0.016,0.051,0.031,0.07,0.05c0.337-0.08,0.433-0.096,0.802-0.356
			c-0.294,0.206-0.034-0.164-0.044-0.5c-0.002-0.087-0.016-0.168-0.02-0.255c-2.297-3.756-7.717-6.357-11.407-7.349
			c-2.51-0.675-5.537-0.764-7.513-2.711c-0.195-0.194-0.352-0.392-0.493-0.591c-0.233,0.368-0.243,0.724-0.208,0.961
			c0.2,1.325,1.824,1.821,6.307,2.552c0.439,0.071,0.797,0.128,1.009,0.173c3.057,0.64,10.987,5.961,11.585,7.448
			c0.067,0.176,0.124,0.413,0.052,0.492C72.642,42.459,72.593,42.491,72.533,42.516z"/>
		<path fill="#AF2308" d="M32.384,47.746c-0.304-0.033-0.618-0.115-0.935-0.265c-2.376-1.11-4.5-2.272-7.085-2.886
			c-1.855-0.44-3.97-0.765-5.752-1.555c-0.142,0.013-0.279,0.013-0.405,0.002c-0.198,0.11-0.352,0.229-0.426,0.359
			c-0.321,0.542,0.113,0.853,0.744,0.853c2.753,0,4.855,0.846,7.209,1.614c0.709,0.23,1.463,0.476,2.306,0.728
			c1.863,0.552,5.531,3.097,8.477,5.144c4.018,2.785,5.546,3.77,6.541,3.77c0.23,0,0.432-0.057,0.632-0.154
			c0.555-0.268,0.946-0.701,1.168-1.248c-3.694,0.578-7.763-3.534-10.755-5.327C33.557,48.453,32.98,48.103,32.384,47.746z"/>
		<path fill="#AF2308" d="M44.561,43.503c0.804,0.267,3.092,1.535,5.302,2.76c5.411,3.001,7.128,3.851,8.098,3.723
			c0.805-0.113,1.722-0.308,2.41-0.784c-1.774,0.038-3.635-0.551-5.371-1.477c-2.036-1.088-3.903-2.514-5.958-3.553
			c-2.131-1.079-4.487-1.766-6.729-2.585c-1.894-0.693-3.964-1.098-5.954-1.41c-1.216-0.189-2.474-0.337-3.708-0.271
			c-0.104,0.004-0.202,0.011-0.301,0.017c-0.018,0.021-0.04,0.04-0.06,0.058c0.547,0.474,1.358,0.78,2.123,0.999
			c-0.197-0.106-0.393-0.208-0.582-0.31c1.846,0.178,4.891,0.86,9.89,2.554C44.043,43.332,44.326,43.427,44.561,43.503z"/>
		<path fill="#AF2308" d="M48.549,35.192c-1.212-0.182-2.595-0.41-3.965-0.462c-0.405,0.09-0.796,0.198-1.163,0.327
			c-0.137,0.283-0.204,0.492-0.131,0.525c0.41,0.179,0.849,0.294,1.293,0.37c3.15-0.021,8.066,0.646,11.442,1.855
			c2.04,0.731,4.279,1.907,6.643,3.148c2.693,1.412,5.478,2.872,8.094,3.714c1.171,0.376,2.36,0.229,3.184-0.355
			c-2.003-0.086-3.929-0.926-5.723-1.869c-3.235-1.696-6.503-3.546-9.914-4.862C55.126,36.357,51.908,35.697,48.549,35.192z"/>
		<path fill="#AF2308" d="M64.242,31.021c-1.249-0.183-2.534-0.32-3.799-0.293c-0.383,0.008-0.823-0.027-1.197,0.064
			c-0.049,0.011-0.086,0.021-0.122,0.028c-0.138,0.22-0.299,0.399-0.467,0.544c0.587,0.278,1.217,0.474,1.859,0.632
			c3.146,0.22,7.024,0.72,8.909,1.214c2.241,0.588,7.448,3.205,11.519,6.959c0.464,0.424,1.179,0.4,1.609-0.06
			c-0.849-0.389-1.671-0.988-2.466-1.622c-2.795-2.225-5.637-4.766-9.121-5.8C68.736,32.027,66.549,31.356,64.242,31.021z"/>
		<path fill="#FFE4D7" d="M34.956,39.157c-0.576-0.656-3.17-0.523-3.699,0.306c-0.403,0.637,0.108,0.759,0.629,1.152
			c0.735,0.556,2.266,1.105,3.07,1.523c0.764,0.399,1.57,1.573,2.51,1.42c-0.409-0.99-3.102-2.073-4.036-2.516
			c-0.466-0.223-1.896-0.465-1.599-1.25C32.084,39.117,34.443,39.354,34.956,39.157z"/>
		<path fill="#FFE4D7" d="M23.945,43.729c0.715,0.187,1.397,0.467,2.098,0.686c0.666,0.208,1.392,0.37,2.04,0.68
			c0.593,0.286,1.182,0.709,1.805,0.902c-0.862-1.104-2.47-1.752-3.734-2.152c-0.713-0.224-1.431-0.322-2.14-0.583
			c-0.35-0.128-1.81-0.824-1.994-0.268l0.17,0.06c-0.052,0.012-0.11-0.011-0.166,0.006C22.297,43.372,23.488,43.611,23.945,43.729z"
			/>
		<path fill="#FFE4D7" d="M43.383,36.51c0.949,0.441,1.804,0.895,2.823,1.158c1.108,0.29,2.154,0.477,3.229,0.864
			c1.113,0.403,2.099,1.187,3.229,1.544c0.109,0.036,0.215,0.088,0.328,0.124c-1.443-1.497-3.423-2.279-5.374-2.724
			c-0.977-0.221-1.911-0.547-2.891-0.739c-0.526-0.105-1.006-0.222-1.481-0.493c-0.247-0.142-1.091-0.651-1.077-0.923
			c0.038-0.738,3.09-0.975,3.699-0.941c1.448,0.077,2.748,0.484,4.232,0.388c-0.977-0.817-3.481-0.676-4.771-0.723
			c-1.276-0.048-3.502,0.036-4.437,1.141l0.118-0.086c0.029-0.042,0.071-0.084,0.152-0.115l-0.152,0.115
			C40.72,35.533,43.08,36.373,43.383,36.51z"/>
		<path fill="#FFE4D7" d="M41.011,35.099l0.152-0.115C41.082,35.015,41.04,35.057,41.011,35.099z"/>
		<path fill="#FFE4D7" d="M55.216,30.47c-0.188,0.133-0.285,0.304-0.37,0.512c0.462,0.696,1.335,1.181,2.121,1.389
			c0.685,0.181,1.265,0.343,1.974,0.428c0.636,0.077,1.254,0.246,1.856,0.443c1.293,0.425,2.61,0.618,3.859,1.163
			c0.676,0.295,1.434,0.645,2.025,1.092c0.383,0.289,0.968,0.782,1.443,0.888c-0.237-0.383-0.715-0.584-1.063-0.853
			c-0.491-0.375-0.999-0.732-1.524-1.052c-0.773-0.47-1.724-0.921-2.585-1.169c-0.595-0.17-1.146-0.419-1.716-0.649
			c-0.645-0.253-1.374-0.397-2.045-0.578c-0.563-0.151-1.141-0.197-1.699-0.326c-0.375-0.088-0.366-0.295-0.637-0.529
			c-0.155-0.136-0.707-0.259-0.567-0.515c0.129-0.229,1.085-0.296,1.322-0.345c0.975-0.2,2.082-0.241,3.078-0.194
			c0.78,0.038,1.582,0.044,2.333,0.229c0.54,0.133,1.029,0.208,1.599,0.171c-0.147-0.146-0.268-0.298-0.495-0.265l0.203,0.035
			c-1.597,0-3.174-0.379-4.773-0.437C58.156,29.856,56.418,29.611,55.216,30.47z"/>
	</g>
</g>
</svg>
