<?xml version="1.0" encoding="utf-8"?>
<!-- Generator: Adobe Illustrator 13.0.0, SVG Export Plug-In . SVG Version: 6.00 Build 14948)  -->
<!DOCTYPE svg PUBLIC "-//W3C//DTD SVG 1.1//EN" "http://www.w3.org/Graphics/SVG/1.1/DTD/svg11.dtd">
<svg version="1.1" id="Layer_1" xmlns="http://www.w3.org/2000/svg" xmlns:xlink="http://www.w3.org/1999/xlink" x="0px" y="0px"
	 width="100px" height="100px" viewBox="0 0 100 100" enable-background="new 0 0 100 100" xml:space="preserve">
<g>
	<g>
		<path fill="#F7E8AD" d="M26.491,49.026c-4.883,4.093-9.842,4.466-15.511,10.203c-1.254,1.27-6.589,1.974-9.467,3.154
			c1.835,1.022,8.975,3.531,11.994,3.663c10.629,0.468,15.034,0.324,18.279,0c12.521-1.253,22.916,0.894,35.354-0.659
			c2.245-0.278,4.58-0.216,6.785-0.726c1.686-0.391,3.335-1.184,4.939-1.655c4.672-1.375,4.655-3.512,2.785-7.872
			c-1.615-3.755-4.011-7.447-7.358-9.856c-3.806-2.742-8.659-3.786-13.061-5.223c-5.657-1.846-11.809-1.268-17.356-3.113
			c-2.467-0.819-7.032-1.065-9.319,0.386C31.742,40.338,29.725,46.316,26.491,49.026z"/>
		<path fill="#F7C75C" d="M26.491,49.026c-4.883,4.093-9.842,4.466-15.511,10.203c-1.254,1.27-6.589,1.974-9.467,3.154
			c0.197,0.108,0.458,0.237,0.767,0.376c0.309-0.271,0.746-0.424,1.311-0.358c4.854,0.561,9.077-2.934,12.699-5.7
			c1.732-1.324,3.442-2.694,5.333-3.777c2.011-1.15,4.128-2.288,5.865-3.837c3.391-3.025,4.914-7.325,7.572-10.926
			c0.388-0.523,0.791-1.034,1.206-1.528c-0.644,0.166-1.229,0.39-1.71,0.697C31.742,40.338,29.725,46.316,26.491,49.026z"/>
		<path fill="#F7C75C" d="M92.384,48.402c-2.503-1.449-4.636-3.018-7.105-4.585c-1.354-0.859-2.379-1.777-3.665-2.758
			c-1.342-1.026-2.98-1.136-4.398-2.013c-1.233-0.763-2.184-1.872-3.473-2.564c-1.461-0.787-3.047-1.169-4.58-1.827
			c-2.949-1.269-5.773-2.593-8.792-3.524c-2.826-0.871-5.67-1.937-8.621-2.565c-2.734-0.58-5.699-0.502-8.424-0.911
			c-3.064-0.462-5.328-0.412-7.657,1.872c-2.255,2.213-1.282,5.085-1.112,7.802c3.098,0.166,4.854,0.374,7.491,1.814
			c2.313,1.265,4.495,2.689,6.952,3.574c3.092,1.109,5.269,3.164,8.215,4.504c2.861,1.3,5.85,1.41,8.832,2.086
			c3.163,0.72,4.359,2.166,6.78,4.128c1.712,1.391,5.931,4.558,5.863,7.012l0.552,0.55c2.38,0.155,4.81-0.945,6.918-1.88
			c2.417-1.069,5.352-0.521,7.924-1.237c2.928-0.815,4.145-2.221,2.931-5.322C96.249,50.598,94.097,49.394,92.384,48.402z"/>
		<path fill="#F4B73B" d="M35.668,29.527c-0.343,0.337-0.606,0.694-0.813,1.059c1.522-0.645,2.023-1.629,3.572-2.219
			c1.91-0.729,4.192-0.254,5.585-0.119c1.799,0.177,3.512,0.433,5.272,0.856c2.277,0.546,4.615,0.709,6.889,1.222
			c4.408,0.992,7.985,3.597,11.94,5.618c2.156,1.101,4.566,1.683,6.676,2.859c1.863,1.036,3.581,2.258,5.411,3.345
			c1.711,1.017,5.213,2.071,8.017,3.604c-0.954-0.639-1.917-1.289-2.938-1.936c-1.354-0.859-2.379-1.777-3.665-2.758
			c-1.342-1.026-2.98-1.136-4.398-2.013c-1.233-0.763-2.184-1.872-3.473-2.564c-1.461-0.787-3.047-1.169-4.58-1.827
			c-2.949-1.269-5.773-2.593-8.792-3.524c-2.826-0.871-5.67-1.937-8.621-2.565c-2.734-0.58-5.699-0.502-8.424-0.911
			C40.261,27.193,37.997,27.244,35.668,29.527z"/>
		<path fill="#F4B73B" d="M97.278,53.354c-0.022-0.08-0.039-0.155-0.066-0.238c-0.056-0.179-0.121-0.366-0.198-0.559
			c-0.765-1.96-2.917-3.164-4.63-4.155c-0.704-0.408-1.378-0.827-2.039-1.251c1.281,1.057,1.942,2.487-0.827,2.735
			c-3.246-0.358-6.258,2.299-9.507,1.216c-1.744-0.579-2.953-1.543-4.862-1.503c-1.569,0.031-3.22-0.281-4.366-1.458
			c-1.329-1.358-1.43-3.252-3.648-3.32c-1.783-0.054-3.468-0.076-5.127-0.817c-1.849-0.825-3.309-2.344-5.193-3.072
			c-1.644-0.64-3.736-1.221-4.89-2.666c-0.447-0.559-1.053-1.844-1.803-2.005c-1.04-0.224-2.085-0.102-3.141-0.083
			c-1.887,0.036-3.545-0.264-5.193-1.226c-1.366-0.798-4.663-0.458-6.14-0.9c-1.154-0.344-0.716-1.54-1.274-2.264
			c-0.426,1.744,0.067,3.679,0.183,5.539c3.098,0.166,4.854,0.374,7.491,1.814c2.313,1.265,4.495,2.689,6.952,3.574
			c3.092,1.109,5.269,3.164,8.215,4.504c2.861,1.3,5.85,1.41,8.832,2.086c3.163,0.72,4.359,2.166,6.78,4.128
			c1.712,1.391,5.931,4.558,5.863,7.012l0.552,0.55c2.38,0.155,4.81-0.945,6.918-1.88c2.417-1.069,5.352-0.521,7.924-1.237
			c2.563-0.715,3.814-1.881,3.272-4.243C97.336,53.546,97.306,53.45,97.278,53.354z"/>
		<path fill="#F9D178" d="M2.311,67.62c1.363,1.057,8.9,3.629,13.786,2.88c4.539-0.698,10.703,1.396,16.869,0.697
			c3.126-0.354,12.416-1.858,18.03-1.046c8.259,1.189,17.456-1.904,23.842-3.1c6.406-1.196,13.34-1.501,19.43-4.04
			c5.61-2.34,6.24-10.111,0.043-12.321c-4.372-1.563-12.025,1.67-14.656,5.398c-0.884,1.25-0.697,2.659-2.063,3.579
			c-0.631,0.421-8.983,3.631-11.729,4.036c-3.087,0.455-6.074-0.197-9.049,0.629c-1.557,0.435-6.57,1.169-8.154,1.469
			c-1.459,0.277-5.345-0.778-8.364-0.769c-3.804,0.011-21.027,1.894-28.154-0.117c-2.88-0.813-5.931-0.466-10.627-2.532
			C2.451,63.895,0.802,66.635,2.311,67.62z"/>
		<path fill="#E5A533" d="M94.309,50.69c-4.371-1.563-12.023,1.67-14.657,5.398c-0.884,1.25-0.695,2.659-2.062,3.579
			c-0.631,0.421-8.984,3.631-11.729,4.036c-3.087,0.455-6.076-0.197-9.049,0.629c-1.559,0.435-6.572,1.169-8.155,1.469
			c-1.458,0.277-5.345-0.778-8.364-0.769c-3.805,0.011-21.027,1.894-28.153-0.117c-2.882-0.813-5.933-0.466-10.629-2.532
			c0.886,1.43-0.538,3.959,0.585,5.063c0.229-1.91-0.784-3.524,1.66-3.228c3.363,0.41,8.956,2.071,12.365,2.461
			c2.817,0.321,5.643,0.469,8.471,0.541c3.242-0.999,6.872-0.86,10.199-1.096c5.402-0.386,10.938-0.052,16.352-0.052
			c0.096,0,0.185,0.009,0.272,0.019c1.246-0.28,2.489-0.563,3.731-0.854c2.713-0.636,5.743-1.084,8.51-0.464
			c0.901-0.149,1.803-0.307,2.702-0.466c0.113-0.019,0.221-0.026,0.331-0.03c0.609-0.322,1.124-0.603,1.426-0.732
			c2.927-1.266,5.954-2.23,9.098-2.655c2.856-2.951,4.485-7.121,8.37-8.87c3.248-1.462,8.683-1.917,11.222,1.173
			c1.384,1.685,1.913,3.635,1.583,5.441C99.379,55.598,98.168,52.067,94.309,50.69z"/>
		<path fill="#FCDB8B" d="M65.019,36.211c-3.174-1.317-5.254-3.933-8.765-4.743c-1.389-0.321-2.889-0.324-4.244-0.59
			c-1.461-0.285-3.408-0.107-4.91-0.554c-1.24-0.368-1.924-1.101-3.208-1.356c-0.971-0.189-2.583-0.338-3.388,0l-0.676-0.336
			c-1.038-0.093-2.559,0.647-3.032,1.528c0.981,0.596,2.506,0.349,3.649,0.321c-0.451,0.383-0.387,0.808-0.59,1.172
			c1.626,0.158,3.187-0.621,4.854-0.454c0.217,2.101,3.354,2.161,5.156,2.641c2.525,0.668,4.714-0.929,7.065,0.714
			c1.272,0.889,2.228,1.709,3.177,2.883c1.168,1.448,1.653,1.486,3.603,1.859c2.548,0.486,4.912,1.77,7.418,2.402
			c0.516,0.755,1.435,0.404,2.24,0.819c0.717,0.373,1.267,1.129,1.981,1.568c0.892,0.544,2.68,0.668,3.389,1.35
			c0.672,0.645,0.152,1.651,0.667,2.212c0.567,0.622,2.045,0.246,2.769,0.497c0.993,0.344,1.228,0.622,2.146,0.97
			c1.18,0.442,4.816,1.29,5.659,0.342c-0.859-0.857-2.249-1.101-3.242-1.858c-1.681-1.28-2.853-2.566-4.91-3.423
			c-1.498-0.625-2.545-1.381-3.759-2.124c-1.271-0.775-3.195-0.537-4.227-1.559C75.737,38.262,66.476,36.815,65.019,36.211z"/>
		<g>
			<path fill="#F48053" d="M31.222,46.814c-0.504,0.538-1.266,0.993-1.483,1.7l-0.088,0.087c0.472,0.258,1.114,0.234,1.612,0.417
				c0.744,0.272,1.188,0.441,2.017,0.469c1.826,0.062,3.229-0.658,4.606-1.79c2.261-1.861,3.029-5.806,0.972-8.136
				c-1.519,1.14-2.953,2.58-4.357,3.885C33.358,44.51,32.284,45.676,31.222,46.814z"/>
			<path fill="#E04F22" d="M37.776,40.436c-1.124,0.956-2.207,2.021-3.275,3.012c-1.143,1.063-2.217,2.229-3.279,3.367
				c-0.126,0.134-0.269,0.262-0.415,0.393c0.185,0.529,0.562,0.887,1.329,0.919c1.46,0.062,3.048-0.022,3.83-0.34
				c0.773-0.315,1.626-1.409,2.034-2.024c0.495-0.752,0.738-1.775,1.027-2.412c0.057-0.755-0.084-1.898-0.556-2.605
				C38.342,40.552,38.152,40.436,37.776,40.436z"/>
			<path fill="#F98967" d="M32.206,45.762c0.284-0.103,0.592,0.084,0.817,0.058c1.464-0.173,2.822-0.922,3.045-2.516
				c0.065-0.446,0.065-0.903,0.033-1.359c-0.54,0.504-1.072,1.013-1.6,1.502C33.71,44.185,32.95,44.97,32.206,45.762z"/>
			<path fill="#FCA08B" d="M34.501,43.447c-0.7,0.653-1.372,1.343-2.034,2.042c0.263-0.087,0.342,0.157,0.618,0.17
				c0.246-0.028,1.15-0.454,1.537-0.564c0.035-0.012,0.204,0.006,0.233-0.001c0.183-0.169,0.093-0.211,0.212-0.295
				c0.062-0.045,0.413-0.257,0.479-0.292c0.505-0.919,0.152-1.207,0.481-2.174c0.039-0.114-0.058-0.264-0.106-0.222
				C35.443,42.562,34.972,43.012,34.501,43.447z"/>
			<path fill="#E04F22" d="M39.578,43.713c-0.044,0.195-0.112,0.382-0.19,0.566c-0.043,0.587-0.198,1.186-0.514,1.687
				c-0.161,0.251-0.371,0.452-0.606,0.611c-0.187,0.491-0.359,0.815-0.72,1.211c-0.23,0.255-0.517,0.462-0.796,0.653
				c-0.403,0.279-0.99,0.324-1.46,0.211c-0.622,0.244-1.278,0.388-1.953,0.34c-0.001-0.001-0.008-0.001-0.01-0.001
				c-0.722,0.013-1.448-0.162-2.164-0.263c-0.404-0.057-0.736-0.286-0.979-0.599c-0.081-0.012-0.157-0.027-0.238-0.035
				c-0.087,0.132-0.163,0.269-0.209,0.42l-0.088,0.087c0.472,0.258,1.114,0.234,1.612,0.417c0.744,0.272,1.188,0.441,2.017,0.469
				c1.826,0.062,3.229-0.658,4.606-1.79c2.261-1.861,3.029-5.806,0.972-8.136c-0.048,0.037-0.094,0.074-0.142,0.109
				c0.327,0.362,0.516,0.832,0.516,1.318c0,0.087-0.008,0.17-0.021,0.252c0.447,0.485,0.642,1.179,0.479,1.864
				C39.646,43.306,39.622,43.512,39.578,43.713z"/>
			<path fill="#CC2909" d="M37.842,47.577c-0.1,0.086-0.206,0.165-0.316,0.23c-0.225,0.245-0.502,0.448-0.774,0.634
				c-0.137,0.094-0.295,0.155-0.462,0.198c-0.817,0.537-1.839,0.809-2.81,0.715c-0.337,0.038-0.68,0.013-1.046-0.078
				c-0.259-0.065-0.501-0.169-0.753-0.254c-0.159-0.055-0.307-0.131-0.446-0.216c-0.188-0.029-0.443-0.083-0.422-0.081
				c-0.275-0.033-0.551-0.071-0.824-0.12c-0.096-0.016-0.185-0.04-0.269-0.069l-0.068,0.066c0.472,0.258,1.114,0.234,1.612,0.417
				c0.744,0.272,1.188,0.441,2.017,0.469c1.826,0.062,3.229-0.658,4.606-1.79c2.261-1.861,3.029-5.806,0.972-8.136
				c-0.04,0.03-0.078,0.06-0.115,0.088c0.065,0.079,0.13,0.163,0.189,0.255c0.01,0.018,0.02,0.033,0.03,0.051
				c0.392,0.363,0.69,0.83,0.767,1.371c0.036,0.256,0.062,0.5,0.066,0.743c0.135,0.679,0.147,1.376-0.013,2.021
				C39.603,45.419,38.822,46.725,37.842,47.577z"/>
			<path fill="#F98967" d="M32.522,46.124v0.001c-0.003,0.015-0.003,0.024,0,0.031V46.124z"/>
			<path fill="#F98967" d="M32.538,46.072c-0.006-0.001-0.016,0.027-0.016,0.053v-0.001v0.033c-0.003-0.007-0.003-0.017,0-0.031
				c-0.152,0.311-0.375,0.723-0.37,1.073c0.001,0.208,0.189,0.639,0.452,0.542c0.323-0.115,0.208-0.643,0.171-0.877
				C32.763,46.769,32.662,46.06,32.538,46.072z"/>
			<path fill="#F98967" d="M36.925,43.15l-0.033,0.007c0,0.001,0.003,0.001,0.005,0.001C36.909,43.157,36.92,43.154,36.925,43.15z"
				/>
			<path fill="#F98967" d="M37.555,42.74c-0.089,0.036-0.757,0.295-0.716,0.414c0,0.007,0.029,0.01,0.058,0.005
				c-0.001,0-0.005,0-0.005-0.001l0.033-0.007c-0.005,0.003-0.016,0.007-0.028,0.008c0.332,0.074,0.786,0.199,1.127,0.116
				c0.201-0.048,0.579-0.33,0.426-0.565C38.263,42.425,37.776,42.654,37.555,42.74z"/>
			<path fill="#F98967" d="M34.262,46.161l-0.01-0.033c0,0.002,0,0.002-0.002,0.003C34.253,46.145,34.259,46.155,34.262,46.161z"/>
			<path fill="#F98967" d="M34.314,47.263c0.081,0.191,0.42,0.518,0.626,0.33c0.252-0.229-0.052-0.674-0.174-0.878
				c-0.049-0.081-0.41-0.699-0.52-0.642c-0.007,0.001-0.005,0.032,0.003,0.058c0.002-0.001,0.002-0.001,0.002-0.003l0.01,0.033
				c-0.003-0.006-0.009-0.017-0.012-0.029C34.229,46.474,34.18,46.94,34.314,47.263z"/>
			<path fill="#F98967" d="M35.561,46.193c0.083,0.168,0.405,0.441,0.579,0.262c0.214-0.222-0.085-0.604-0.206-0.778
				c-0.048-0.069-0.408-0.603-0.505-0.545c-0.009,0.003,0.007,0.064,0.02,0.077l-0.013-0.029
				C35.437,45.49,35.419,45.913,35.561,46.193z"/>
			<path fill="#F98967" d="M37.824,41.8c0.146-0.114,0.354-0.483,0.142-0.619c-0.259-0.165-0.573,0.202-0.722,0.355
				c-0.058,0.061-0.51,0.518-0.436,0.6c0.005,0.01,0.058-0.018,0.07-0.034l-0.024,0.018C37.154,42.059,37.576,41.995,37.824,41.8z"
				/>
			<path fill="#F98967" d="M37.6,45.141c0.181,0.042,0.597-0.037,0.566-0.286c-0.037-0.304-0.521-0.312-0.732-0.328
				c-0.084-0.006-0.725-0.061-0.741,0.048c-0.005,0.01,0.05,0.036,0.069,0.033l-0.029-0.008
				C36.973,44.794,37.292,45.073,37.6,45.141z"/>
		</g>
		<g>
			<path fill="#AD9582" d="M37.22,55.261c0.801,0.544,1.442,1.718,2.371,2.685c1.55,1.614,1.683,1.592,3.693,0.573
				c1.528-0.776,3.557-1.2,2.657-3.018c-0.568-1.151-3.31-1.553-4.34-2.237c0.814-1.685,5.556,2.317,4.34-1.748
				c-0.53-1.773-5.147-2.044-7.35-1.494c-1.735,0.433-5.323,1.052-6.028,3.048c-0.749,2.117,1.391,4.084,3.321,3.642
				c0,0,1.822-0.247,0.911-1.435C36.664,55.104,36.636,54.864,37.22,55.261z"/>
			<path fill="#F2DDC9" d="M36.693,54.316c1.219,0.506,1.969,2.017,2.898,2.981c1.55,1.612,1.683,1.592,3.693,0.573
				c1.528-0.775,3.607-1.211,2.376-2.849c-0.772-1.023-3.029-1.721-4.06-2.407c0.814-1.684,5.309,2.056,4.261-1.396
				c-0.538-1.771-5.067-2.395-7.271-1.844c-1.735,0.433-5.228,1.376-5.931,3.371c-0.749,2.119,1.293,3.762,3.224,3.319
				c0,0,1.456-0.422,0.764-0.946C35.954,54.594,36.044,54.046,36.693,54.316z"/>
			<path fill="#DDC6B3" d="M34.656,51.955c0.426-0.508,0.889-0.869,1.628-1.175c0.502-0.206,1.034-0.308,1.576-0.244
				c0.092,0.01,0.16,0.023,0.216,0.035c0.019-0.033,0.046-0.071,0.091-0.119c1.344-1.419,4.787-0.845,6.261,0.096
				c0.625,0.397,1.122,0.601,1.513,0.968c-0.021-0.093-0.048-0.192-0.08-0.297c-0.538-1.771-5.067-2.395-7.271-1.844
				c-1.735,0.433-5.228,1.376-5.931,3.371c-0.265,0.748-0.178,1.43,0.124,1.989c-0.091-0.369-0.094-0.771,0.026-1.208
				C33.094,52.499,33.846,52.225,34.656,51.955z"/>
			<path fill="#D6B89F" d="M35.877,50.654c1.241-0.702,2.793-1.148,4.222-1.183c1.606-0.043,4.445,0.238,5.688,1.569
				c-0.776-1.634-5.07-2.197-7.2-1.665c-1.735,0.433-5.226,1.376-5.929,3.371c-0.265,0.748-0.177,1.43,0.124,1.989
				c-0.011-0.048-0.018-0.096-0.026-0.146c-0.06-0.16-0.106-0.334-0.123-0.526C32.449,52.07,34.473,51.447,35.877,50.654z"/>
			<path fill="#FFECDE" d="M35.83,53.531c0.989-0.203,1.437,0.695,2.192,1.111c0.484,0.269,0.735,0.219,1.031,0.711
				c0.313,0.526,0.642,0.774,1.105,1.175c0.762,0.658,1.242,1.368,2.319,1.326c0.897-0.031,1.671-0.588,2.42-1.029
				c1.131-0.667,0.43-1.323-0.428-1.92c-0.762-0.529-1.941-0.675-2.561-1.364c-0.205-0.227-0.894-0.83-1.042-1.091
				c-0.266-0.465,0.414-0.57,0.934-0.651c0.546-0.088,1.197-0.03,1.722,0.073c0.335,0.065,0.808,0.354,1.138,0.333
				c1.132-0.079-0.263-1.353-0.663-1.567c-1.872-0.995-3.545-0.751-5.406,0.248c-0.666,0.359-1.913,0.313-2.55,0.676
				c-0.386,0.221-0.693,0.581-1.043,0.854c-0.359,0.277-0.571,0.265-0.96,0.414c-0.176,0.067-0.311,0.117-0.425,0.285l-0.048-0.095
				c-0.754,0.29-0.63,1.296-0.2,1.802c0.333,0.393,2.119,1.29,2.475,0.712c0.306-0.494-0.299-0.64-0.331-1.036
				C35.48,54.122,35.493,53.601,35.83,53.531z"/>
			<path fill="#FFF0EB" d="M41.716,51.456c0.247-0.014,1.044,0.007,1.239-0.152c0.637-0.519-0.992-1.054-1.376-1.035
				c-0.726,0.031-1.527,0.377-2.086,0.811c-1.033,0.794-2.706,0.385-3.699,1.086h-0.048c-0.385,0.146-0.66,0.503-1.04,0.668
				c-0.351,0.152-0.806,0.121-0.999,0.563c-0.432,0.996,0.82,1.164,1.1,1.796c0.59-0.031,0.295-1.793,1.032-2.033
				c0.791-0.255,1.851,0.567,2.421,1c0.367,0.277,0.647,0.686,1.041,0.937c0.495,0.313,0.988,0.353,1.326,0.77
				c0.566,0.693,0.965,1.282,1.851,1.326c0.284,0.015,1.336-0.321,1.566-0.483c0.464-0.329,0.478-1.059,0.196-1.318
				c-0.436-0.4-1.471-0.323-1.904-0.707c-0.326-0.29-0.525-0.708-0.863-0.988c-0.147-0.12-0.384-0.156-0.503-0.306
				c-0.126-0.157-0.119-0.417-0.211-0.596c-0.181-0.363-0.582-0.598-0.286-1.015C40.742,51.4,41.305,51.474,41.716,51.456z"/>
		</g>
		<path fill="#428C1F" d="M23.563,54.593c0.05-0.133,0.089-0.265,0.128-0.371c-1.316-0.293-0.931,0.777-1.453,0.869
			c-0.806,0.141-1.165-0.587-0.908-1.265c-1.384-0.165-1.714,1.479-0.518,2.022c-0.088-0.073,0.175,0.297,0.588,0.033
			c0.872,0.266,0.102,1.131-0.71,1.593l0.078-0.043c-0.848,0.408-0.741,1.559,0.317,1.626c1.204,0.077,0.62-1.532,1.684-1.431
			c-0.013,0.18,0.021,0.399,0.012,0.59c0.867-0.255,1.227,1.145,2.217,1.078c-0.166-0.61-0.564-1.617,0.537-1.444
			c-0.338-0.755-1.745-1.022-1.307-1.933c0.428,0.079,0.888,0.368,1.295,0.494c-0.157-0.582-0.221-1.243,0.269-1.663
			C25.047,54.693,24.122,55.146,23.563,54.593z"/>
		<path fill="#428C1F" d="M52.518,48.297c0.146-0.841,0.262-3.854-0.393-1.986c-0.269-0.653-1.351,1.608-2.099,1.513
			c0.431-0.988-0.396-1.894-1.423-1.687c-0.045,0.895,1.031,1.707,0.771,2.604c-0.27,0.921-1.734,1.103-2.223,0.283
			c-0.813,0.965,0.394,0.802,0.613,1.29c0.358,0.81-0.074,2.061,0.594,1.644c1.502-0.938,3.782,0.829,4.052-2.252
			c0.627,0.359,2.653,0.549,1.797,1.534c1.771-0.399,1.25-2.059,1.355-2.941C55.717,47,53.632,48.427,52.518,48.297z"/>
		<g>
			<path fill="#8E8623" d="M13.838,59.329c-1.37,0.342-3.571,1.863-2.464,3.441c0.957,1.363,3.37,1.178,4.728,0.688
				C19.96,62.062,16.391,58.023,13.838,59.329z"/>
			<path fill="#7C7218" d="M11.575,62.279c0.784,1.077,2.223,1.134,3.5,1.013c1.637-0.148,2.933-1.551,1.842-2.872
				C17.271,62.823,12.876,62.506,11.575,62.279z"/>
			<path fill="#B5B123" d="M14.043,59.636c-1.012-0.08-1.582,0.845-2.151,1.53c-0.153,0.186-0.392,0.38-0.193,0.502
				c0.233,0.146,0.611-0.046,0.758-0.218c0.252-0.298,0.206-0.686,0.585-0.884c0.359-0.189,0.859-0.336,1.245-0.456
				c0.187-0.059,1.669-0.127,1.068-0.591C15.062,59.292,14.347,59.54,14.043,59.636z"/>
		</g>
		<g>
			<path fill="#B26457" d="M53.512,56.484c2.136,1.709,9.422,2.294,13.006,1.706c1.459-0.237,1.642-0.333,3.068-0.785
				c1.616-0.518,2.472-1.068,2.364-2.93c-5.719,1.253-13.046,2.088-18.682,0.099v-0.34C53.199,54.976,53.5,55.696,53.512,56.484z"/>
			<path fill="#D67A67" d="M56.096,56.158c4.2,0.894,9.939,1.104,14.06-0.25c0.779-0.259,2.282-0.902,1.902-1.991
				c-0.265-0.769-2.015-1.303-2.696-1.47c-1.555-0.385-4.277-1.173-5.779-0.819h0.228c-3.044,0-6.223,0.385-9.068,1.446
				C51.573,54.258,53.97,55.703,56.096,56.158z"/>
			<path fill="#EFD5D0" d="M54.63,53.894c-1.492,0.747,0.677,1.411,1.563,1.001C57.466,53.81,55.289,53.624,54.63,53.894z"/>
			<path fill="#EFD5D0" d="M57.513,53.474c0.319,0.127,0.872,0.058,1.184-0.055c0.516-0.189,0.437-0.369-0.082-0.457
				c-0.318-0.054-0.789-0.088-1.102,0.01l0.18,0.046C57.249,52.941,57.056,53.29,57.513,53.474z"/>
			<path fill="#EFD5D0" d="M69.847,55.438c0.599-0.408,0.458-0.709-0.207-0.775c-0.407-0.039-1.001-0.025-1.367,0.197
				c-0.571-0.063-0.495,0.628,0.112,0.868C68.813,55.898,69.482,55.688,69.847,55.438z"/>
			<path fill="#E8C6BC" d="M64.68,55.957c0.748-0.429,0.586-0.729-0.228-0.775c-0.501-0.027-1.226,0.003-1.682,0.238
				c-0.698-0.045-0.627,0.644,0.113,0.866C63.404,56.445,64.229,56.215,64.68,55.957z"/>
			<path fill="#E8C6BC" d="M62.171,52.915c0.702,0.019,0.601-0.669-0.146-0.862c-0.523-0.138-1.343,0.127-1.782,0.403
				c-0.729,0.458-0.556,0.75,0.26,0.763C61.001,53.229,61.725,53.168,62.171,52.915z"/>
			<path fill="#E8C6BC" d="M57.033,55.884c0.392,0.105,0.979,0.197,1.381,0.085c0.551,0.15,0.607-0.413,0.052-0.712
				c-0.387-0.211-1.086-0.161-1.488-0.029C56.311,55.448,56.39,55.713,57.033,55.884z"/>
			<path fill="#E8C6BC" d="M66.365,56.433c0.402-0.027,0.989-0.114,1.352-0.302c0.564-0.036,0.49-0.454-0.113-0.523
				c-0.423-0.049-1.084,0.172-1.44,0.372C65.568,56.311,65.707,56.48,66.365,56.433z"/>
			<path fill="#EFD5D0" d="M62.655,53.564h0.408c-0.059-0.004-0.155-0.009-0.27-0.01C62.746,53.556,62.696,53.561,62.655,53.564z"/>
			<path fill="#EFD5D0" d="M63.011,54.383c0.369-0.001,1.543,0.161,1.112-0.466c-0.224-0.328-0.907-0.385-1.329-0.362
				c0.114,0.001,0.211,0.006,0.27,0.01h-0.408c0.041-0.004,0.091-0.009,0.139-0.01c-0.438-0.007-1.148,0.043-1.177,0.374
				C61.579,54.412,62.702,54.383,63.011,54.383z"/>
			<path fill="#EFD5D0" d="M66.978,53.884c0.381,0.077,2.319,0.325,2.14-0.546c-0.083-0.41-1.597-0.83-1.956-0.638
				c-0.354,0-1.874-0.111-1.766,0.448C65.482,53.596,66.669,53.818,66.978,53.884z"/>
			<path fill="#C9B3AF" d="M58.377,54.247c-0.228,0.01-0.438,0.116-0.552,0.317C58.335,55.237,59.516,54.165,58.377,54.247z"/>
			<path fill="#E8C6BC" d="M60.1,53.799c-0.335,0.011-0.651,0.132-0.818,0.357C60.038,54.908,61.791,53.704,60.1,53.799z"/>
			<path fill="#C9B3AF" d="M70.776,53.706c-0.226,0.012-0.438,0.119-0.552,0.32C70.734,54.696,71.915,53.624,70.776,53.706z"/>
			<path fill="#C9B3AF" d="M66.22,54.568c-0.341,0.016-0.66,0.178-0.83,0.479C66.157,56.063,67.938,54.442,66.22,54.568z"/>
			<path fill="#C9B3AF" d="M64.24,52.246c-0.543,0.016-1.053,0.178-1.323,0.481C64.14,53.742,66.975,52.12,64.24,52.246z"/>
			<path fill="#C9B3AF" d="M60.466,54.911c-0.544,0.027-1.054,0.31-1.325,0.841C60.363,57.521,63.2,54.693,60.466,54.911z"/>
		</g>
		<g>
			<path fill="#B26457" d="M21.83,61.335c-0.488,0.202-0.975,0.409-1.46,0.617c0.063,0.433,0.093,0.865,0.101,1.304
				c3.053,1.04,8.388,1.339,11.296,0.864c1.46-0.241,1.643-0.334,3.067-0.785c1.618-0.518,2.471-1.072,2.364-2.931
				C32.548,61.425,26.834,62.166,21.83,61.335z"/>
			<path fill="#D67A67" d="M34.609,58.373c-0.411-0.101-0.91-0.231-1.44-0.359c-1.849,0.44-3.714,0.859-5.562,1.338
				c-1.328,0.374-2.659,0.75-3.948,1.252c-1.045,0.405-2.082,0.831-3.111,1.269c0.262,0.086,0.531,0.156,0.797,0.213
				c4.2,0.896,9.94,1.104,14.059-0.251c0.782-0.258,2.282-0.902,1.903-1.989C37.04,59.074,35.292,58.543,34.609,58.373z"/>
			<path fill="#EFD5D0" d="M33.52,60.79c-0.572-0.063-0.494,0.627,0.114,0.865c0.43,0.169,1.098-0.04,1.459-0.285
				c0.6-0.411,0.462-0.712-0.204-0.777C34.48,60.553,33.889,60.565,33.52,60.79z"/>
			<path fill="#E8C6BC" d="M28.02,61.348c-0.7-0.045-0.626,0.644,0.112,0.869c0.519,0.158,1.346-0.074,1.796-0.33
				c0.748-0.433,0.585-0.729-0.228-0.776C29.2,61.082,28.478,61.114,28.02,61.348z"/>
			<path fill="#E8C6BC" d="M22.366,61.116c-0.159,0.066-0.32,0.132-0.48,0.198c-0.256,0.179-0.101,0.366,0.396,0.499
				c0.394,0.103,0.979,0.198,1.383,0.085c0.549,0.149,0.604-0.415,0.051-0.715C23.369,60.998,22.778,61.015,22.366,61.116z"/>
			<path fill="#E8C6BC" d="M31.412,61.906c-0.594,0.333-0.456,0.502,0.201,0.455c0.405-0.03,0.989-0.115,1.354-0.301
				c0.564-0.039,0.488-0.455-0.114-0.523C32.429,61.486,31.768,61.708,31.412,61.906z"/>
			<path fill="#EFD5D0" d="M28.044,59.481c0.112,0.002,0.208,0.007,0.269,0.01h-0.411C27.946,59.488,27.995,59.483,28.044,59.481
				c-0.44-0.005-1.151,0.044-1.178,0.375c-0.039,0.481,1.084,0.456,1.393,0.455c0.371,0,1.545,0.162,1.114-0.467
				C29.148,59.52,28.464,59.46,28.044,59.481z"/>
			<path fill="#EFD5D0" d="M32.41,58.627c-0.353,0-1.874-0.112-1.767,0.447c0.087,0.448,1.274,0.671,1.583,0.735
				c0.379,0.082,2.318,0.328,2.141-0.546C34.282,58.854,32.77,58.435,32.41,58.627z"/>
			<path fill="#E8C6BC" d="M25.997,59.814c-0.428,0.129-0.854,0.264-1.276,0.405C25.347,60.557,26.299,60.037,25.997,59.814z"/>
			<path fill="#C9B3AF" d="M36.025,59.636c-0.227,0.01-0.438,0.115-0.549,0.317C35.982,60.626,37.163,59.553,36.025,59.636z"/>
			<path fill="#C9B3AF" d="M31.47,60.497c-0.342,0.016-0.663,0.175-0.832,0.479C31.407,61.99,33.185,60.369,31.47,60.497z"/>
			<path fill="#C9B3AF" d="M30.476,58.646c-0.463,0.11-0.927,0.223-1.391,0.334C29.642,59.016,30.207,58.845,30.476,58.646z"/>
			<path fill="#C9B3AF" d="M25.712,60.841c-0.543,0.025-1.05,0.309-1.321,0.838C25.613,63.45,28.449,60.62,25.712,60.841z"/>
		</g>
		<g>
			<path fill="#0D2791" d="M46.654,59.537c-3.035,0.362-3.814,2.084-3.097,3.559c0.625,1.278,3.26,1.411,4.453,1.274
				c1.359-0.152,2.699-1.135,2.383-2.481C50.077,60.54,48.931,59.206,46.654,59.537z"/>
			<path fill="#06175B" d="M47.87,62.41c-1.464,0.373-3.036,0.329-4.25-0.438c0.036,0.241,0.067,0.479,0.093,0.719
				c0.394,0.564,0.868,1.013,1.521,1.179c2.21,0.577,5.542,0.408,4.769-2.588c-0.014-0.049-0.022-0.099-0.03-0.146
				C49.455,61.73,48.721,62.192,47.87,62.41z"/>
			<path fill="#4457AA" d="M44.508,60.428c-0.036-0.004-0.071,0.006-0.105,0.014c-0.011,0.017-0.021,0.035-0.024,0.052
				L44.508,60.428z"/>
			<path fill="#4457AA" d="M48.041,59.841c-0.687-0.129-1.372-0.007-2.045,0.132c-0.321,0.068-1.403,0.138-1.593,0.469
				c0.034-0.008,0.069-0.018,0.105-0.014l-0.129,0.065c0.003-0.017,0.014-0.035,0.024-0.052c-0.348,0.088-0.655,0.752-0.682,1.039
				c0.313,0.045,0.698-0.072,0.92-0.293c0.275-0.271,0.196-0.512,0.619-0.594c0.722-0.143,1.43-0.203,2.163-0.166
				c0.282,0.016,0.594-0.037,0.843,0.105c0.212,0.125,0.308,0.369,0.633,0.233c0.338-0.141,0.283-0.52,0.024-0.692
				C48.704,59.926,48.294,59.89,48.041,59.841z"/>
		</g>
		<g>
			<path fill="#0D2791" d="M45.313,42.737c-3.034,0.364-3.814,2.084-3.097,3.561c0.625,1.279,3.26,1.412,4.453,1.274
				c1.358-0.154,2.7-1.132,2.382-2.483C48.734,43.743,47.59,42.412,45.313,42.737z"/>
			<path fill="#06175B" d="M46.528,45.612c-1.463,0.373-3.036,0.328-4.25-0.437c0.036,0.24,0.066,0.48,0.092,0.718
				c0.394,0.562,0.87,1.01,1.524,1.178c2.206,0.577,5.541,0.408,4.764-2.587c-0.013-0.05-0.018-0.099-0.028-0.146
				C48.117,44.936,47.378,45.395,46.528,45.612z"/>
			<path fill="#4457AA" d="M43.167,43.632c-0.035-0.005-0.071,0.005-0.106,0.013c-0.01,0.017-0.02,0.033-0.023,0.052L43.167,43.632z
				"/>
			<path fill="#4457AA" d="M46.701,43.043c-0.688-0.126-1.373-0.008-2.046,0.131c-0.32,0.069-1.404,0.14-1.595,0.471
				c0.035-0.008,0.071-0.019,0.106-0.013l-0.129,0.065c0.003-0.019,0.013-0.035,0.023-0.052c-0.346,0.087-0.653,0.751-0.678,1.035
				c0.31,0.048,0.694-0.069,0.917-0.292c0.275-0.268,0.198-0.508,0.62-0.592c0.723-0.142,1.429-0.202,2.162-0.164
				c0.281,0.014,0.596-0.038,0.844,0.105c0.212,0.123,0.307,0.368,0.633,0.231c0.337-0.14,0.283-0.518,0.026-0.69
				C47.364,43.128,46.955,43.092,46.701,43.043z"/>
		</g>
		<path fill="#428C1F" d="M63.663,59.196c-0.088-0.072,0.175,0.299,0.589,0.034c0.871,0.267,0.1,1.131-0.71,1.596l0.076-0.045
			c-0.847,0.406-0.739,1.557,0.317,1.627c1.204,0.077,0.621-1.532,1.686-1.432c-0.017,0.181,0.019,0.398,0.011,0.589
			c0.865-0.254,1.229,1.146,2.217,1.079c-0.167-0.61-0.565-1.617,0.535-1.444c-0.338-0.753-1.744-1.022-1.309-1.931
			c0.432,0.076,0.893,0.364,1.299,0.491c-0.158-0.581-0.223-1.242,0.269-1.663c-0.743-0.057-1.669,0.397-2.23-0.157
			c0.054-0.13,0.092-0.263,0.131-0.371c-1.317-0.29-0.931,0.779-1.453,0.871c-0.806,0.14-1.167-0.587-0.909-1.264
			C62.797,57.013,62.467,58.652,63.663,59.196z"/>
		<g>
			<path fill="#8E8623" d="M54.177,58.102c-1.369,0.342-3.571,1.863-2.464,3.444c0.957,1.362,3.372,1.175,4.728,0.684
				C60.299,60.834,56.73,56.796,54.177,58.102z"/>
			<path fill="#7C7218" d="M51.915,61.054c0.782,1.075,2.222,1.132,3.5,1.014c1.635-0.152,2.931-1.552,1.843-2.874
				C57.611,61.596,53.216,61.276,51.915,61.054z"/>
			<path fill="#B5B123" d="M54.383,58.41c-1.012-0.084-1.58,0.843-2.149,1.529c-0.156,0.186-0.394,0.38-0.196,0.502
				c0.233,0.142,0.614-0.048,0.759-0.219c0.252-0.3,0.206-0.686,0.583-0.885c0.361-0.188,0.861-0.333,1.248-0.455
				c0.186-0.055,1.668-0.125,1.068-0.59C55.403,58.064,54.687,58.312,54.383,58.41z"/>
		</g>
	</g>
	<path fill="#F4BC62" d="M87.29,53.528c-0.513,0.412-1.522,1.307-0.571,1.771c0.718,0.037,3.219-0.791,3.43-1.718
		C90.533,51.879,88.06,53.125,87.29,53.528z"/>
	<path fill="#F4BC62" d="M54.363,67.601c-0.507,0.036-1.547,0.162-1.144,0.878c0.442,0.339,2.4,0.914,2.943,0.418
		C57.16,67.979,55.034,67.684,54.363,67.601z"/>
	<path fill="#F4BC62" d="M8.991,67.152c-0.509,0.036-1.547,0.16-1.145,0.876c0.44,0.341,2.399,0.915,2.942,0.417
		C11.785,67.53,9.66,67.234,8.991,67.152z"/>
	<path fill="#F4BC62" d="M93.73,59.841c0.604,0.033,2.537,0.121,2.713-0.691c0.327-1.496-1.582-1.216-2.231-0.861
		C93.779,58.649,92.928,59.438,93.73,59.841z"/>
	<path fill="#F4BC62" d="M40.387,68.802c0.606,0.034,2.538,0.119,2.715-0.693c0.326-1.493-1.583-1.216-2.234-0.857
		C40.437,67.61,39.584,68.396,40.387,68.802z"/>
	<path fill="#F4BC62" d="M76.805,64.479c0.605,0.033,2.535,0.121,2.714-0.692c0.326-1.495-1.583-1.214-2.233-0.861
		C76.851,63.286,76.001,64.076,76.805,64.479z"/>
	<path fill="#F4BC62" d="M28.188,69.117c0.604,0.033,2.537,0.118,2.715-0.692c0.326-1.495-1.584-1.216-2.234-0.861
		C28.236,67.925,27.383,68.709,28.188,69.117z"/>
	<path fill="#F4BC62" d="M83.974,60.094c-1.107,0.153-0.139,1.425,0.601,1.209c0.343-0.1,0.705-0.4,0.522-0.868
		C84.917,59.982,84.425,60.078,83.974,60.094z"/>
	<path fill="#F4BC62" d="M4.68,65.737c-1.108,0.151-0.138,1.425,0.601,1.209c0.342-0.101,0.705-0.399,0.522-0.864
		C5.623,65.625,5.131,65.723,4.68,65.737z"/>
	<path fill="#F4BC62" d="M70.405,63.893c-1.107,0.154-0.139,1.427,0.601,1.21c0.342-0.102,0.707-0.399,0.521-0.864
		C71.348,63.783,70.857,63.878,70.405,63.893z"/>
	<path fill="#F4BC62" d="M20.604,68.481c-1.108,0.154-0.138,1.429,0.601,1.211c0.342-0.102,0.707-0.402,0.522-0.868
		C21.547,68.37,21.057,68.468,20.604,68.481z"/>
	<path fill="#F4BC62" d="M58.52,65.737c-1.105,0.151-0.138,1.425,0.604,1.209c0.342-0.101,0.704-0.399,0.521-0.864
		C59.465,65.625,58.972,65.723,58.52,65.737z"/>
	<path fill="#F4BC62" d="M35.143,67.033c-1.107,0.154-0.138,1.426,0.602,1.209c0.342-0.098,0.705-0.4,0.521-0.865
		C36.087,66.924,35.594,67.02,35.143,67.033z"/>
	<path fill="#F4BC62" d="M88.812,61.754c-0.752,0.924,0.654,1.066,1.126,0.373C89.68,61.685,89.248,61.556,88.812,61.754z"/>
	<path fill="#F4BC62" d="M16.201,67.987c-0.752,0.923,0.653,1.065,1.125,0.37C17.069,67.914,16.637,67.788,16.201,67.987z"/>
	<path fill="#F4BC62" d="M62.156,67.537c-0.755,0.925,0.651,1.066,1.123,0.371C63.022,67.466,62.591,67.337,62.156,67.537z"/>
	<path fill="#F4BC62" d="M45.489,68.105c-0.754,0.924,0.649,1.065,1.123,0.373C46.355,68.033,45.922,67.904,45.489,68.105z"/>
	<path fill="#F4BC62" d="M32.825,69.103c-0.754,0.926,0.651,1.068,1.123,0.373C33.692,69.032,33.259,68.903,32.825,69.103z"/>
	<path fill="#F4BC62" d="M89.735,56.197c-0.754,0.924,0.65,1.065,1.122,0.372C90.603,56.126,90.17,55.997,89.735,56.197z"/>
</g>
</svg>
