<?xml version="1.0" encoding="utf-8"?>
<!-- Generator: Adobe Illustrator 13.0.0, SVG Export Plug-In . SVG Version: 6.00 Build 14948)  -->
<!DOCTYPE svg PUBLIC "-//W3C//DTD SVG 1.1//EN" "http://www.w3.org/Graphics/SVG/1.1/DTD/svg11.dtd">
<svg version="1.1" id="Layer_1" xmlns="http://www.w3.org/2000/svg" xmlns:xlink="http://www.w3.org/1999/xlink" x="0px" y="0px"
	 width="100px" height="100px" viewBox="0 0 100 100" enable-background="new 0 0 100 100" xml:space="preserve">
<g>
	<g>
		<path fill="#F2BB33" d="M47.336,49.785C34.311,57.906,23.039,68.88,9.784,76.952c8.404,0.528,25.09-6.545,34.988-8.519
			c8.315-1.657,16.766-2.887,25.058-4.596c5.556-1.146,15.544-1.158,19.725-4.889C78.561,52.385,59.278,42.339,47.336,49.785z"/>
		<path fill="#FFB42E" d="M39.059,64.674c-6.632,1.775-12.042,4.406-17.853,7.657c-3.008,1.684-6.625,4.079-10.034,4.494
			c-0.149,0.02-0.615,0.027-1.388,0.127c-0.064,1.028-0.504,5.05,0.212,5.719c0.707,0.662,4.303-0.698,5.245-0.966
			c3.836-1.087,8.136-1.269,12.115-2.463c3.914-1.175,7.705-2.763,11.703-3.843c4.204-1.132,8.522-1.514,12.825-2.362
			c8.372-1.653,15.712-2.769,23.927-4.574c3.058-0.672,7.731-0.493,10.368-1.744c3.603-1.706,3.279-6.22,3.375-7.77
			c-9.695,1.548-20.753,0.625-30.78,1.41C52.099,60.883,45.538,62.941,39.059,64.674z"/>
		<path fill="#F7A116" d="M39.06,64.649c-6.632,1.773-12.044,4.404-17.853,7.655c-3.009,1.686-6.625,4.079-10.033,4.494
			c-0.15,0.021-0.615,0.028-1.388,0.127c-0.065,1.031-0.504,5.049,0.21,5.721c0.142,0.129,0.391,0.18,0.71,0.176
			c-0.981-5.151,4.88-5.29,9-5.87c3.621-0.509,6.949-1.414,10.362-2.718c2.955-1.129,13.099-4.282,15.681-4.599
			c5.96-0.733,11.758-2.198,17.62-3.459c5.744-1.237,11.531-1.815,17.338-2.625c3.084-0.433,4.945,0.749,5.739,2.995
			c3.308-1.802,3.017-6.115,3.112-7.624c-9.7,1.548-20.756,0.628-30.783,1.411C52.1,60.857,45.54,62.916,39.06,64.649z"/>
		<path opacity="0.48" fill="#C48A2C" d="M79.202,59.848c-5.727,0.988-11.279,2.815-16.898,3.965
			c-3.774,0.772-7.502,2.072-11.368,2.868c-7.001,1.441-13.841,3.691-20.813,5.047c-3.378,0.659-6.712,0.94-10.054,1.437
			c-2.256,0.336-5.124,1.771-6.988,1.708h0.311c-0.797,0.331-1.245,0.673-2.388,1.324c1.426-0.057,2.658,1.259,4.068,1.189
			c0.057,0.832,0.419,0.64,0.925,0.87c-0.115-0.052,1.492,0.19,1.587,0.195c1.35,0.088,2.567-0.426,3.882-0.473
			c2.583-0.089,4.529-0.389,6.828-0.47c2.552-0.089,4.471-0.804,6.991-1.557c1.024-0.307,2.05-0.53,3.114-0.76
			c0.399-0.089,0.952-0.178,1.39-0.32c1.034-0.335,0.677-0.319,1.402-0.933c0.6-0.504,0.025-0.455,1.083-0.776
			c0.549-0.165,1.244-0.223,1.863-0.153c1.148,0.125,1.803,0.733,2.989,0.66c0.813-0.052,2.652-0.163,3.412-0.471
			c1.468-0.598,0.735-1.039,0.553-2.364c-0.354-2.53,3.584-2.655,5.625-2.172c1.29,0.303,1.549,1.225,3.105,1.086
			c1.94-0.175,1.08-0.729,1.869-2.016c1.133-1.854,4.318,0.018,6.208,0.152c0.668,0.048,3.175,0.115,3.573-0.152
			c1.105-0.747,0.084-1.773,1.859-2.177c1.119-0.256,2.307,0.279,3.416,0.161c1.124-0.118,1.974-0.571,3.263-0.627
			c2.574-0.116,4.057-1.27,6.215-2.447c1.572-0.856,2.536-0.642,3.234-2.647C87.549,57.799,81.535,59.448,79.202,59.848z"/>
		<path fill="#C7F22C" d="M45.787,66.637c-4.324,0.825-8.146,1.854-12.085,3.437c-2.96,1.19-3.947-2.422-7.079-1.793
			c-3.771,0.76-10.459,0.522-10.574,0.553c-1.946,0.353-6.807,4.684-7.571,6.863c1.727,0.17,3.551-0.867,5.318-0.138
			c0.999,0.412,0.504,1.166,1.958,1.032c0.783-0.069,1.449-0.799,2.101-1.057c-0.181,3.252,2.773,1.578,4.346,1.523
			c1.311-0.043,0.979,0.196,2.055-0.364c0.336-0.174,0.253-0.663,0.927-0.856c0.197-0.058,1.381,0.125,1.602,0.215
			c0.833,0.344,1.246,1.206,2.146,1.389c0.445,0.089,2.215-0.453,2.832-0.518c1.972-0.209,4.493-0.094,6.192-0.932
			c0.096,0.12,0.323,0.426,0.363,0.495c0.127-1.287-1.193-2.235,0.313-3.134c0.77-0.462,1.585-0.02,2.245-0.011
			c0.744,0.011,0.768-1.575,1.514-1.521c1.159,0.085,2.187,1.12,3.78,1.096c1.938-0.029,3.19-1.264,4.417,0.629
			c1.282-1.501-0.653-3.435-0.303-4.918c0.262-1.126,1.702-1.54,2.623-2.122c0.841,2.05,4.466-1,4.413-2.148
			c-1.369-0.044-2.704,0.915-4.06,1.191C50.805,66.054,48.275,66.161,45.787,66.637z"/>
		<path fill="#97CC25" d="M35.336,71.93c0.005,0.005,0.008,0.008,0.014,0.014c-0.004-0.009-0.004-0.014-0.006-0.021
			C35.281,71.87,35.276,71.876,35.336,71.93z"/>
		<path fill="#97CC25" d="M48.963,69.068c0.027-0.11,0.052-0.218,0.076-0.327c-0.084-0.299-0.212-0.575-0.397-0.796
			C48.705,68.304,48.831,68.736,48.963,69.068z"/>
		<path fill="#97CC25" d="M39.958,68.037c-4.597,0.822-9.643,2.863-14.322,2.739c-4.421-0.115-10.428-1.304-13.924,1.599l0.93-0.158
			c-1.006,0.485-2.651,1.81-2.752,2.946c1.701-0.911,3.3-2.157,5.372-2.155c-0.059,0.211-0.017,0.49-0.113,0.73
			c0.222-0.026,0.512,0.065,0.732,0.046c0.081,0.431,0.353,0.749,0.371,1.194c0.675-0.345,0.729-1.432,1.208-2.018
			c0.442,0.104,0.865,0.197,1.374,0.188c-0.066,0.233-0.01,0.666-0.104,0.89c0.873-0.327,2.29-0.924,3.045-1.373
			c0.07,0.695-0.708,3.862,0.242,3.289c1.466-0.888,0.353-3.032,2.591-3.57c0.019,1.396,1.219,1.398,1.983,0.571
			c0.009,0.68,0.249,1.349,0.815,1.713c0.101-0.243,0.519-0.698,0.578-0.945c0.606,3.285,2.782,0.364,3.149,0.122
			c2.507-1.642,0.646,0.617,2.767,0.177c-0.047,0.374,0.217,0.733,0.219,1.045c1.008-0.195,1.531-2.196,1.23-3.124
			c-0.006-0.006-0.009-0.009-0.014-0.014c-0.061-0.054-0.056-0.06,0.008-0.007c0.002,0.007,0.002,0.012,0.006,0.021
			c0.156,0.158,0.175,0.074,0.309,0.324c1.034-0.516,2.158-1.635,3.223-0.601c1.461-1.133,2.241-1.748,4.03-2.085
			c1.599-0.3,2.054,1.296,3.579,1.442c-0.839-0.249-0.634-1.735-1.085-2.482c0.37-0.093,0.989-0.079,1.357,0
			c0.246,1.531,1.774,1.796,2.183,3.06c0.197-0.798,0.345-1.955,0.092-2.86c-0.023,0.109-0.048,0.217-0.076,0.327
			c-0.133-0.332-0.259-0.765-0.321-1.123c0.185,0.221,0.313,0.497,0.397,0.796c0.237-1.075,0.347-2.024,1.757-1.666
			c0.109-0.119,0.41-0.567,0.477-0.721C47.867,65.767,43.339,67.431,39.958,68.037z"/>
		<g>
			<g>
				<path fill="#F48053" d="M76.853,49.392c-1.27-0.355-2.618-1.188-3.917-0.947l-0.212-0.067c-0.021,0.958,0.545,1.956,0.668,2.899
					c0.181,1.405,0.279,2.247,0.917,3.585c1.407,2.947,3.709,4.578,6.637,5.828c4.813,2.057,11.706,0.026,13.705-5.156
					c-3.062-1.47-6.524-2.556-9.755-3.711C82.266,50.885,79.537,50.137,76.853,49.392z"/>
				<path fill="#E04F22" d="M84.896,51.822c-2.63-0.938-5.358-1.685-8.043-2.431c-0.316-0.089-0.639-0.208-0.964-0.332
					c-0.687,0.727-0.944,1.621-0.363,2.865c1.105,2.368,2.549,4.819,3.696,5.796c1.135,0.968,3.571,1.419,4.887,1.559
					c1.6,0.169,3.423-0.288,4.671-0.359c1.248-0.534,2.941-1.698,3.678-3.026c0.199-0.365,0.223-0.762-0.087-1.359
					C89.931,53.539,87.348,52.696,84.896,51.822z"/>
				<path fill="#F98967" d="M79.335,50.088c0.392,0.365,0.354,1.006,0.58,1.344c1.479,2.179,3.788,3.714,6.502,2.758
					c0.761-0.266,1.48-0.64,2.183-1.07c-1.242-0.438-2.49-0.864-3.704-1.298C83.075,51.173,81.204,50.617,79.335,50.088z"/>
				<path fill="#FCA08B" d="M84.896,51.822c-1.613-0.574-3.264-1.072-4.916-1.543c0.358,0.342,0.031,0.67,0.238,1.121
					c0.249,0.363,1.675,1.448,2.166,1.97c0.047,0.048,0.153,0.328,0.191,0.366c0.418,0.152,0.411-0.023,0.642,0.094
					c0.123,0.063,0.752,0.443,0.859,0.521c1.875,0.046,2.038-0.749,3.844-1.026c0.213-0.033,0.373-0.312,0.266-0.352
					C87.078,52.584,85.976,52.207,84.896,51.822z"/>
				<path fill="#E04F22" d="M92.693,57.3c-0.139,0.073-0.278,0.131-0.418,0.178c-0.398,1.108-1.341,1.989-2.559,2.295
					c-0.357,0.093-0.702,0.224-1.057,0.319c-0.347,0.092-0.698,0.141-1.054,0.165c-0.975,0.419-2.046,0.666-3.101,0.576
					c-0.53-0.046-1.021-0.214-1.466-0.459c-0.94,0.109-1.594,0.105-2.518-0.14c-0.592-0.156-1.157-0.442-1.696-0.726
					c-0.771-0.412-1.33-1.307-1.534-2.146c-0.9-0.786-1.664-1.712-2.148-2.813c-0.002-0.01-0.005-0.017-0.007-0.022
					c-0.616-1.133-0.934-2.431-1.368-3.648c-0.242-0.687-0.151-1.402,0.144-2.045c-0.044-0.139-0.083-0.276-0.139-0.406
					c-0.279-0.032-0.56-0.037-0.838,0.017l-0.212-0.067c-0.021,0.958,0.545,1.956,0.668,2.899c0.181,1.405,0.279,2.247,0.917,3.585
					c1.407,2.947,3.709,4.578,6.637,5.828c4.813,2.057,11.706,0.026,13.705-5.156c-0.098-0.047-0.195-0.09-0.292-0.136
					C94.055,56.212,93.467,56.898,92.693,57.3z"/>
				<path fill="#CC2909" d="M94.167,55.933c-0.017,0.028-0.039,0.061-0.059,0.09c-0.251,0.92-0.749,1.779-1.547,2.348
					c-0.375,0.266-0.74,0.506-1.122,0.714c-0.964,0.773-2.058,1.368-3.212,1.646c-2.257,0.812-4.971,0.646-7.131-0.206
					c-0.219-0.085-0.428-0.191-0.626-0.31c-0.574-0.159-1.122-0.428-1.645-0.705c-0.259-0.143-0.482-0.345-0.691-0.575
					c-1.524-0.853-2.8-2.25-3.449-3.864c-0.336-0.504-0.58-1.069-0.738-1.726c-0.109-0.463-0.148-0.934-0.218-1.402
					c-0.043-0.299-0.045-0.594-0.026-0.886c-0.106-0.325-0.232-0.771-0.217-0.738c-0.177-0.461-0.342-0.931-0.486-1.406
					c-0.058-0.165-0.088-0.327-0.116-0.486l-0.16-0.049c-0.021,0.958,0.545,1.956,0.668,2.899c0.181,1.405,0.279,2.247,0.917,3.585
					c1.407,2.947,3.709,4.578,6.637,5.828c4.813,2.057,11.706,0.026,13.705-5.156c-0.079-0.039-0.158-0.073-0.234-0.111
					C94.344,55.592,94.267,55.761,94.167,55.933z"/>
				<path fill="#F98967" d="M78.968,50.912l0.054-0.027c-0.003,0-0.003,0-0.005,0.003C78.996,50.896,78.977,50.905,78.968,50.912z"
					/>
				<polygon fill="#F98967" points="79.021,50.885 79.017,50.888 79.021,50.885 				"/>
				<path fill="#F98967" d="M79.021,50.885l-0.054,0.027c0.009-0.007,0.028-0.016,0.049-0.024c-0.612,0.015-1.452,0.005-2.006,0.295
					c-0.328,0.175-0.856,0.831-0.486,1.166c0.453,0.415,1.193-0.2,1.533-0.45c0.14-0.098,1.176-0.843,1.061-1.029
					C79.116,50.854,79.063,50.868,79.021,50.885z"/>
				<path fill="#F98967" d="M87.33,55.384c0.011,0.018,0.025,0.033,0.036,0.038l-0.039-0.047
					C87.329,55.377,87.329,55.38,87.33,55.384z"/>
				<polygon fill="#F98967" points="87.327,55.375 87.33,55.384 87.327,55.375 				"/>
				<path fill="#F98967" d="M88.533,56.083c-0.128-0.112-1.088-0.956-1.245-0.798c-0.008,0.005,0.012,0.052,0.039,0.09l0.039,0.047
					c-0.011-0.005-0.025-0.021-0.036-0.038c0.155,0.59,0.335,1.409,0.742,1.884c0.244,0.277,1.001,0.644,1.247,0.21
					C89.62,56.947,88.854,56.36,88.533,56.083z"/>
				<path fill="#F98967" d="M80.398,53.678l0.042-0.047c-0.004,0.004-0.004,0.004-0.011,0.002
					C80.417,53.649,80.403,53.664,80.398,53.678z"/>
				<path fill="#F98967" d="M80.43,53.633c0.007,0.002,0.007,0.002,0.011-0.002l-0.042,0.047
					C80.403,53.664,80.417,53.649,80.43,53.633c-0.56,0.25-1.337,0.556-1.739,1.035c-0.235,0.288-0.478,1.093-0.009,1.267
					c0.574,0.212,1.025-0.638,1.249-1c0.092-0.142,0.771-1.226,0.59-1.353C80.513,53.571,80.464,53.602,80.43,53.633z"/>
				<path fill="#F98967" d="M82.887,54.774l0.034-0.046c-0.49,0.257-1.177,0.579-1.508,1.036c-0.197,0.268-0.363,1.007,0.065,1.133
					c0.526,0.157,0.885-0.633,1.063-0.966c0.068-0.136,0.619-1.146,0.447-1.25C82.976,54.666,82.896,54.74,82.887,54.774z"/>
				<path fill="#F98967" d="M90.189,54.597c-0.145-0.042-1.243-0.384-1.313-0.198c-0.012,0.016,0.074,0.082,0.112,0.082L88.94,54.46
					c0.344,0.431,0.795,1.042,1.308,1.275c0.3,0.139,1.059,0.163,1.099-0.285C91.396,54.904,90.553,54.708,90.189,54.597z"/>
				<path fill="#F98967" d="M84.907,56.312c0,0.002,0,0.005-0.001,0.007c0.003,0.02,0.008,0.037,0.015,0.047L84.907,56.312z"/>
				<path fill="#F98967" d="M84.913,56.225c-0.013,0.002-0.014,0.053-0.007,0.094c0.001-0.002,0.001-0.005,0.001-0.007l0.014,0.054
					c-0.007-0.01-0.012-0.027-0.015-0.047c-0.109,0.539-0.291,1.273-0.146,1.815c0.09,0.319,0.554,0.914,0.924,0.66
					c0.451-0.311,0.064-1.085-0.084-1.435C85.542,57.222,85.101,56.161,84.913,56.225z"/>
			</g>
			<path opacity="0.38" fill="#89331F" d="M76.919,53.447c-1.215-0.926-2.427-1.849-3.646-2.756
				c0.051,0.191,0.093,0.379,0.117,0.563c0.181,1.407,0.279,2.248,0.919,3.586c1.407,2.947,3.709,4.58,6.635,5.828
				c1.599,0.684,3.423,0.905,5.225,0.724C82.712,59.397,79.461,56.43,76.919,53.447z"/>
			<g>
				<path fill="#F48053" d="M77.329,55.087c-2.055-1.891-4.277-3.646-6.454-5.38c-1.032-0.822-1.947-2.117-3.237-2.402l-0.17-0.146
					c-0.396,0.876-0.262,2.016-0.516,2.931c-0.382,1.363-0.622,2.178-0.557,3.659c0.145,3.263,1.624,5.663,3.831,7.959
					c3.628,3.771,10.764,4.594,14.632,0.604C82.61,59.763,79.85,57.411,77.329,55.087z"/>
				<path fill="#E04F22" d="M70.875,49.707c-0.26-0.206-0.511-0.438-0.758-0.682c-0.917,0.403-1.506,1.122-1.455,2.495
					c0.093,2.611,0.463,5.433,1.138,6.78c0.668,1.334,2.733,2.704,3.888,3.344c1.41,0.78,3.267,1.072,4.444,1.494
					c1.357-0.005,3.37-0.415,4.566-1.351c0.325-0.258,0.503-0.612,0.451-1.283c-1.859-1.869-3.905-3.652-5.82-5.417
					C75.274,53.196,73.052,51.441,70.875,49.707z"/>
				<path fill="#F98967" d="M72.886,51.316c0.22,0.492-0.067,1.066,0.01,1.465c0.513,2.582,2.036,4.898,4.906,5.082
					c0.805,0.05,1.617-0.013,2.43-0.136c-0.974-0.888-1.955-1.767-2.902-2.641C75.905,53.776,74.401,52.535,72.886,51.316z"/>
				<path fill="#FCA08B" d="M77.329,55.087c-1.261-1.157-2.585-2.262-3.921-3.341c0.192,0.453-0.235,0.629-0.219,1.123
					c0.083,0.432,0.97,1.987,1.221,2.661c0.026,0.062,0.015,0.363,0.035,0.413c0.323,0.303,0.389,0.138,0.554,0.337
					c0.087,0.106,0.52,0.7,0.587,0.813c1.71,0.773,2.171,0.107,3.94,0.557c0.211,0.055,0.463-0.144,0.379-0.22
					C79.039,56.641,78.172,55.864,77.329,55.087z"/>
				<path fill="#E04F22" d="M82.367,63.175c-0.158,0.014-0.307,0.014-0.455,0c-0.802,0.868-2.011,1.306-3.254,1.114
					c-0.365-0.054-0.73-0.068-1.097-0.119c-0.355-0.049-0.697-0.145-1.037-0.259c-1.058,0.003-2.14-0.187-3.074-0.681
					c-0.469-0.251-0.859-0.597-1.172-0.996c-0.907-0.265-1.507-0.526-2.264-1.113c-0.484-0.374-0.892-0.858-1.275-1.331
					c-0.55-0.678-0.717-1.721-0.575-2.571c-0.523-1.075-0.865-2.228-0.879-3.432c0-0.008,0-0.016,0-0.025
					c-0.122-1.281,0.091-2.604,0.167-3.889c0.046-0.729,0.41-1.351,0.934-1.827c0.012-0.146,0.03-0.286,0.027-0.427
					c-0.241-0.141-0.496-0.255-0.775-0.315l-0.17-0.146c-0.396,0.876-0.262,2.016-0.516,2.931c-0.382,1.363-0.622,2.178-0.557,3.659
					c0.145,3.263,1.624,5.663,3.831,7.959c3.628,3.771,10.764,4.594,14.632,0.604c-0.073-0.078-0.146-0.158-0.217-0.238
					C84.044,62.705,83.235,63.106,82.367,63.175z"/>
				<path fill="#CC2909" d="M84.257,62.491c-0.025,0.019-0.061,0.04-0.088,0.061c-0.594,0.751-1.383,1.348-2.339,1.556
					c-0.452,0.101-0.882,0.181-1.315,0.223c-1.187,0.333-2.43,0.453-3.602,0.259c-2.389-0.136-4.825-1.344-6.482-2.977
					c-0.167-0.165-0.318-0.342-0.455-0.528c-0.464-0.37-0.864-0.835-1.236-1.294c-0.184-0.229-0.312-0.504-0.414-0.797
					c-1.068-1.382-1.696-3.165-1.666-4.905c-0.114-0.597-0.114-1.211-0.005-1.875c0.081-0.471,0.229-0.919,0.351-1.377
					c0.075-0.293,0.189-0.567,0.319-0.826c0.027-0.341,0.089-0.799,0.089-0.765c0.019-0.495,0.049-0.99,0.1-1.485
					c0.014-0.174,0.046-0.334,0.084-0.492l-0.129-0.109c-0.396,0.876-0.262,2.016-0.516,2.931c-0.382,1.363-0.622,2.178-0.557,3.659
					c0.145,3.263,1.624,5.663,3.831,7.959c3.628,3.771,10.764,4.594,14.632,0.604c-0.057-0.065-0.115-0.129-0.175-0.194
					C84.555,62.247,84.415,62.372,84.257,62.491z"/>
				<path fill="#F98967" d="M72.229,51.936l0.057-0.006c-0.003,0-0.003,0-0.005-0.002C72.258,51.928,72.237,51.93,72.229,51.936z"/>
				<path fill="#F98967" d="M72.286,51.93l-0.057,0.006c0.008-0.006,0.028-0.008,0.052-0.008c-0.57-0.225-1.34-0.563-1.96-0.508
					c-0.374,0.03-1.116,0.428-0.909,0.882c0.258,0.558,1.182,0.28,1.592,0.185c0.165-0.037,1.414-0.316,1.378-0.535
					c0.002-0.013-0.052-0.023-0.101-0.023C72.283,51.93,72.283,51.93,72.286,51.93z"/>
				<path fill="#F98967" d="M78.177,59.313c0.006,0.021,0.011,0.043,0.019,0.052l-0.019-0.057
					C78.177,59.309,78.177,59.313,78.177,59.313z"/>
				<path fill="#F98967" d="M78.177,59.211c-0.012,0-0.012,0.058,0,0.102c0,0,0-0.004,0-0.005l0.019,0.057
					c-0.008-0.009-0.013-0.031-0.019-0.052c-0.087,0.608-0.243,1.435-0.052,2.029c0.118,0.351,0.671,0.983,1.065,0.679
					c0.482-0.372,0.007-1.211-0.179-1.591C78.939,60.278,78.384,59.123,78.177,59.211z"/>
				<path fill="#F98967" d="M72.465,55.038l0.054-0.025c-0.004,0-0.005,0-0.009-0.003C72.491,55.021,72.475,55.026,72.465,55.038z"
					/>
				<path fill="#F98967" d="M72.51,55.01c0.004,0.003,0.005,0.003,0.009,0.003l-0.054,0.025
					C72.475,55.026,72.491,55.021,72.51,55.01c-0.612,0.011-1.448-0.012-2.007,0.273c-0.33,0.172-0.868,0.819-0.503,1.16
					c0.445,0.419,1.196-0.185,1.543-0.429c0.138-0.098,1.186-0.83,1.069-1.017C72.611,54.985,72.556,54.993,72.51,55.01z"/>
				<path fill="#F98967" d="M74.373,56.989c-0.549,0.047-1.308,0.076-1.791,0.364c-0.286,0.171-0.727,0.788-0.382,1.07
					c0.423,0.351,1.063-0.237,1.356-0.477c0.119-0.097,1.015-0.811,0.898-0.974c-0.003-0.016-0.109,0.016-0.131,0.045L74.373,56.989
					z"/>
				<path fill="#F98967" d="M81.116,59.709c-0.117-0.095-0.992-0.837-1.132-0.695c-0.014,0.009,0.04,0.104,0.074,0.121l-0.036-0.041
					c0.146,0.53,0.323,1.271,0.7,1.687c0.226,0.243,0.914,0.563,1.126,0.167C82.107,60.463,81.409,59.953,81.116,59.709z"/>
				<path fill="#F98967" d="M75.586,59.226c0,0.002-0.003,0.005-0.007,0.007c-0.002,0.019-0.005,0.036-0.002,0.046L75.586,59.226z"
					/>
				<path fill="#F98967" d="M75.623,59.147c-0.01-0.006-0.032,0.043-0.044,0.085c0.004-0.002,0.007-0.005,0.007-0.007l-0.009,0.053
					c-0.003-0.01,0-0.027,0.002-0.046c-0.31,0.452-0.762,1.056-0.838,1.61c-0.047,0.33,0.149,1.062,0.589,0.968
					c0.537-0.106,0.483-0.97,0.484-1.35C75.813,60.308,75.821,59.159,75.623,59.147z"/>
			</g>
			<path opacity="0.38" fill="#89331F" d="M70.136,56.64c-0.74-2.925-2.322-5.575-2.919-8.507c-0.095,0.66-0.098,1.358-0.265,1.958
				c-0.382,1.363-0.622,2.178-0.557,3.659c0.145,3.263,1.624,5.663,3.831,7.959c0.496,0.515,1.057,0.965,1.666,1.366
				c-0.149-0.506-0.291-1.012-0.419-1.524C70.888,59.977,70.553,58.275,70.136,56.64z"/>
			<g>
				<path fill="#F48053" d="M66.677,49.173c-0.421-1.249-0.486-2.836-1.415-3.774l-0.066-0.214c-0.804,0.52-1.313,1.553-2.025,2.183
					c-1.062,0.936-1.701,1.491-2.451,2.77c-1.646,2.82-1.708,5.641-1.1,8.766c1.002,5.135,6.553,9.699,11.964,8.444
					c-0.505-3.358-1.546-6.835-2.406-10.152C68.477,54.491,67.56,51.814,66.677,49.173z"/>
				<path fill="#E04F22" d="M66.677,49.173c-0.106-0.313-0.192-0.645-0.27-0.983c-0.987-0.16-1.873,0.128-2.572,1.307
					c-1.34,2.246-2.562,4.813-2.725,6.312c-0.163,1.484,0.831,3.753,1.454,4.919c0.759,1.421,2.158,2.672,2.921,3.666
					c1.141,0.731,3.054,1.482,4.568,1.342c0.41-0.037,0.755-0.241,1.071-0.831c-0.543-2.582-1.295-5.188-1.948-7.708
					C68.477,54.491,67.56,51.814,66.677,49.173z"/>
				<path fill="#F98967" d="M67.489,51.619c-0.079,0.529-0.635,0.855-0.784,1.232c-0.976,2.447-0.949,5.222,1.364,6.931
					c0.648,0.48,1.363,0.868,2.113,1.203c-0.336-1.271-0.681-2.542-1.006-3.79C68.692,55.323,68.102,53.463,67.489,51.619z"/>
				<path fill="#FCA08B" d="M67.696,52.258c-0.084,0.486-0.537,0.404-0.793,0.827c-0.163,0.409-0.262,2.198-0.419,2.896
					c-0.01,0.067-0.184,0.314-0.195,0.369c0.109,0.431,0.253,0.322,0.285,0.582c0.015,0.137,0.055,0.869,0.052,1.002
					c1.015,1.577,1.765,1.267,3.004,2.604c0.149,0.16,0.469,0.134,0.438,0.022c-0.296-1.133-0.604-2.261-0.892-3.366
					C68.748,55.538,68.232,53.892,67.696,52.258z"/>
				<path fill="#E04F22" d="M69.021,66.721c-0.138-0.073-0.265-0.156-0.381-0.242c-1.142,0.29-2.396,0.003-3.336-0.832
					c-0.278-0.243-0.581-0.453-0.858-0.695c-0.268-0.234-0.507-0.502-0.729-0.779c-0.894-0.573-1.699-1.318-2.216-2.243
					c-0.26-0.464-0.397-0.966-0.446-1.47c-0.615-0.716-0.979-1.26-1.296-2.163c-0.203-0.58-0.282-1.206-0.35-1.811
					c-0.093-0.869,0.335-1.835,0.914-2.476c0.145-1.186,0.482-2.338,1.125-3.357c0.006-0.004,0.011-0.012,0.014-0.018
					c0.587-1.145,1.487-2.14,2.248-3.177c0.435-0.587,1.077-0.914,1.775-1.031c0.087-0.114,0.18-0.223,0.257-0.343
					c-0.129-0.247-0.28-0.484-0.48-0.685l-0.066-0.214c-0.804,0.52-1.313,1.553-2.025,2.183c-1.062,0.936-1.701,1.491-2.451,2.77
					c-1.646,2.82-1.708,5.641-1.1,8.766c1.002,5.135,6.553,9.699,11.964,8.444c-0.017-0.104-0.039-0.21-0.054-0.316
					C70.687,67.24,69.788,67.138,69.021,66.721z"/>
				<path fill="#CC2909" d="M70.979,67.173c-0.031,0.002-0.07,0-0.105,0.003c-0.905,0.308-1.894,0.382-2.811,0.038
					c-0.432-0.16-0.836-0.328-1.221-0.528c-1.182-0.364-2.29-0.937-3.167-1.734c-1.937-1.414-3.327-3.748-3.831-6.018
					c-0.053-0.231-0.083-0.461-0.095-0.693c-0.193-0.562-0.274-1.169-0.34-1.755c-0.027-0.293,0.017-0.595,0.086-0.894
					c-0.148-1.74,0.291-3.582,1.264-5.025c0.228-0.563,0.557-1.08,1.013-1.58c0.323-0.35,0.69-0.645,1.04-0.965
					c0.224-0.206,0.466-0.372,0.717-0.521c0.21-0.271,0.508-0.623,0.491-0.594c0.279-0.405,0.577-0.804,0.887-1.195
					c0.107-0.136,0.224-0.254,0.342-0.365l-0.053-0.162c-0.804,0.52-1.313,1.553-2.025,2.183c-1.062,0.936-1.701,1.491-2.451,2.77
					c-1.646,2.82-1.708,5.641-1.1,8.766c1.002,5.135,6.553,9.699,11.964,8.444c-0.014-0.087-0.028-0.17-0.042-0.254
					C71.361,67.129,71.176,67.16,70.979,67.173z"/>
				<path fill="#F98967" d="M66.601,51.78l0.054,0.028c-0.001-0.002-0.001-0.002-0.003-0.006
					C66.633,51.787,66.614,51.781,66.601,51.78z"/>
				<path fill="#F98967" d="M66.651,51.803c0.002,0.004,0.002,0.004,0.003,0.006l-0.054-0.028
					C66.614,51.781,66.633,51.787,66.651,51.803c-0.356-0.497-0.819-1.2-1.371-1.492c-0.328-0.175-1.166-0.243-1.24,0.25
					c-0.086,0.606,0.836,0.875,1.236,1.019c0.162,0.058,1.358,0.501,1.447,0.297C66.732,51.866,66.689,51.827,66.651,51.803z"/>
				<path fill="#F98967" d="M67.585,61.257l0.016-0.058c-0.002,0.004-0.002,0.005-0.004,0.007
					C67.59,61.227,67.585,61.246,67.585,61.257z"/>
				<path fill="#F98967" d="M67.597,61.206c0.002-0.002,0.002-0.003,0.004-0.007l-0.016,0.058
					C67.585,61.246,67.59,61.227,67.597,61.206c-0.402,0.462-0.979,1.068-1.143,1.674c-0.091,0.358,0.027,1.191,0.525,1.148
					c0.609-0.049,0.664-1.012,0.715-1.429c0.019-0.17,0.179-1.44-0.042-1.479C67.644,61.112,67.613,61.161,67.597,61.206z"/>
				<path fill="#F98967" d="M65.116,54.514l0.063,0.009c-0.003,0-0.007-0.004-0.007-0.009C65.152,54.512,65.13,54.51,65.116,54.514z
					"/>
				<path fill="#F98967" d="M65.179,54.522l-0.063-0.009c0.014-0.004,0.036-0.002,0.056,0c-0.521-0.323-1.211-0.795-1.835-0.859
					c-0.371-0.033-1.173,0.22-1.051,0.704c0.146,0.595,1.103,0.492,1.526,0.475c0.168-0.007,1.445-0.052,1.454-0.273
					c0.002-0.01-0.051-0.032-0.095-0.046C65.172,54.519,65.176,54.522,65.179,54.522z"/>
				<path fill="#F98967" d="M65.655,57.188c0.002,0,0.005,0.001,0.007,0.003l-0.054-0.003
					C65.618,57.186,65.637,57.186,65.655,57.188c-0.484-0.261-1.134-0.646-1.694-0.664c-0.333-0.01-1.04,0.265-0.9,0.693
					c0.163,0.523,1.018,0.375,1.395,0.334c0.153-0.016,1.294-0.131,1.286-0.329C65.744,57.208,65.697,57.194,65.655,57.188z"/>
				<path fill="#F98967" d="M65.608,57.188l0.054,0.003c-0.002-0.002-0.005-0.003-0.007-0.003
					C65.637,57.186,65.618,57.186,65.608,57.188z"/>
				<path fill="#F98967" d="M69.265,62.022c0,0.003,0,0.005-0.002,0.008c0.002,0.018,0.005,0.036,0.01,0.044L69.265,62.022z"/>
				<path fill="#F98967" d="M69.279,61.938c-0.015-0.004-0.021,0.05-0.017,0.093c0.002-0.003,0.002-0.005,0.002-0.008l0.008,0.052
					c-0.005-0.008-0.008-0.026-0.01-0.044c-0.163,0.527-0.412,1.238-0.321,1.789c0.057,0.326,0.461,0.968,0.854,0.75
					c0.478-0.264,0.167-1.075,0.056-1.438C69.806,62.987,69.47,61.891,69.279,61.938z"/>
				<path fill="#F98967" d="M65.433,59.763l0.034-0.037c-0.505,0.21-1.22,0.475-1.589,0.9c-0.217,0.251-0.445,0.973-0.026,1.134
					c0.508,0.2,0.931-0.556,1.138-0.875c0.084-0.127,0.713-1.088,0.555-1.205C65.53,59.667,65.443,59.73,65.433,59.763z"/>
			</g>
			<path opacity="0.38" fill="#89331F" d="M63.17,47.368c-1.062,0.939-1.701,1.492-2.45,2.773c-1.648,2.817-1.709,5.639-1.101,8.765
				c0.389,1.995,1.473,3.899,2.962,5.415c0.165-0.854,0.391-1.698,0.592-2.489c0.056-0.222,0.108-0.444,0.16-0.664
				c0.111-4.6,0.771-9.173,0.97-13.782c0.035-0.83,0.306-1.521,0.722-2.07C64.315,45.865,63.829,46.785,63.17,47.368z"/>
			<g>
				<path fill="#F48053" d="M63.607,46.973c-0.945,0.156-1.822,0.896-2.728,1.19c-1.346,0.438-2.155,0.687-3.354,1.561
					c-2.637,1.926-3.821,4.486-4.511,7.593c-1.135,5.11,2.128,11.51,7.592,12.525c0.878-3.28,1.311-6.884,1.851-10.269
					c0.441-2.761,0.668-5.579,0.912-8.354c0.118-1.313,0.687-2.795,0.212-4.026L63.607,46.973z"/>
				<path fill="#E04F22" d="M60.636,50.378c-2.125,1.524-4.269,3.395-5.018,4.7c-0.742,1.295-0.738,3.774-0.633,5.091
					c0.128,1.604,0.912,3.308,1.212,4.525c0.755,1.13,2.209,2.58,3.651,3.058c0.394,0.129,0.789,0.08,1.317-0.333
					c0.53-2.585,0.883-5.274,1.292-7.845c0.441-2.761,0.668-5.579,0.912-8.354c0.028-0.33,0.088-0.667,0.148-1.01
					C62.679,49.671,61.751,49.579,60.636,50.378z"/>
				<path fill="#F98967" d="M61.93,54.605c-1.873,1.854-2.956,4.404-1.521,6.897c0.405,0.698,0.904,1.34,1.457,1.948
					c0.2-1.302,0.392-2.605,0.592-3.877c0.307-1.912,0.508-3.855,0.684-5.787C62.855,54.241,62.214,54.319,61.93,54.605z"/>
				<path fill="#FCA08B" d="M62.016,54.897c-0.313,0.308-1.117,1.909-1.541,2.489c-0.037,0.055-0.293,0.216-0.323,0.258
					c-0.076,0.438,0.1,0.397,0.023,0.647c-0.039,0.132-0.294,0.82-0.352,0.938c0.301,1.854,1.112,1.866,1.716,3.589
					c0.071,0.207,0.376,0.31,0.395,0.197c0.176-1.157,0.346-2.313,0.524-3.442c0.27-1.69,0.454-3.405,0.614-5.118
					C62.802,54.871,62.423,54.612,62.016,54.897z"/>
				<path fill="#E04F22" d="M63.607,46.973c-0.945,0.156-1.822,0.896-2.728,1.19c-1.346,0.438-2.155,0.687-3.354,1.561
					c-2.637,1.926-3.821,4.486-4.511,7.593c-1.135,5.11,2.128,11.51,7.592,12.525c0.025-0.105,0.049-0.208,0.077-0.313
					c-0.856-0.146-1.639-0.6-2.177-1.286c-0.095-0.123-0.177-0.249-0.251-0.377c-1.164-0.188-2.197-0.953-2.728-2.097
					c-0.156-0.333-0.351-0.646-0.509-0.979c-0.151-0.323-0.262-0.66-0.354-1.005c-0.589-0.882-1.031-1.888-1.136-2.942
					c-0.054-0.53,0.023-1.044,0.18-1.525c-0.279-0.9-0.392-1.547-0.323-2.499c0.044-0.609,0.223-1.221,0.402-1.8
					c0.263-0.833,1.038-1.551,1.824-1.904c0.609-1.028,1.376-1.951,2.376-2.628c0.005-0.003,0.01-0.008,0.019-0.011
					c0.999-0.813,2.218-1.367,3.331-2.017c0.633-0.364,1.352-0.406,2.04-0.235c0.126-0.068,0.254-0.132,0.371-0.212
					c-0.02-0.279-0.065-0.555-0.168-0.819L63.607,46.973z"/>
				<path fill="#CC2909" d="M57.526,49.725c-2.637,1.926-3.821,4.486-4.511,7.593c-1.135,5.11,2.128,11.51,7.592,12.525
					c0.023-0.086,0.042-0.167,0.063-0.252c-0.179-0.038-0.36-0.085-0.546-0.151c-0.031-0.011-0.065-0.028-0.099-0.04
					c-0.953-0.078-1.887-0.406-2.592-1.086c-0.333-0.321-0.634-0.638-0.908-0.973c-0.938-0.804-1.727-1.772-2.211-2.857
					c-1.21-2.068-1.55-4.765-1.105-7.045c0.044-0.233,0.109-0.458,0.19-0.672c0.048-0.594,0.215-1.185,0.39-1.746
					c0.091-0.28,0.249-0.54,0.435-0.787c0.562-1.653,1.697-3.167,3.166-4.102c0.435-0.425,0.946-0.764,1.562-1.041
					c0.435-0.194,0.893-0.317,1.338-0.468c0.286-0.1,0.577-0.157,0.867-0.193c0.299-0.164,0.717-0.369,0.685-0.348
					c0.422-0.259,0.853-0.507,1.292-0.74c0.151-0.083,0.305-0.145,0.458-0.2l0.017-0.168c-0.945,0.156-1.822,0.896-2.728,1.19
					C59.534,48.601,58.725,48.851,57.526,49.725z"/>
				<path fill="#F98967" d="M62.263,53.58l0.039,0.046C62.3,53.623,62.3,53.623,62.3,53.623
					C62.288,53.602,62.273,53.586,62.263,53.58z"/>
				<path fill="#F98967" d="M62.302,53.626l-0.039-0.046c0.011,0.006,0.025,0.021,0.037,0.043c-0.128-0.602-0.275-1.43-0.663-1.92
					c-0.23-0.291-0.974-0.688-1.238-0.263c-0.319,0.519,0.421,1.138,0.728,1.426c0.122,0.116,1.046,1.003,1.209,0.85
					c0.012-0.003-0.01-0.056-0.035-0.093C62.3,53.623,62.3,53.623,62.302,53.626z"/>
				<path fill="#F98967" d="M59.376,62.663l0.037-0.05c-0.002,0.002-0.004,0.007-0.006,0.007
					C59.395,62.634,59.381,62.649,59.376,62.663z"/>
				<path fill="#F98967" d="M59.407,62.62c0.002,0,0.004-0.005,0.006-0.007l-0.037,0.05C59.381,62.649,59.395,62.634,59.407,62.62
					c-0.555,0.26-1.325,0.586-1.718,1.077c-0.229,0.29-0.447,1.102,0.025,1.263c0.575,0.198,1.01-0.663,1.225-1.028
					c0.085-0.146,0.74-1.246,0.554-1.37C59.486,62.551,59.441,62.582,59.407,62.62z"/>
				<path fill="#F98967" d="M59.808,55.494l0.055,0.029c-0.002-0.002-0.002-0.005-0.002-0.005
					C59.838,55.507,59.821,55.497,59.808,55.494z"/>
				<path fill="#F98967" d="M59.86,55.519c0,0,0,0.003,0.002,0.005l-0.055-0.029C59.821,55.497,59.838,55.507,59.86,55.519
					c-0.351-0.507-0.796-1.217-1.34-1.523c-0.326-0.182-1.164-0.271-1.243,0.223c-0.104,0.604,0.816,0.895,1.206,1.048
					c0.158,0.063,1.35,0.53,1.442,0.328C59.935,55.587,59.897,55.543,59.86,55.519z"/>
				<path fill="#F98967" d="M59.188,58.138l0.049,0.026c-0.341-0.434-0.785-1.048-1.294-1.291c-0.301-0.143-1.057-0.172-1.101,0.273
					c-0.059,0.546,0.783,0.753,1.146,0.864c0.146,0.047,1.236,0.399,1.309,0.211C59.31,58.212,59.225,58.143,59.188,58.138z"/>
				<path fill="#F98967" d="M60.61,64.033c0,0.001-0.003,0.005-0.005,0.007c-0.005,0.018-0.01,0.034-0.007,0.045L60.61,64.033z"/>
				<path fill="#F98967" d="M60.605,64.04c0.002-0.002,0.005-0.006,0.005-0.007l-0.012,0.052
					C60.596,64.074,60.601,64.058,60.605,64.04c-0.36,0.415-0.873,0.969-1.01,1.512c-0.079,0.321,0.036,1.07,0.483,1.027
					c0.543-0.05,0.582-0.917,0.627-1.293c0.014-0.152,0.146-1.292-0.047-1.326C60.646,63.953,60.621,63.999,60.605,64.04z"/>
				<path fill="#F98967" d="M58.048,60.41h-0.002c-0.019,0.009-0.038,0.014-0.049,0.021L58.048,60.41z"/>
				<path fill="#F98967" d="M58.048,60.41l-0.051,0.021c0.011-0.008,0.03-0.013,0.049-0.021c-0.55-0.01-1.304-0.052-1.815,0.189
					c-0.298,0.147-0.797,0.713-0.478,1.029c0.386,0.389,1.073-0.137,1.392-0.347c0.128-0.085,1.09-0.71,0.991-0.884
					c-0.004-0.011-0.049-0.003-0.09,0.012H58.048z"/>
			</g>
		</g>
		<path fill="#FC976B" d="M11.584,64.968c0.014,0.003,0.03-0.002,0.047,0c0.033-0.051,0.068-0.103,0.101-0.148L11.584,64.968z"/>
		<path fill="#FC976B" d="M87.08,48.485c-6.073-1.922-12.805-0.85-18.98,0.483c-11.986,2.585-23.968,5.221-35.995,7.591
			c-3.703,0.728-7.348,1.656-10.923,2.844c-1.687,0.562-4.253,0.783-5.714,1.791c-0.945,0.648-2.664,3.918-3.836,3.774
			c-1.866,2.783-5.964,7.236-4.22,8.042c2.455-0.09,4.976-0.798,7.467-1.17c2.432-0.362,4.952-0.293,7.469-0.293
			c5.103,0,9.674-0.776,14.5-1.788c6.176-1.292,12.498-3.088,18.644-4.974c6.435-1.974,12.281-5.488,18.437-8.155
			c3.589-1.555,7.613-2.361,11.355-3.291c1.629-0.403,3.261-0.761,4.932-0.929c1.31-0.131,3.307,0.227,4.47-0.333
			C95.9,50.463,89.103,49.126,87.08,48.485z"/>
		<path fill="#FFB094" d="M88.946,48.999c-3.313,3.03-8.662,4.306-12.427,6.106c-3.848,1.84-7.346,4.073-11.579,4.99
			c-3.194,0.693-6.441,1.071-9.665,1.597c-3.662,1.71-7.293,3.393-11.175,4.361c-1.634,0.792-3.595,1.17-5.142,1.61
			c-4.283,1.229-8.409,1.395-12.847,1.403c-4.574,0.009-9.019,0.877-13.555,1.364c-1.468,0.158-3.228,0.265-4.747-0.141
			c-0.801,1.308-1.163,2.366-0.399,2.719c2.455-0.09,4.976-0.798,7.467-1.17c2.432-0.362,4.952-0.293,7.469-0.293
			c5.103,0,9.674-0.776,14.5-1.788c6.176-1.292,12.498-3.088,18.644-4.974c6.435-1.974,12.281-5.488,18.437-8.155
			c3.589-1.555,7.613-2.361,11.355-3.291c1.629-0.403,3.261-0.761,4.932-0.929c1.31-0.131,3.307,0.227,4.47-0.333
			C95.634,50.814,91.682,49.723,88.946,48.999z"/>
		<rect x="37.482" y="68.499" fill="#FFB094" width="0.056" height="0.06"/>
		<path fill="#DB8161" d="M32.105,56.703c-3.703,0.729-7.348,1.657-10.923,2.844c-1.687,0.561-4.253,0.783-5.714,1.791
			c-0.535,0.368-1.318,1.574-2.111,2.53c0.615-0.162,1.188-0.287,1.666-0.316c3.834-0.233,7.681,0.085,11.511-0.149
			c8.228-0.499,16.224-2.715,24.039-5.231c7.905-2.544,15.274-6.411,22.866-9.73c0.384-0.168,0.768-0.332,1.147-0.491
			c-2.193,0.286-4.374,0.708-6.486,1.164C56.113,51.7,44.131,54.336,32.105,56.703z"/>
		<path fill="#DB8161" d="M84.86,52.027c-4.45,0.493-8.437,2.574-12.456,4.406c-7.761,3.535-15.434,7.059-23.623,9.493
			c-8.481,2.529-17.135,4.479-26.035,4.389c-3.711-0.042-7.078,0.156-10.71,0.768c-1.592,0.268-3.243,0.504-4.819,0.326
			c-0.323,0.769-0.341,1.355,0.189,1.601c2.455-0.09,4.974-0.798,7.467-1.17c2.431-0.362,4.951-0.293,7.467-0.293
			c5.103,0,9.678-0.776,14.501-1.788c6.179-1.292,12.496-3.088,18.644-4.974c6.436-1.974,12.283-5.488,18.437-8.155
			c3.591-1.555,7.613-2.361,11.359-3.291c1.625-0.403,3.259-0.761,4.932-0.929c1.307-0.131,3.306,0.227,4.466-0.333
			c0.173-0.228,0.178-0.448,0.066-0.663C91.463,51.737,88.174,51.659,84.86,52.027z"/>
		<g>
			<path fill="#A16DAD" d="M48.807,59.641c-3.164-0.153-5.629,0.049-8.656,1.015c-2.113,0.674-5.174,1.059-6.182,2.524
				c0.257,3.92,7.228,3.543,8.743,3.414c3.202-0.274,5.93-1.392,8.282-3.583c0.67-0.629,2.255-2.093,1.478-3
				C52.016,59.476,49.465,59.673,48.807,59.641z"/>
			<path fill="#894899" d="M36.837,65.697c0.001,0.013,0.006,0.021,0.009,0.034c0.001-0.009,0-0.019-0.008-0.032
				C36.824,65.669,36.824,65.669,36.837,65.697z"/>
			<path fill="#894899" d="M46.544,63.459c-1.85-0.017-3.662,0.526-5.505,0.515c-2.033-0.009-4.091-0.613-6.069-0.735
				c-0.304-0.021-0.612,0.007-0.884,0.126l-0.035-0.077c-0.001,0.581,0.26,0.869,0.497,1.355c-0.005-0.056-0.003-0.285,0.041-0.41
				c0.029,0.103,0.119,0.214,0.153,0.316c0.005-0.094,0.08-0.209,0.102-0.292c0.092,0.16,0.176,0.403,0.353,0.455
				c-0.003-0.071,0.031-0.181,0.031-0.231c0.077,0.204,0.238,0.55,0.454,0.298c0.099,0.116,0.189,0.281,0.328,0.351
				c0.057-0.156,0.024-0.337,0.092-0.488c0.203,0.363,0.415,0.821,0.723,1.106c0.014-0.001,0.021-0.008,0.023-0.016
				c-0.003-0.014-0.008-0.021-0.009-0.034c-0.014-0.028-0.014-0.028,0.001,0.002c0.008,0.014,0.009,0.023,0.008,0.032
				c0.033,0.122,0.071,0.24,0.125,0.356c0.073-0.33-0.103-0.687-0.064-1.028c0.134,0.259,0.217,0.615,0.41,0.818
				c-0.029-0.241-0.065-0.518,0.029-0.758c0.233,0.093,0.174,0.461,0.44,0.526c0.005-0.179-0.007-0.354,0.05-0.506
				c0.048,0.146,0.116,0.289,0.247,0.34c0.015-0.051,0.077-0.126,0.092-0.174c0.118,0.191,0.304,0.198,0.403,0.007
				c0.097,0.069,0.175,0.069,0.235,0.186c0.295,0.018,0.448,0.695,0.696,0.905c-0.101-0.321-0.227-0.609-0.042-0.931
				c0.222,0.312,0.325,0.714,0.532,1.035c-0.1-0.458,0.069-0.671,0.204-1.083c0.215,0.353,0.453,0.849,0.689,1.201
				c-0.114-0.25-0.08-0.602,0.043-0.847c0.013-0.017,0.147-0.139,0.186-0.173c0.041,0.126,0.137,0.19,0.189,0.298
				c0.02-0.04,0.114-0.12,0.13-0.179c0.04,0.141,0.123,0.154,0.194,0.228c0.052-0.145,0.117-0.295,0.24-0.368
				c0.026,0.118,0.129,0.175,0.174,0.268c0.111-0.083,0.227-0.185,0.372-0.236c0.111,0.222,0.189,0.564,0.371,0.709
				c0.053-0.377,0.158-0.778,0.419-1.053c0.119,0.272,0.325,0.558,0.546,0.724c-0.113-0.312-0.198-0.679,0.16-0.847
				c0.029,0.081,0.123,0.163,0.15,0.222c0.008-0.059,0.037-0.135,0.047-0.178c0.059,0.157,0.116,0.323,0.264,0.38
				c0.003-0.081,0.086-0.202,0.098-0.268c0.024,0.031,0.029,0.067,0.057,0.101c0.036-0.067,0.151-0.167,0.189-0.252
				c0.023,0.08,0.101,0.163,0.121,0.241c0.036-0.151,0.074-0.31,0.165-0.409c0.147,0.289,0.324,0.548,0.46,0.82
				c0.145-0.399,0.106-0.753,0.399-1.134c0.084,0.111,0.178,0.26,0.219,0.411c-0.041-0.188,0.059-0.358,0.198-0.47
				c0.027,0.045,0.096,0.095,0.125,0.158c0.032-0.106,0.135-0.171,0.188-0.247c0.264,0.5,0.99,0.169,1.316,0.533
				c0.246-0.12,0.505-0.247,0.764-0.374C48.454,63.821,47.305,63.468,46.544,63.459z"/>
			<path fill="#C1AFDB" d="M48.287,58.437c-3.165-0.154-5.631,0.049-8.656,1.013c-2.116,0.676-4.858,1.798-5.864,3.265l0.155-0.067
				c-0.356,2.475,6.756,2.874,8.271,2.745c3.203-0.275,5.928-1.393,8.279-3.585c0.672-0.627,2.255-2.093,1.478-3.003
				C51.492,58.27,48.943,58.471,48.287,58.437z"/>
			<path fill="#CBBCE2" d="M47.939,58.347c-2.888-0.066-5.144,0.161-7.926,1.07c-1.945,0.633-4.475,1.672-5.425,2.976l0.142-0.063
				c-0.375,2.168,6.11,2.365,7.5,2.222c2.928-0.309,5.44-1.343,7.633-3.308c0.629-0.56,2.106-1.875,1.415-2.654
				C50.872,58.134,48.54,58.363,47.939,58.347z"/>
			<path fill="#DBCEF4" d="M47.713,58.02c-2.709-0.063-4.826,0.151-7.436,1.004c-1.827,0.593-4.197,1.567-5.089,2.79l0.134-0.057
				c-0.354,2.033,5.732,2.217,7.033,2.083c2.747-0.288,5.104-1.258,7.162-3.102c0.589-0.526,1.975-1.76,1.325-2.489
				C50.465,57.82,48.275,58.035,47.713,58.02z"/>
			<path fill="#DED8EF" d="M47.422,57.603c-2.583-0.06-4.596,0.146-7.082,0.955c-1.737,0.565-3.997,1.496-4.846,2.657l0.125-0.054
				c-0.334,1.936,5.462,2.112,6.699,1.985c2.617-0.278,4.861-1.2,6.821-2.955c0.56-0.502,1.881-1.677,1.262-2.371
				C50.042,57.412,47.958,57.616,47.422,57.603z"/>
		</g>
		<g>
			<path fill="#A16DAD" d="M23.612,65.542c-3.033-0.917-5.473-1.318-8.644-1.117c-2.215,0.138-5.274-0.233-6.608,0.944
				c-0.706,3.864,6.148,5.196,7.653,5.438c3.169,0.514,6.085,0.093,8.899-1.462c0.802-0.445,2.696-1.482,2.165-2.554
				C26.761,66.163,24.241,65.734,23.612,65.542z"/>
			<path fill="#894899" d="M10.526,68.507c0,0.012,0.001,0.025,0.003,0.035c0.001-0.008,0.001-0.019-0.002-0.031
				C10.521,68.479,10.521,68.477,10.526,68.507z"/>
			<path fill="#894899" d="M20.49,68.698c-1.792-0.463-3.683-0.383-5.467-0.84c-1.97-0.504-3.82-1.592-5.708-2.189
				c-0.289-0.095-0.594-0.144-0.889-0.095l-0.014-0.081c-0.143,0.561,0.04,0.902,0.152,1.434c0.007-0.056,0.065-0.274,0.137-0.389
				c0.005,0.109,0.064,0.236,0.071,0.346c0.028-0.087,0.129-0.183,0.17-0.257c0.052,0.174,0.075,0.433,0.231,0.524
				c0.016-0.069,0.077-0.167,0.088-0.217c0.026,0.216,0.096,0.591,0.367,0.401c0.07,0.136,0.115,0.317,0.233,0.418
				c0.091-0.137,0.106-0.319,0.208-0.45c0.107,0.401,0.201,0.896,0.432,1.251c0.014,0,0.021-0.007,0.026-0.013
				c-0.002-0.01-0.003-0.023-0.003-0.035c-0.005-0.03-0.005-0.028,0.001,0.004c0.003,0.013,0.003,0.023,0.002,0.031
				c0.001,0.127,0.008,0.251,0.031,0.376c0.149-0.302,0.068-0.689,0.192-1.011c0.063,0.282,0.058,0.647,0.195,0.895
				c0.029-0.242,0.062-0.521,0.213-0.731c0.205,0.148,0.058,0.492,0.299,0.62c0.049-0.172,0.08-0.346,0.173-0.479
				c0.009,0.153,0.039,0.308,0.155,0.39c0.026-0.046,0.106-0.104,0.132-0.145c0.068,0.213,0.248,0.264,0.391,0.103
				c0.077,0.091,0.15,0.11,0.182,0.239c0.282,0.086,0.264,0.781,0.455,1.049c-0.021-0.339-0.07-0.647,0.185-0.916
				c0.138,0.354,0.143,0.772,0.266,1.135c0.014-0.468,0.229-0.638,0.459-1.003c0.123,0.395,0.234,0.935,0.375,1.332
				c-0.047-0.268,0.069-0.602,0.249-0.809c0.018-0.015,0.176-0.1,0.223-0.124c0.01,0.132,0.088,0.218,0.111,0.336
				c0.031-0.033,0.139-0.09,0.17-0.144c0.005,0.146,0.082,0.181,0.134,0.271c0.085-0.129,0.186-0.258,0.321-0.3
				c0,0.12,0.085,0.2,0.104,0.302c0.129-0.055,0.266-0.124,0.421-0.14c0.052,0.243,0.044,0.593,0.184,0.78
				c0.146-0.354,0.345-0.716,0.662-0.92c0.054,0.292,0.182,0.619,0.355,0.837c-0.034-0.333-0.026-0.71,0.362-0.788
				c0.009,0.091,0.077,0.189,0.089,0.253c0.022-0.053,0.072-0.12,0.09-0.158c0.021,0.165,0.036,0.342,0.163,0.431
				c0.026-0.075,0.136-0.173,0.164-0.234c0.016,0.037,0.009,0.073,0.032,0.11c0.048-0.056,0.185-0.125,0.241-0.195
				c0.004,0.079,0.06,0.182,0.06,0.261c0.071-0.139,0.147-0.282,0.26-0.355c0.071,0.316,0.183,0.608,0.246,0.907
				c0.236-0.354,0.288-0.705,0.661-1.004c0.057,0.131,0.108,0.294,0.114,0.452c0.005-0.19,0.144-0.336,0.309-0.409
				c0.013,0.054,0.072,0.117,0.078,0.186c0.058-0.097,0.176-0.134,0.245-0.194c0.136,0.549,0.917,0.405,1.147,0.839
				c0.265-0.057,0.548-0.116,0.83-0.178C22.251,69.513,21.22,68.891,20.49,68.698z"/>
			<path fill="#C1AFDB" d="M23.4,64.25c-3.033-0.92-5.473-1.322-8.642-1.122c-2.217,0.141-5.148,0.563-6.482,1.738l0.166-0.025
				c-0.944,2.314,5.853,4.43,7.359,4.673c3.169,0.511,6.083,0.091,8.898-1.463c0.806-0.445,2.698-1.483,2.165-2.553
				C26.549,64.868,24.031,64.441,23.4,64.25z"/>
			<path fill="#CBBCE2" d="M23.084,64.08c-2.786-0.77-5.028-1.094-7.95-0.892c-2.04,0.141-4.747,0.533-5.984,1.565l0.151-0.026
				c-0.891,2.014,5.352,3.783,6.736,3.979c2.913,0.416,5.602,0.024,8.208-1.35c0.749-0.393,2.5-1.307,2.016-2.23
				C25.98,64.585,23.663,64.239,23.084,64.08z"/>
			<path fill="#DBCEF4" d="M22.945,63.706c-2.613-0.72-4.718-1.026-7.458-0.836c-1.913,0.132-4.452,0.501-5.614,1.47l0.143-0.024
				c-0.836,1.888,5.021,3.548,6.318,3.732c2.733,0.388,5.255,0.022,7.699-1.267c0.698-0.366,2.344-1.225,1.894-2.092
				C25.659,64.182,23.486,63.855,22.945,63.706z"/>
			<path fill="#DED8EF" d="M22.762,63.23c-2.487-0.687-4.492-0.977-7.1-0.796c-1.824,0.127-4.238,0.478-5.344,1.399l0.134-0.022
				c-0.796,1.797,4.781,3.378,6.015,3.552c2.605,0.37,5.007,0.022,7.331-1.203c0.667-0.353,2.233-1.17,1.802-1.993
				C25.349,63.684,23.279,63.374,22.762,63.23z"/>
		</g>
		<g>
			<path fill="#A16DAD" d="M87.09,44.616c-0.573-0.4-2.993,0.434-3.638,0.568c-3.102,0.649-5.435,1.464-8.12,3.161
				c-1.876,1.186-4.742,2.328-5.346,4c1.233,3.729,7.887,1.611,9.321,1.104c3.029-1.073,5.385-2.839,7.111-5.552
				C86.908,47.119,88.072,45.301,87.09,44.616z"/>
			<path fill="#894899" d="M73.394,54.061c0.005,0.008,0.014,0.018,0.019,0.029c0-0.011-0.004-0.017-0.016-0.029
				C73.375,54.036,73.375,54.034,73.394,54.061z"/>
			<path fill="#894899" d="M82.226,49.449c-1.796,0.452-3.414,1.43-5.197,1.885c-1.973,0.502-4.116,0.438-6.062,0.816
				c-0.298,0.057-0.59,0.158-0.824,0.344l-0.051-0.066c0.144,0.563,0.468,0.774,0.821,1.189c-0.02-0.055-0.077-0.276-0.065-0.41
				c0.056,0.094,0.168,0.178,0.228,0.268c-0.018-0.09,0.028-0.219,0.028-0.307c0.128,0.133,0.272,0.346,0.452,0.35
				c-0.019-0.067-0.012-0.184-0.023-0.232c0.123,0.178,0.365,0.473,0.51,0.176c0.128,0.087,0.254,0.226,0.407,0.255
				c0.016-0.163-0.059-0.331-0.033-0.495c0.287,0.303,0.605,0.691,0.98,0.892c0.012-0.008,0.016-0.015,0.016-0.022
				c-0.005-0.012-0.014-0.021-0.019-0.029c-0.019-0.026-0.019-0.024,0.003,0c0.012,0.013,0.016,0.019,0.016,0.029
				c0.063,0.11,0.13,0.214,0.208,0.314c-0.013-0.336-0.271-0.638-0.317-0.98c0.193,0.217,0.365,0.539,0.601,0.69
				c-0.089-0.226-0.193-0.487-0.163-0.744c0.252,0.034,0.286,0.405,0.561,0.401c-0.041-0.174-0.093-0.342-0.079-0.502
				c0.082,0.127,0.183,0.25,0.322,0.266c0-0.053,0.042-0.141,0.046-0.191c0.161,0.155,0.347,0.113,0.394-0.096
				c0.111,0.043,0.186,0.024,0.276,0.121c0.286-0.058,0.604,0.561,0.901,0.704c-0.182-0.289-0.372-0.534-0.277-0.891
				c0.293,0.245,0.494,0.608,0.775,0.866c-0.208-0.422-0.103-0.668-0.075-1.102c0.294,0.289,0.65,0.708,0.967,0.989
				c-0.171-0.212-0.227-0.56-0.168-0.827c0.009-0.021,0.106-0.174,0.135-0.217c0.072,0.111,0.182,0.149,0.259,0.243
				c0.009-0.046,0.078-0.147,0.079-0.209c0.078,0.127,0.16,0.122,0.249,0.173c0.012-0.153,0.041-0.313,0.135-0.416
				c0.059,0.105,0.174,0.136,0.237,0.215c0.086-0.109,0.175-0.236,0.303-0.324c0.163,0.188,0.323,0.5,0.539,0.594
				c-0.043-0.377-0.043-0.795,0.138-1.122c0.187,0.231,0.456,0.457,0.712,0.563c-0.19-0.276-0.363-0.609-0.061-0.863
				c0.052,0.072,0.159,0.127,0.201,0.179c-0.008-0.059,0.004-0.142,0.002-0.185c0.098,0.136,0.193,0.283,0.352,0.301
				c-0.017-0.08,0.032-0.219,0.027-0.285c0.032,0.025,0.045,0.06,0.081,0.084c0.017-0.074,0.107-0.2,0.119-0.292
				c0.042,0.071,0.142,0.136,0.178,0.202c-0.003-0.152-0.008-0.317,0.056-0.434c0.214,0.24,0.453,0.447,0.651,0.676
				c0.037-0.422-0.087-0.756,0.102-1.195c0.11,0.084,0.236,0.203,0.314,0.342c-0.086-0.173-0.034-0.365,0.075-0.507
				c0.039,0.037,0.118,0.067,0.16,0.124c0.003-0.113,0.086-0.202,0.119-0.287c0.384,0.416,1-0.083,1.408,0.184
				c0.207-0.175,0.426-0.366,0.644-0.551C84.164,49.317,82.961,49.266,82.226,49.449z"/>
			<path fill="#C1AFDB" d="M86.284,43.583c-0.576-0.401-2.995,0.432-3.638,0.568c-3.102,0.646-5.438,1.464-8.121,3.157
				c-1.876,1.188-4.248,2.964-4.854,4.637l0.133-0.105c0.28,2.486,7.26,1.082,8.697,0.572c3.027-1.069,5.384-2.838,7.107-5.552
				C86.103,46.083,87.267,44.265,86.284,43.583z"/>
			<path fill="#CBBCE2" d="M85.579,43.545c-0.507-0.341-2.707,0.469-3.29,0.606c-2.813,0.66-4.938,1.451-7.405,3.03
				c-1.721,1.103-3.906,2.745-4.501,4.246l0.122-0.097c0.183,2.194,6.513,0.752,7.817,0.26c2.759-1.034,4.93-2.665,6.557-5.12
				C85.347,45.769,86.445,44.124,85.579,43.545z"/>
			<path fill="#DBCEF4" d="M85.072,43.324c-0.476-0.32-2.541,0.438-3.087,0.566c-2.636,0.62-4.629,1.361-6.943,2.845
				c-1.616,1.036-3.666,2.574-4.223,3.982l0.114-0.09c0.172,2.059,6.104,0.704,7.331,0.246c2.588-0.972,4.627-2.503,6.151-4.805
				C84.854,45.41,85.885,43.865,85.072,43.324z"/>
			<path fill="#DED8EF" d="M84.539,43.022c-0.452-0.304-2.42,0.417-2.939,0.539c-2.514,0.591-4.412,1.298-6.612,2.706
				c-1.538,0.989-3.492,2.452-4.021,3.794l0.106-0.085c0.165,1.958,5.816,0.671,6.982,0.234c2.465-0.927,4.403-2.385,5.857-4.578
				C84.329,45.008,85.31,43.538,84.539,43.022z"/>
		</g>
		<g>
			<path fill="#FFD215" d="M31.245,58.909c-2.311,0.649-5.487,1.772-7.749,2.137c-1.666,0.27-3.91-0.225-4.339,0.992l0.059,0.158
				c-0.107,0.7,1.343,2.253,1.848,2.933c0.939,1.27,1.75,2.126,3.25,2.562c2.149,0.625,5.31,1.993,6.036,4.498
				c1.912-3.616,5.108-5.023,7.175-8.415c0.956-1.562,1.87-3.244,3.355-4.271c1.607-1.111,3.784-2.848,3.246-5.056
				C39.93,55.761,35.347,57.765,31.245,58.909z"/>
			<path fill="#FCE665" d="M43.944,54.507c-3.734,4.355-9.214,7.341-11.599,12.723c-0.624,1.413-2.222,1.507-3.376,0.771
				c-3.153-2.002-7.689-2.683-8.925-6.686c-0.427,0.119-0.751,0.333-0.887,0.723l0.059,0.158c-0.107,0.7,1.343,2.253,1.848,2.933
				c0.939,1.27,1.75,2.126,3.25,2.562c2.149,0.625,5.31,1.993,6.036,4.498c1.912-3.616,5.108-5.023,7.175-8.415
				c0.956-1.562,1.87-3.244,3.355-4.271c1.607-1.111,3.784-2.848,3.246-5.056C44.068,54.465,44.003,54.489,43.944,54.507z"/>
			<g>
				<path fill="#FCE665" d="M23.479,62.285c-1.944,1.994,1.76,2.705,3.216,1.149C28.927,61.048,24.877,61.094,23.479,62.285z"/>
				<path fill="#E5BB0A" d="M23.824,62.363c-1.79,1.835,1.616,2.491,2.957,1.06C28.838,61.228,25.107,61.271,23.824,62.363z"/>
			</g>
			<g>
				<path fill="#FCE665" d="M32.119,61.494c-1.005,1.766,1.74,1.59,2.483,0.221C35.743,59.619,32.885,60.396,32.119,61.494z"/>
				<path fill="#E5BB0A" d="M32.376,61.487c-0.926,1.624,1.599,1.461,2.285,0.202C35.71,59.763,33.084,60.478,32.376,61.487z"/>
			</g>
			<g>
				<path fill="#FCE665" d="M29.231,66.373c-0.903,1.026,0.933,1.286,1.612,0.481C31.88,65.626,29.888,65.753,29.231,66.373z"/>
				<path fill="#E5BB0A" d="M29.403,66.4c-0.832,0.945,0.855,1.184,1.482,0.448C31.837,65.718,30.006,65.831,29.403,66.4z"/>
			</g>
		</g>
		<path opacity="0.56" fill="#D89B21" d="M43.944,54.507c-4.147,1.313-8.656,3.276-12.699,4.402
			c-2.311,0.649-5.487,1.772-7.749,2.137c-1.135,0.185-2.539,0.012-3.452,0.27c-0.001,0-0.001,0-0.001,0
			c-0.104,0.029-0.2,0.065-0.289,0.104c-0.011,0.007-0.024,0.015-0.036,0.021c-0.07,0.031-0.137,0.074-0.196,0.118
			c-0.021,0.014-0.04,0.029-0.059,0.044c-0.049,0.041-0.096,0.09-0.137,0.139c-0.016,0.019-0.031,0.038-0.045,0.058
			c-0.051,0.069-0.095,0.149-0.124,0.239l0.059,0.158c-0.107,0.7,1.343,2.253,1.848,2.933c0.047,0.065,0.093,0.124,0.142,0.188
			c0.936-1.343,2.358-2.142,4.201-1.923c0.744,0.09,1.496,0.152,2.219,0.354c0.204,0.063,0.415,0.105,0.622,0.158
			c-0.45-1.529,0.093-2.6,1.813-3.091c1.448-0.417,0.898,0.672,4.561,0.497c1.326,0.068,2.668,0.377,3.859,0.91
			c0.666-1.046,1.404-2.031,2.401-2.72c1.607-1.111,3.784-2.848,3.246-5.056C44.068,54.465,44.003,54.489,43.944,54.507z"/>
		<g>
			<path fill="#FFD215" d="M79.466,41.88c-5.646,2.709-12.012,4.81-18.15,6.306c-8.561,2.086-17.245,4.069-26.09,4.269
				c-3.833,0.09-8.241-0.898-11.941-0.287c-0.761,0.125-1.56,0.545-2.073,0.506l0.36-0.6c-1.098,1.021-2.77,2.7-2.467,4.331
				c2.509-0.743,5.83,0.86,8.296,1.549c3.729,1.04,7.645,1.3,11.4,2.215c8.032,1.954,16.914,1.331,24.823-0.595
				c3.197-0.78,6.325-1.23,9.43-2.157c-0.75-2.414,4.426-8.187,6.158-9.502c2.338-1.775,8.746-4.516,8.26-8.296
				C84.767,39.266,81.823,40.75,79.466,41.88z"/>
			<path fill="#FCE665" d="M76.059,49.687c-0.814,0.684-1.741,1.408-2.485,2.221c-0.476,0.976-0.822,2-1.355,2.972
				c-0.847,1.541-2.471,2.254-4.019,2.86c-4.017,1.567-8.689,1.778-12.944,2.171c-3.677,0.341-7.478,0.582-11.252,0.477
				c-0.911,0.118-1.822,0.222-2.737,0.29c7.354,1.302,15.248,0.628,22.356-1.104c3.197-0.78,6.325-1.23,9.43-2.157
				c-0.75-2.414,4.426-8.187,6.158-9.502c1.252-0.948,3.668-2.177,5.569-3.693c-0.657,0.31-1.322,0.596-1.944,0.874
				C80.371,46.193,78.113,47.968,76.059,49.687z"/>
			<path opacity="0.56" fill="#D89B21" d="M61.315,48.186c-8.561,2.086-17.245,4.069-26.09,4.269
				c-3.833,0.09-8.241-0.898-11.941-0.287c-0.761,0.125-1.56,0.545-2.073,0.506l0.36-0.6c-0.457,0.422-1.006,0.962-1.478,1.557
				c1.317,1.098,2.555,2.302,4.06,3.272c1.147,0.36,2.266,0.776,3.247,1.051c1.999,0.558,4.052,0.891,6.104,1.22
				c0.502-0.01,1.009-0.034,1.515-0.068c3.753-0.252,7.439-0.428,11.145-1.09c0.416-0.076,1.387-2.526,1.804-2.592
				c0.648-0.101,3.059,1.873,4.034,1.796c1.592-0.126,0.646-1.633,2.211-1.796c0.903-0.092,1.576,1.572,2.181,1.434
				c1.855-0.429,1.646-2.103,3.481-2.609c1.911-0.529,2.295,0.116,4.186-0.513c0.556-0.185,2.364-3.079,2.918-3.272
				c1.103-0.383,6.337,1.417,7.429,1.001c2.188-0.833,0.478-2.445,2.604-3.397c1.061-0.476,2.108-0.98,3.139-1.523
				c2.7-1.726,5.421-4.103,6.528-6.974c-2.48-0.014-5.083,1.291-7.212,2.31C73.819,44.589,67.454,46.69,61.315,48.186z"/>
			<g>
				<path fill="#FCE665" d="M59.702,56.45c-1.82-0.209-5.211,2.016-2.024,2.75C59.754,59.677,62.426,57.021,59.702,56.45z"/>
				<path fill="#E5BB0A" d="M59.463,56.708c-1.679-0.189-4.795,1.854-1.864,2.529C59.51,59.677,61.97,57.232,59.463,56.708z"/>
			</g>
			<g>
				<path fill="#FCE665" d="M52.001,57.921c-1.252-0.482-4.057,0.469-1.938,1.572C51.443,60.212,53.821,58.825,52.001,57.921z"/>
				<path fill="#E5BB0A" d="M51.783,58.058c-1.148-0.441-3.731,0.435-1.785,1.447C51.272,60.165,53.46,58.89,51.783,58.058z"/>
			</g>
			<g>
				<path fill="#FCE665" d="M72.495,51.836c-0.902,0.042-2.373,1.393-0.768,1.496C72.774,53.4,73.864,51.896,72.495,51.836z"/>
				<path fill="#E5BB0A" d="M72.397,51.982c-0.831,0.037-2.183,1.28-0.705,1.376C72.658,53.418,73.657,52.036,72.397,51.982z"/>
			</g>
		</g>
		<g>
			<path fill="#428C1F" d="M55.955,63.188c-1.092-0.266-2.215-0.966-1.321-1.583c0.584,0.157,0.754-0.377,0.679-0.259
				c1.201-1.079,0.203-2.886-1.36-2.179c0.558,0.7,0.402,1.689-0.596,1.821c-0.646,0.085-0.592-1.313-2.025-0.478
				c0.086,0.108,0.179,0.249,0.288,0.387c-0.451,0.859-1.707,0.665-2.558,1.011c0.732,0.31,0.902,1.109,0.934,1.851
				c0.431-0.303,0.863-0.81,1.339-1.06c0.851,0.903-0.699,1.744-0.815,2.75c1.227-0.609,1.132,0.72,1.161,1.496
				c1.189-0.288,1.094-2.067,2.204-2.09c-0.081-0.218-0.121-0.488-0.207-0.693c1.21-0.515,1.122,1.59,2.507,1.051
				C57.398,64.743,57.098,63.356,55.955,63.188z"/>
			<path fill="#428C1F" d="M55.953,63.188c0,0,0,0,0.002,0c0.035,0.008,0.067,0.02,0.105,0.025L55.953,63.188z"/>
			<path fill="#428C1F" d="M46.046,63.477c0,0.009-0.001,0.017,0,0.026c0,0.026,0,0.056,0,0.085V63.477z"/>
			<path fill="#428C1F" d="M47.535,60.419c-0.244-0.606,1.125-0.898-0.037-2.082c-0.086,0.111-0.199,0.235-0.303,0.374
				c-0.946-0.224-1.07-1.489-1.614-2.227c-0.121,0.784-0.853,1.146-1.561,1.361c0.396,0.345,0.994,0.637,1.354,1.036
				c-0.663,1.047-1.86-0.249-2.868-0.112c0.897,1.037-0.411,1.275-1.159,1.496c0.574,1.079,2.271,0.55,2.568,1.619
				c0.194-0.132,0.443-0.241,0.62-0.371c0.8,1.045-1.259,1.482-0.398,2.689c0.755,1.052,2.007,0.433,1.908-0.7
				c-0.02-1.132,0.38-2.414,1.208-1.692c-0.012,0.603,0.55,0.636,0.417,0.59c1.344,0.899,2.847-0.516,1.777-1.854
				C48.906,61.257,47.91,61.354,47.535,60.419z"/>
			<path fill="#428C1F" d="M53.061,53.539l0.102-0.039c-1.063,0.437-2.484,0.53-2.085-0.514c0.57-0.205,0.407-0.74,0.41-0.598
				c0.379-1.574-1.466-2.495-2.352-1.028c0.855,0.263,1.288,1.167,0.539,1.839c-0.481,0.438-1.229-0.746-1.938,0.755
				c0.131,0.044,0.29,0.106,0.454,0.156c0.12,0.963-1.024,1.518-1.531,2.282c0.779-0.157,1.373,0.405,1.819,0.994
				c0.183-0.489,0.252-1.151,0.503-1.629c1.211,0.26,0.412,1.831,0.885,2.728c0.665-1.199,1.34-0.052,1.808,0.573
				c0.814-0.91-0.271-2.319,0.629-2.971c-0.19-0.136-0.377-0.333-0.563-0.455c0.707-1.107,1.829,0.674,2.663-0.555
				C55.134,54,54.099,53.027,53.061,53.539z"/>
			<path fill="#428C1F" d="M46.515,54.394c-1.713-0.946-3.527-1.501-5.066-2.763c-1.3-1.066-2.415-2.7-3.822-3.521
				c0.53,3.577,6.742,5.488,9.535,7.087c1.57,0.896,2.677,2.226,3.705,3.764c0.761,1.136,2.387,3.448,2.161,4.842l0.852-0.62
				C51.769,59.712,50.384,56.533,46.515,54.394z"/>
		</g>
		<g>
			<path fill="#428C1F" d="M60.398,55.194c0.039-0.01,0.074-0.021,0.106-0.026l0.001-0.002L60.398,55.194z"/>
			<path fill="#428C1F" d="M64.843,52.877c0.107-0.137,0.198-0.276,0.287-0.386c-1.434-0.837-1.38,0.563-2.025,0.478
				c-1.001-0.132-1.154-1.121-0.6-1.822c-1.562-0.704-2.559,1.1-1.357,2.18c-0.074-0.119,0.098,0.416,0.68,0.26
				c0.894,0.616-0.23,1.318-1.322,1.582c-1.143,0.169-1.444,1.553-0.228,2.027c1.383,0.536,1.296-1.566,2.507-1.052
				c-0.085,0.203-0.126,0.474-0.208,0.691c1.112,0.025,1.016,1.803,2.202,2.091c0.032-0.777-0.063-2.105,1.164-1.494
				c-0.115-1.009-1.667-1.848-0.817-2.75c0.478,0.248,0.91,0.757,1.34,1.059c0.033-0.742,0.201-1.541,0.932-1.853
				C66.549,53.543,65.293,53.735,64.843,52.877z"/>
			<path fill="#428C1F" d="M73.952,50.748c-1.008-0.136-2.204,1.16-2.869,0.115c0.36-0.401,0.961-0.697,1.358-1.038
				c-0.71-0.215-1.442-0.577-1.563-1.362c-0.545,0.737-0.668,2.003-1.613,2.227c-0.102-0.139-0.216-0.263-0.302-0.375
				c-1.162,1.186,0.205,1.476-0.037,2.082c-0.375,0.935-1.371,0.839-1.914,0.13c-1.067,1.338,0.434,2.751,1.778,1.853
				c-0.135,0.045,0.426,0.012,0.417-0.593c0.824-0.721,1.227,0.564,1.21,1.694c-0.101,1.133,1.149,1.751,1.904,0.699
				c0.863-1.207-1.197-1.645-0.398-2.689c0.179,0.132,0.428,0.239,0.623,0.372c0.296-1.07,1.992-0.539,2.567-1.617
				C74.366,52.023,73.056,51.786,73.952,50.748z"/>
			<path fill="#428C1F" d="M70.415,55.566c0.002-0.028,0.002-0.056,0.002-0.085c0-0.009-0.002-0.017-0.002-0.026V55.566z"/>
			<path fill="#428C1F" d="M68.269,46.087c0.166-0.047,0.322-0.111,0.457-0.153c-0.71-1.501-1.455-0.316-1.939-0.754
				c-0.749-0.676-0.313-1.578,0.541-1.84c-0.888-1.467-2.733-0.544-2.355,1.026c0.005-0.139-0.158,0.398,0.411,0.598
				c0.4,1.045-1.021,0.953-2.087,0.516l0.103,0.039c-1.034-0.511-2.072,0.46-1.339,1.539c0.838,1.227,1.957-0.555,2.663,0.556
				c-0.188,0.121-0.371,0.318-0.563,0.454c0.9,0.65-0.185,2.059,0.628,2.971c0.466-0.625,1.143-1.772,1.806-0.571
				c0.476-0.897-0.327-2.469,0.888-2.731c0.249,0.477,0.318,1.141,0.502,1.631c0.447-0.592,1.04-1.153,1.818-0.995
				C69.296,47.605,68.152,47.051,68.269,46.087z"/>
			<path fill="#428C1F" d="M75.011,43.609c-1.54,1.261-3.355,1.815-5.066,2.763c-3.868,2.141-5.253,5.319-7.363,8.791l0.853,0.618
				c-0.227-1.393,1.4-3.707,2.161-4.842c1.029-1.538,2.135-2.867,3.705-3.765c2.791-1.599,9.004-3.506,9.535-7.084
				C77.425,40.911,76.313,42.544,75.011,43.609z"/>
		</g>
		<path fill="#C7F22C" d="M32.366,60.841c0.007-0.007,0.015-0.014,0.021-0.02c-0.01,0.004-0.021,0.004-0.028,0.006
			C32.298,60.895,32.299,60.9,32.366,60.841z"/>
		<path fill="#C7F22C" d="M58.361,53.074c0.08-0.023,0.159-0.041,0.242-0.061c0.019-0.079,0.033-0.164,0.057-0.242
			C58.563,52.877,58.474,52.986,58.361,53.074z"/>
		<path fill="#C7F22C" d="M89.149,40.176c-1.229-0.543-3.019-3.104-5.59-1.323l1.405,0.349c-0.515,0.038-1.021,0.129-1.528,0.226
			c-10.738,2.024-21.66,4.922-32.462,7.539c-6.5,1.574-12.937,3.111-19.351,5c-5.058,1.486-10.588,2.467-15.256,4.911
			c-1.778,0.931-2.792,2.308-4.382,3.386c-1.847,1.251-0.848-0.649-2.65,0.362c-0.933,0.526-5.902-0.193-5.727,3.658
			c0.099,2.198,1.128,2.563,2.766,2.979c1.212,0.309,0.473,0.411,1.878-0.209c0.821-0.363,1.047-0.535,1.841-0.526
			c1.97,0.02,4.25,0.66,6.231,0.925c2.768,0.37,2.641-0.866,4.211-2.816c1.696-2.102,4.885-2.661,7.17-1.063
			c-2.603-2.604,4.189-4.054,5.667-3.989c-0.265,0.367-0.617,0.886-0.988,1.238c2.273-0.646,4.04,0.171,6.304,0.621
			c1.223,0.245,4.223,1.141,5.039,0.714c1.627-0.846-3.008-5.586,1.447-4.628c1.786,0.382,1.548-3.186,3.377-3.102
			c0.634,1.659,2.822,2.144,2.822,2.144c1.355,0.958,2.535-2.686,2.663-2.761c0.917,0.153,2.267,2.575,3.207,2.194
			c1.028-0.415,1.104-1.909,1.358-2.99c-0.083,0.02-0.162,0.037-0.242,0.061c0.112-0.088,0.201-0.197,0.299-0.303
			c-0.023,0.078-0.038,0.163-0.057,0.242c1.923-0.433,3.598,0.639,5.456,0.722c0.037-1.567,0.939-2.671,1.628-3.975
			c2.958-0.45,6.165,0.357,8.719,1.705c0.9-3.484,3.565-4.482,6.737-3.359c1.762,0.622,1.521,0.598,2.77-0.482
			c0.882-0.767,1.815-1.499,2.807-2.051c-2.912-1.03,2.948-2.836,3.439-2.888c1.09-0.112,2.263,0.082,3.335,0.216
			C93.66,39.356,91.007,40.996,89.149,40.176z"/>
		<path fill="#97CC25" d="M77.867,40.333c-4.558,0.631-8.99,2.325-13.522,3.257c-6.477,1.328-12.778,3.167-19.115,5.027
			c-7.336,2.149-14.298,4.724-21.169,7.992c-1.661,0.786-3.287,1.424-5.035,1.936c-1.825,0.535-3.617,0.312-5.426,0.684
			c-1.416,0.291-3.35,1.845-4.457,1.786l0.775-0.192c-1.171-0.098-3.807,1.556-4.281,2.711c0.824,0.907,1.427-0.098,2.339-0.199
			c1.342-0.145,1.213,0.276,2.325,0.625c1.087,0.343,1.541-0.068,2.715,0.155c0.89,0.17,1.616,0.625,1.54,1.677
			c1.191-2.878,4.695-7.218,7.606-4.024c0.726-0.399,1.11-1.104,1.848-1.496c0.136,0.089,0.275,0.254,0.388,0.339
			c1.27-3.111,4.21-3.345,7.317-4.038c0.744,1.462,2.537-0.349,3.772,0.172c1.072,0.453,1.937,1.354,2.961,1.898
			c3.475,1.848,0.844-2.175-1.382-2.497c-0.197-1.318,1.56-1.956,2.651-1.877c0.448,1.23,3.016,0.691,3.919,0.172
			c1.616-0.937,0.907-2.391,3.282-2.335c1.99,0.045,1.97,0.445,3.832-0.254c1.483-0.555,2.87-0.366,3.178-2.232
			c1.328,0.263,4.991-1.1,5.029,0.535c0.854-0.865,2.016-0.601,1.947,0.768c1.715-1.329,0.798-2.978,3.451-3.273
			c2.349-0.262,3.184,1.239,4.846-0.95c1.181,0.392,5.194,0.612,5.448-0.954c2.393-0.847,4.783,0.441,6.705,1.487
			c1.851-1.806,1.201-3.236-1.101-3.501c0.837-0.348,1.238,0.411,2.112,0.437c1.127,0.033,1.306-0.299,2.184-0.734
			c0.691-0.34,0.939-0.767,1.696-1.005c0.889-0.28,1.795-0.11,2.682-0.431C89.529,38.569,79.549,40.101,77.867,40.333z"/>
		<path fill="#FCC13D" d="M55.977,36.933c-6.628,0.941-13.049,3.411-19.405,5.546c-6.507,2.189-11.745,5.153-17.336,8.764
			c-2.896,1.867-6.355,4.488-9.731,5.116c-0.149,0.028-0.613,0.065-1.379,0.212c0,1.032-0.185,5.071,0.573,5.695
			c0.747,0.614,4.249-0.968,5.176-1.296c3.76-1.322,8.036-1.774,11.933-3.216c3.833-1.418,7.518-3.244,11.441-4.57
			c4.125-1.396,8.408-2.047,12.651-3.165c8.251-2.178,15.507-3.75,23.588-6.067c3.014-0.864,7.688-0.981,10.241-2.394
			c3.487-1.932,2.88-6.415,2.88-7.966C77.029,35.744,65.937,35.519,55.977,36.933z"/>
		<path fill="#E8AB3F" d="M55.977,36.908c-6.628,0.94-13.049,3.409-19.405,5.544c-6.507,2.189-11.745,5.153-17.336,8.763
			c-2.896,1.871-6.355,4.489-9.731,5.116c-0.149,0.028-0.613,0.067-1.379,0.213c0,1.032-0.185,5.074,0.573,5.694
			c0.146,0.122,0.403,0.156,0.721,0.133c-1.307-5.082,4.534-5.586,8.612-6.423c3.582-0.734,6.846-1.85,10.169-3.365
			c2.879-1.311,12.804-5.097,15.36-5.575c5.904-1.105,11.596-2.932,17.368-4.559c5.655-1.595,11.395-2.537,17.138-3.71
			c3.052-0.624,4.983,0.437,5.916,2.627c3.19-2.006,2.626-6.293,2.626-7.803C77.029,35.72,65.937,35.494,55.977,36.908z"/>
		<path fill="#FFD766" d="M43.897,27.099C31.408,36.021,20.847,47.682,8.125,56.57c8.422,0,24.634-8.106,34.383-10.699
			c8.194-2.177,16.552-3.936,24.72-6.163c5.475-1.492,15.441-2.133,19.38-6.118C75.225,27.729,55.349,18.917,43.897,27.099z"/>
	</g>
	<path fill="#F4BC62" d="M67.047,27.66c-0.596-0.045-1.817-0.08-1.478,0.817c0.452,0.471,2.618,1.473,3.331,0.992
		C70.213,28.582,67.808,27.872,67.047,27.66z"/>
	<path fill="#F4BC62" d="M40.156,42.065c-0.459,0.033-1.402,0.146-1.037,0.794c0.401,0.309,2.176,0.831,2.667,0.378
		C42.691,42.409,40.764,42.14,40.156,42.065z"/>
	<path fill="#F4BC62" d="M48.41,28.207c-0.394,0.241-1.18,0.771-0.557,1.182c0.495,0.092,2.31-0.259,2.542-0.884
		C50.819,27.352,48.984,27.995,48.41,28.207z"/>
	<path fill="#F4BC62" d="M75.838,35.033c0.551,0.028,2.302,0.107,2.464-0.632c0.293-1.354-1.438-1.101-2.024-0.778
		C75.884,33.951,75.113,34.663,75.838,35.033z"/>
	<path fill="#F4BC62" d="M27.487,43.156c0.55,0.028,2.3,0.106,2.46-0.629c0.297-1.355-1.434-1.102-2.024-0.782
		C27.533,42.073,26.76,42.786,27.487,43.156z"/>
	<path fill="#F4BC62" d="M60.498,39.238c0.547,0.028,2.298,0.106,2.458-0.629c0.296-1.356-1.436-1.102-2.024-0.78
		C60.543,38.156,59.77,38.868,60.498,39.238z"/>
	<path fill="#F4BC62" d="M46.317,36.514c0.475,0.281,1.989,1.16,2.472,0.583c0.89-1.062-0.761-1.641-1.429-1.63
		C46.857,35.576,45.844,35.847,46.317,36.514z"/>
	<path fill="#F4BC62" d="M66.994,35.259c-1.001,0.137-0.124,1.292,0.546,1.096c0.311-0.091,0.641-0.363,0.474-0.785
		C67.851,35.159,67.405,35.247,66.994,35.259z"/>
	<path fill="#F4BC62" d="M58.055,31.909c-1.003,0.139-0.124,1.292,0.545,1.096c0.31-0.09,0.64-0.362,0.473-0.785
		C58.909,31.807,58.465,31.896,58.055,31.909z"/>
	<path fill="#F4BC62" d="M36.631,35.884c-0.828,0.583,0.479,1.205,0.988,0.725c0.234-0.222,0.402-0.613,0.061-0.916
		C37.346,35.401,36.991,35.687,36.631,35.884z"/>
	<path fill="#F4BC62" d="M54.696,38.705c-1.003,0.137-0.123,1.292,0.545,1.095c0.31-0.09,0.642-0.363,0.473-0.784
		C55.551,38.604,55.106,38.689,54.696,38.705z"/>
	<path fill="#F4BC62" d="M56.354,27.352c-0.828,0.582,0.481,1.205,0.988,0.724c0.231-0.223,0.401-0.614,0.062-0.913
		C57.07,26.871,56.712,27.151,56.354,27.352z"/>
	<path fill="#F4BC62" d="M42.052,37.682c-1.003,0.139-0.125,1.292,0.545,1.094c0.311-0.091,0.639-0.362,0.473-0.784
		C42.908,37.579,42.461,37.667,42.052,37.682z"/>
	<path fill="#F4BC62" d="M25.045,47.597c-1.003,0.139-0.125,1.294,0.546,1.098c0.31-0.091,0.639-0.364,0.474-0.786
		C25.902,47.496,25.456,47.584,25.045,47.597z"/>
	<path fill="#F4BC62" d="M71.383,36.767c-0.684,0.836,0.591,0.965,1.018,0.334C72.17,36.7,71.776,36.583,71.383,36.767z"/>
	<path fill="#F4BC62" d="M50.496,31.495c-0.226,1.058,0.968,0.589,1.059-0.167C51.166,31.077,50.763,31.152,50.496,31.495z"/>
	<path fill="#F4BC62" d="M47.219,42.007c-0.683,0.837,0.59,0.966,1.018,0.337C48.006,41.943,47.612,41.827,47.219,42.007z"/>
	<path fill="#F4BC62" d="M32.112,42.523c-0.682,0.834,0.589,0.966,1.018,0.335C32.897,42.456,32.505,42.341,32.112,42.523z"/>
	<path fill="#F4BC62" d="M42.554,31.32c-0.683,0.838,0.589,0.966,1.016,0.336C43.339,31.255,42.946,31.14,42.554,31.32z"/>
	<path fill="#F4BC62" d="M30.725,47.648c-0.681,0.836,0.592,0.965,1.018,0.336C31.511,47.583,31.118,47.467,30.725,47.648z"/>
	<path fill="#F4BC62" d="M14.896,53.036c-0.68,0.837,0.592,0.965,1.02,0.334C15.685,52.969,15.292,52.854,14.896,53.036z"/>
	<path fill="#F4BC62" d="M72.218,31.729c-0.682,0.835,0.592,0.964,1.02,0.333C73.005,31.661,72.612,31.547,72.218,31.729z"/>
</g>
</svg>
