<?xml version="1.0" encoding="utf-8"?>
<!-- Generator: Adobe Illustrator 13.0.0, SVG Export Plug-In . SVG Version: 6.00 Build 14948)  -->
<!DOCTYPE svg PUBLIC "-//W3C//DTD SVG 1.1//EN" "http://www.w3.org/Graphics/SVG/1.1/DTD/svg11.dtd">
<svg version="1.1" id="Layer_1" xmlns="http://www.w3.org/2000/svg" xmlns:xlink="http://www.w3.org/1999/xlink" x="0px" y="0px"
	 width="100px" height="100px" viewBox="0 0 100 100" enable-background="new 0 0 100 100" xml:space="preserve">
<g>
	<path fill="#544D4A" d="M45.203,57.587c-3.91,0-7.53,0.519-11.128,1.481c-2.784,0.739-7.75,1.459-9.8,3.515
		c4.051,0.688,6.691,7.305,10.699,9.686c6.221,3.703,8.213,8.715,11.952,14.56c1.077,1.683,1.574,3.271,3.745,3.35
		c1.514,0.055,3.547-1.288,4.98-1.688c2.92-0.812,5.947-1.828,8.279-4.09c5.617-5.439,6.098-13.726,2.027-20.206
		C61.598,57.244,52.449,57.587,45.203,57.587z"/>
	<path fill="#FFF4DE" d="M26.632,61.107c-8.316,2.233-9.704,21.272-4.259,27.397c3.577,4.027,25.217,4.524,29.807,1.33
		c5.936-4.123,5.637-19.45,1.275-24.745C47.954,58.404,34.958,59.046,26.632,61.107z"/>
	<path fill="#F7E8CD" d="M34.357,59.855c-2.759,0.226-5.421,0.676-7.725,1.248c-8.316,2.231-9.704,21.272-4.259,27.395
		c3.577,4.034,25.217,4.531,29.807,1.334c0.57-0.393,1.076-0.89,1.535-1.473c-6.101,2.921-14.316,2.416-20.653,1.193
		c-5.682-1.095-10.24-3.986-11.357-9.961C19.128,65.728,26.08,62.692,34.357,59.855z"/>
	<path fill="#E2CDB3" d="M22.373,88.498c3.356,3.782,22.606,4.455,28.768,1.888c-5.722,1.536-12.147,1.13-18.424,0.705
		c-5.286-0.359-11.181-0.865-12.766-9.491c-1.153-6.264-0.455-13.1,3.611-18.652C18.066,68.408,17.688,83.235,22.373,88.498z"/>
	<path fill="#FFFFFF" d="M51.477,90.226c0.258-0.119,0.502-0.245,0.703-0.394c5.936-4.124,5.637-19.451,1.275-24.746
		c-4.691-5.693-14.816-6.067-22.861-4.777c0.32,0,0.638,0.009,0.949,0.031c7.124-1.042,15.306-0.086,19.126,3.045
		C58.57,69.844,57.383,85.271,51.477,90.226z"/>
	<path fill="#FFFFFF" d="M39.398,65.942c-3.401-0.276-7.877-0.613-10.963,1.34c-3.254,1.834-3.882,9.904-3.415,12.716
		c0.926,5.601,8.33,6.084,13.367,5.836c3.954-0.191,8.401-0.494,9.893-4.424c1.156-3.041,2.15-8.125,0.49-11.228
		C47.005,66.88,43.053,66.238,39.398,65.942z"/>
	<path fill="#FF7F00" d="M39.268,66.544c-3.193-0.263-7.747-0.149-10.153,0.937c-3.047,1.307-3.788,9.624-3.347,12.263
		c0.871,5.254,7.819,5.707,12.552,5.48c3.713-0.183,7.89-0.463,9.286-4.152c1.086-2.857,2.019-7.633,0.463-10.546
		C46.411,67.424,42.702,66.82,39.268,66.544z"/>
	<path fill="#EDDAC0" d="M47.434,85.264l-0.133-0.131c-2.735,0.248,0.237,5.88,2.145,2.648
		C47.86,88.354,45.547,86.436,47.434,85.264z"/>
	<path fill="#EDDAC0" d="M31.049,61.916l-0.132-0.133c-2.735,0.242,0.241,5.874,2.145,2.652
		C31.479,65.008,29.163,63.093,31.049,61.916z"/>
	<path fill="#EDDAC0" d="M37.377,70.429c0-0.017-0.003-0.031-0.009-0.048c-0.016,0.035-0.039,0.075-0.055,0.107L37.377,70.429z"/>
	<path fill="#EDDAC0" d="M42.131,63.63c0.198-0.475,0.642-1,1.136-1.173c0.673-0.239,1.255,0.273,1.976,0.191
		C44.648,61.079,41.467,61.667,42.131,63.63z"/>
	<path fill="#EDDAC0" d="M25.147,66.19c0.198-0.472,0.64-1,1.138-1.17c0.674-0.233,1.253,0.271,1.974,0.191
		C27.663,63.643,24.482,64.233,25.147,66.19z"/>
	<path fill="#EDDAC0" d="M50.852,76.334l-0.02,0.186c1.973,1.909,4.295-4.024,0.613-3.354
		C52.912,73.989,52.971,76.991,50.852,76.334z"/>
	<path fill="#EDDAC0" d="M20.945,76.227l-0.134,0.133c0.223,2.736,5.879-0.193,2.674-2.121
		C24.041,75.829,22.104,78.127,20.945,76.227z"/>
	<path fill="#EDDAC0" d="M37.608,64.275l-0.016,0.188c1.971,1.91,4.294-4.022,0.607-3.355C39.671,61.935,39.73,64.936,37.608,64.275
		z"/>
	<path fill="#EDDAC0" d="M24.846,87.656l-0.016,0.188c1.974,1.91,4.294-4.018,0.61-3.353C26.908,85.314,26.964,88.319,24.846,87.656
		z"/>
	<path fill="#EDDAC0" d="M49.362,85.133c0.135-1.684,2.833-2.995,3.123-0.793l0.178-0.065
		C53.564,81.685,47.211,82.063,49.362,85.133z"/>
	<path fill="#EDDAC0" d="M38.582,89.393c0.13-1.678,2.833-2.992,3.126-0.791l0.173-0.065C42.787,85.941,36.432,86.328,38.582,89.393
		z"/>
	<path fill="#EDDAC0" d="M52.08,78.592c-0.803,1.479,1.723,3.502,2.773,1.714c-0.486,0.161-1.176,0.168-1.631-0.087
		C52.605,79.857,52.613,79.083,52.08,78.592z"/>
	<path fill="#EDDAC0" d="M32.35,86.419c-0.801,1.481,1.724,3.502,2.779,1.718c-0.491,0.16-1.178,0.173-1.631-0.098
		C32.878,87.687,32.885,86.913,32.35,86.419z"/>
	<path fill="#EDDAC0" d="M38.55,77.019l-0.087-0.005c-0.01,0.013-0.019,0.021-0.03,0.036C38.469,77.037,38.515,77.031,38.55,77.019z
		"/>
	<path fill="#EDDAC0" d="M29.865,76.52c-0.006-0.017-0.006-0.025-0.009-0.042c-0.011,0.031-0.03,0.057-0.042,0.082L29.865,76.52z"/>
	<path fill="#EDDAC0" d="M50.754,87.627c0.17-0.35,0.523-0.724,0.91-0.831c0.516-0.15,0.93,0.259,1.479,0.233
		C52.762,85.817,50.338,86.12,50.754,87.627z"/>
	<path fill="#EDDAC0" d="M38.704,90.327c-0.513,0.173-0.946-0.219-1.495-0.168c0.432,1.195,2.846,0.787,2.367-0.704
		C39.417,89.813,39.08,90.207,38.704,90.327z"/>
	<path fill="#EDDAC0" d="M20.378,72.923c0.17-0.346,0.527-0.724,0.908-0.833c0.519-0.142,0.938,0.267,1.483,0.239
		C22.391,71.114,19.966,71.416,20.378,72.923z"/>
	<path fill="#EDDAC0" d="M28.695,89.455c0.169-0.349,0.527-0.729,0.909-0.834c0.521-0.15,0.936,0.261,1.481,0.23
		C30.705,87.64,28.282,87.942,28.695,89.455z"/>
	<path fill="#EDDAC0" d="M49.491,66.946c-0.327-0.217-0.656-0.617-0.711-1.011c-0.076-0.534,0.384-0.893,0.426-1.438
		C47.958,64.715,47.938,67.156,49.491,66.946z"/>
	<path fill="#EDDAC0" d="M25.06,84.588c-0.324-0.214-0.65-0.612-0.705-1.01c-0.081-0.534,0.377-0.891,0.423-1.438
		C23.529,82.357,23.51,84.805,25.06,84.588z"/>
	<path fill="#EDDAC0" d="M25.657,70.337c-0.331-0.217-0.656-0.619-0.708-1.009c-0.081-0.532,0.377-0.896,0.423-1.441
		C24.121,68.107,24.105,70.549,25.657,70.337z"/>
	<path fill="#EDDAC0" d="M47.255,79.857L47.214,79.8c-0.007,0-0.023,0-0.032,0C47.208,79.819,47.233,79.845,47.255,79.857z"/>
	<path fill="#EDDAC0" d="M26.654,73.518c-0.025-0.01-0.052-0.024-0.08-0.037l0.049,0.05C26.632,73.527,26.648,73.527,26.654,73.518z
		"/>
	<path fill="#EDDAC0" d="M44.519,64.124c0.366,0.147,0.766,0.469,0.903,0.844c0.19,0.499-0.182,0.949-0.111,1.494
		C46.489,65.986,45.993,63.592,44.519,64.124z"/>
	<path fill="#EDDAC0" d="M43.797,87.705c0.363,0.143,0.769,0.473,0.903,0.841c0.191,0.504-0.184,0.95-0.11,1.494
		C45.768,89.562,45.267,87.171,43.797,87.705z"/>
	<path fill="#EDDAC0" d="M20.83,80.596c0.358,0.146,0.764,0.466,0.903,0.84c0.188,0.503-0.188,0.953-0.117,1.498
		C22.796,82.452,22.299,80.062,20.83,80.596z"/>
	<path fill="#EDDAC0" d="M44.361,70.022c-0.035,0.009-0.067,0.016-0.094,0.025l0.072,0.006
		C44.343,70.042,44.352,70.031,44.361,70.022z"/>
	<path fill="#EDDAC0" d="M51.506,68.727c0.369-0.12,0.891-0.122,1.232,0.078c0.467,0.271,0.459,0.856,0.855,1.227
		C54.205,68.918,52.305,67.384,51.506,68.727z"/>
	<path fill="#EDDAC0" d="M33.662,62.297c0.373-0.113,0.891-0.12,1.233,0.082c0.462,0.27,0.459,0.853,0.859,1.226
		C36.361,62.495,34.464,60.956,33.662,62.297z"/>
	<path fill="#D65D0B" d="M38.872,59.138c-0.129,0-0.253,0-0.384,0l0.274,0.136C38.752,59.227,38.801,59.182,38.872,59.138z"/>
	<g>
		<path fill="#302925" d="M59.404,78.85c0.01-0.051,0.02-0.094,0.027-0.138c0.279-1.296,0.49-2.454,0.42-3.706
			c-0.121,0.598-0.227,1.191-0.291,1.79C59.484,77.475,59.441,78.161,59.404,78.85z"/>
		<path fill="#302925" d="M56.475,59.673c0.365,0.394,0.826,0.724,1.32,1.025C57.322,60.305,56.867,59.955,56.475,59.673z"/>
		<path fill="#302925" d="M61.717,61.62c1.082,1.689,2.129,2.96,2.721,4.86C64.021,64.69,62.875,62.84,61.717,61.62z"/>
		<path fill="#302925" d="M57.781,87.696c1.455-2.78,1.459-5.82,1.623-8.847C58.768,81.846,58.154,84.655,57.781,87.696z"/>
		<path fill="#302925" d="M61.104,70.368c-0.238-2.394-0.109-5.262-1.844-7.091c-1.469-1.547-3.127-2.938-5.029-3.828
			c-1.914-0.894-3.831-0.878-5.837-1.274c1.133,0.894,3.242,0.881,4.601,1.614c0.416,0.227,0.805,0.547,1.188,0.888
			c-2.209-1.171-4.955-1.879-7.071-2.086c-1.085-0.104-7.38,0.047-8.238,0.547c4.378,0.013,9.007,0.205,13.169,1.61
			c1.592,0.539,3.787,1.155,4.965,2.464c0.742,0.821,0.727,1.853,0.92,2.903c0.619,3.363,0.332,6.83,0,10.24
			c-0.266,2.721-0.266,5.596-0.789,8.241c-0.119,0.6-0.254,1.143-0.449,1.734c0.906-3.011,1.992-5.77,2.34-8.959
			c0.15-1.41,0.451-2.751,0.621-4.106c0.072,0.476,0.145,0.941,0.184,1.347c0.016,0.139,0.016,0.258,0.02,0.394
			c0.363-1.828,0.848-3.659,0.807-5.49c0.391,2.064,0.855,4.156,0.824,6.286c-0.031,2.387,0.105,5.71-0.695,7.928
			C62.33,79.548,61.533,74.656,61.104,70.368z"/>
		<path fill="#302925" d="M62.84,77.513c0.244-0.909,0.463-1.806,0.592-2.671c0.186-1.235,0.572-3.02,0.43-4.514
			c-0.244,1.82-0.354,3.693-0.732,5.505C63.014,76.396,62.924,76.957,62.84,77.513z"/>
		<path fill="#302925" d="M62.84,77.513c-0.576,2.172-1.291,4.404-1.217,6.494c-0.037-1.256,0.645-2.533,0.82-3.781
			C62.566,79.304,62.695,78.407,62.84,77.513z"/>
		<path fill="#302925" d="M65.484,81.539c1.377-2.602,0.428-7.067-0.066-9.814c-0.258-1.451-0.447-2.938-0.756-4.373
			c-0.063-0.305-0.143-0.595-0.225-0.871c0.021,0.091,0.045,0.186,0.064,0.276c-1.715-2.835-3.674-6.32-7.279-7.149
			c1.268,0.55,2.328,1.606,3.35,2.683c-0.885-0.582-1.891-1.051-2.777-1.592c2.297,1.894,5.186,4.892,5.057,7.475l-0.133-0.139
			c-0.416,2.382-0.811,4.889-1.102,7.349c0.779-1.733,1.594-4.876,1.676-6.791c0.346,0.472,0.504,1.082,0.568,1.736
			c0.063-0.481,0.131-0.956,0.225-1.432c0.238,5.48,0.096,11.386-1.48,16.783c1.061-2.063,1.451-5.354,1.725-7.79
			c0.266-2.374,0.477-4.702,0.543-7.099c0.1,1.547,0.504,3.022,0.58,4.636C65.529,77.05,64.807,80.2,65.484,81.539z"/>
		<path fill="#302925" d="M67.229,69.044c0.012,0.943,0.006,1.895,0.006,2.838c0.168-3.111-1.82-6.138-3.021-9.133
			c0.82,1.614,0.99,3.363,1.547,5.146c0.793,2.533,1.338,5.16,1.338,7.531l-0.824-3.284c0.496,2.819,0.279,5.54,0.279,8.447
			C66.838,77.014,69.055,72.685,67.229,69.044z"/>
		<path fill="#302925" d="M56.148,63.146c0.242,1.283,0.396,2.435,0.414,3.75c-0.652-1.365-0.949-2.731-1.793-4.014
			c0.354,1,0.693,2.075,1.111,3.052c-1.43-3.367-5.933-5.993-9.684-5.563c6.09-0.374,9.93,7.119,10.913,12.181v0.413
			c0.182-1.441-0.488-4.367-1.215-5.84c0.594,1.143,1.264,2.096,1.482,3.335C57.436,67.877,56.59,65.533,56.148,63.146z"/>
		<path fill="#302925" d="M64.045,62.92c-0.082-0.069-0.154-0.149-0.229-0.228c0.039,0.047,0.078,0.102,0.117,0.154
			C63.973,62.869,64.004,62.897,64.045,62.92z"/>
	</g>
	<path opacity="0.26" fill="#E2E2E2" d="M65.354,65.688c-0.26-1.061-0.631-2.066-1.254-2.954c-0.877-0.55-1.559-1.377-2.473-1.875
		c0.389,0.504,0.803,1.14,0.965,1.708c-0.863-0.113-2.488-0.893-3.041-1.334c0.385,0.715,1.057,1.212,1.398,1.885
		c-0.527-0.092-1.004-0.355-1.371-0.751c0.143,0.204,0.182,0.437,0.273,0.612c-1.229-0.478-2.609-1.353-3.574-2.277
		c0.348,0.743,0.904,1.466,1.387,2.127c-1.186-0.032-1.906-1.303-2.977-1.596c0.184,0.814,1.061,1.433,1.477,2.152
		c-0.994,0.057-1.955-0.783-2.709-1.327c0.564,0.808,1.41,1.475,2.02,2.255c-1.137-0.487-2.518-0.724-3.365-1.689
		c0.488,0.576,2.014,2.483,2.504,2.992l0.406,0.695c1.107,2.07,0.375,2.494,1.67,4.445c0.059-0.855,0.057-1.727-0.104-2.552
		c-0.182-0.97-0.93-2.032-0.795-3.005c0.555,0.539,1.016,1.385,1.348,2.137c-0.197-0.849-0.553-1.796-0.391-2.687
		c1.014,0.68,1.852,2.146,2.406,3.127c0.092-1.413-0.473-2.268-0.773-3.523c1.096,0.101,2.021,0.966,2.971,1.46
		c-0.354-0.526-0.822-1.113-0.92-1.74c0.711,0.151,1.387,0.806,2.021,1.061c-0.283-0.545-0.775-1.066-1.063-1.61
		c1.113,0.384,1.971,1.286,2.943,1.888c-0.24-0.677-0.68-1.284-1.07-1.866c-0.006-0.003-0.016-0.006-0.021-0.016
		c-0.039-0.048-0.039-0.054,0.006-0.003c0.006,0.006,0.014,0.016,0.016,0.019C64.119,64.083,64.928,64.682,65.354,65.688z"/>
	<path fill="#EA6911" d="M33.772,77.361c0.439,0.055,0.896,0.148,1.329,0.25C34.699,77.475,34.233,77.387,33.772,77.361z"/>
	<path fill="#EA6911" d="M30.036,71.611c1.153-0.459,2.404-0.74,3.19-1.595C32.17,69.935,31.024,70.602,30.036,71.611z"/>
	<path fill="#EA6911" d="M33.772,77.361c-1.354-0.162-2.511,0.063-2.171,1.505C31.394,77.671,32.555,77.292,33.772,77.361z"/>
	<path fill="#EA6911" d="M30.729,68.56c2.968-0.912,7.734,0.504,10.488,1.236c-3.407-0.834-6.419-3.485-10.306-2.33
		c-4.256,1.271-6.812,11.522-2.781,14.19l-0.549-0.183c1.94,2.693,7.118,4.461,10.001,2.325c1.342-0.995,1.591-3.263,2.092-4.87
		c0.582-1.862,0.604-3.243-0.994-4.694c0.527,0.778,0.887,1.675,0.725,2.666c-0.981-2.533-3.385-4.295-6.462-4.012
		c2.041,1.296,5.321,1.604,4.87,5.058c-1.003-1.434-4.154-2.132-5.606-1.252c1.913-0.512,3.429,0.297,4.849,1.467
		c-0.344-0.095-1.104-0.34-1.955-0.55c0.535,0.179,0.955,0.43,1.104,0.72c0.952,1.821-1.498,3.873-3.144,3.875
		c-5.956,0.017-4.383-5.743-2.214-8.82c-1.737,0.909-3.809,3.086-2.883,5.097c-1.128-1.706,0.174-4.931,2.071-6.871
		c-0.558,0.224-1.092,0.479-1.536,0.884c-0.474,0.422-0.864,0.887-1.166,1.4c-0.215,1.136-0.387,2.252-0.67,3.14
		c-0.114-1.181,0.137-2.228,0.67-3.14C27.779,71.62,28.441,69.268,30.729,68.56z"/>
	<path fill="#EA6911" d="M27.334,73.896c-0.533,0.912-0.784,1.959-0.67,3.14C26.947,76.147,27.119,75.031,27.334,73.896z"/>
	<path fill="#EA6911" d="M38.661,74.213c0.006,0.006,0.013,0.017,0.019,0.021c-0.006-0.016-0.006-0.018-0.016-0.03
		C38.596,74.141,38.596,74.141,38.661,74.213z"/>
	<g>
		<path fill="#C9D17C" d="M40.055,81.7c0.374,0.941,1.942,1.091,2.764,1.31c1.036,0.273,2.196,0.66,3.159-0.004
			c1.025-0.705,1.507-2.473,1.58-3.574c0.043-0.642,0.088-1.525-0.188-2.106c-0.374-0.769-1.069-0.769-1.858-0.904
			c-1.422-0.245-3.709-0.371-4.528,1.022c-0.629,1.069-1.156,3.134-0.578,4.254l-0.178-0.079
			C40.143,81.672,40.084,81.549,40.055,81.7z"/>
		<g>
			<path fill="#BCC989" d="M39.097,80.209c-0.452,0.532-0.854,1.347-1.186,1.961c-0.322,0.598-0.826,1.452-0.926,2.11l0.007,0.063
				c-0.362,2.035,5.886,0.472,6.625,0.253c0.893-0.257,2.567-0.741,1.442-1.751c-0.896-0.803-1.888-1.692-2.897-2.354
				C41.263,79.903,39.881,79.293,39.097,80.209z"/>
			<path fill="#E0EFA3" d="M37.875,84.016c-0.211,0.341-0.409,0.68-0.61,1.022c1.173,0.881,5.728-0.258,6.353-0.441
				c0.186-0.053,0.404-0.118,0.628-0.194c-1.123-1.232-2.813-3.152-3.554-3.438C39.951,80.681,38.493,83.034,37.875,84.016z"/>
		</g>
		<g>
			<path fill="#B4C667" d="M47.974,75.972c-0.649,0.268-1.377,0.809-1.955,1.208c-0.554,0.39-1.394,0.925-1.784,1.466l-0.021,0.061
				c-0.794,1.04,1.354,2.003,3.292,2.607c0.284-0.558,0.547-1.381,0.724-2.086c0.172-0.658,0.39-1.334,0.479-2.01
				c-0.004,0.025,0.024-1.736,0.147-1.052c-0.013-0.078-0.022-0.163-0.032-0.244C48.555,75.849,48.27,75.849,47.974,75.972z"/>
			<path fill="#D4E281" d="M47.507,81.313c0.284-0.368,0.544-1.381,0.724-2.086c0.172-0.651,0.383-1.317,0.475-1.984
				c-0.85-0.063-2.7,1.06-3.551,1.568c-0.342,0.206-0.672,0.419-1.01,0.636C44.51,80.193,46.044,80.854,47.507,81.313z"/>
		</g>
		<g>
			<path fill="#BCC989" d="M45.181,83.679c0.031,0.055,0.059,0.107,0.089,0.164c0.216-0.022,0.417-0.104,0.595-0.277
				c0.383-0.374,0.816-0.84,1.108-1.29c0.289-0.434,0.693-1.025,0.818-1.52l-0.027-0.21c0.268-0.969-1.609-1.017-3.166-0.894
				c0.037,0.561,0.082,1.11,0.156,1.664c0.066,0.52,0.101,1.063,0.231,1.576C44.979,82.867,45.462,84.136,45.181,83.679z"/>
			<path fill="#E0EFA3" d="M44.754,81.316c0.063,0.513,0.101,1.048,0.225,1.551c0.626-0.198,1.626-1.522,2.085-2.126
				c0.188-0.249,0.363-0.494,0.541-0.743c-0.473-0.428-1.834-0.438-3.007-0.346C44.635,80.213,44.684,80.766,44.754,81.316z"/>
		</g>
	</g>
	<path fill="#EA6911" d="M37.926,70.529c-0.003,0-0.003,0-0.006,0l-0.137,0.065C37.832,70.567,37.881,70.551,37.926,70.529z"/>
	<path fill="#EA6911" d="M42.296,67.905c-1.007-0.475-2.101-0.702-3.196-0.525C40.057,67.497,41.195,67.638,42.296,67.905z"/>
	<path fill="#EA6911" d="M47.569,75.396c-0.012-1.793-0.729-4.857-2.19-6.084c-0.829-0.695-1.937-1.12-3.083-1.406
		c1.628,0.774,3.034,2.193,3.849,3.627c0.006,0.006,0.006,0.01,0.01,0.01c0.02,0.025,0.02,0.028-0.003,0.003
		c0-0.003-0.003-0.007-0.006-0.013c-1.129-1.154-2.791-2.139-4.443-1.674c0.71,0.271,1.527,0.215,2.245,0.548
		c0.445,0.212,1.507,0.729,1.625,1.208c-1.453-0.444-2.94-0.327-4.486-0.337c0.598,0.126,1.129,0.372,1.546,0.865
		c-0.767-0.468-1.628-0.685-2.439-1.085c-0.78-0.384-1.479-0.896-2.265-0.528c2.524,0.078,4.12,1.918,5.111,3.961
		c0.016-0.835-0.546-1.906-1.141-2.498c1.18,0.855,2.336,2.614,2.26,4.074c1.313-1.001-0.188-4.253-1.39-4.716
		C45.501,71.637,46.73,73.105,47.569,75.396z"/>
	<path fill="#EA6911" d="M46.155,71.542c-0.003,0-0.003-0.004-0.01-0.01c0.003,0.006,0.006,0.01,0.006,0.013
		C46.175,71.57,46.175,71.567,46.155,71.542z"/>
</g>
<g>
	<path fill="#BE7A25" d="M40.614,12.03c-3.943,0-7.594,0.522-11.232,1.491c-2.814,0.753-7.823,1.48-9.896,3.554
		c4.094,0.692,6.757,7.374,10.808,9.781c6.276,3.739,8.296,8.794,12.065,14.698c1.085,1.7,1.589,3.31,3.784,3.385
		c1.527,0.053,3.581-1.305,5.03-1.708c2.944-0.819,5.997-1.842,8.355-4.126c5.672-5.496,6.157-13.861,2.049-20.406
		C57.175,11.683,47.933,12.03,40.614,12.03z"/>
	<path fill="#FFF4DE" d="M14.555,24.656l-0.113-0.117c0,0-0.003,0.003-0.01,0.009C14.466,24.595,14.505,24.637,14.555,24.656z"/>
	<path fill="#FFF4DE" d="M49.477,22.002c-0.182-1.173-1.789-2.55-2.979-2.55c0.189-2.095-2.02-1.972-3.459-1.96
		c0.141-1-0.598-0.9-1.284-1.019c-0.774-0.134-1.271-0.442-1.961-0.576c-0.323-0.065-0.859,0.14-1.153,0.003
		c-0.426-0.208-0.146-0.604-0.481-0.782c-0.644-0.339-1.813-0.137-2.514-0.03c-0.249,0.036-0.829,0.267-1.03,0.234
		c-0.429-0.067-0.436-0.429-0.809-0.494c-0.758-0.14-1.437,0.1-2.197,0.03c-0.699-0.063-1.389-0.091-2.185-0.115
		c-0.36-0.016-0.559-0.391-0.896-0.327c-0.26,0.048-0.726,0.546-0.958,0.689c-0.942-1.768-2.051,0.245-3.1,0.427
		c-0.513,0.085-1.235-0.286-1.846-0.217c-0.604,0.071-1.189,0.253-1.695,0.562c-0.601-0.423-0.555,0.172-1.043,0.363
		c-0.327,0.127-0.973,0.277-1.205,0.43c-0.809,0.522-1.303,1.711-1.727,2.546c-1.119-0.519-1.515,1.955-1.814,2.565
		c-0.185,0.365-0.588,0.65-0.698,1.375c-0.071,0.422-0.189,1.114-0.01,1.39c0.006-0.006,0.01-0.009,0.01-0.009l0.113,0.117
		c-0.05-0.019-0.089-0.062-0.123-0.107c-0.802,0.623-0.676,1.563-0.688,2.525c-0.016,0.948-0.559,1.724-0.37,2.653
		c0.117,0.552,0.488,0.724,0.409,1.299c-0.048,0.299-0.549,0.744-0.634,1.12c-0.265,1.15,0.417,1.726,0.93,2.622
		c-0.747,0.695-0.351,1.51-0.091,2.336c0.149,0.48,0.133,0.753,0.445,1.178c0.351,0.465,0.881,0.455,0.933,1.128
		c0.067,0.873-0.771,1.171-0.209,2.157c0.306,0.552,1.069,1.084,1.444,1.664c0.193,0.295,0.324,0.796,0.607,1.015
		c0.458,0.358,0.938,0.023,1.269,0.222c1.134,0.692,0.073,1.487,1.726,1.618c1.937,0.15,3.859,0.161,5.765,0.468
		c0.67,0.109,0.896,0.055,1.268,0.704c0.929-0.516,2.092-0.062,3.108-0.017c1.013,0.049,2.41-0.164,3.345,0.028
		c0.607,0.13,0.661,0.46,1.265,0.552c0.522,0.08,1.166-0.23,1.73-0.23c1.028,0.002,2.327,0.486,2.671-0.904
		c0.97-0.054,1.961,0.27,2.861,0.217c0.503-0.021,0.662-0.211,1.065-0.324c0.15-0.045,1.013-0.282,1.001-0.273
		c0.367-0.226,0.438-0.616,0.838-0.879c0.434-0.273,0.907-0.286,1.363-0.583c0.542-0.353,1.844-1.262,2.153-1.664
		c0.268-0.337,0.06-0.846,0.284-1.217c0.143-0.23,0.676-0.47,0.897-0.714c0.826-0.877,0.822-1.542,0.809-2.65
		c-0.01-0.89-0.146-1.734-0.111-2.65c0.01-0.329,0.16-1.015,0.12-1.261c-0.078-0.5-0.471-0.727-0.445-1.25
		c0.021-0.445,0.604-1.172,0.669-1.748c0.07-0.659-0.027-1.39-0.09-1.988c-0.066-0.656-0.021-1.394-0.143-2.05
		c-0.056-0.295-0.287-0.704-0.314-0.955c-0.022-0.225,0.125-0.692,0.096-0.881c-0.139-0.812-0.663-1.133-0.938-1.831
		C49.211,23.33,49.597,22.786,49.477,22.002z"/>
	<path fill="#F2DEBB" d="M14.555,24.738l-0.113-0.121c0,0.003-0.003,0.009-0.01,0.012C14.466,24.675,14.505,24.717,14.555,24.738z"
		/>
	<path fill="#F2DEBB" d="M15.156,41.646c0.306,0.549,1.069,1.084,1.444,1.666c0.193,0.295,0.324,0.792,0.607,1.014
		c0.458,0.356,0.938,0.019,1.269,0.22c1.134,0.692,0.073,1.489,1.726,1.617c1.937,0.149,3.859,0.164,5.765,0.47
		c0.67,0.109,0.896,0.051,1.268,0.701c0.929-0.513,2.092-0.059,3.108-0.011c1.013,0.047,2.41-0.167,3.345,0.025
		c0.607,0.129,0.661,0.459,1.265,0.553c0.522,0.076,1.166-0.234,1.73-0.234c1.028,0.002,2.327,0.491,2.671-0.9
		c0.97-0.055,1.961,0.266,2.861,0.213c0.503-0.021,0.662-0.209,1.065-0.319c0.15-0.046,1.013-0.281,1.001-0.279
		c0.367-0.222,0.438-0.614,0.838-0.875c0.434-0.277,0.907-0.286,1.363-0.583c0.542-0.356,1.844-1.261,2.153-1.665
		c0.268-0.337,0.06-0.844,0.284-1.216c0.143-0.229,0.676-0.466,0.897-0.711c0.826-0.882,0.822-1.549,0.809-2.649
		c-0.002-0.595-0.056-1.172-0.086-1.757c-0.723,3.388-2.173,5.916-5.287,7.865c-2.91,1.822-5.057,1.513-6.139,0.623
		c-2.132,0.494-4.255,1.676-6.166,0.923c-0.525-0.009-3.115,0.036-3.635,0c-0.682,0.159-2.401-0.958-3.154-0.975
		c-4.587-0.088-6.672,0.646-9.055-3.09c-1.007-1.578-1.268-5.054-2.304-6.457c0.011-0.127-0.019-3.921,0-4.047
		c-0.978-3.064-0.669-5.254,0.803-8.042c0.221-0.412,0.815-2.779,1.078-3.136c0.917-2.006,2.332-2.704,4.261-3.788
		c0.569-0.465,1.944-0.945,2.597-1.299c-0.304-0.069-0.622-0.141-0.914-0.106c-0.604,0.069-1.189,0.253-1.695,0.563
		c-0.601-0.426-0.555,0.168-1.043,0.361c-0.327,0.128-0.973,0.278-1.205,0.427c-0.809,0.524-1.303,1.71-1.727,2.552
		c-1.119-0.524-1.515,1.955-1.814,2.562c-0.185,0.37-0.588,0.649-0.698,1.372c-0.071,0.424-0.189,1.113-0.01,1.395
		c0.006-0.003,0.01-0.009,0.01-0.012l0.113,0.121c-0.05-0.021-0.089-0.063-0.123-0.109c-0.802,0.621-0.676,1.56-0.688,2.525
		c-0.016,0.955-0.559,1.722-0.37,2.653c0.117,0.549,0.488,0.722,0.409,1.296c-0.048,0.305-0.549,0.744-0.634,1.119
		c-0.265,1.153,0.417,1.73,0.93,2.627c-0.747,0.698-0.351,1.508-0.091,2.333c0.149,0.481,0.133,0.759,0.445,1.179
		c0.351,0.471,0.881,0.452,0.933,1.127C15.433,40.359,14.594,40.658,15.156,41.646z"/>
	<path fill="#EDDAC0" d="M18.649,22.015l-0.134-0.129c-2.762,0.249,0.238,5.933,2.16,2.675
		C19.078,25.141,16.748,23.208,18.649,22.015z"/>
	<path fill="#EDDAC0" d="M32.721,24.994c-0.009-0.016-0.009-0.03-0.014-0.045c-0.016,0.036-0.041,0.074-0.051,0.11L32.721,24.994z"
		/>
	<path fill="#EDDAC0" d="M32.825,18.364c0.199-0.475,0.647-1.007,1.147-1.186c0.68-0.231,1.267,0.283,1.995,0.198
		C35.362,15.791,32.152,16.382,32.825,18.364z"/>
	<path fill="#EDDAC0" d="M37.317,20.326l-0.016,0.185c1.991,1.927,4.336-4.058,0.613-3.388
		C39.397,17.958,39.458,20.987,37.317,20.326z"/>
	<path fill="#EDDAC0" d="M41.417,34.681l-0.013,0.188c1.988,1.929,4.334-4.062,0.613-3.391C43.5,32.316,43.558,35.346,41.417,34.681
		z"/>
	<path fill="#EDDAC0" d="M29.177,42.954l-0.016,0.186c1.993,1.932,4.338-4.059,0.613-3.382C31.26,40.59,31.322,43.624,29.177,42.954
		z"/>
	<path fill="#EDDAC0" d="M17.131,35.814c0.134-1.692,2.86-3.024,3.156-0.796l0.178-0.067C21.38,32.338,14.959,32.719,17.131,35.814z
		"/>
	<path fill="#EDDAC0" d="M42.496,43.57c0.134-1.695,2.865-3.026,3.157-0.796l0.176-0.067C46.744,40.093,40.325,40.476,42.496,43.57z
		"/>
	<path fill="#EDDAC0" d="M23.072,19.956c-0.808,1.494,1.738,3.534,2.802,1.732c-0.497,0.162-1.186,0.174-1.646-0.097
		C23.603,21.235,23.609,20.453,23.072,19.956z"/>
	<path fill="#EDDAC0" d="M34.503,41.616c-0.808,1.491,1.74,3.534,2.805,1.732c-0.498,0.163-1.189,0.174-1.653-0.094
		C35.037,42.893,35.04,42.112,34.503,41.616z"/>
	<path fill="#EDDAC0" d="M21.593,40.395c-0.811,1.498,1.739,3.538,2.8,1.735c-0.494,0.159-1.183,0.171-1.644-0.094
		C22.124,41.674,22.13,40.896,21.593,40.395z"/>
	<path fill="#EDDAC0" d="M42.233,25.815c-0.807,1.498,1.739,3.538,2.8,1.735c-0.492,0.162-1.183,0.171-1.643-0.098
		C42.764,27.092,42.774,26.315,42.233,25.815z"/>
	<path fill="#EDDAC0" d="M33.903,31.653l-0.09-0.01c-0.007,0.016-0.017,0.027-0.026,0.036C33.822,31.67,33.865,31.664,33.903,31.653
		z"/>
	<path fill="#EDDAC0" d="M25.133,31.146c-0.005-0.013,0-0.028-0.008-0.037c-0.013,0.027-0.035,0.05-0.047,0.079L25.133,31.146z"/>
	<path fill="#EDDAC0" d="M17.43,39.892c0.177-0.354,0.533-0.734,0.924-0.841c0.522-0.156,0.942,0.263,1.494,0.236
		C19.467,38.062,17.019,38.367,17.43,39.892z"/>
	<path fill="#EDDAC0" d="M31.194,20.651c-0.54,0.067-0.896-0.4-1.448-0.455c0.201,1.266,2.67,1.321,2.481-0.247
		C32.006,20.274,31.587,20.6,31.194,20.651z"/>
	<path fill="#EDDAC0" d="M45.75,37.393c0.204,1.268,2.667,1.326,2.478-0.242c-0.217,0.324-0.637,0.646-1.029,0.695
		C46.659,37.919,46.302,37.449,45.75,37.393z"/>
	<path fill="#EDDAC0" d="M26.075,40.502c-0.54,0.071-0.893-0.399-1.445-0.451c0.202,1.266,2.669,1.32,2.478-0.25
		C26.887,40.131,26.472,40.45,26.075,40.502z"/>
	<path fill="#EDDAC0" d="M42.69,34.513l-0.036-0.052c-0.013,0.003-0.025,0-0.037,0.003C42.642,34.479,42.667,34.501,42.69,34.513z"
		/>
	<path fill="#EDDAC0" d="M21.895,28.118c-0.03-0.006-0.06-0.028-0.085-0.038l0.048,0.049C21.871,28.121,21.88,28.121,21.895,28.118z
		"/>
	<path fill="#EDDAC0" d="M21.267,29.285c-0.484,0.25-0.979-0.064-1.513,0.074c0.629,1.125,2.959,0.313,2.236-1.09
		C21.892,28.655,21.615,29.1,21.267,29.285z"/>
	<path fill="#EDDAC0" d="M43.489,22.354c1.193-0.475,0.69-2.895-0.798-2.355c0.37,0.146,0.779,0.474,0.916,0.848
		C43.798,21.356,43.424,21.808,43.489,22.354z"/>
	<path fill="#EDDAC0" d="M40.66,40.43c1.192-0.483,0.686-2.897-0.799-2.355c0.37,0.141,0.774,0.476,0.916,0.842
		C40.968,39.433,40.589,39.881,40.66,40.43z"/>
	<path fill="#EDDAC0" d="M39.767,24.585c-0.029,0.009-0.062,0.013-0.092,0.025l0.069,0.006C39.75,24.607,39.76,24.598,39.767,24.585
		z"/>
	<path fill="#EDDAC0" d="M26.006,17.666c0.375-0.121,0.897-0.121,1.242,0.077c0.473,0.277,0.467,0.865,0.87,1.245
		C28.732,17.861,26.815,16.312,26.006,17.666z"/>
	<path fill="#EDDAC0" d="M46.613,30.753c0.378-0.12,0.897-0.129,1.244,0.079c0.471,0.272,0.464,0.863,0.87,1.238
		C49.338,30.948,47.42,29.398,46.613,30.753z"/>
	<path fill="#EDDAC0" d="M45.5,23.333c0.375-0.12,0.896-0.126,1.24,0.079c0.473,0.273,0.466,0.863,0.87,1.234
		C48.226,23.528,46.309,21.976,45.5,23.333z"/>
	<path fill="#D65D0B" d="M60.479,25.364c0.019-0.543,0.036-1.084,0.036-1.634C60.449,24.29,60.449,24.828,60.479,25.364z"/>
	<path opacity="0.26" fill="#FFEAC0" d="M51.628,15.278C51.581,15.224,51.574,15.224,51.628,15.278c0,0.006,0.004,0.006,0.008,0.009
		C51.636,15.285,51.63,15.278,51.628,15.278z"/>
	<path opacity="0.26" fill="#FFEAC0" d="M58.682,18.042c-0.053-0.052-0.053-0.052-0.01,0.003c0.01,0.003,0.01,0.015,0.017,0.015
		C58.687,18.05,58.682,18.045,58.682,18.042z"/>
	<path opacity="0.26" fill="#FFEAC0" d="M59.413,17.188c0.039,0.046,0.081,0.098,0.12,0.156c0.041,0.021,0.071,0.052,0.11,0.072
		C59.561,17.343,59.491,17.26,59.413,17.188z"/>
	<path opacity="0.26" fill="#FFEAC0" d="M59.413,17.188c-0.198-0.275-0.42-0.535-0.676-0.772
		C58.944,16.678,59.171,16.938,59.413,17.188z"/>
	<path fill="#F4D99D" d="M29.434,24.134c-0.006-0.012-0.018-0.021-0.024-0.027c-0.074-0.013-0.153-0.039-0.217-0.033L29.434,24.134z
		"/>
	<path fill="#F4D99D" d="M28.592,31.465c-0.045,0.077-0.064,0.145-0.082,0.22c0.01,0.027,0.018,0.052,0.024,0.082L28.592,31.465z"/>
	<path fill="#EFE45E" d="M23.375,36.208c0-0.01,0-0.021,0-0.027c-0.065-0.058-0.009,0.023-0.032,0.042L23.375,36.208z"/>
	<path fill="#EFE45E" d="M32.487,33.509c-1.565,0.321-3.196,0.519-4.739,0.952c-0.945,0.269-1.76,0.626-2.647,1.035
		c-0.522,0.241-1.13,0.553-1.68,0.692l-0.045,0.021c0,0.988,0.799,1.939,1.771,2.144c0.487,0.097,0.964,0.038,1.481,0.038
		c0.519,0,0.998,0.094,1.484,0.118c1.368,0.061,2.692-0.085,4.045-0.159c1.529-0.085,3.05,0.074,4.576-0.04
		c0.813-0.064,1.076-0.341,1.463-1.012c0.299-0.518,0.616-1.034,0.895-1.551c0.286-0.532,0.521-1.003,0.723-1.565
		c0.191-0.542,0.52-1.062,0.78-1.598c-0.26-0.098-0.56-0.016-0.826,0C37.366,32.699,34.871,33.024,32.487,33.509z"/>
	<path fill="#E0D84C" d="M34.442,33.199c0,0-0.132,1.225-0.885,2.054c-2.402,2.644-6.693,3.039-7.034,3.139
		c0.039,0,0.069-0.002,0.105-0.002c0.519,0,0.998,0.094,1.484,0.118c1.368,0.061,2.692-0.085,4.045-0.159
		c1.529-0.085,3.05,0.074,4.576-0.04c0.813-0.064,1.076-0.341,1.463-1.012c0.299-0.518,0.616-1.034,0.895-1.551
		c0.286-0.532,0.521-1.003,0.723-1.565c0.191-0.542,0.52-1.062,0.78-1.598c-0.26-0.098-0.56-0.016-0.826,0
		C38.01,32.661,36.219,32.9,34.442,33.199z"/>
	<path fill="#D6CB43" d="M34.231,37.163c-0.705,0.415-3.712,1.101-4.486,1.321c0.813-0.035,1.625-0.091,2.445-0.135
		c1.531-0.085,3.054,0.074,4.581-0.04c0.814-0.064,1.076-0.341,1.458-1.012c0.302-0.518,0.621-1.034,0.896-1.551
		c0.286-0.532,0.521-1.003,0.722-1.565c0.192-0.542,0.525-1.062,0.782-1.598c-0.259-0.098-0.562-0.016-0.824,0
		c-1.271,0.061-2.571,0.188-3.867,0.36C37.339,33.498,36.113,36.059,34.231,37.163z"/>
	<path fill="#C3C64B" d="M35.141,38.332c0.542,0.003,1.088,0.018,1.631-0.022c0.814-0.064,1.076-0.341,1.458-1.012
		c0.302-0.518,0.621-1.034,0.896-1.551c0.286-0.532,0.521-1.003,0.722-1.565c0.192-0.542,0.525-1.062,0.782-1.598
		c-0.259-0.098-0.562-0.016-0.824,0c-1.171,0.055-2.361,0.168-3.554,0.318C41.621,33.661,37.122,37.669,35.141,38.332z"/>
	<g>
		<g>
			<path fill="#E0AB58" d="M39.166,13.04c-0.247-0.464-0.731-0.76-1.217-0.585c-0.497,0.173-0.758,0.715-0.588,1.212
				c0.588,1.685,2.284,1.879,3.583,1.879c0.214,0,0.416,0,0.602-0.009l0.516-0.01c0.526,0,0.461-0.344,0.019-0.633
				C41.404,14.456,39.886,14.397,39.166,13.04z"/>
		</g>
		<g>
			<path fill="#9B5D13" d="M37.379,13.667c0.582,1.685,2.284,1.879,3.577,1.879c0.214,0,0.418,0,0.604-0.009l0.516-0.01
				c0.615,0.019,0.511-0.817,0.017-0.633c-0.744,0.277-3.242,0.442-3.958-0.919c-0.25-0.468-0.175-1.521-0.175-1.521
				C37.464,12.628,37.201,13.17,37.379,13.667z"/>
		</g>
	</g>
	<g>
		<g>
			<path fill="#E0AB58" d="M57.368,38.722c0.215,0,0.418-0.003,0.603-0.013l0.515-0.006c0.528,0,0.459-0.351,0.021-0.637
				c-0.678-0.436-2.194-0.494-2.916-1.852c-0.247-0.469-0.728-0.76-1.212-0.588c-0.498,0.175-0.764,0.719-0.588,1.217
				C54.378,38.527,56.069,38.722,57.368,38.722z"/>
		</g>
		<g>
			<path fill="#9B5D13" d="M53.801,36.843c0.584,1.684,2.285,1.878,3.582,1.878c0.212,0,0.415-0.003,0.602-0.013l0.515-0.006
				c0.621,0.019,0.515-0.819,0.021-0.637c-0.745,0.277-3.239,0.442-3.96-0.916c-0.251-0.469-0.175-1.524-0.175-1.524
				C53.889,35.801,53.63,36.345,53.801,36.843z"/>
		</g>
	</g>
	<g>
		<g>
			<path fill="#E0AB58" d="M61.815,27.431c0.339,0.4,0.948,0.452,1.345,0.11c1.357-1.159,0.928-2.814,0.457-4.022
				c-0.076-0.195-0.152-0.384-0.229-0.555L63.2,22.487c-0.194-0.494-0.494-0.304-0.601,0.21c-0.168,0.786,0.328,2.228-0.674,3.388
				C61.577,26.488,61.479,27.038,61.815,27.431z"/>
		</g>
		<g>
			<path fill="#9B5D13" d="M61.811,27.417c0.344,0.403,0.948,0.451,1.343,0.109c1.362-1.155,0.928-2.808,0.464-4.016
				c-0.078-0.198-0.156-0.387-0.23-0.555l-0.196-0.482c-0.205-0.586-0.948-0.184-0.598,0.212c0.528,0.593,1.578,2.864,0.577,4.021
				C62.823,27.109,61.811,27.417,61.811,27.417z"/>
		</g>
	</g>
	<g>
		<g>
			<path fill="#E0AB58" d="M46.479,16.87c0.014,0.526,0.45,0.939,0.969,0.93c1.791-0.04,2.502-1.595,2.898-2.83
				c0.063-0.205,0.119-0.397,0.176-0.576l0.149-0.491c0.161-0.5-0.187-0.549-0.603-0.214c-0.621,0.51-1.142,1.937-2.658,2.206
				C46.895,15.982,46.467,16.353,46.479,16.87z"/>
		</g>
		<g>
			<path fill="#9B5D13" d="M47.462,17.789c1.784-0.04,2.49-1.595,2.895-2.829c0.059-0.206,0.119-0.399,0.168-0.576l0.154-0.497
				c0.208-0.58-0.623-0.741-0.604-0.214c0.034,0.792-0.577,3.221-2.088,3.482c-0.519,0.094-1.507-0.305-1.507-0.305
				C46.498,17.38,46.936,17.8,47.462,17.789z"/>
		</g>
	</g>
	<g>
		<g>
			<path fill="#E0AB58" d="M35.83,11.812c-0.803,0.082-2.023,0.988-3.431,0.377c-0.487-0.21-1.046-0.14-1.318,0.299
				c-0.28,0.445-0.143,1.033,0.302,1.315c1.513,0.952,2.956,0.04,3.967-0.772c0.168-0.134,0.324-0.266,0.467-0.381l0.396-0.333
				C36.625,11.99,36.356,11.76,35.83,11.812z"/>
		</g>
		<g>
			<path fill="#9B5D13" d="M35.839,11.805c-0.403,0.68-2.25,2.362-3.664,1.754c-0.484-0.211-1.082-1.081-1.082-1.081
				c-0.28,0.445-0.149,1.036,0.299,1.315c1.513,0.948,2.957,0.039,3.967-0.769c0.171-0.134,0.327-0.262,0.467-0.384l0.393-0.33
				C36.717,11.938,36.113,11.351,35.839,11.805z"/>
		</g>
	</g>
	<g>
		<g>
			<path fill="#E0AB58" d="M61.264,34.424c0.51,0.137,1.036-0.159,1.17-0.668c0.48-1.719-0.81-2.843-1.874-3.581
				c-0.182-0.118-0.351-0.23-0.503-0.332l-0.434-0.283c-0.434-0.302-0.577,0.023-0.379,0.511c0.312,0.748,1.532,1.653,1.355,3.179
				C60.537,33.778,60.768,34.291,61.264,34.424z"/>
		</g>
		<g>
			<path fill="#9B5D13" d="M61.255,34.415c0.51,0.137,1.036-0.159,1.172-0.664c0.469-1.721-0.814-2.849-1.883-3.579
				c-0.173-0.121-0.349-0.237-0.501-0.335l-0.432-0.286c-0.498-0.366-0.881,0.384-0.376,0.511c0.769,0.193,2.919,1.47,2.737,3.001
				C61.914,33.592,61.255,34.415,61.255,34.415z"/>
		</g>
	</g>
	<g>
		<g>
			<path fill="#E0AB58" d="M46.211,12.458c-1.334,0.411-3.153,0.095-3.349-0.455c-0.174-0.5,0.079-0.983-0.408-0.812
				c-0.495,0.175-0.329,0.396-0.16,0.891c0.589,1.683,2.284,1.878,3.583,1.878c0.214,0,0.415-0.002,0.602-0.008l0.515-0.009
				c0.524,0,0.953-0.428,0.953-0.955c0-0.524-0.429-0.955-0.953-0.955L46.211,12.458z"/>
		</g>
		<g>
			<path fill="#9B5D13" d="M42.709,12.458c-0.175-0.5-0.256-1.266-0.256-1.266c-0.495,0.175-0.329,0.396-0.16,0.891
				c0.589,1.683,2.284,1.878,3.583,1.878c0.214,0,0.415-0.002,0.602-0.008l0.515-0.009c0.524,0,0.953-0.428,0.953-0.955
				c0-0.524-0.27,0.186-0.794,0.186l-0.942,0.016C44.877,13.607,42.904,13.007,42.709,12.458z"/>
		</g>
	</g>
	<g>
		<g>
			<path fill="#E0AB58" d="M51.839,17.874c-0.41-0.351-0.512-0.091-0.846,0.314c-1.145,1.378-0.43,2.966,0.254,4.107
				c0.107,0.188,0.214,0.364,0.318,0.528l0.279,0.446c0.276,0.465,0.86,0.618,1.314,0.351c0.455-0.269,0.598-0.86,0.326-1.328
				l-0.773-0.469c-1.051-0.964-1.729-2.728-1.357-3.177C51.694,18.24,52.236,18.215,51.839,17.874z"/>
		</g>
		<g>
			<path fill="#9B5D13" d="M51.839,17.874c-0.41-0.351-0.512-0.091-0.846,0.314c-1.145,1.378-0.43,2.966,0.254,4.107
				c0.107,0.188,0.214,0.364,0.318,0.528l0.279,0.446c0.276,0.465,0.86,0.618,1.314,0.351c0.455-0.269-0.302-0.14-0.574-0.604
				l-0.503-0.821c-1.05-0.96-1.571-2.999-1.195-3.447C51.222,18.337,51.839,17.874,51.839,17.874z"/>
		</g>
	</g>
	<g>
		<g>
			<path fill="#E0AB58" d="M54.788,28.184c0.529-0.042,0.928,0.334,0.885-0.182c-0.032-0.525-0.289-0.425-0.817-0.387
				c-1.774,0.127-2.409,1.716-2.748,2.963c-0.054,0.208-0.106,0.406-0.146,0.582l-0.127,0.504c-0.141,0.509,0.162,1.031,0.669,1.168
				c0.513,0.137,1.034-0.159,1.173-0.672l-0.201-0.865C53.423,29.898,54.204,28.224,54.788,28.184z"/>
		</g>
		<g>
			<path fill="#9B5D13" d="M52.767,31.104c-0.053-1.394,1.039-3.141,1.618-3.187c0.528-0.038,1.288,0.085,1.288,0.085
				c-0.032-0.525-0.289-0.425-0.817-0.387c-1.774,0.127-2.409,1.716-2.748,2.963c-0.054,0.208-0.106,0.406-0.146,0.582l-0.127,0.504
				c-0.141,0.509,0.162,1.031,0.669,1.168c0.513,0.137-0.106-0.309,0.032-0.818L52.767,31.104z"/>
		</g>
	</g>
	<g>
		<g>
			<path fill="#E0AB58" d="M58.404,27.389c0.189-0.345-0.646-1.156-0.646-1.156c-0.524-1.229-0.524-1.229-0.99-1.69
				c0,0-0.508-0.28-0.884-0.344c-0.39-0.064-0.747,0.192-0.819,0.578c-0.221,1.301,0.813,2.037,1.647,2.502
				C56.856,27.352,58.218,27.73,58.404,27.389z"/>
		</g>
		<g>
			<path fill="#9B5D13" d="M55.065,24.776c-0.221,1.301,0.813,2.037,1.647,2.502c0.144,0.074,1.505,0.452,1.691,0.11
				c0.189-0.345-1.426-0.354-1.426-0.354c-0.791-0.081-1.168-0.865-1.288-1.67l0.194-1.166
				C55.495,24.134,55.138,24.39,55.065,24.776z"/>
		</g>
	</g>
	<g>
		<g>
			<path fill="#E0AB58" d="M56.85,34.446c0,0,0.32,0.487,0.63,0.709c0.309,0.232,0.75,0.168,0.985-0.143
				c0.789-1.06,0.203-2.18-0.33-2.976c-0.09-0.13-1.136-1.085-1.461-0.867c-0.32,0.217,0.056,1.324,0.056,1.324
				C56.642,33.83,56.642,33.83,56.85,34.446z"/>
		</g>
		<g>
			<path fill="#9B5D13" d="M57.479,35.156c0.309,0.232,0.75,0.168,0.985-0.143c0.789-1.06,0.203-2.18-0.33-2.976
				c-0.09-0.13-1.136-1.085-1.461-0.867c-0.32,0.217,1.114,0.967,1.114,0.967c0.667,0.427,0.648,1.3,0.391,2.071L57.479,35.156z"/>
		</g>
	</g>
	<g>
		<g>
			<path fill="#E0AB58" d="M53.806,14.982c0.159,0.01,1.551-0.234,1.578-0.625c0.021-0.389-1.084-0.769-1.084-0.769
				c-1.002-0.884-1.002-0.884-1.618-1.095c0,0-0.581-0.045-0.948,0.064c-0.376,0.105-0.588,0.494-0.484,0.868
				C51.603,14.704,52.853,14.921,53.806,14.982z"/>
		</g>
		<g>
			<path fill="#9B5D13" d="M53.806,14.982c0.159,0.01,1.551-0.234,1.578-0.625c0.021-0.389-1.449,0.295-1.449,0.295
				c-0.74,0.261-1.424-0.284-1.876-0.96l-0.325-1.134c-0.376,0.105-0.588,0.494-0.484,0.868
				C51.603,14.704,52.853,14.921,53.806,14.982z"/>
		</g>
	</g>
	<g>
		<g>
			<path fill="#E0AB58" d="M59.187,20.69c0.157-0.017,1.486-0.494,1.442-0.881c-0.039-0.387-1.195-0.572-1.195-0.572
				c-1.135-0.705-1.135-0.705-1.783-0.805c0,0-0.575,0.058-0.919,0.225c-0.351,0.165-0.496,0.588-0.332,0.938
				C56.97,20.788,58.236,20.794,59.187,20.69z"/>
		</g>
		<g>
			<path fill="#9B5D13" d="M59.187,20.69c0.157-0.017,1.486-0.494,1.442-0.881c-0.039-0.387-1.368,0.534-1.368,0.534
				c-0.692,0.388-1.456-0.04-2.017-0.625l-0.513-1.062c-0.351,0.165-0.496,0.588-0.332,0.938
				C56.97,20.788,58.236,20.794,59.187,20.69z"/>
		</g>
	</g>
	<g>
		<g>
			<path fill="#E0AB58" d="M54.521,41.371c0.125-0.093,1.029-1.182,0.792-1.493c-0.233-0.314-1.317,0.115-1.317,0.115
				c-1.339-0.027-1.339-0.027-1.947,0.214c0,0-0.465,0.341-0.68,0.662c-0.214,0.323-0.129,0.76,0.194,0.982
				C52.656,42.585,53.753,41.945,54.521,41.371z"/>
		</g>
		<g>
			<path fill="#9B5D13" d="M54.521,41.371c0.125-0.093,1.029-1.182,0.792-1.493c-0.233-0.314-0.911,1.158-0.911,1.158
				c-0.397,0.687-1.266,0.707-2.047,0.489l-0.986-0.657c-0.214,0.323-0.129,0.76,0.194,0.982
				C52.656,42.585,53.753,41.945,54.521,41.371z"/>
		</g>
	</g>
	<path opacity="0.26" fill="#FFEAC0" d="M49.524,19.361l0.409,0.705c1.119,2.085,0.374,2.514,1.688,4.482
		c0.057-0.86,0.054-1.737-0.105-2.57c-0.189-0.983-0.939-2.056-0.806-3.038c0.562,0.549,1.032,1.402,1.362,2.155
		c-0.199-0.854-0.557-1.811-0.395-2.707c1.02,0.686,1.873,2.161,2.427,3.155c0.095-1.43-0.474-2.29-0.78-3.558
		c1.107,0.098,2.047,0.972,3,1.472c-0.355-0.524-0.83-1.122-0.928-1.757c0.718,0.152,1.401,0.818,2.043,1.068
		c-0.296-0.545-0.792-1.076-1.076-1.622c1.129,0.387,1.989,1.301,2.973,1.901c-0.242-0.679-0.688-1.29-1.078-1.877
		c-0.011-0.003-0.016-0.013-0.021-0.016c-0.044-0.058-0.044-0.058,0.005-0.006c0,0.006,0.007,0.016,0.016,0.022
		c0.863,0.637,1.678,1.241,2.112,2.263c-0.271-1.071-0.642-2.089-1.27-2.981c-0.889-0.56-1.576-1.397-2.494-1.898
		c0.39,0.512,0.808,1.155,0.969,1.725c-0.865-0.113-2.506-0.903-3.071-1.341c0.391,0.715,1.068,1.219,1.414,1.9
		c-0.535-0.088-1.016-0.354-1.382-0.756c0.146,0.201,0.185,0.442,0.272,0.613c-1.242-0.479-2.635-1.36-3.609-2.299
		c0.357,0.757,0.916,1.481,1.4,2.15c-1.195-0.031-1.922-1.318-3.004-1.607c0.185,0.815,1.07,1.442,1.49,2.17
		c-1.004,0.056-1.977-0.795-2.732-1.338c0.565,0.812,1.419,1.485,2.038,2.273c-1.151-0.496-2.541-0.736-3.395-1.705
		C47.487,16.919,49.029,18.846,49.524,19.361z"/>
	<path fill="#FF7F00" d="M28.202,24.991c-1.818-0.604-2.788-1.46-3.443,0.558c-1.296,4.011-1.571,7.514-1.354,10.943l0.334-0.226
		c1.433-1.053,3.395-1.57,5.08-2.071c1.908-0.564,9.375-1.507,11.523-1.503c0.312,0.003,0.367-1.504,0.367-1.504
		c-0.705-1.533-5.905-2.965-7.258-3.772C31.746,26.397,30.071,25.607,28.202,24.991z"/>
	<path opacity="0.65" fill="#FCCB7C" d="M23.633,35.791c-0.088,0.125-0.186,0.241-0.273,0.362c0.006,0.11,0,0.223,0.006,0.34
		l0.334-0.226c0.851-0.625,1.891-1.053,2.95-1.413c3.388-2.963,7.611-4.513,12.048-5.181c-0.663-0.329-1.414-0.646-2.15-0.939
		C31.499,29.762,26.591,31.555,23.633,35.791z"/>
	<path opacity="0.65" fill="#FCCB7C" d="M29.817,25.638c-0.021-0.009-0.039-0.021-0.052-0.024
		C29.788,25.624,29.803,25.628,29.817,25.638z"/>
	<path opacity="0.65" fill="#FCCB7C" d="M29.817,25.638c0.078,0.035,0.178,0.086,0.187,0.083
		C29.947,25.689,29.882,25.666,29.817,25.638z"/>
	<path opacity="0.65" fill="#FCCB7C" d="M24.723,25.549c-0.337,1.03-0.599,2.031-0.803,3.008c1.661-1.818,3.203-2.507,5.825-2.953
		c0.003,0,0.016,0.003,0.02,0.009c-0.521-0.236-1.03-0.49-1.602-0.623C27.534,24.845,24.723,25.549,24.723,25.549z"/>
	<path fill="#E9F4BE" d="M40.803,31.201c-0.016-0.042-0.042-0.083-0.078-0.123c-0.019,0.085-0.038,0.178-0.065,0.27L40.803,31.201z"
		/>
	<path fill="#E9F4BE" d="M40.706,25.221c-0.064-0.448-0.03-0.607-0.289-0.98c-0.189-0.264-0.367-0.526-0.604-0.757
		c-0.396-0.377-1.007-0.997-1.461-1.231c-0.576-0.296-1.553-0.296-2.21-0.333c-0.779-0.036-1.535-0.084-2.316-0.042
		c-1.559,0.079-3.024,0.377-4.516,0.75C28.51,22.83,27.748,23,26.997,23.381c-0.487,0.251-1.683,0.713-1.829,1.266
		c0.058,0.013,0.021-0.003,0.084,0.036c-0.006,0.003,0.027-0.053,0.037-0.053c1.922,0.247,3.553,1.311,5.438,2.109
		c1.663,0.702,3.333,1.388,5.029,1.977c0.882,0.31,1.76,0.68,2.599,1.067c0.481,0.22,0.952,0.497,1.413,0.75
		c0.244,0.134,0.756,0.302,0.958,0.545C41.203,29.218,40.968,27.083,40.706,25.221z"/>
	<path fill="#DBEA86" d="M25.168,24.644c0.058,0.016,0.021-0.003,0.084,0.036c-0.006,0.006,0.027-0.05,0.037-0.053
		c1.589,0.203,2.989,0.962,4.489,1.673c0.299-1.524,0.818-2.9,1.793-4.161c-0.756,0.136-1.51,0.299-2.262,0.489
		C28.51,22.83,27.748,23,26.997,23.381C26.51,23.629,25.314,24.094,25.168,24.644z"/>
	<path fill="#DBEA86" d="M39.757,23.379c-0.823,1.647-2.083,3.07-3.706,3.958c-0.514,0.282-0.968,0.666-1.466,0.98
		c0.445,0.163,0.881,0.338,1.323,0.494c0.883,0.308,1.757,0.676,2.596,1.063c0.483,0.224,0.955,0.5,1.416,0.75
		c0.247,0.138,0.741,0.309,0.942,0.549c0.481-1.856,0.113-3.961-0.152-5.831c-0.062-0.452-0.51-1.541-0.747-1.766
		C39.9,23.519,39.828,23.448,39.757,23.379z"/>
	<path fill="#BFD661" d="M34.024,21.878c-0.068,0-0.131-0.01-0.199,0c-1.072,0.055-2.107,0.231-3.128,0.451
		c-1.384,0.908-2.449,2.317-2.449,3.25c0.808,0.376,1.618,0.792,2.479,1.16C30.813,26.774,30.203,24.309,34.024,21.878z"/>
	<path fill="#BFD661" d="M39.114,22.83c-0.149,1.817-0.92,2.652-2.699,3.775c-0.571,0.357-2.333,0.969-3.184,1.164
		c1.248,0.519,1.257,0.507,2.524,0.947c0.146,0.05,0.282,0.121,0.421,0.176c0.351-0.299,0.696-0.598,1.092-0.854
		c0.732-0.472,2.641-2.489,3.212-3.687c-0.025-0.036-0.038-0.071-0.064-0.11c-0.189-0.264-0.367-0.526-0.604-0.757
		C39.617,23.299,39.37,23.055,39.114,22.83z"/>
	<path fill="#302925" d="M39.12,22.528c-2.453-1.334-9.653-0.965-11.997,0.968c1.241-0.715,4.792-1.104,6.663-1.104
		c1.716,0,4.333-0.14,5.249,0.586c3.583,2.836,1.515,10.994-0.172,12.835C41.575,34.096,42.125,24.159,39.12,22.528z"/>
	<path fill="#302925" d="M24.759,25.549c-0.436,1.474-3.257,10.265-0.366,12.705c1.149,0.967,13.224,0.535,13.801-0.357
		c-0.651-0.124-2.34,0.158-2.983,0.227c-0.656,0.061-10.132,0.613-10.817-0.227c-2.015-2.47,0.11-9.978,0.283-12.022L24.759,25.549z
		"/>
</g>
<g>
	<path fill="#EA6911" d="M55.666,33.377c-2.893,0.771-8.047,1.519-10.178,3.649c4.214,0.714,6.954,7.588,11.118,10.062
		c6.455,3.847,8.525,9.041,12.404,15.113c1.113,1.753,1.635,3.404,3.893,3.486c1.566,0.053,3.68-1.343,5.172-1.753
		c3.027-0.846,6.168-1.9,8.594-4.243c5.834-5.66,6.332-14.259,2.104-20.993c-4.525-7.215-14.027-6.857-21.551-6.857
		C63.16,31.841,59.405,32.38,55.666,33.377z"/>
	<path fill="#FF7F00" d="M43.512,63.944c3.721,4.19,26.188,4.706,30.953,1.388c6.168-4.288,5.854-20.196,1.326-25.698
		c-5.715-6.944-19.209-6.279-27.853-4.139C39.305,37.818,37.864,57.587,43.512,63.944z"/>
	<path fill="#E06410" d="M43.512,63.938c3.491,3.932,23.479,4.631,29.877,1.96c-5.941,1.598-12.61,1.174-19.137,0.732
		c-5.482-0.368-11.609-0.896-13.256-9.854c-1.193-6.505-0.471-13.605,3.756-19.369C39.044,43.081,38.654,58.471,43.512,63.938z"/>
	<path fill="#FFAB57" d="M73.734,65.734c0.271-0.126,0.525-0.261,0.73-0.402c6.168-4.291,5.854-20.202,1.326-25.705
		c-5.715-6.938-19.209-6.272-27.853-4.138c-0.914,0.25-1.744,0.702-2.499,1.306c7.941-3.625,21.996-3.407,27.463,1.062
		C81.102,44.568,79.867,60.588,73.734,65.734z"/>
	<path fill="#FFF4DE" d="M46.497,38.731c-4.586,2.675-5.481,14.396-4.818,18.48c1.316,8.129,11.759,8.831,18.877,8.476
		c5.585-0.283,12.946,0.613,15.046-5.1c1.631-4.417,1.951-13.134-0.393-17.637c-2.488-4.808-7.732-6.165-12.89-6.601
		C57.511,35.948,50.858,35.896,46.497,38.731z"/>
	<path fill="#EDDAC0" d="M45.878,43.025l-0.136-0.134c-2.84,0.257,0.245,6.104,2.222,2.758C46.32,46.238,43.92,44.252,45.878,43.025
		z"/>
	<path fill="#EDDAC0" d="M59.099,45.173c-0.006-0.016-0.006-0.032-0.012-0.046c-0.02,0.04-0.039,0.079-0.059,0.113L59.099,45.173z"
		/>
	<path fill="#EDDAC0" d="M59.087,39.498c0.203-0.494,0.662-1.04,1.176-1.221c0.703-0.244,1.307,0.282,2.057,0.198
		C61.698,36.847,58.394,37.458,59.087,39.498z"/>
	<path fill="#EDDAC0" d="M63.826,41.372l-0.016,0.191c2.045,1.985,4.459-4.174,0.629-3.481
		C65.963,38.939,66.027,42.058,63.826,41.372z"/>
	<path fill="#EDDAC0" d="M71.188,57.102l-0.018,0.199c2.045,1.979,4.457-4.183,0.635-3.488
		C73.324,54.667,73.389,57.788,71.188,57.102z"/>
	<path fill="#EDDAC0" d="M55.455,63.646l-0.018,0.195c2.052,1.979,4.46-4.179,0.635-3.488
		C57.595,61.211,57.655,64.332,55.455,63.646z"/>
	<path fill="#EDDAC0" d="M43.066,56.303c0.136-1.743,2.94-3.108,3.245-0.817l0.18-0.069C47.431,52.728,40.833,53.118,43.066,56.303z
		"/>
	<path fill="#EDDAC0" d="M66.723,64.297c0.141-1.743,2.943-3.108,3.248-0.818l0.184-0.072C71.09,60.719,64.49,61.116,66.723,64.297z
		"/>
	<path fill="#EDDAC0" d="M49.175,39.992c-0.831,1.537,1.79,3.634,2.881,1.784c-0.509,0.167-1.224,0.173-1.693-0.102
		C49.721,41.303,49.727,40.504,49.175,39.992z"/>
	<path fill="#EDDAC0" d="M60.931,62.268c-0.828,1.535,1.789,3.633,2.886,1.78c-0.51,0.171-1.222,0.177-1.694-0.094
		C61.481,63.586,61.483,62.783,60.931,62.268z"/>
	<path fill="#EDDAC0" d="M47.652,61.012c-0.835,1.542,1.788,3.637,2.885,1.782c-0.508,0.169-1.222,0.179-1.695-0.095
		C48.198,62.327,48.205,61.524,47.652,61.012z"/>
	<path fill="#EDDAC0" d="M71.139,46.017c-0.832,1.54,1.791,3.639,2.879,1.782c-0.506,0.171-1.217,0.18-1.693-0.098
		C71.684,47.329,71.691,46.533,71.139,46.017z"/>
	<path fill="#EDDAC0" d="M60.312,52.02l-0.09-0.01c-0.008,0.017-0.018,0.023-0.031,0.04C60.233,52.033,60.274,52.033,60.312,52.02z"
		/>
	<path fill="#EDDAC0" d="M51.294,51.5c-0.006-0.016,0-0.025-0.006-0.039c-0.016,0.03-0.037,0.056-0.05,0.078L51.294,51.5z"/>
	<path fill="#EDDAC0" d="M45.076,59.143c0.179-0.357,0.549-0.751,0.948-0.86c0.537-0.161,0.969,0.268,1.537,0.239
		C47.171,57.263,44.648,57.577,45.076,59.143z"/>
	<path fill="#EDDAC0" d="M59.317,40.647c-0.23,0.333-0.658,0.663-1.064,0.715c-0.551,0.074-0.92-0.407-1.487-0.461
		C56.973,42.201,59.513,42.259,59.317,40.647z"/>
	<path fill="#EDDAC0" d="M73.766,59.795c-0.227,0.331-0.65,0.661-1.059,0.714c-0.557,0.076-0.922-0.406-1.488-0.461
		C71.424,61.347,73.963,61.409,73.766,59.795z"/>
	<path fill="#EDDAC0" d="M53.328,60.405c-0.229,0.33-0.658,0.664-1.061,0.714c-0.555,0.079-0.925-0.409-1.493-0.465
		C50.985,61.959,53.523,62.016,53.328,60.405z"/>
	<path fill="#EDDAC0" d="M69.354,54.966l-0.041-0.057c-0.012,0.006-0.025,0-0.033,0.006C69.303,54.925,69.326,54.95,69.354,54.966z"
		/>
	<path fill="#EDDAC0" d="M47.964,48.388c-0.026-0.012-0.061-0.03-0.085-0.041l0.05,0.052C47.938,48.395,47.955,48.395,47.964,48.388
		z"/>
	<path fill="#EDDAC0" d="M46.097,50.418c-0.497,0.263-1.004-0.064-1.558,0.078c0.646,1.154,3.045,0.325,2.299-1.121
		C46.74,49.77,46.46,50.227,46.097,50.418z"/>
	<path fill="#EDDAC0" d="M68.604,40.678c0.377,0.145,0.789,0.487,0.938,0.87c0.193,0.526-0.193,0.988-0.117,1.556
		C70.645,42.609,70.129,40.122,68.604,40.678z"/>
	<path fill="#EDDAC0" d="M63.629,60.516c0.373,0.148,0.791,0.494,0.938,0.871c0.195,0.525-0.195,0.991-0.123,1.555
		C65.672,62.447,65.152,59.965,63.629,60.516z"/>
	<path fill="#EDDAC0" d="M66.344,44.753c-0.029,0.011-0.066,0.014-0.094,0.026l0.076,0.01C66.33,44.776,66.338,44.767,66.344,44.753
		z"/>
	<path fill="#EDDAC0" d="M53.217,38.345c0.387-0.121,0.922-0.127,1.277,0.078c0.484,0.285,0.475,0.889,0.891,1.279
		C56.021,38.546,54.049,36.951,53.217,38.345z"/>
	<path fill="#EDDAC0" d="M75.559,52.453c0.635-1.156-1.344-2.752-2.17-1.358c0.381-0.121,0.922-0.128,1.277,0.08
		C75.146,51.459,75.143,52.065,75.559,52.453z"/>
	<path fill="#EDDAC0" d="M73.514,43.548c0.49,0.277,0.48,0.884,0.896,1.271c0.637-1.157-1.34-2.749-2.17-1.354
		C72.623,43.34,73.164,43.337,73.514,43.548z"/>
	<path fill="#D65D0B" d="M82.131,51.786c-0.078,0.709-0.121,1.417-0.162,2.134c0.016-0.052,0.02-0.093,0.033-0.144
		c0.283-1.348,0.502-2.543,0.43-3.846C82.309,50.55,82.199,51.166,82.131,51.786z"/>
	<path fill="#D65D0B" d="M78.967,36.728c-0.656-0.637-1.496-1.192-2.424-1.68C77.324,35.74,78.076,36.502,78.967,36.728z"/>
	<path fill="#D65D0B" d="M81.969,53.92c-0.66,3.112-1.297,6.028-1.688,9.184C81.797,60.22,81.801,57.067,81.969,53.92z"/>
	<path fill="#D65D0B" d="M60.647,33.453c-0.135,0-0.266,0-0.395,0l0.279,0.143C60.521,33.543,60.571,33.501,60.647,33.453z"/>
	<path fill="#D65D0B" d="M82.287,45.017c-0.334,0.857-0.215,2.022-0.063,3.098C82.352,47.1,82.416,46.075,82.287,45.017z"/>
	<path fill="#D65D0B" d="M83.732,45.112c-0.248-2.479-0.113-5.465-1.91-7.358c-1.529-1.611-3.248-3.054-5.225-3.974
		c-1.988-0.934-3.977-0.918-6.063-1.331c1.178,0.928,3.369,0.916,4.779,1.681c0.434,0.231,0.832,0.566,1.229,0.917
		c0.928,0.488,1.768,1.043,2.424,1.68c-0.891-0.225-1.643-0.988-2.424-1.68c-2.289-1.21-5.143-1.952-7.334-2.164
		c-1.135-0.11-7.675,0.049-8.562,0.569c4.546,0.013,9.354,0.217,13.671,1.669c1.656,0.557,3.934,1.205,5.158,2.558
		c0.773,0.854,0.754,1.928,0.951,3.021c0.654,3.492,0.352,7.087,0,10.634c-0.271,2.827-0.271,5.806-0.82,8.552
		c-0.119,0.623-0.256,1.195-0.459,1.81c0.938-3.134,2.068-5.993,2.424-9.305c0.16-1.465,0.473-2.866,0.652-4.276
		c-0.152-1.075-0.271-2.241,0.063-3.098c0.129,1.058,0.064,2.083-0.063,3.098c0.07,0.5,0.143,0.983,0.191,1.405
		c0.014,0.14,0.01,0.273,0.016,0.411c0.373-1.9,0.885-3.8,0.838-5.699c-0.148-0.8-0.291-1.592-0.389-2.379
		c0.264,0.792,0.375,1.583,0.389,2.379c0.406,2.144,0.891,4.313,0.861,6.525c-0.037,2.482,0.111,5.931-0.727,8.229
		C85.01,54.647,84.178,49.564,83.732,45.112z"/>
	<path fill="#D65D0B" d="M83.27,44.231c-0.014-0.796-0.125-1.587-0.389-2.379C82.979,42.639,83.121,43.432,83.27,44.231z"/>
	<path fill="#D65D0B" d="M86.598,45.072c-0.254,1.887-0.367,3.837-0.756,5.717c-0.125,0.584-0.217,1.16-0.305,1.74
		c0.248-0.94,0.479-1.87,0.611-2.77C86.338,48.479,86.746,46.624,86.598,45.072z"/>
	<path fill="#D65D0B" d="M84.268,59.279c-0.033-1.307,0.674-2.626,0.857-3.93c0.131-0.954,0.262-1.888,0.412-2.82
		C84.936,54.781,84.197,57.114,84.268,59.279z"/>
	<path fill="#D65D0B" d="M80.299,35.073c-0.494-0.412-0.965-0.77-1.373-1.065C79.309,34.414,79.785,34.755,80.299,35.073z"/>
	<path fill="#D65D0B" d="M87.68,43.87c-0.066,0.578-0.066,1.133-0.029,1.68C87.662,45,87.68,44.439,87.68,43.87z"/>
	<path fill="#D65D0B" d="M79.701,33.946c1.322,0.562,2.42,1.66,3.479,2.773c0.734,0.485,1.381,1.041,1.783,1.8
		c-0.6-0.542-1.186-1.172-1.783-1.8c-0.912-0.601-1.959-1.083-2.881-1.646c2.387,1.963,5.381,5.078,5.252,7.761l-0.146-0.144
		c-0.43,2.476-0.84,5.081-1.139,7.634c0.814-1.8,1.656-5.066,1.744-7.058c0.355,0.489,0.521,1.123,0.588,1.806
		c0.064-0.497,0.135-0.995,0.23-1.488c0.248,5.691,0.104,11.825-1.543,17.428c1.109-2.145,1.514-5.561,1.797-8.086
		c0.275-2.464,0.494-4.885,0.568-7.376c-0.037-0.547-0.037-1.102,0.029-1.68c-0.066,0.578-0.066,1.133-0.029,1.68
		c0.1,1.607,0.523,3.144,0.598,4.813c0.082,1.693-0.67,4.958,0.031,6.354c1.432-2.703,0.449-7.343-0.064-10.194
		c-0.27-1.507-0.469-3.05-0.787-4.545c-0.066-0.317-0.145-0.616-0.236-0.902c0.025,0.095,0.053,0.189,0.068,0.282
		C85.479,38.422,83.451,34.801,79.701,33.946z"/>
	<path fill="#D65D0B" d="M87.191,41.077c-0.426-1.856-1.619-3.781-2.826-5.048C85.496,37.777,86.578,39.104,87.191,41.077z"/>
	<path fill="#D65D0B" d="M83.18,36.719c0.598,0.628,1.184,1.259,1.783,1.8C84.561,37.76,83.914,37.204,83.18,36.719z"/>
	<path fill="#D65D0B" d="M88.564,42.554c0.822,2.619,1.395,5.344,1.395,7.81l-0.857-3.41c0.52,2.926,0.285,5.753,0.285,8.771
		c0.303-3.715,2.6-8.2,0.703-11.992c0.016,0.992,0.006,1.971,0.006,2.959c0.18-3.236-1.887-6.377-3.135-9.491
		C87.814,38.875,87.988,40.7,88.564,42.554z"/>
	<path fill="#D65D0B" d="M68.25,34.731c6.328-0.388,10.314,7.396,11.33,12.647v0.429c0.195-1.492-0.496-4.53-1.256-6.062
		c0.619,1.186,1.309,2.176,1.539,3.459c0.063-2.683-0.82-5.114-1.275-7.585c0.252,1.329,0.408,2.521,0.43,3.895
		c-0.682-1.429-0.986-2.844-1.863-4.176c0.367,1.04,0.721,2.156,1.15,3.172C76.826,37.013,72.148,34.281,68.25,34.731z"/>
	<path opacity="0.26" fill="#FFEAC0" d="M78.537,35.184c0.008,0.004,0.01,0.004,0.014,0.006c0-0.002-0.004-0.006-0.006-0.013
		C78.492,35.125,78.488,35.125,78.537,35.184z"/>
	<path opacity="0.26" fill="#FFEAC0" d="M85.785,38.027c0.008,0.003,0.014,0.01,0.02,0.019c-0.004-0.013-0.01-0.019-0.012-0.024
		C85.74,37.97,85.74,37.97,85.785,38.027z"/>
	<path opacity="0.26" fill="#FFEAC0" d="M86.549,37.143c0.043,0.048,0.084,0.104,0.127,0.162c0.035,0.023,0.07,0.055,0.107,0.075
		C86.701,37.305,86.625,37.22,86.549,37.143z"/>
	<path opacity="0.26" fill="#FFEAC0" d="M76.826,40.297l0.422,0.725c1.15,2.141,0.387,2.584,1.734,4.608
		c0.061-0.886,0.057-1.786-0.109-2.644c-0.195-1.007-0.965-2.114-0.826-3.122c0.576,0.563,1.057,1.438,1.4,2.213
		c-0.205-0.875-0.574-1.859-0.406-2.784c1.045,0.705,1.928,2.226,2.498,3.245c0.102-1.47-0.49-2.352-0.803-3.663
		c1.139,0.107,2.1,1.009,3.086,1.519c-0.367-0.54-0.852-1.152-0.955-1.805c0.738,0.155,1.439,0.835,2.096,1.098
		c-0.295-0.562-0.809-1.104-1.102-1.671c1.156,0.403,2.045,1.338,3.057,1.963c-0.25-0.705-0.711-1.332-1.113-1.933
		c-0.006-0.009-0.012-0.016-0.02-0.019c-0.045-0.057-0.045-0.057,0.008-0.005c0.002,0.005,0.008,0.011,0.012,0.024
		c0.889,0.652,1.729,1.272,2.17,2.322c-0.273-1.101-0.654-2.145-1.299-3.063c-0.914-0.578-1.621-1.437-2.566-1.953
		c0.402,0.527,0.832,1.187,1,1.773c-0.896-0.113-2.582-0.925-3.156-1.383c0.396,0.744,1.094,1.26,1.451,1.958
		c-0.551-0.091-1.045-0.363-1.42-0.777c0.143,0.206,0.186,0.456,0.275,0.63c-1.273-0.49-2.707-1.396-3.709-2.364
		c0.361,0.779,0.938,1.522,1.441,2.208c-1.232-0.03-1.982-1.354-3.096-1.656c0.189,0.845,1.107,1.491,1.535,2.235
		c-1.029,0.055-2.029-0.816-2.811-1.378c0.584,0.835,1.465,1.53,2.096,2.339c-1.184-0.51-2.609-0.757-3.488-1.754
		C74.73,37.78,76.314,39.764,76.826,40.297z"/>
	<path opacity="0.26" fill="#FFEAC0" d="M86.549,37.143c-0.205-0.277-0.43-0.546-0.699-0.793
		C86.066,36.619,86.299,36.886,86.549,37.143z"/>
	<path fill="#F4D99D" d="M55.719,44.289c-0.004-0.009-0.018-0.019-0.027-0.028c-0.072-0.012-0.152-0.041-0.217-0.035L55.719,44.289z
		"/>
	<path fill="#F4D99D" d="M54.854,51.828c-0.049,0.078-0.064,0.149-0.084,0.229c0.004,0.025,0.018,0.051,0.023,0.078L54.854,51.828z"
		/>
	<path fill="#FCC351" d="M49.735,56.964l0.083-0.258c1.856-0.683,3.814-1.02,5.791-1.476c2.278-0.523,4.13-0.781,6.481-0.692
		c1.226,0.05,3.243-0.262,4.587-0.054c0,0,0.709-2.031,0.789-3.448c-3.002-0.175-5.788-0.613-8.747-0.731
		c-1.49-0.058-2.997,0.189-4.491,0.261c-0.719,0.035-1.564,0.139-2.248,0.344c-0.326,0.098-0.612,0.296-0.95,0.369
		c-0.396,0.088-0.73-0.131-1.108,0.174c-0.583,0.478-0.301,1.88-0.274,2.571C49.68,54.879,49.419,56.23,49.735,56.964z"/>
	<path fill="#F4B442" d="M49.596,55.309c-0.03,0.613-0.043,1.236,0.139,1.655l0.083-0.258c1.856-0.683,3.814-1.02,5.791-1.476
		c2.278-0.523,4.13-0.781,6.481-0.692c1.226,0.05,3.243-0.262,4.587-0.054c0,0,0.313-0.905,0.549-1.932
		c-2.541,0.474-5.265,0.395-7.269,0.74c-2.882,0.501-6.55,0.88-9.184,2.089C50.364,55.573,49.596,55.309,49.596,55.309z"/>
	<path fill="#FCD06D" d="M58.757,42.339c-2.442,0-5.247,0.372-7.009,2.249c-0.831,0.887-1.062,2.015-1.295,3.113
		c-0.247,1.16-0.974,2.498-0.783,3.721c0.045,0.295-0.013,0.098,0.091,0.177V51.51c1.112,0.092,2.56-0.314,3.736-0.496
		c2.455-0.385,5.05-0.471,7.534-0.367c2.149,0.09,4.292,0.497,6.278,0.854c0.408-1.246,0.27-2.707,0.27-4.022
		c0-1.373-0.449-2.717-1.209-3.842C65.006,41.617,60.993,42.339,58.757,42.339z"/>
	<path fill="#F4B73D" d="M51.748,44.588c-0.64,0.682-0.919,1.501-1.125,2.346c0.427-0.178,0.853-0.321,1.281-0.406
		c0.271-0.056,0.542-0.074,0.814-0.113c0.42-0.354,0.859-0.701,1.375-1.003c1.629-0.972,3.542-1.401,5.429-1.317
		c1.988-0.919,4.284-1.156,6.577-0.727c-1.545-1.646-5.224-1.028-7.343-1.028C56.314,42.339,53.51,42.71,51.748,44.588z"/>
	<path fill="#F4B73D" d="M53.918,48.155c-1.355,0.61-2.819,1.116-4.165,1.743c-0.048,0.191-0.097,0.384-0.124,0.575
		c0.608-0.356,1.279-0.668,2.015-0.921c5.412-1.86,10.606-2.651,15.822-2.771c-0.02-0.206-0.098-0.397-0.139-0.588
		c-1.768-0.154-4.256-1.007-6.882,0.134c-1.223,0.63-2.537,0.925-3.94,0.89c-0.547,0.074-1.09,0.109-1.645,0.128
		C55.271,47.418,54.965,47.69,53.918,48.155z"/>
	<path fill="#F4B73D" d="M49.669,51.422c0.045,0.295-0.013,0.098,0.091,0.177V51.51c1.112,0.092,2.56-0.314,3.736-0.496
		c2.455-0.385,5.05-0.471,7.534-0.367c2.149,0.09,4.292,0.497,6.278,0.854c0.078-0.24,0.119-0.49,0.164-0.743
		c-5.962-0.244-11.848-0.708-17.797,0.327C49.677,51.195,49.657,51.313,49.669,51.422z"/>
	<path fill="#EFE45E" d="M49.455,56.725l0.034-0.019c0-0.009-0.003-0.019-0.003-0.028C49.422,56.621,49.479,56.706,49.455,56.725z"
		/>
	<path fill="#EFE45E" d="M58.856,53.928c-1.609,0.333-3.286,0.535-4.874,0.981c-0.971,0.276-1.807,0.646-2.719,1.063
		c-0.538,0.249-1.162,0.572-1.729,0.715l-0.046,0.019c0,1.016,0.821,1.997,1.821,2.205c0.5,0.104,0.993,0.038,1.521,0.038
		c0.537,0,1.031,0.101,1.525,0.122c1.41,0.063,2.773-0.085,4.159-0.16c1.572-0.089,3.135,0.075,4.71-0.044
		c0.836-0.063,1.107-0.35,1.504-1.042c0.307-0.528,0.637-1.063,0.918-1.598c0.295-0.544,0.537-1.022,0.744-1.605
		c0.195-0.559,0.537-1.096,0.805-1.646c-0.271-0.099-0.578-0.015-0.852,0C63.875,53.093,61.312,53.432,58.856,53.928z"/>
	<path fill="#E0D84C" d="M60.866,53.609c0,0-0.133,1.262-0.904,2.115c-2.473,2.722-6.888,3.123-7.238,3.227
		c0.042,0,0.071-0.002,0.106-0.002c0.537,0,1.031,0.101,1.525,0.122c1.41,0.063,2.773-0.085,4.159-0.16
		c1.572-0.089,3.135,0.075,4.71-0.044c0.836-0.063,1.107-0.35,1.504-1.042c0.307-0.528,0.637-1.063,0.918-1.598
		c0.295-0.544,0.537-1.022,0.744-1.605c0.195-0.559,0.537-1.096,0.805-1.646c-0.271-0.099-0.578-0.015-0.852,0
		C64.539,53.063,62.69,53.3,60.866,53.609z"/>
	<path fill="#D6CB43" d="M60.647,57.693c-0.719,0.422-3.808,1.129-4.612,1.356c0.844-0.038,1.677-0.099,2.517-0.139
		c1.57-0.089,3.139,0.075,4.71-0.044c0.838-0.063,1.107-0.35,1.502-1.042c0.311-0.528,0.635-1.063,0.922-1.598
		c0.297-0.544,0.541-1.022,0.742-1.605c0.197-0.559,0.539-1.096,0.803-1.646c-0.27-0.099-0.574-0.015-0.846,0
		c-1.309,0.061-2.646,0.196-3.976,0.372C63.85,53.92,62.589,56.555,60.647,57.693z"/>
	<path fill="#C3C64B" d="M61.587,58.892c0.557,0.005,1.115,0.02,1.675-0.024c0.838-0.063,1.107-0.35,1.502-1.042
		c0.311-0.528,0.635-1.063,0.922-1.598c0.297-0.544,0.541-1.022,0.742-1.605c0.197-0.559,0.539-1.096,0.803-1.646
		c-0.27-0.099-0.574-0.015-0.846,0c-1.201,0.059-2.432,0.171-3.653,0.323C68.25,54.087,63.629,58.21,61.587,58.892z"/>
	<path fill="#302925" d="M65.68,42.636c-2.52-1.373-9.926-0.991-12.342,0.998c1.277-0.736,4.931-1.136,6.853-1.136
		c1.764,0,4.456-0.143,5.399,0.605c3.689,2.914,1.559,11.305-0.172,13.2C68.197,54.534,68.768,44.315,65.68,42.636z"/>
	<path fill="#302925" d="M50.913,45.744c-0.455,1.518-3.352,10.559-0.376,13.067c1.178,0.995,13.598,0.551,14.188-0.364
		c-0.664-0.13-2.403,0.162-3.069,0.229c-0.676,0.06-10.417,0.636-11.118-0.229c-2.079-2.54,0.107-10.262,0.288-12.367L50.913,45.744
		z"/>
</g>
</svg>
