<?xml version="1.0" encoding="utf-8"?>
<!-- Generator: Adobe Illustrator 13.0.0, SVG Export Plug-In . SVG Version: 6.00 Build 14948)  -->
<!DOCTYPE svg PUBLIC "-//W3C//DTD SVG 1.1//EN" "http://www.w3.org/Graphics/SVG/1.1/DTD/svg11.dtd">
<svg version="1.1" id="Layer_1" xmlns="http://www.w3.org/2000/svg" xmlns:xlink="http://www.w3.org/1999/xlink" x="0px" y="0px"
	 width="100px" height="100px" viewBox="0 0 100 100" enable-background="new 0 0 100 100" xml:space="preserve">
<g>
	<g>
		<path fill="#F4C76C" d="M20.96,30.933c-2.692,4.575-4.354,9.387-5.361,14.429c-0.943,4.739-2.863,12-2.12,16.893
			c0.154,1.018,0,1.528,0.442,2.412c3.705-2.664,5.767-8.927,7.743-12.975c2.409-4.926,4.125-10.533,7.67-14.789
			c2.974-3.57,6.831-6.815,10.113-10.311c2.542-2.705,7.128-4.448,8.892-7.296l-0.704,0.702
			C38.099,15.245,25.884,22.575,20.96,30.933z"/>
		<g>
			<path fill="#F48053" d="M40.656,34.251c1.281-0.534,2.052-0.837,3.149-1.79c2.418-2.079,3.369-4.668,3.796-7.751
				c0.705-5.069-2.973-11.052-8.38-11.61c-0.6,3.268-0.737,6.811-0.998,10.154c-0.214,2.721-0.214,5.491-0.234,8.211
				c-0.009,1.291-0.449,2.775,0.11,3.94l-0.004,0.218C39.001,35.397,39.798,34.608,40.656,34.251z"/>
			<path fill="#E04F22" d="M40.125,15.079c-0.394-0.094-0.776-0.019-1.259,0.425c-0.313,2.563-0.442,5.213-0.643,7.75
				c-0.214,2.721-0.214,5.491-0.234,8.211c0,0.322-0.032,0.659-0.062,0.996c0.861,0.462,1.772,0.48,2.795-0.39
				c1.953-1.65,3.891-3.643,4.52-4.977c0.626-1.319,0.423-3.736,0.219-5.006c-0.253-1.556-1.149-3.158-1.538-4.316
				C43.1,16.729,41.566,15.429,40.125,15.079z"/>
			<path fill="#F98967" d="M38.223,23.254c-0.148,1.886-0.19,3.794-0.212,5.691c0.245-0.464,0.86-0.59,1.119-0.89
				c1.679-1.957,2.536-4.527,0.94-6.843c-0.448-0.649-0.984-1.235-1.572-1.784C38.401,20.714,38.318,21.996,38.223,23.254z"/>
			<path fill="#FCA08B" d="M40.821,23.382c-0.44-1.783-1.236-1.734-1.955-3.366c-0.088-0.194-0.391-0.271-0.402-0.16
				c-0.083,1.146-0.153,2.279-0.24,3.398c-0.128,1.667-0.174,3.351-0.197,5.031c0.231-0.421,0.627-0.199,0.994-0.509
				c0.282-0.329,0.942-1.949,1.307-2.544c0.034-0.06,0.271-0.233,0.297-0.281c0.037-0.431-0.127-0.38-0.075-0.629
				C40.576,24.193,40.772,23.502,40.821,23.382z"/>
			<path fill="#E04F22" d="M40.656,34.251c1.281-0.534,2.052-0.837,3.149-1.79c2.418-2.079,3.369-4.668,3.796-7.751
				c0.705-5.069-2.973-11.052-8.38-11.61c-0.018,0.101-0.03,0.207-0.052,0.31c0.849,0.077,1.646,0.458,2.224,1.083
				c0.105,0.114,0.194,0.227,0.275,0.346c1.146,0.096,2.22,0.759,2.824,1.831c0.178,0.312,0.389,0.604,0.571,0.915
				c0.179,0.301,0.31,0.621,0.43,0.95c0.641,0.814,1.15,1.762,1.334,2.78c0.088,0.511,0.061,1.021-0.053,1.497
				c0.341,0.86,0.503,1.48,0.508,2.415c0.002,0.594-0.12,1.203-0.251,1.786c-0.188,0.833-0.889,1.587-1.628,1.998
				c-0.512,1.053-1.19,2.009-2.105,2.749c-0.006,0.003-0.013,0.007-0.022,0.012c-0.909,0.872-2.051,1.505-3.089,2.224
				c-0.588,0.406-1.285,0.503-1.968,0.392c-0.115,0.076-0.236,0.147-0.346,0.233c0.043,0.275,0.112,0.54,0.228,0.787l-0.004,0.218
				C39.001,35.397,39.798,34.608,40.656,34.251z"/>
			<path fill="#CC2909" d="M47.276,25.28c-0.005,0.579-0.116,1.169-0.246,1.731c-0.067,0.277-0.2,0.541-0.365,0.799
				c-0.415,1.659-1.405,3.214-2.76,4.248c-0.39,0.447-0.86,0.821-1.44,1.137c-0.408,0.22-0.843,0.378-1.268,0.563
				c-0.268,0.118-0.55,0.199-0.829,0.252c-0.277,0.188-0.668,0.416-0.638,0.394c-0.393,0.288-0.792,0.563-1.202,0.826
				c-0.142,0.089-0.286,0.163-0.43,0.227l-0.002,0.167c0.907-0.228,1.704-1.016,2.561-1.374c1.281-0.534,2.052-0.837,3.149-1.79
				c2.418-2.079,3.369-4.668,3.796-7.751c0.705-5.069-2.973-11.052-8.38-11.61c-0.018,0.085-0.025,0.17-0.039,0.25
				c0.174,0.026,0.355,0.053,0.543,0.104c0.034,0.012,0.067,0.021,0.1,0.034c0.934,0,1.871,0.248,2.609,0.855
				c0.351,0.283,0.668,0.571,0.963,0.874c0.975,0.712,1.819,1.598,2.376,2.613c1.343,1.92,1.887,4.518,1.635,6.779
				C47.382,24.835,47.338,25.063,47.276,25.28z"/>
			<path fill="#F98967" d="M38.883,29.081l-0.038-0.043c0,0.002,0,0.002,0.002,0.007C38.862,29.063,38.873,29.076,38.883,29.081z"/>
			<path fill="#F98967" d="M38.804,28.949c-0.011,0.009,0.015,0.059,0.043,0.096c-0.002-0.005-0.002-0.005-0.002-0.007l0.038,0.043
				c-0.01-0.005-0.021-0.018-0.036-0.037c0.173,0.573,0.378,1.369,0.795,1.811c0.247,0.269,1,0.597,1.227,0.164
				c0.275-0.531-0.497-1.075-0.819-1.333C39.921,29.583,38.949,28.792,38.804,28.949z"/>
			<path fill="#F98967" d="M40.986,20.001l-0.033,0.05c0.002-0.002,0.002-0.002,0.003-0.005
				C40.969,20.028,40.98,20.014,40.986,20.001z"/>
			<path fill="#F98967" d="M41.313,18.727c-0.075,0.15-0.625,1.276-0.433,1.381c0.01,0.011,0.049-0.023,0.077-0.062
				c-0.001,0.002-0.001,0.002-0.003,0.005l0.033-0.05c-0.005,0.013-0.017,0.027-0.03,0.045c0.521-0.299,1.253-0.677,1.588-1.186
				c0.204-0.299,0.354-1.111-0.12-1.231C41.846,17.483,41.489,18.355,41.313,18.727z"/>
			<path fill="#F98967" d="M41.126,27.024l-0.054-0.032c0.004,0.004,0.004,0.007,0.004,0.011
				C41.094,27.012,41.114,27.02,41.126,27.024z"/>
			<path fill="#F98967" d="M41.01,26.932c-0.016,0.011,0.028,0.043,0.066,0.071c0-0.004,0-0.007-0.004-0.011l0.054,0.032
				c-0.013-0.005-0.032-0.013-0.05-0.021c0.38,0.464,0.868,1.122,1.424,1.377c0.329,0.149,1.154,0.169,1.196-0.313
				c0.05-0.598-0.868-0.806-1.263-0.924C42.276,27.093,41.079,26.729,41.01,26.932z"/>
			<path fill="#F98967" d="M42.836,25.529c0.305,0.116,1.044,0.085,1.053-0.353c0.013-0.537-0.825-0.67-1.186-0.754
				c-0.146-0.035-1.238-0.292-1.294-0.101c-0.01,0.013,0.08,0.071,0.117,0.075l-0.056-0.021
				C41.839,24.768,42.32,25.337,42.836,25.529z"/>
			<path fill="#F98967" d="M40.544,17.202c0.054-0.318-0.121-1.041-0.55-0.961c-0.531,0.088-0.499,0.933-0.512,1.307
				c0,0.148-0.041,1.272,0.153,1.289c0.016,0.007,0.055-0.089,0.047-0.128l-0.009,0.053C39.992,18.327,40.452,17.742,40.544,17.202z
				"/>
			<path fill="#F98967" d="M44.212,21.761c0.279-0.161,0.723-0.753,0.387-1.038c-0.409-0.346-1.039,0.218-1.332,0.447
				c-0.114,0.092-1.002,0.78-0.895,0.94c0.007,0.014,0.107-0.014,0.131-0.045l-0.046,0.024
				C42.995,22.057,43.734,22.04,44.212,21.761z"/>
		</g>
		<path fill="#B1BB13" d="M30.575,41.901c4.594,3.204,4.879,0.541,6.138-3.47c0.421-1.348,0.789-4.103,2.245-4.938
			c1.771-1.017,3.027,0.842,4.419-1.199c1.956-2.866-2.275-5.019-4.298-6.366c1.881-3.268-0.879-5.614-4.121-5.158
			c0.146,1.687,0.615,3.563-0.614,4.91c-1.134-0.622-1.542-1.975-1.81-3.13c-0.44,0.724-0.95,1.246-1.096,2.14
			c0-2.675-0.571-7.618-4.058-3.679c-2.349,2.661,2.844,5.718-1.094,7.286c-0.015,1.053-0.521,1.659-1.211,2.299
			c-6.485-6.233-8.979,3.07-3.173,5.747v0.578C25.786,38.016,27.14,39.507,30.575,41.901z"/>
		<path fill="#8AAD09" d="M34.335,27.754c-0.034,0.313-0.014,0.643,0.037,0.976C34.415,28.468,34.413,28.148,34.335,27.754z"/>
		<path fill="#8AAD09" d="M27.627,35.517c-2.153,0.995-4.215-3.463-6.54-3.766c-0.076,1.951,3.098,4.894,4.28,5.745
			c2.338,1.691,4.217,2.361,5.787,5.208l0.869,1.158c3.889,2.685,3.96-2.822,4.28-5.142c0.291-2.105,0.032-6.106,2.68-7.051
			c-0.807-1.384-0.288-4.366-0.888-5.911c-1.723,1.504-1.059,4.444-1.799,6.506c-0.919-0.773-1.729-2.188-1.924-3.534
			c-0.292,1.683-2.757,0.607-2.349-1.682c0.205-0.301-0.479,0.53-0.507,0.575c-0.327-0.788-0.767-1.577-0.861-2.454
			c-1.53,1.38,0.122,4.158,0.515,5.952c0.501,2.27,2.598,4.456,2.833,6.624c-0.751-0.321-1.246-0.092-1.918-0.788
			c-0.171,0.382-0.48,0.719-0.64,1.084c-1.405-1.345-3.098-4.592-3.534-6.592c-2.735,2.153,0.925,3.604,1.456,5.723
			C28.93,36.643,28.087,36.173,27.627,35.517z"/>
		<path fill="#8AAD09" d="M39.802,31.478c-0.305,0.033-0.572,0.103-0.82,0.192c0.076,0.14,0.169,0.269,0.277,0.371
			C39.264,32.035,39.8,31.478,39.802,31.478z"/>
		<g>
			<path fill="#FFD215" d="M27.159,36.711c-1.385-0.769-2.481-1.214-4.035-0.985c-2.222,0.321-5.678,0.389-7.383-1.6
				c-0.24,4.097-2.576,6.712-3.057,10.672c-0.221,1.824-0.359,3.739-1.287,5.294c-1.004,1.684-2.275,4.172-0.864,5.971
				c3.286-2.949,6.641-6.685,9.911-9.438c1.842-1.549,4.278-3.897,6.19-5.173c1.41-0.94,3.668-1.416,3.556-2.707l-0.121-0.123
				C29.87,37.941,27.904,37.127,27.159,36.711z"/>
			<path fill="#FCE665" d="M27.159,36.711c-1.385-0.769-2.481-1.214-4.035-0.985c-2.222,0.321-5.678,0.389-7.383-1.6
				c-0.24,4.097-2.576,6.712-3.057,10.672c-0.221,1.824-0.359,3.739-1.287,5.294c-1.004,1.684-2.275,4.172-0.864,5.971
				c0.05-0.041,0.098-0.091,0.142-0.132c1.604-5.53,5.368-10.542,5.302-16.449c-0.014-1.546,1.408-2.299,2.766-2.107
				c3.712,0.52,8.143-0.746,10.935,2.397c0.342-0.29,0.544-0.619,0.512-1.026l-0.121-0.123
				C29.87,37.941,27.904,37.127,27.159,36.711z"/>
			<g>
				<path fill="#FCE665" d="M22.722,40.603c-1.051,3.108,2.635,1.381,3.416-0.286C27.081,37.686,23.403,38.574,22.722,40.603z"/>
				<path fill="#E5BB0A" d="M22.648,40.652c-0.966,2.858,2.422,1.268,3.142-0.264C26.66,37.967,23.279,38.785,22.648,40.652z"/>
			</g>
			<g>
				<path fill="#FCE665" d="M16.21,45.46c-0.167,2.392,2.119,0.494,2.364-0.829C18.758,42.599,16.322,43.903,16.21,45.46z"/>
				<path fill="#E5BB0A" d="M16.167,45.51c-0.154,2.197,1.949,0.451,2.174-0.767C18.511,42.874,16.271,44.075,16.167,45.51z"/>
			</g>
			<g>
				<path fill="#FCE665" d="M17.51,39.203c-0.439,1.553,1.33,0.611,1.671-0.229C19.581,37.66,17.796,38.188,17.51,39.203z"/>
				<path fill="#E5BB0A" d="M17.476,39.23c-0.404,1.428,1.222,0.561,1.541-0.211C19.379,37.808,17.737,38.295,17.476,39.23z"/>
			</g>
		</g>
		<g>
			<path fill="#A16DAD" d="M26.937,42.65c-3.225,0.1-5.955,1.226-8.431,3.292c-1.174,0.979-6.411,5.639-3.822,8.612
				c1.753,0.333,4.207-1.551,6.192-2.566c2.837-1.446,4.739-3.048,6.886-5.394c0.444-0.483,2.4-2.144,2.351-2.849
				C30.023,42.547,27.861,42.623,26.937,42.65z"/>
			<path fill="#894899" d="M19.16,48.993c1.307-1.309,4.067-2.517,5.378-3.833c0.345-0.355,3.989-2.186,3.438-2.353
				c-1.563-0.469-1.605,0.874-2.378,0.93c-0.136,0.013-0.366-0.586-0.438-0.708c-0.273,0.09-0.065,0.509-0.323,0.595
				c-0.032,0.425-0.904-0.808-0.739-0.27c-0.092-0.012-0.092,0.688-0.193,0.632c0.027,0.068-0.654,0.052-0.639,0.101
				c-0.178,0.022-0.116,0.397-0.221,0.239c0.078,0.135-0.429,0.215-0.41,0.354c-0.479-0.063-0.44-0.385-0.826-0.567
				c0.095,0.288-0.174,0.621-0.073,0.93c-0.134-0.004-0.313-0.044-0.354-0.113c0.041,0.069-0.316,0.316-0.279,0.389
				c-0.084-0.033-0.366-0.394-0.437-0.416c0.002,0.043,0.002,0.67,0.006,0.714c-0.056-0.042-0.2-0.069-0.262-0.123
				c-0.063,0.146,0.018,0.308,0.08,0.459c-0.033-0.025-0.112-0.06-0.16-0.096c0.026,0.064,0.018,0.183,0.055,0.267
				c-0.374,0.131-0.574-0.189-0.714-0.494c-0.041,0.277,0.014,0.625,0.121,0.904c-0.38-0.011-0.734-0.226-1.042-0.458
				c-0.027,0.234,0.158,0.533,0.238,0.771c-0.139,0.066-0.294,0.073-0.434,0.092c0.036,0.098,0.004,0.212,0.064,0.313
				c-0.137,0.032-0.289-0.025-0.429-0.092c-0.002,0.103-0.047,0.172,0.023,0.3c-0.056-0.03-0.178-0.023-0.221-0.038
				c0.043,0.113,0.016,0.227,0.078,0.348c-0.052,0.005-0.234,0.012-0.256,0.008c-0.261-0.085-0.533-0.316-0.629-0.571
				c0.082,0.417,0.26,0.939,0.359,1.341c-0.387-0.198-0.66-0.233-0.911-0.628c0.078,0.375,0.288,0.739,0.35,1.113
				c-0.357-0.1-0.473-0.389-0.625-0.696c-0.031,0.329,0.341,0.919,0.144,1.136c0.036,0.13-0.018,0.185-0.036,0.302
				c-0.206-0.066-0.333,0.071-0.284,0.292c-0.045-0.024-0.144-0.033-0.189-0.06c-0.058,0.13-0.006,0.281,0.064,0.416
				c-0.148-0.066-0.264-0.204-0.394-0.325c-0.141,0.233,0.16,0.456,0.057,0.687c-0.236-0.105-0.408-0.327-0.557-0.52
				c0.01,0.282,0.202,0.596,0.29,0.875c-0.268-0.215-0.401-0.597-0.685-0.779c0.05,0.12,0.104,0.231,0.166,0.341
				c0.009,0.008,0.013,0.015,0.018,0.026c0.01,0.033,0.01,0.033-0.002,0.007c-0.005-0.011-0.009-0.021-0.016-0.033
				c-0.007-0.006-0.015-0.006-0.028,0.008c-0.017,0.418,0.156,0.896,0.268,1.295c-0.156-0.06-0.261-0.207-0.41-0.279
				c-0.053,0.147,0.002,0.329,0.011,0.484c-0.329-0.031-0.198,0.331-0.11,0.527c-0.037-0.037-0.137-0.089-0.191-0.141
				c-0.083,0.161,0.028,0.393,0.071,0.57c-0.071-0.043-0.21-0.074-0.279-0.134c0.052,0.099,0.063,0.239,0.116,0.337
				c-0.118-0.06-0.283-0.222-0.32-0.267c0.176,0.515,0.196,0.903,0.606,1.315l-0.032-0.079c0.284-0.109,0.52-0.308,0.724-0.533
				C16.68,52.325,17.721,50.441,19.16,48.993z"/>
			<path fill="#894899" d="M14.947,50.737c0.012,0.026,0.012,0.026,0.002-0.007c-0.004-0.012-0.009-0.019-0.018-0.026
				C14.938,50.717,14.942,50.727,14.947,50.737z"/>
			<path fill="#C1AFDB" d="M27.417,43.875c-3.223,0.099-5.954,1.229-8.431,3.293c-1.173,0.98-5.962,6.288-3.964,7.802
				c1.758,0.335,4.349-0.74,6.333-1.756c2.838-1.45,4.737-3.045,6.886-5.391c0.445-0.488,2.402-2.149,2.353-2.852
				C30.504,43.773,28.34,43.849,27.417,43.875z"/>
			<path fill="#CBBCE2" d="M27.38,44.707c-2.952,0.148-5.47,1.188-7.778,3.035c-1.093,0.877-5.577,5.603-3.778,6.883
				c1.6,0.257,3.991-0.736,5.827-1.652c2.625-1.323,4.398-2.755,6.405-4.842c0.421-0.431,2.245-1.917,2.208-2.532
				C30.207,44.558,28.225,44.663,27.38,44.707z"/>
			<path fill="#DBCEF4" d="M22.119,53.063c2.46-1.238,4.123-2.576,6.007-4.54c0.392-0.405,2.104-1.799,2.071-2.374
				c-0.054-0.978-1.913-0.878-2.705-0.835c-2.77,0.139-5.135,1.11-7.297,2.846c-1.026,0.82-5.229,5.251-3.543,6.454l-0.135,0.054
				C18.017,54.909,20.398,53.931,22.119,53.063z"/>
			<path fill="#DED8EF" d="M22.49,53.352c2.346-1.179,3.927-2.457,5.721-4.322c0.374-0.385,2.002-1.714,1.975-2.263
				c-0.051-0.93-1.822-0.835-2.577-0.797c-2.638,0.133-4.888,1.06-6.948,2.712c-0.975,0.784-4.982,5.005-3.375,6.148l-0.128,0.05
				C18.588,55.109,20.854,54.175,22.49,53.352z"/>
			<path fill="#BA793E" d="M25.429,49.644c-0.011,0.023-0.021,0.036-0.033,0.054c0.002,0.102-0.002,0.203-0.002,0.321L25.429,49.644
				z"/>
		</g>
		<path fill="#428C1F" d="M52.584,18.943c0.254-1.467,0.458-6.714-0.688-3.46c-0.468-1.137-2.348,2.801-3.652,2.632
			c0.75-1.719-0.689-3.296-2.478-2.936c-0.077,1.563,1.794,2.979,1.341,4.533c-0.465,1.606-3.021,1.922-3.868,0.49
			c-1.421,1.686,0.684,1.402,1.062,2.249c0.627,1.412-0.129,3.593,1.036,2.863c2.616-1.635,6.587,1.443,7.058-3.923
			c1.092,0.627,4.62,0.958,3.128,2.672c3.085-0.696,2.181-3.585,2.362-5.12C58.155,16.684,54.521,19.167,52.584,18.943z"/>
		<path fill="#428C1F" d="M69.933,22.467c0.002,0,0.005,0,0.007,0.002c0.043,0.021,0.089,0.045,0.132,0.064L69.933,22.467z"/>
		<path fill="#428C1F" d="M68.681,14.511c-0.739,0.822-1.838,2.354-2.618,0.577c-0.789,1.203,0.144,3.519-1.597,3.732
			c-0.294-0.703-0.306-1.646-0.504-2.361c-0.705,0.778-1.611,1.495-2.689,1.169c0.615,1.143,2.156,2.071,1.867,3.416
			c-0.235,0.047-0.466,0.116-0.662,0.162c0.812,2.202,2.014,0.629,2.642,1.311c0.966,1.044,0.238,2.259-0.998,2.522
			c1.063,2.181,3.778,1.117,3.447-1.147c-0.022,0.2,0.274-0.54-0.504-0.896c-0.414-1.48,1.444-1.227,2.875-0.524
			c-0.002-0.002-0.005-0.002-0.007-0.002l0.139,0.067c-0.043-0.019-0.089-0.043-0.132-0.064c1.393,0.847,2.97-0.389,2.077-2
			c-1.022-1.837-2.828,0.533-3.682-1.122c0.279-0.15,0.564-0.404,0.854-0.569C68,17.747,69.708,15.899,68.681,14.511z"/>
		<g>
			<path fill="#F48053" d="M27.163,34.684c-1.192-0.872-2.28-2.275-3.734-2.531l-0.2-0.151c-0.4,0.996-0.192,2.264-0.435,3.3
				c-0.362,1.545-0.594,2.463-0.446,4.12c0.32,3.638,2.091,6.252,4.669,8.708c4.242,4.045,12.259,4.618,16.389-0.031
				c-2.634-2.742-5.835-5.238-8.769-7.712C32.249,38.373,29.681,36.519,27.163,34.684z"/>
			<path fill="#E04F22" d="M27.163,34.684c-0.3-0.219-0.591-0.468-0.886-0.726c-1,0.49-1.623,1.328-1.503,2.86
				c0.23,2.917,0.782,6.049,1.603,7.523c0.81,1.461,3.187,2.894,4.51,3.551c1.613,0.804,3.702,1.039,5.038,1.455
				c1.517-0.068,3.751-0.627,5.042-1.732c0.348-0.3,0.533-0.709,0.442-1.456c-2.172-2.001-4.545-3.894-6.772-5.773
				C32.249,38.373,29.681,36.519,27.163,34.684z"/>
			<path fill="#F98967" d="M29.57,38.022c0.698,2.865,2.513,5.377,5.729,5.444c0.9,0.018,1.807-0.094,2.709-0.269
				c-1.128-0.947-2.267-1.88-3.372-2.812c-1.652-1.394-3.398-2.711-5.147-3.996C29.758,36.922,29.464,37.578,29.57,38.022z"/>
			<path fill="#FCA08B" d="M31.396,41.022c0.033,0.071,0.036,0.408,0.06,0.46c0.373,0.323,0.438,0.133,0.634,0.351
				c0.103,0.115,0.616,0.758,0.694,0.883c1.949,0.779,2.435,0.012,4.432,0.431c0.238,0.05,0.514-0.18,0.417-0.264
				c-1.007-0.842-2.014-1.672-2.996-2.496c-1.462-1.238-2.996-2.402-4.545-3.547c0.238,0.499-0.23,0.715-0.192,1.268
				C30.019,38.588,31.082,40.281,31.396,41.022z"/>
			<path fill="#E04F22" d="M24.297,32.943c0.006-0.157,0.023-0.32,0.014-0.479c-0.283-0.144-0.573-0.255-0.883-0.312l-0.2-0.151
				c-0.4,0.996-0.192,2.264-0.435,3.3c-0.362,1.545-0.594,2.463-0.446,4.12c0.32,3.638,2.091,6.252,4.669,8.708
				c4.242,4.045,12.259,4.618,16.389-0.031c-0.084-0.085-0.171-0.17-0.254-0.255c-0.636,0.735-1.524,1.225-2.492,1.343
				c-0.174,0.021-0.339,0.028-0.501,0.024c-0.86,1.005-2.189,1.553-3.59,1.401c-0.408-0.046-0.82-0.04-1.234-0.083
				c-0.396-0.036-0.781-0.126-1.168-0.235c-1.182,0.055-2.404-0.107-3.474-0.615c-0.538-0.258-0.989-0.628-1.361-1.055
				c-1.023-0.25-1.706-0.52-2.58-1.136c-0.557-0.396-1.039-0.917-1.49-1.427c-0.648-0.732-0.883-1.888-0.769-2.847
				c-0.636-1.177-1.074-2.449-1.149-3.795c0.002-0.006,0.002-0.015,0.002-0.029c-0.2-1.424-0.027-2.913-0.002-4.357
				C23.36,34.218,23.737,33.502,24.297,32.943z"/>
			<path fill="#CC2909" d="M22.888,36.129c0.071-0.327,0.184-0.641,0.323-0.936c0.01-0.382,0.057-0.901,0.057-0.86
				c-0.002-0.557,0.009-1.11,0.04-1.665c0.011-0.194,0.039-0.375,0.073-0.553l-0.151-0.115c-0.4,0.996-0.192,2.264-0.435,3.3
				c-0.362,1.545-0.594,2.463-0.446,4.12c0.32,3.638,2.091,6.252,4.669,8.708c4.242,4.045,12.259,4.618,16.389-0.031
				c-0.067-0.073-0.138-0.138-0.207-0.208c-0.136,0.153-0.286,0.299-0.457,0.437c-0.03,0.025-0.064,0.048-0.096,0.075
				c-0.627,0.865-1.484,1.57-2.541,1.854c-0.499,0.131-0.977,0.239-1.458,0.308c-1.313,0.433-2.696,0.627-4.014,0.463
				c-2.68-0.035-5.461-1.267-7.393-3.011c-0.196-0.178-0.377-0.368-0.533-0.571c-0.54-0.389-1.009-0.888-1.446-1.384
				c-0.217-0.247-0.375-0.549-0.505-0.87c-1.261-1.492-2.046-3.456-2.097-5.403c-0.156-0.661-0.188-1.352-0.094-2.101
				C22.63,37.159,22.776,36.649,22.888,36.129z"/>
			<path fill="#F98967" d="M28.847,37.099c-0.002-0.002-0.002-0.002-0.004,0c-0.03,0-0.049,0.001-0.062,0.006L28.847,37.099z"/>
			<polygon fill="#F98967" points="28.843,37.099 28.845,37.099 28.847,37.099 			"/>
			<path fill="#F98967" d="M28.843,37.099c-0.65-0.226-1.525-0.563-2.218-0.473c-0.414,0.051-1.225,0.533-0.971,1.029
				c0.312,0.61,1.332,0.257,1.785,0.131c0.183-0.054,1.567-0.425,1.515-0.668c0-0.016-0.058-0.021-0.11-0.019l-0.064,0.006
				C28.794,37.1,28.813,37.099,28.843,37.099z"/>
			<path fill="#F98967" d="M35.815,45.13l-0.022-0.068c0,0.004,0,0.006,0,0.01C35.798,45.096,35.807,45.117,35.815,45.13z"/>
			<path fill="#F98967" d="M35.834,47.338c0.142,0.389,0.797,1.07,1.222,0.709c0.523-0.439-0.053-1.354-0.279-1.769
				c-0.09-0.165-0.765-1.431-0.991-1.323c-0.014,0.002-0.012,0.062,0.006,0.115c0-0.003,0-0.006,0-0.01l0.022,0.068
				c-0.009-0.013-0.018-0.034-0.022-0.059C35.725,45.752,35.587,46.681,35.834,47.338z"/>
			<path fill="#F98967" d="M29.255,40.535c-0.002,0-0.006,0-0.006-0.002c-0.024,0.012-0.043,0.021-0.054,0.034L29.255,40.535z"/>
			<path fill="#F98967" d="M29.255,40.535l-0.06,0.032c0.011-0.013,0.03-0.022,0.054-0.034c-0.688,0.042-1.625,0.058-2.235,0.403
				c-0.359,0.206-0.927,0.956-0.504,1.322c0.518,0.446,1.328-0.267,1.699-0.555c0.153-0.118,1.293-0.984,1.152-1.19
				c-0.007-0.015-0.066,0-0.112,0.02C29.25,40.535,29.253,40.535,29.255,40.535z"/>
			<path fill="#F98967" d="M31.424,42.659c0,0-0.002,0-0.007,0c-0.021,0.011-0.037,0.022-0.045,0.035L31.424,42.659z"/>
			<path fill="#F98967" d="M31.417,42.659c0.005,0,0.007,0,0.007,0l-0.052,0.035C31.38,42.681,31.396,42.67,31.417,42.659
				c-0.61,0.075-1.452,0.146-1.979,0.494c-0.307,0.202-0.773,0.911-0.374,1.215c0.492,0.367,1.177-0.32,1.495-0.6
				c0.126-0.112,1.099-0.955,0.957-1.135C31.514,42.623,31.46,42.638,31.417,42.659z"/>
			<path fill="#F98967" d="M38.713,46.586c0.26,0.263,1.047,0.585,1.261,0.132c0.267-0.553-0.539-1.087-0.877-1.347
				c-0.133-0.104-1.149-0.893-1.297-0.721c-0.017,0.01,0.047,0.115,0.086,0.13l-0.045-0.045
				C38.036,45.32,38.269,46.14,38.713,46.586z"/>
			<path fill="#F98967" d="M32.882,45.16l0.007-0.064c0,0.002-0.002,0.004-0.004,0.004C32.88,45.124,32.88,45.146,32.882,45.16z"/>
			<path fill="#F98967" d="M32.93,45.007c-0.016-0.004-0.035,0.05-0.045,0.093c0.002,0,0.004-0.002,0.004-0.004l-0.007,0.064
				c-0.002-0.014-0.002-0.037,0.003-0.06c-0.325,0.524-0.8,1.22-0.862,1.847c-0.036,0.37,0.22,1.18,0.708,1.055
				c0.595-0.148,0.492-1.111,0.474-1.536C33.196,46.299,33.149,45.014,32.93,45.007z"/>
		</g>
		<g>
			<path fill="#F48053" d="M51.991,32.553c2.692-1.867,5.253-4.245,7.756-6.403c2.041-1.753,3.969-3.685,5.871-5.573
				c0.906-0.894,2.245-1.625,2.665-2.828l0.154-0.146c-0.792-0.477-1.896-0.477-2.745-0.825c-1.262-0.518-2.012-0.838-3.442-0.941
				c-3.133-0.229-5.599,0.921-8.04,2.776C50.19,21.667,48.605,28.402,51.991,32.553z"/>
			<path fill="#E04F22" d="M53.883,21.934c-0.905,1.264-1.392,3.004-1.928,4.085c-0.149,1.298,0.02,3.272,0.779,4.524
				c0.211,0.335,0.53,0.549,1.179,0.574c1.999-1.571,3.937-3.33,5.834-4.968c2.041-1.753,3.969-3.685,5.871-5.573
				c0.227-0.224,0.48-0.437,0.74-0.649c-0.284-0.922-0.907-1.562-2.226-1.669c-2.508-0.206-5.252-0.167-6.617,0.33
				C56.166,19.077,54.623,20.902,53.883,21.934z"/>
			<path fill="#F98967" d="M56.896,28.633c0.96-0.832,1.911-1.671,2.851-2.483c1.413-1.211,2.774-2.516,4.106-3.829
				c-0.492,0.158-1.011-0.185-1.4-0.155c-2.531,0.201-4.917,1.402-5.412,4.128C56.903,27.058,56.87,27.841,56.896,28.633z"/>
			<path fill="#FCA08B" d="M59.252,23.296c-0.325,0.277-0.174,0.354-0.383,0.492c-0.112,0.071-0.731,0.418-0.844,0.471
				c-0.937,1.549-0.346,2.064-0.975,3.708c-0.073,0.196,0.082,0.458,0.165,0.389c0.855-0.741,1.695-1.484,2.531-2.206
				c1.251-1.072,2.457-2.218,3.64-3.375c-0.46,0.133-0.578-0.296-1.049-0.337c-0.427,0.032-2.013,0.707-2.686,0.87
				C59.589,23.327,59.3,23.284,59.252,23.296z"/>
			<path fill="#E04F22" d="M51.029,25.358c0.087-0.332,0.216-0.647,0.364-0.961c0.114-1.011,0.419-2.03,0.998-2.868
				c0.289-0.423,0.668-0.757,1.08-1.011c0.356-0.838,0.675-1.38,1.321-2.04c0.413-0.421,0.919-0.759,1.413-1.07
				c0.714-0.453,1.728-0.492,2.528-0.268c1.088-0.379,2.229-0.576,3.385-0.454c0.004,0.003,0.014,0.003,0.019,0.003
				c1.24,0.024,2.485,0.379,3.707,0.596c0.691,0.125,1.247,0.539,1.646,1.095c0.136,0.027,0.268,0.062,0.405,0.076
				c0.159-0.217,0.299-0.449,0.388-0.707l0.154-0.146c-0.792-0.477-1.896-0.477-2.745-0.825c-1.262-0.518-2.012-0.838-3.442-0.941
				c-3.133-0.229-5.599,0.921-8.04,2.776c-4.02,3.053-5.604,9.789-2.219,13.939c0.086-0.06,0.166-0.125,0.253-0.183
				c-0.541-0.64-0.833-1.463-0.804-2.303c0.012-0.151,0.026-0.292,0.053-0.432c-0.738-0.866-1.022-2.071-0.702-3.24
				C50.888,26.056,50.938,25.701,51.029,25.358z"/>
			<path fill="#CC2909" d="M54.274,18.821c0.179-0.142,0.364-0.269,0.562-0.374c0.404-0.408,0.892-0.737,1.37-1.04
				c0.243-0.151,0.521-0.245,0.813-0.307c1.444-0.87,3.217-1.27,4.882-1.045c0.583-0.046,1.171,0.024,1.796,0.205
				c0.44,0.126,0.854,0.318,1.276,0.485c0.271,0.105,0.524,0.243,0.756,0.401c0.32,0.063,0.759,0.171,0.723,0.166
				c0.468,0.075,0.943,0.161,1.409,0.261c0.163,0.035,0.313,0.084,0.459,0.14l0.118-0.111c-0.792-0.477-1.896-0.477-2.745-0.825
				c-1.262-0.518-2.012-0.838-3.442-0.941c-3.133-0.229-5.599,0.921-8.04,2.776c-4.02,3.053-5.604,9.789-2.219,13.939
				c0.068-0.05,0.138-0.101,0.205-0.146c-0.109-0.142-0.211-0.288-0.309-0.451c-0.017-0.03-0.032-0.062-0.049-0.094
				c-0.651-0.649-1.135-1.473-1.228-2.412c-0.044-0.44-0.072-0.863-0.062-1.282c-0.188-1.176-0.166-2.377,0.154-3.477
				C51.1,22.417,52.525,20.225,54.274,18.821z"/>
			<path fill="#F98967" d="M63.335,21.681c0.002-0.004,0.002-0.004,0-0.004c0.005-0.025,0.007-0.042,0.002-0.055L63.335,21.681z"/>
			<path fill="#F98967" d="M63.306,21.767c0.01,0.004,0.026-0.047,0.029-0.091c0.002,0,0.002,0,0,0.004l0.002-0.06
				c0.005,0.013,0.003,0.03-0.002,0.055c0.283-0.522,0.688-1.22,0.709-1.822c0.011-0.358-0.283-1.113-0.746-0.964
				c-0.561,0.181-0.396,1.096-0.353,1.498C62.964,20.551,63.092,21.778,63.306,21.767z"/>
			<path fill="#F98967" d="M55.617,26.493c-0.006,0-0.006,0-0.008-0.003c-0.021,0.003-0.04,0.008-0.052,0.01L55.617,26.493z"/>
			<path fill="#F98967" d="M55.617,26.493l-0.06,0.007c0.012-0.002,0.03-0.007,0.052-0.01c-0.57-0.151-1.345-0.394-1.936-0.271
				c-0.349,0.066-1.017,0.53-0.77,0.943c0.301,0.503,1.156,0.14,1.54,0.004c0.158-0.056,1.322-0.456,1.265-0.666
				c0-0.01-0.054-0.015-0.1-0.01C55.611,26.493,55.611,26.493,55.617,26.493z"/>
			<path fill="#F98967" d="M60.362,21.552c-0.01-0.021-0.012-0.039-0.023-0.05l0.019,0.057
				C60.357,21.554,60.357,21.552,60.362,21.552z"/>
			<path fill="#F98967" d="M60.325,19.597c-0.126-0.335-0.687-0.919-1.053-0.61c-0.453,0.377,0.043,1.165,0.235,1.521
				c0.081,0.146,0.662,1.236,0.854,1.14c0.013-0.004,0.01-0.056,0-0.096c-0.005,0-0.005,0.002-0.005,0.007l-0.019-0.057
				c0.012,0.011,0.014,0.028,0.023,0.05C60.419,20.961,60.536,20.165,60.325,19.597z"/>
			<path fill="#F98967" d="M58.257,23.11L58.257,23.11c-0.008-0.018-0.012-0.041-0.02-0.052L58.257,23.11z"/>
			<path fill="#F98967" d="M58.107,21.357c-0.133-0.293-0.67-0.787-0.979-0.489c-0.379,0.37,0.109,1.045,0.304,1.354
				c0.08,0.124,0.663,1.063,0.834,0.971c0.009-0.005,0.003-0.044-0.01-0.083l0,0l-0.02-0.052c0.008,0.011,0.012,0.034,0.02,0.052
				C58.275,22.58,58.336,21.852,58.107,21.357z"/>
			<path fill="#F98967" d="M53.921,28.767c-0.26,0.184-0.641,0.808-0.289,1.055c0.437,0.303,1.005-0.31,1.271-0.56
				c0.104-0.102,0.913-0.858,0.791-1.004c-0.007-0.015-0.105,0.025-0.124,0.057l0.046-0.031
				C55.089,28.365,54.361,28.451,53.921,28.767z"/>
			<path fill="#F98967" d="M54.531,23.03c-0.31-0.082-1.034,0.025-0.995,0.458c0.042,0.524,0.876,0.57,1.237,0.614
				c0.15,0.016,1.246,0.151,1.286-0.034c0.002-0.015-0.092-0.064-0.126-0.063l0.05,0.014C55.586,23.673,55.055,23.168,54.531,23.03z
				"/>
		</g>
		<g>
			<path fill="#FF6C39" d="M34.539,34.294c-0.485,1.446-0.737,4.916-0.428,6.497c0.248,1.249,1.659,4.355,3.176,4.28
				c1.513-1.227,3.343-5.259,3.653-7.438c0.449-3.173-0.916-6.634,0.062-9.642C38.514,26.676,35.166,32.413,34.539,34.294z"/>
			<path opacity="0.45" fill="#F99F87" d="M36.598,35.118c0.097-0.127,0.175-0.23,0.238-0.311c0.019-0.387,0.051-0.766,0.14-1.146
				c0.431-1.834,1.811-3.364,3.549-4.004c0.137-0.555,0.288-1.106,0.461-1.635c-2.493-1.318-5.839,4.423-6.466,6.301
				c-0.487,1.449-0.739,4.918-0.426,6.501c0.243,1.247,1.657,4.354,3.175,4.276c0.792-0.643,1.188-2.043,1.427-3.547
				c-0.928,0.017-1.888-0.478-2.277-1.339c-0.384-0.838-0.415-1.446-0.244-2.346c0.014-0.074,0.044-0.155,0.079-0.237
				c-0.193-0.472-0.262-0.999-0.058-1.573C36.303,35.736,36.434,35.423,36.598,35.118z"/>
			<path fill="#E84707" d="M40.662,27.86c-2.445-0.672-5.521,4.639-6.124,6.435c-0.485,1.446-0.737,4.916-0.428,6.497
				c0.248,1.249,1.659,4.355,3.176,4.28c0.372-0.301,0.653-0.771,0.877-1.335c-4.039-3.231-3.053-8.886-0.006-12.971
				C38.847,29.665,39.689,28.681,40.662,27.86z"/>
		</g>
		<g>
			<path fill="#8BBC22" d="M25.046,48.183c0.259,0.464,2.252-0.144,2.746,0.032c0.698,0.254,1.27,0.523,1.833,1.012
				c0.224,0.193,0.444,0.419,0.696,0.597c0.438,0.309,0.473,0.236,0.875-0.006c0.677-0.395,0.551-1.342,0.416-2.111
				c-1.168-0.454-1.852-0.5-3.094-0.798C27.703,46.716,25.076,46.41,25.046,48.183z"/>
			<path fill="#E3EFB1" d="M25.021,54.075c0.039,2.606,5.911-3.129,6.285-4.471c-0.978-1.006-3.951-2.888-5.374-2.227
				C24.016,48.273,24.808,51.624,25.021,54.075z"/>
		</g>
		<g>
			<path fill="#FFD215" d="M38.532,44.583c2.903-3.325,5.78-7.438,8.687-10.568c1.642-1.764,3.776-4.391,5.519-5.889
				c1.285-1.102,3.466-1.854,3.198-3.122l-0.134-0.105c-0.279-0.653-2.331-1.224-3.117-1.542c-1.473-0.595-2.615-0.906-4.128-0.492
				c-2.167,0.595-5.59,1.076-7.521-0.688c0.258,4.1-1.742,6.979-1.74,10.962c0.003,1.837,0.099,3.755-0.634,5.414
				C37.869,40.347,36.913,42.975,38.532,44.583z"/>
			<path fill="#FCE665" d="M44.411,25.037c3.746,0.064,7.99-1.729,11.143,1.051c0.303-0.327,0.467-0.68,0.383-1.083l-0.134-0.105
				c-0.279-0.653-2.331-1.224-3.117-1.542c-1.473-0.595-2.615-0.906-4.128-0.492c-2.167,0.595-5.59,1.076-7.521-0.688
				c0.258,4.1-1.742,6.979-1.74,10.962c0.003,1.837,0.099,3.755-0.634,5.414c-0.793,1.794-1.75,4.421-0.13,6.03
				c0.043-0.048,0.084-0.101,0.125-0.147c0.916-5.688,4.046-11.112,3.264-16.969C41.72,25.931,43.038,25.015,44.411,25.037z"/>
			<g>
				<path fill="#FCE665" d="M48.75,27.756c-0.663,3.212,2.783,1.052,3.354-0.7C52.726,24.333,49.18,25.662,48.75,27.756z"/>
				<path fill="#E5BB0A" d="M48.683,27.813c-0.612,2.954,2.56,0.967,3.088-0.643C52.336,24.662,49.08,25.886,48.683,27.813z"/>
			</g>
			<g>
				<path fill="#FCE665" d="M42.878,33.372c0.119,2.393,2.161,0.231,2.245-1.112C45.061,30.219,42.8,31.809,42.878,33.372z"/>
				<path fill="#E5BB0A" d="M42.841,33.425c0.112,2.2,1.989,0.212,2.065-1.025C44.85,30.525,42.77,31.987,42.841,33.425z"/>
			</g>
			<g>
				<path fill="#FCE665" d="M43.408,27.001c-0.245,1.597,1.392,0.446,1.63-0.428C45.274,25.215,43.567,25.959,43.408,27.001z"/>
				<path fill="#E5BB0A" d="M43.375,27.028c-0.225,1.465,1.286,0.413,1.503-0.393C45.095,25.39,43.523,26.07,43.375,27.028z"/>
			</g>
		</g>
		<path fill="#B1BB13" d="M9.825,59.272c0.494-0.104,0.966-0.219,1.385-0.341C10.776,59,10.304,59.117,9.825,59.272z"/>
		<path fill="#B1BB13" d="M5.51,62.679c3.483-0.269,6.742-2.657,10.384-1.47c0.133,0.235,0.292,0.42,0.549,0.515
			c0.411-0.732,2.055-1.872,2.888-2.087c0.208-1.146,0.967-2.726,0.632-3.835c-0.49,0.031-0.996,0.164-1.374,0.368
			c-1.583-2.419-0.913-5.518-0.677-8.102c-2.887,0.529-1.957,3.38-2.11,5.291c-0.518-1.921-2.149-5.513-3.568-6.82
			c-1.446,2.133,0.79,4.921,1.7,6.748c-2.54-0.233-4.975-3.47-7.87-1.967c-3.206,1.667,3.334,3.572,4.397,4.269
			c-1.656,0.251-4.122-0.2-5.646,0.792c2.222,0.294,5.153,0.807,7.083,1.067c-1.716,0.162-4.273,1.14-5.433,2.344
			c0.975-0.096,2.224-0.279,3.359-0.52c0.479-0.155,0.951-0.272,1.385-0.341c-0.419,0.122-0.891,0.237-1.385,0.341
			C8.031,59.858,6.121,61.026,5.51,62.679z"/>
		<g>
			<path fill="#A16DAD" d="M44.381,33.777c-2.724,1.726-4.501,4.089-5.582,7.127c-0.51,1.439-2.644,8.117,1.098,9.359
				c1.677-0.607,2.827-3.479,4.021-5.362c1.704-2.694,2.529-5.035,3.18-8.149c0.136-0.644,0.978-3.071,0.574-3.65
				C46.987,32.118,45.164,33.283,44.381,33.777z"/>
			<path fill="#894899" d="M40.917,43.198c0.46-1.792,2.22-4.241,2.673-6.041c0.121-0.48,2.323-3.909,1.764-3.771
				c-1.583,0.389-0.936,1.567-1.572,2.006c-0.11,0.082-0.613-0.316-0.737-0.384c-0.189,0.215,0.202,0.469,0.021,0.677
				c0.192,0.38-1.188-0.239-0.769,0.146c-0.088,0.032,0.271,0.633,0.155,0.639c0.058,0.041-0.54,0.377-0.501,0.414
				c-0.142,0.106,0.103,0.398-0.069,0.318c0.138,0.076-0.261,0.403-0.169,0.515c-0.445,0.188-0.579-0.109-1.001-0.071
				c0.228,0.2,0.168,0.625,0.409,0.838c-0.112,0.062-0.291,0.121-0.359,0.084c0.069,0.037-0.114,0.432-0.045,0.475
				c-0.085,0.015-0.511-0.151-0.583-0.131c0.025,0.032,0.341,0.575,0.366,0.608c-0.066-0.005-0.204,0.04-0.283,0.028
				c0.02,0.154,0.166,0.252,0.301,0.352c-0.043-0.002-0.126,0.007-0.188,0.002c0.054,0.04,0.107,0.147,0.183,0.197
				c-0.256,0.307-0.595,0.133-0.868-0.058c0.11,0.26,0.331,0.531,0.565,0.713c-0.331,0.183-0.748,0.183-1.13,0.142
				c0.099,0.215,0.41,0.375,0.599,0.537c-0.088,0.129-0.217,0.215-0.329,0.305c0.084,0.065,0.112,0.18,0.217,0.237
				c-0.103,0.099-0.265,0.124-0.417,0.138c0.048,0.092,0.045,0.171,0.171,0.247c-0.062,0.002-0.163,0.073-0.208,0.081
				c0.094,0.078,0.13,0.19,0.243,0.261c-0.042,0.032-0.196,0.131-0.215,0.135c-0.271,0.058-0.621,0-0.833-0.172
				c0.282,0.318,0.703,0.678,0.992,0.973c-0.436,0.026-0.683,0.135-1.105-0.079c0.26,0.284,0.625,0.49,0.87,0.779
				c-0.357,0.1-0.606-0.094-0.891-0.279c0.14,0.3,0.762,0.622,0.7,0.908c0.099,0.091,0.081,0.167,0.122,0.279
				c-0.21,0.044-0.252,0.229-0.094,0.39c-0.052,0.007-0.142,0.048-0.194,0.048c0.016,0.139,0.139,0.245,0.27,0.325
				c-0.162,0.016-0.332-0.039-0.506-0.08c-0.007,0.272,0.368,0.309,0.4,0.563c-0.261,0.029-0.518-0.071-0.746-0.166
				c0.152,0.238,0.478,0.41,0.693,0.606c-0.341-0.05-0.646-0.308-0.984-0.321c0.101,0.079,0.202,0.146,0.316,0.208
				c0.009,0,0.018,0.007,0.028,0.015c0.028,0.022,0.028,0.024,0.002,0.007c-0.008-0.007-0.019-0.015-0.03-0.021
				c-0.008,0-0.017,0.007-0.021,0.017c0.198,0.377,0.591,0.694,0.891,0.987c-0.165,0.025-0.333-0.049-0.496-0.035
				c0.03,0.153,0.17,0.279,0.255,0.409c-0.295,0.143-0.003,0.386,0.174,0.51c-0.049-0.01-0.163-0.006-0.234-0.021
				c0.009,0.182,0.224,0.322,0.353,0.455c-0.087,0-0.219,0.04-0.309,0.021c0.092,0.062,0.176,0.177,0.27,0.234
				c-0.135,0.009-0.358-0.046-0.412-0.069c0.415,0.356,0.627,0.685,1.192,0.824l-0.066-0.048c0.186-0.238,0.288-0.528,0.348-0.826
				C40.478,47.325,40.416,45.176,40.917,43.198z"/>
			<path fill="#894899" d="M38.18,46.842c0.026,0.018,0.026,0.015-0.002-0.007c-0.01-0.008-0.019-0.015-0.028-0.015
				C38.161,46.828,38.172,46.835,38.18,46.842z"/>
			<path fill="#C1AFDB" d="M45.421,34.589c-2.728,1.726-4.504,4.087-5.584,7.126c-0.511,1.437-1.927,8.449,0.563,8.732
				c1.683-0.608,3.366-2.854,4.556-4.736c1.706-2.692,2.529-5.033,3.182-8.149c0.136-0.644,0.975-3.069,0.574-3.648
				C48.023,32.928,46.196,34.095,45.421,34.589z"/>
			<path fill="#CBBCE2" d="M45.81,35.319c-2.465,1.631-4.105,3.813-5.147,6.572c-0.496,1.313-1.949,7.664,0.252,7.849
				c1.508-0.594,3.062-2.663,4.172-4.392c1.586-2.471,2.383-4.604,3.047-7.423c0.142-0.588,0.953-2.794,0.614-3.307
				C48.167,33.751,46.514,34.853,45.81,35.319z"/>
			<path fill="#DBCEF4" d="M45.535,45.192c1.489-2.319,2.234-4.319,2.862-6.966c0.126-0.547,0.888-2.618,0.571-3.095
				c-0.543-0.816-2.093,0.214-2.754,0.655c-2.312,1.531-3.851,3.57-4.828,6.166c-0.467,1.229-1.829,7.185,0.235,7.363l-0.087,0.11
				C42.946,48.87,44.496,46.817,45.535,45.192z"/>
			<path fill="#DED8EF" d="M46.001,45.25c1.419-2.208,2.131-4.112,2.724-6.634c0.125-0.522,0.851-2.495,0.548-2.952
				c-0.519-0.773-1.992,0.21-2.624,0.629c-2.205,1.459-3.667,3.4-4.598,5.872c-0.44,1.171-1.74,6.84,0.226,7.007l-0.086,0.11
				C43.539,48.75,45.011,46.794,46.001,45.25z"/>
			<path opacity="0.33" fill="#694A70" d="M46.001,45.25c1.419-2.208,2.131-4.112,2.724-6.634c0.125-0.522,0.851-2.495,0.548-2.952
				c-0.067-0.092-0.144-0.159-0.229-0.206c-0.003-0.138-0.026-0.255-0.076-0.326c-0.042-0.063-0.09-0.112-0.145-0.155
				c-0.001-0.088-0.007-0.172-0.027-0.236c0.041-0.361,0.024-0.666-0.085-0.826c-0.219-0.318-0.556-0.408-0.933-0.378
				c-0.008-0.183-0.039-0.338-0.105-0.435c-0.309-0.447-0.855-0.451-1.431-0.277c0.002,0.325,0.522,0.694,0.483,1.027
				c-0.124,0.971-1.277,1.982-1.946,3.609c-1.155,2.521-2.314,8.975-2.905,10.71c-0.105,0.995-2.342-1.319-3.055,0.295
				c0.627-0.325,2.801,1.336,3.456,0.702c0.002,0,0.002,0,0.004,0.003l-0.086,0.11C43.539,48.75,45.011,46.794,46.001,45.25z"/>
			<path fill="#BA793E" d="M46.803,40.904l-0.159-0.341c0,0.023,0,0.043,0,0.064C46.697,40.711,46.745,40.8,46.803,40.904z"/>
		</g>
		<g>
			<path fill="#FF6C39" d="M32.449,50.808c-1.509,0.242-4.702,1.615-5.963,2.622c-0.992,0.792-3.097,3.477-2.333,4.788
				c1.785,0.773,6.211,0.542,8.282-0.188c3.027-1.064,5.468-3.869,8.59-4.387C41.042,50.828,34.408,50.501,32.449,50.808z"/>
			<path opacity="0.45" fill="#F99F87" d="M30.033,53.908c0.072-0.021,0.158-0.033,0.248-0.035c0.329-0.39,0.764-0.693,1.364-0.778
				c0.338-0.056,0.677-0.083,1.019-0.078c0.163,0.028,0.287,0.05,0.388,0.065c0.353-0.156,0.703-0.306,1.086-0.4
				c1.824-0.464,3.818,0.058,5.187,1.301c0.558-0.129,1.115-0.251,1.664-0.342c0.022-2.818-6.617-3.14-8.574-2.833
				c-1.51,0.235-4.702,1.609-5.965,2.616c-0.994,0.792-3.098,3.48-2.331,4.792c0.935,0.405,2.363,0.107,3.807-0.368
				c-0.442-0.819-0.447-1.896,0.136-2.637C28.628,54.48,29.154,54.173,30.033,53.908z"/>
			<path fill="#E84707" d="M32.449,50.808c-1.509,0.242-4.702,1.615-5.963,2.622c-0.992,0.792-3.097,3.477-2.333,4.788
				c0.438,0.192,0.984,0.224,1.589,0.159c1.004-5.067,6.479-6.802,11.508-5.985c1.293,0.109,2.554,0.401,3.73,0.89
				C40.452,50.799,34.321,50.515,32.449,50.808z"/>
			<path opacity="0.58" fill="#AA2D0B" d="M35.815,53.033c-3.73,0.639-5.531,1.958-9.247,2.933c-1.593,0.418-1.85-0.126-2.083-0.089
				c-0.47,0.856-0.717,1.739-0.367,2.339c1.784,0.775,6.154,0.079,8.225-0.653c3.026-1.065,5.52-3.406,8.645-3.922
				c0.006-0.798-0.52-1.394-1.323-1.832C38.621,52.464,37.336,52.771,35.815,53.033z"/>
		</g>
		<g>
			<path fill="#B7650C" d="M16.5,80.797c0.395,0.383,1.128,0.809,1.45,1.045c0.09,0.065,0.016,0.653,0.208,0.85
				c0.247,0.252,0.824-0.024,1.163,0.074c0.342,0.094,0.364,0.631,1.219,1.189c0.61,0.403,1.152,0.444,1.845,0.513
				c1.467,0.137,2.453-0.124,4.016-0.341c0.369-0.054,0.722-0.074,1.065-0.091c1.146-0.825,2.222-1.737,3.167-2.792
				c3.642-4.066,5.098-9.036,6.862-14.068c-0.782-1.688-2.651-3.306-4.454-2.453c-1.322,0.618,0.49,0.039-1.425-0.318
				c-1.058-0.199-2.65,1.036-2.785-0.137c-2.067,0.155-3.147-2.875-5.271-1.146c0.204-0.37,0.071-0.631,0.171-0.971
				c-0.945-0.134-1.738,0.335-2.615,0.331c-0.894-0.006-1.33-0.465-2.073-0.583c-1.68-0.273-2.703,0.507-2.536,2.492
				c-2.227-1.042-4.559-1.232-3.989,2.107c0.234,0.18,1.313,2.318,1.345,2.705c0.085,1.16-0.755,1.65-0.456,2.919
				c0.076,0.314,0.762,0.546,0.85,0.912c0.123,0.515-0.382,0.924-0.364,1.41c0.046,1.324,0.318,2.153,1.742,2.503
				C15.25,78.386,15.282,79.633,16.5,80.797z"/>
			<path fill="#9B5912" d="M19.242,65.302c0.006,0,0.013,0.004,0.02,0c-0.002-0.002-0.005-0.002-0.007-0.006
				C19.248,65.3,19.246,65.3,19.242,65.302z"/>
			<path fill="#9B5912" d="M21.089,67.028c0.055-0.929-0.831-1.871-1.828-1.727c0.346,0.364,0.313,0.821-0.57,1.38
				c-0.09-0.259-0.318-0.52-0.387-0.704c-0.354,0.401-0.621,0.782-0.561,1.407c-0.621,0.31-1.154,0.076-1.523-0.486
				c-0.13,0.604-0.246,0.974-0.05,1.532c-0.153,0.089-0.828,0.344-1.005,0.368c0.218-2.438-1.174-0.947-2.297-1.776
				c0.017-0.187,0.047-0.662,0.107-0.831c-0.38,0.753,0.09,1.849,0.744,2.45v-0.354c0.584,1.983,3.246,2.238,4.37,0.588
				c0.024,0.944,0.89,1.16,1.592,1.562c-0.071,0.209-0.046,0.604-0.123,0.818C23.355,71.49,18.332,65.912,21.089,67.028z"/>
			<path fill="#9B5912" d="M19.908,64.592c-0.646-0.563-2.766-0.517-3.485-0.345c0.447,0.074,2.218,0.415,2.832,1.049
				C19.526,65.104,19.675,64.778,19.908,64.592z"/>
			<path fill="#9B5912" d="M24.192,63.314c0.003-0.085,0.017-0.176,0.005-0.255C24.138,63.165,24.146,63.246,24.192,63.314z"/>
			<path fill="#9B5912" d="M25.904,70.789c0.43,1.774,1.517,0.389,2.284-0.194c0.819-0.623,1.678,0.231,2.005-1.345
				c0.604,0.064,1.721,0.59,2.185-0.174c0.449-0.738-0.553-1.473-0.922-1.902c1.843-0.555-1.418-1.719-0.024-0.048
				c-0.289,0.135-0.52,0.313-0.525,0.503c0.03,0.022,0.06,0.043,0.085,0.067h-0.089c-0.007-0.024,0.004-0.045,0.004-0.067
				c-0.32-0.226-0.846-0.329-1.1,0.067c1.233,1.189-1.122,1.328-1.893,0.805c-0.412,0.375-0.744,1.026-0.927,1.539
				c-0.57-0.287-0.826-1.094-1.597-0.722c0.297-0.358,0.388-0.894-0.184-0.734c0.458-0.573-0.346-0.84-0.556-1.34
				c-0.135-0.325,0.064-0.532-0.018-0.795c-0.088-0.293-0.359-0.376-0.452-0.726c-0.223-0.827,0.497-1.003,0.565-1.648
				c0.049-0.459-0.419-0.566-0.554-0.761c-0.022,0.593-0.288,1.288-0.695,1.689c-0.556,0.546-0.94,0.331-1.639,0.352
				c0.144,0.579,0.778,0.858,0.803,1.526c0.022,0.69-0.501,1.14-1.025,0.801c-0.706-0.019-1.581,0.231-0.881,0.894
				c0.81,0.773,1.405-0.226,2.181-0.162c0.427,0.037,1.459,0.584,1.718,0.819c0.07,0.063-0.001,0.422,0.105,0.548
				c0.091,0.104,0.416,0.147,0.437,0.176c0.176,0.255,0.512,0.205,0.375,0.803C25.678,70.764,25.799,70.787,25.904,70.789z"/>
			<path fill="#9B5912" d="M21.385,67.461c0.082,0.098,0.168,0.165,0.251,0.222c0.063,0.002,0.125,0.006,0.181,0.014
				C21.652,67.62,21.547,67.548,21.385,67.461z"/>
			<path fill="#9B5912" d="M30.992,67.696c-0.025-0.024-0.056-0.045-0.085-0.067c0,0.022-0.011,0.043-0.004,0.067H30.992z"/>
			<path fill="#9B5912" d="M20.751,74.47c-0.373-0.306-0.551-1.329-0.388-1.941c-0.022,0.037-0.045,0.076-0.066,0.115
				c0.033-0.111,0.066-0.213,0.085-0.316c-0.586-0.228-1.27,0.346-1.238,0.956c0.011,0.228,0.396,0.49,0.441,0.757
				c0.021,0.126-0.24,0.639-0.265,0.79c0.082,0.048,0.167,0.083,0.248,0.126c-0.099,0.499-0.916,1.005-1.438,0.982
				c-0.825-0.035-0.827-0.935-1.355-1.103c-0.526-0.169-1.038,0.451-1.7,0.087c-0.434-0.237-0.865-0.757-0.654-1.251l-0.093,0.091
				c-0.784,0.039-0.282,1.857,0.067,2.383c0.708,1.069,1.673-0.235,2.195,0.929c0.623,0.072,0.838-0.292,1.446-0.327
				c0.53-0.033,1.629,0.738,2.159,0.348C20.897,76.575,19.031,74.297,20.751,74.47z"/>
			<path fill="#9B5912" d="M20.363,72.528c0.074-0.126,0.146-0.25,0.202-0.383C20.469,72.229,20.406,72.369,20.363,72.528z"/>
			<path fill="#9B5912" d="M14.421,65.25l0.345-0.056C14.666,65.163,14.549,65.169,14.421,65.25z"/>
			<path fill="#9B5912" d="M15.714,66.264c0.112,0.072,0.234,0.115,0.357,0.141c0.019,0,0.039,0.01,0.06,0.004
				C15.973,66.338,15.929,66.303,15.714,66.264z"/>
			<path fill="#9B5912" d="M13.81,66.222c0.445,0.364,0.967-0.004,1.423-0.256c0.217,0.248,0.513,0.448,0.838,0.438
				c-0.123-0.025-0.245-0.068-0.357-0.141c0.215,0.039,0.259,0.074,0.417,0.145c-0.021,0.006-0.042-0.004-0.06-0.004
				c0.38,0.085,0.803-0.017,1.145-0.178c-0.389-0.53-1.749-1.304-2.193-0.443c0.095-0.239-0.031-0.525-0.256-0.589l-0.345,0.056
				c0.128-0.081,0.245-0.087,0.345-0.056l0.195-0.033c-0.336-0.229-0.73-0.211-1.071,0.019c-0.009,0.039,0.007,0.063,0.041,0.07
				C13.471,65.432,13.414,65.901,13.81,66.222z"/>
			<path fill="#9B5912" d="M20.591,63.792c0.084-0.207,0.016-0.416,0.064-0.61c-0.144-0.043-0.197,0.004-0.298,0.052
				c0.078,0.031,0.157,0.06,0.222,0.116l-0.273-0.094c0.022-0.008,0.036-0.014,0.051-0.022c-0.35-0.137-0.797-0.041-1.132,0.143
				c0.678,0.307,1.425,0.513,1.277,1.181c0.167-0.215-0.258,1.189,0.732,0.999c-0.144,0.377,0,0-0.099,0.403
				c0.57-0.192,0.385-0.937,0.528-1.433c0.255-0.886,0.363-0.544,1.136-0.912c-0.131-0.096-0.395-0.187-0.683-0.176
				C21.652,63.455,21.057,63.713,20.591,63.792z"/>
			<path fill="#9B5912" d="M20.579,63.35c-0.065-0.057-0.145-0.085-0.222-0.116c-0.015,0.009-0.029,0.015-0.051,0.022L20.579,63.35z
				"/>
			<polygon fill="#9B5912" points="22.808,63.612 22.799,63.614 22.801,63.616 			"/>
			<path fill="#9B5912" d="M22.801,63.616c-0.051,0.072-0.188,0.148-0.245,0.184C22.93,63.833,22.952,63.724,22.801,63.616z"/>
			<path fill="#9B5912" d="M25.92,64.436c-0.029-0.029-0.041-0.063-0.057-0.087c-0.043,0.002-0.082,0.004-0.124-0.003L25.92,64.436z
				"/>
			<path fill="#9B5912" d="M29.745,67.074c0.375,0.087,0.327,0.095,0.512-0.182c-0.638-0.011-0.847-0.007-1.323-0.394
				c-0.198-0.157-1.377-1.312-1.104-0.194c-0.159-0.104-0.314-0.229-0.535-0.346c-0.064-0.372-0.284-0.604-0.39-0.968
				c-0.418-0.095-0.802,0.126-1.055,0.429c-0.071-0.366-0.007-0.738,0.154-1.062c-0.05-0.013-0.094-0.013-0.14-0.01
				c0.016,0.024,0.027,0.058,0.057,0.087l-0.181-0.09c0.042,0.007,0.081,0.005,0.124,0.003c-0.021-0.046-0.045-0.083-0.124-0.102
				c-0.396,0.113-0.72,0.391-0.709,0.809c0.107,0.002,0.225,0.021,0.333,0.029c-0.079,0.463-0.208,0.982-0.336,1.418
				c0.734-0.087,1.435-0.554,2.238-0.426c0.069,0.588-0.434,1.03-0.419,1.601c0.438,0.174,1.731,0.059,0.917-0.513
				c0.348,0.105,0.755,0.066,1.138,0.089c-0.048,0.091-0.106,0.259-0.163,0.337C29.081,67.485,29.451,67.335,29.745,67.074z"/>
			<path fill="#9B5912" d="M32.689,72.797c-0.052-0.097-0.114-0.18-0.233-0.287C32.502,72.627,32.591,72.719,32.689,72.797z"/>
			<path fill="#9B5912" d="M34.612,72.925c1.053-0.368,1.3-1.317,1.465-2.316c0.914-0.244,1.943-1.927,0.454-2.113
				c0.009-0.784,0.271-1.195-0.706-1.251c0.487-0.673-0.665-0.867-1.118-0.906l0.271-0.271c-0.419-0.16-1.107-0.23-1.373,0.18
				c0.034,0.033,0.156,0.078,0.18,0.105c-0.024,0.779-0.14,1.682-1.06,1.175c0.074,0.261-0.018,0.77,0.143,1.009
				c0.222,0.333,0.872,0.283,0.94,0.788c0.085,0.627-1.068,1.396-1.535,1.189c0.317,1.284-0.593,0.544-1.282,0.531
				c-1.278-0.015-0.279,0.73-0.993,1.182c-1.41,0.881-2.776-1.585-3.095,0.978c-0.317-0.026-0.622-0.054-0.948-0.08
				c-0.011,0.089,0.031,0.509,0.068,0.624c0.622,0,1.26-0.72,1.89-0.914c0.627-0.19,1.314-0.178,1.978-0.145
				c-0.3,1.323,0.821,0.313,1.215,0.1c0.593-0.316,1.089-0.188,1.682,0.237c-0.032-0.095-0.066-0.165-0.099-0.229
				c-0.099-0.078-0.188-0.17-0.233-0.287c0.119,0.107,0.181,0.19,0.233,0.287C33.159,73.163,34.125,73.095,34.612,72.925z"/>
			<path fill="#9B5912" d="M22.243,70.562l0.327,0.033C22.44,70.569,22.337,70.562,22.243,70.562z"/>
			<path fill="#9B5912" d="M21.029,74.76c0.184,0.89,1.089,0.476,1.799,0.466c0.092,1.714,0.319,1.547,1.826,1.255
				c0.691-0.132,0.728-0.039,1.263-0.453c0.397-0.308,0.743-0.738,1.088-1.096c1.402,0.896,2.043-0.451,2.526-1.473
				c-0.073,0.12-0.265,0.246-0.357,0.366c-0.059-0.606-0.812-0.561-1.247-0.405c-0.08,1.433-1.248,0.271-1.939,1.034
				c-0.327-0.266-0.583,0.076-0.703,0.446c-0.617-0.672-1.517-0.146-1.373-1.396c-0.567-0.021-1.034,0.41-1.602,0.427
				c-0.114-0.771,0.15-1.746,0.971-1.996c-0.236-0.263-0.637-0.35-0.902-0.618c0.256-0.192,0.359-0.462,0.448-0.71
				c-0.384-0.062-0.753-0.143-1.164-0.104l0.578,0.059c0.094,0,0.198,0.008,0.327,0.033l-0.327-0.033
				c-1.155,0.004,0.266,1.869-1.379,2.31c0.069,0.281,0.413,0.514,0.441,0.801C21.347,74.053,20.955,74.392,21.029,74.76z"/>
			<path fill="#9B5912" d="M18.698,81.281c-0.009-0.002-0.015-0.005-0.021-0.007c0,0.002,0,0.005-0.002,0.007H18.698z"/>
			<path fill="#9B5912" d="M27.376,79.2c0.264-0.279,0.623-0.938,0.924-1.342c0.332-0.443,0.712-0.96,0.595-1.548
				c-0.407,0.079-2.625,2.418-2.533,0.812c-0.501,0.359-0.842,1.011-1.327,1.445c-0.366,0.329-0.854,0.515-1.195,0.879
				c-0.705,0.742-0.022,1.835-1.185,2.198c-0.023,0.009-0.369-0.124-0.469-0.117c-0.178,0.022-0.327,0.215-0.521,0.204
				c-0.629-0.021-0.607-0.192-1.086-0.635c-0.729-0.674-1.616-1.02-1.902,0.178c0.006,0.002,0.012,0.005,0.021,0.007h0.156
				c-0.055,0.002-0.108,0.002-0.156,0h-0.023c0.002-0.002,0.002-0.005,0.002-0.007c-0.114-0.015-0.205-0.07-0.283-0.269
				c0.286-0.228,0.364-0.608,0.27-0.982c-0.734,0.265-1.846-0.531-2.167-1.099c-0.135-0.231,0.039-1.386-0.696-0.541
				c-0.263,0.304-0.116,1.009-0.007,1.34c0.434,0.327,1.074,0.072,1.439,0.352c0.298,0.226,0.303,1.103,0.279,1.464
				c0.462,0.013,1.106,0.188,0.9,0.72c0.967-0.219,0.789-0.31,1.601,0.135c0.481,0.265,1.303,0.842,1.902,0.768
				c0.629-0.079,0.769-0.627,1.38-0.997c0.593-0.362,1.284-0.703,1.99-0.799c0.239-0.032,0.985,0.153,1.182-0.014
				c0.382-0.329-0.043-0.431-0.002-0.792C26.557,79.729,26.843,79.763,27.376,79.2z"/>
			<path fill="#9B5912" d="M31.802,73.666c-0.524,0.136-1.305,0.585-1.083,1.153c-0.627,0.565-1.19,0.381-1.655-0.211
				c-0.15,0.394-0.288,0.823-0.696,1.036c-0.43,0.228-1.154-0.246-1.167,0.371c1.295-0.122,2.521-0.164,3.685-0.431
				c-0.131,1.063,1.276,0.24,1.736,0.056c0.76-0.308,1.327-0.646,0.545-1.516l0.451,0.453
				C33.052,74.034,32.749,73.428,31.802,73.666z"/>
			<path fill="#9B5912" d="M18.494,72.648c-0.037-0.412,0.256-0.807,0.464-0.875c-0.693-0.079-0.821-0.834-0.842-1.421
				c-0.315,0.145-0.641,0.271-0.969,0.35c0.496,0.816-0.294,2.132-1.188,1.332c-0.661,0.661-0.947-0.61-1.284-0.977
				c-0.357,0.089-0.594,0.437-0.707,0.712v0.182c-0.095-0.015-0.17-0.063-0.261-0.081c-0.019,0.207,0.058,0.414,0.168,0.586
				c0.387-0.228,1.055-0.263,0.993,0.37c0.238-0.183,0.378-0.064,0.625-0.137c0.123,0.555,1.808,1.452,2.284,0.964
				c0.277-0.281-0.238-0.906,0.007-1.249C18.109,71.949,18.428,72.229,18.494,72.648z"/>
			<path fill="#9B5912" d="M25.204,72.245c0.049,0.054,0.148,0.063,0.186,0.157c-0.632,0.978-1.676-1.171-0.816-1.806
				c-0.245-0.273-0.698-0.529-1.087-0.656c0.044-0.07,0.087-0.263,0.158-0.347c-0.533-0.435-0.851,0.132-0.27,0.454
				c-0.071,0.081-0.105,0.323-0.08,0.273l0.181,0.182c0.648,0.654,0.015,0.764,0.174,1.541c0.118,0.59,0.849,0.564,0.561,1.343
				C24.817,73.469,26.179,72.499,25.204,72.245z"/>
			<path fill="#9B5912" d="M23.354,77.316c-0.584-0.005-1.081-1.034-1.743-0.931c-0.691,0.104-1.804,3.427-2.737,1.286
				c-0.339-0.468-1.259-1.01-1.863,0.126c-0.315,0.226,0.797,0.061,1.156,1.132c0.221,0.666,0.968-0.22,1.728-0.098
				c0.684,0.107,0.577,0.618,1.349,0.25c0.559-0.267,0.688-1.061,1.352-1.048c0.571,1.908,1.285,0.85,2.021-0.271
				c0.086,0.017,0.15,0.054,0.237,0.063c0.266-0.354,0.331-0.801,0.275-1.241C24.382,76.445,24.035,77.32,23.354,77.316z"/>
			<path fill="#9B5912" d="M26.503,81.6c-0.025,0.239-0.163,0.535-0.189,0.763c-0.621-0.161-1.568-0.233-2.003,0.354
				c-0.829-0.968-2.078,0.743-0.821,1.223c0.702,0.267,2.018-0.298,2.74-0.399c0.566-0.074,1.023-0.017,1.575-0.019
				c1.275-0.008,2.27-0.124,2.756-1.58c0.166-0.483,0.007-1.251,0.306-1.688c0.275-0.399,0.231-0.211,0.637-0.435
				c0.398-0.219,1.126-0.226,0.881-0.964l-0.264-0.178c-0.057-1.462-2.73-1.346-2.408-0.523c-0.6-0.293-1.13,0.381-0.841,0.929
				c-0.84-1.023-0.487,1.119-0.537,1.357C28.172,81.228,27.273,81.564,26.503,81.6z"/>
		</g>
		<path fill="#8AAD09" d="M32.915,52.042c-1.22-2.121-4.634,1.249-5.275,2.019c-0.279-1.142-0.854-1.702-1.824-0.718
			c0.464-0.773,1.203-1.386,0.251-2.169c-0.569-0.726-1.836-0.521-1.59,0.403c-0.49,1.156-0.671,1.941-1.411,1.251
			c-0.333-0.313-0.713-1.332-1.231-1.441c-0.688-0.145-1.063,1.725-1.786,1.441c-2.017-0.801-0.831-3.43-3.845-2.488
			c-0.415,0.132-1.405,0.581-1.62,1.028c-0.582,1.232,0.588,1.56,1.291,2.331c1.737,1.895,1.231,3.688,0.863,5.898
			c-0.499-0.391-1.227-1.148-1.897-0.914c-0.696,0.244-0.932,1.299-0.643,1.834c-3.24-1.33-6.503,4.149-3.799,4.149
			c-0.623,0.426-2.758,2.244-2.363,3.222c0.576,1.439,2.347-0.86,2.85-1.325c1.548-1.438,3.858-2.3,6.002-1.891
			c0.751,0.141,1.314,0.571,0.576,1.763c-0.46,0.74-0.845,0.304-1.592,0.974c-0.773,0.695-0.766,2.024,0.3,2.255
			c1.772,0.384,1.048-1.163,2.406,0.558c0.425,0.538,0.251,1.341,1.15,0.929c0.376-0.176,0.549-1.404,0.611-1.772
			c0.809,1.396,2.405,0.749,3.533,0.192c-0.229,0.429-0.204,0.825-0.282,1.258c0.801-0.66,1.626-1.708,2.223-2.62
			c1.268,1.644,2.68-0.813,2.908-1.928c1.658,0.748,2.529-1.419,2.696-2.651c2.342,0.228,1.472-3.202,0.271-4.059
			c-1.235-0.885-4.129-0.272-2.516-2.616C29.852,55.974,33.669,53.352,32.915,52.042z"/>
		<path fill="#B1BB13" d="M23.504,58.397c0.377,0.356,0.913,0.309,1.229-0.026C24.497,57.742,24.056,57.44,23.504,58.397z"/>
		<path fill="#B1BB13" d="M21.453,58.689c-0.095-0.083-0.226-0.184-0.37-0.298c-0.025,0-0.045,0.006-0.075,0L21.453,58.689z"/>
		<path fill="#B1BB13" d="M23.668,56.454c-1.006,0.813-1.339,2.078-2.585,1.938c0.145,0.114,0.275,0.215,0.37,0.298l-0.445-0.298
			c0.03,0.006,0.05,0,0.075,0c-1.194-0.912-3.788-2.618-2.582-0.298c0.623,1.191,1.916,1.16,1.033,2.335
			c-0.399,0.531-1.673,0.842-2.344,0.794c0.227,0.536-0.124,0.474,0.555,0.751c-1.111,0.48-2.836-0.293-4.123,0.261
			c-1.217,0.521-0.948,2.052,0.591,2.083c1.359,0.031,3.113-1.791,4.584-2.05c2.313-0.416,0.965,1.795,2.485,1.762
			c-0.077,1.006,0.325,2.734,1.35,1.318c0.686-0.943-0.025-3.687-0.717-4.425c0.648,0.629,1.684,0.066,2.053-0.709
			c1.014,0.99,1.145-0.846,0.765-1.843c-0.316,0.335-0.852,0.383-1.229,0.026c0.552-0.957,0.993-0.655,1.229-0.026
			c0.163-0.17,0.274-0.409,0.27-0.718C24.989,56.921,24.213,56.747,23.668,56.454z"/>
		<path fill="#C1782F" d="M14.59,73.825c0,0.006-0.009,0.015-0.016,0.019c0.006,0.006,0.006,0.015,0.016,0.022V73.825z"/>
		<path fill="#C1782F" d="M14.556,73.937c0.048,0.013,0.071,0.039,0.116,0.052c0.495-0.393,1.408,0.203,1.824,0.444
			c0.31,0.183,0.541,0.092,0.886,0.11c0.295,0.014,0.611,0.26,0.916,0.161c0.361-0.112,0.385-0.621,0.045-0.811
			c-0.384-0.216-0.511,0.314-0.84,0.37c-0.479,0.087-1.197-0.435-1.597-0.647c-0.273-0.147-0.556-0.281-0.868-0.265
			c-0.225,0.019-0.707,0.202-0.464,0.492c0.006-0.004,0.016-0.013,0.016-0.019v0.041c-0.009-0.008-0.009-0.017-0.016-0.022
			C14.556,73.862,14.528,73.879,14.556,73.937z"/>
		<path fill="#C1782F" d="M16.107,70.151c0.035-0.012,0.067-0.017,0.102-0.022c0.019-0.019,0.041-0.033,0.057-0.056L16.107,70.151z"
			/>
		<path fill="#C1782F" d="M14.499,70.146c-0.467,0.666,1.155,0.449,1.094,1.16c0.34-0.124,1.284-0.687,1.187-1.104
			c-0.194-0.017-0.381-0.107-0.571-0.072C15.677,70.625,14.878,69.605,14.499,70.146z"/>
		<path fill="#C1782F" d="M29.763,70.484c-0.332,0.37-0.341,0.273-0.849,0.277c-0.321,0.002-0.627,0.124-0.717,0.47l0.041-0.039
			c-0.002,0.099,0.637,0.3,0.838,0.318c0.612,0.052,0.872-0.732,1.357-1.005c0.295-0.17,0.544-0.255,0.879-0.321
			c0.247-0.05,0.744-0.124,0.32-0.422C31.152,69.428,30.044,70.168,29.763,70.484z"/>
		<path fill="#C1782F" d="M21.934,79.095c-0.023,0.029-0.047,0.044-0.071,0.066c-0.032,0.043-0.069,0.078-0.088,0.134L21.934,79.095
			z"/>
		<path fill="#C1782F" d="M21.863,79.161c0.023-0.022,0.048-0.037,0.071-0.066l-0.159,0.2
			C21.794,79.239,21.831,79.204,21.863,79.161c-0.492,0.481-0.924,0.339-1.563,0.184c-0.361-0.087-1.395-0.18-1.393,0.383
			c0.374,0.188,0.806-0.024,1.199,0.017c0.222,0.019,0.327,0.035,0.501,0.201c0.124,0.113,0.19,0.405,0.326,0.471
			c0.15,0.066,0.544-0.032,0.675-0.093c0.35-0.157,0.228-0.35,0.414-0.59c0.272-0.352,0.95-0.13,1.224,0.077
			C23.371,79.026,22.26,78.619,21.863,79.161z"/>
		<g>
			<path fill="#8BBC22" d="M40.084,48.366c0.546,0.213,1.044-0.301,1.435-0.732c-0.272-0.896-0.563-1.322-0.964-2.185
				c-0.261-0.572-1.296-2.252-2.349-1.453c-0.155,0.366,1.124,1.254,1.246,1.629c0.176,0.526,0.281,0.988,0.254,1.543
				c-0.007,0.219-0.041,0.456-0.025,0.685C39.702,48.25,39.76,48.236,40.084,48.366z"/>
			<path fill="#E3EFB1" d="M34.732,46.705c-1.512,1.229,4.567,2.026,5.53,1.625c0.139-1.043-0.131-3.654-1.177-4.186
				C37.676,43.432,36.073,45.448,34.732,46.705z"/>
		</g>
		<g>
			<path fill="#8BBC22" d="M25.556,45.196c-0.332,0.327-0.643,0.574-1.07,0.755c-0.171,0.074-0.361,0.137-0.531,0.229
				c-0.294,0.166-0.262,0.204-0.236,0.497c0.036,0.487,0.608,0.677,1.076,0.815c0.576-0.531,0.789-0.908,1.302-1.529
				c0.333-0.403,1.225-1.798,0.235-2.304C25.999,43.677,25.794,44.967,25.556,45.196z"/>
			<path fill="#F9F8C5" d="M23.81,46.796c0.835-0.275,2.715-1.435,2.733-2.417c0.023-1.323-2.084-1.802-3.524-2.354
				C21.536,41.329,23.156,46.217,23.81,46.796z"/>
		</g>
		<g>
			<path fill="#8BBC22" d="M35.454,48.458c-0.335,0.324-0.647,0.571-1.074,0.756c-0.172,0.071-0.361,0.135-0.531,0.228
				c-0.295,0.162-0.265,0.202-0.237,0.493c0.035,0.488,0.606,0.678,1.077,0.817c0.575-0.537,0.79-0.908,1.302-1.527
				c0.333-0.404,1.224-1.802,0.236-2.305C35.893,46.936,35.69,48.229,35.454,48.458z"/>
			<path fill="#F9F8C5" d="M33.703,50.057c0.838-0.274,2.716-1.436,2.732-2.416c0.023-1.328-2.082-1.804-3.523-2.355
				C31.432,44.59,33.049,49.474,33.703,50.057z"/>
		</g>
		<path fill="#F2E7AF" d="M32.038,56.106c0.354-0.407,2.233,0.69,2.334,0.552c0.856-1.166-0.291-2.955-1.708-3.642
			c-2.198-1.062-5.212,1.222-7.311,1.103c-2.007-0.112-5.047-1.28-6.394,1.061c-1.711-1.915-7.039-0.688-4.474,2.97
			c0.909,1.295,0,0,0.954,1.177c1.096,1.355,0.011,3.138,0.928,4.466c0.872,1.264,2.168,0.608,2.529,2.637
			c0.29,1.619-0.687,3.221-0.926,4.707c-0.354,2.203-0.239,4.414,2.57,4.854c3.418,0.224,1.497-1.512,4.851-3.588
			c4.141,2.274,5.352-3.295,4.493-6.474c1.143-2.614,0.875-5.57,1.639-8.185C31.671,57.233,31.681,56.514,32.038,56.106z"/>
		<path fill="#E5D893" d="M32.038,56.106c0.354-0.407,2.233,0.69,2.334,0.552c0.79-1.073-0.128-2.678-1.384-3.458
			c-0.142,0.548-0.391,1.073-0.765,1.524c-1.06,1.282-2.932,2.693-3.184,4.438c-0.222,1.519-0.171,3.129,0.051,4.639
			c0.444,2.982-0.273,6.644-4.104,6.623c-1.369-0.011-1.934,1.595-3.67,2.013c-0.216,0.052-0.434,0.095-0.648,0.134
			c-0.327-0.272-0.617-0.6-0.851-1.001c-0.881-1.503-0.648-3.133,0.016-4.651c0.334-0.773,0.039-1.684-0.377-2.546
			c-1.31-0.606-2.294-1.661-2.374-3.438c-0.023-0.564,0.074-1.073,0.254-1.532c-0.585-0.668-1.06-1.444-1.304-2.286
			c-0.27-0.951-0.265-1.906-0.041-2.783c-1.7,0.261-3.071,1.584-1.506,3.815c0.909,1.295,0,0,0.954,1.177
			c1.096,1.355,0.011,3.138,0.928,4.466c0.872,1.264,2.168,0.608,2.529,2.637c0.29,1.619-0.687,3.221-0.926,4.707
			c-0.062,0.394-0.111,0.79-0.131,1.178c0,0.002,0,0.004,0,0.006c-0.004,0.062-0.004,0.124-0.006,0.19
			c0,0.056-0.004,0.115-0.004,0.176c0,0.062,0.004,0.122,0.004,0.184c0,0.059,0.004,0.118,0.006,0.176
			c0.004,0.061,0.006,0.116,0.013,0.174c0.007,0.064,0.016,0.126,0.021,0.188c0.006,0.048,0.013,0.102,0.022,0.148
			c0.016,0.098,0.035,0.19,0.056,0.277c0.013,0.048,0.024,0.087,0.036,0.131c0.022,0.076,0.043,0.146,0.069,0.223
			c0.016,0.042,0.035,0.077,0.05,0.12c0.025,0.063,0.053,0.12,0.082,0.18c0.021,0.038,0.04,0.077,0.062,0.114
			c0.032,0.06,0.071,0.116,0.105,0.172c0.025,0.035,0.048,0.07,0.073,0.101c0.046,0.064,0.099,0.129,0.152,0.185
			c0.02,0.022,0.039,0.043,0.061,0.064c0.077,0.078,0.158,0.152,0.249,0.223c0.025,0.021,0.051,0.035,0.079,0.054
			c0.069,0.052,0.142,0.1,0.222,0.141c0.034,0.025,0.078,0.044,0.117,0.066c0.073,0.037,0.149,0.072,0.229,0.107
			c0.045,0.019,0.089,0.037,0.135,0.052c0.091,0.035,0.183,0.066,0.279,0.091c0.043,0.013,0.086,0.031,0.134,0.04
			c0.143,0.037,0.292,0.07,0.456,0.095c0.198,0.017,0.372,0.019,0.534,0.019c0.054,0,0.099-0.002,0.146-0.002
			c0.105-0.006,0.208-0.011,0.301-0.021c0.047,0,0.094-0.006,0.14-0.015c0.083-0.008,0.161-0.022,0.232-0.039
			c0.039-0.007,0.077-0.015,0.109-0.022c0.082-0.023,0.153-0.048,0.219-0.077c0.017-0.008,0.039-0.017,0.053-0.021
			c0.082-0.041,0.158-0.083,0.22-0.135c0.014-0.008,0.025-0.021,0.041-0.033c0.048-0.039,0.096-0.082,0.14-0.126
			c0.014-0.021,0.03-0.039,0.046-0.058c0.039-0.044,0.073-0.093,0.107-0.145c0.014-0.015,0.024-0.033,0.034-0.05
			c0.16-0.244,0.295-0.548,0.495-0.883c0.018-0.031,0.037-0.063,0.054-0.09c0.037-0.062,0.075-0.117,0.114-0.176
			c0.027-0.041,0.06-0.091,0.089-0.132c0.042-0.056,0.082-0.111,0.125-0.17c0.042-0.052,0.092-0.107,0.137-0.161
			c0.044-0.052,0.085-0.102,0.133-0.155c0.326-0.35,0.762-0.718,1.378-1.098c4.141,2.274,5.352-3.295,4.493-6.474
			c1.143-2.614,0.875-5.57,1.639-8.185C31.671,57.233,31.681,56.514,32.038,56.106z"/>
		<path fill="#B1BB13" d="M40.882,62.353c0.403-0.844,0.584-1.646,1.145-2.383c0.459-0.604,1.196-0.751,1.458-1.537
			c0.411-1.229-1.772-4.92-0.182-5.11l0.176-1.055c-0.016-2.029-1.146-3.435-3.034-3.87c-1.699-0.392-3.145-0.458-2.915,1.405
			c0.098,0.781,0.904,0.931,0.842,1.934c-0.045,0.734-0.49,1.433-1.051,1.902c-1.563,1.301-2.066,0.267-3.184-0.957
			c-0.149,0.992-0.318,2.231-0.916,3.079c-0.731-0.494-2.679-1.493-3.478-0.992c-0.892,0.558-0.979,2.208-0.141,2.773
			c0.201,0.045,0.405,0.109,0.608,0.189c-0.243-0.008-0.439-0.078-0.608-0.189c-1.54-0.366-2.863,0.314-2.18,2.089
			c-2.443,0.453,0.779,1.911,0.877,2.492c0.24,1.421-2.865,2.113-3.81,1.78c0.752,3.106,5.122,3.469,6.987,1.446
			c-0.092,1.104-0.59,2.119,0.725,2.111c1.202-0.008,2.463-2.211,2.79-3.173c-0.516,2.771,0.473,3.717,2.464,1.729
			c-0.036,1.257,1.096,4.44,2.325,2.453c0.743-1.204-0.627-2.292-0.497-3.355C39.395,64.195,40.45,63.252,40.882,62.353z"/>
		<path fill="#B1BB13" d="M29.603,57.542c0.169,0.111,0.366,0.182,0.608,0.189C30.008,57.651,29.804,57.587,29.603,57.542z"/>
		<path fill="#8AAD09" d="M43.008,61.479c0.251-1.946-2.389-4.614-1.261-6.12c-1.165-0.159-0.963-1.429-0.886-2.531
			c-2.767,0.685-3.575,1.828-3.053,4.395c-0.361-0.293-1.204-0.651-1.609-1.162c-1.046,0.66-0.531,1.576,0.213,2.32
			c-0.792-0.13-1.268-0.3-1.86-0.92c-0.245,0.631-0.945,0.977-1.358,1.404c-0.668-0.644-1.609-3.502-2.69-2.143
			c-1.124,1.417,1.625,2.302,0.963,3.776c-0.561-0.324-0.908-0.184-1.174-1.088c-0.661,0.161-1.022,0.309-1.347,1.084
			c2.189,0.525,4.189,1.524,6.544,1.512c1.5-0.004,5.582-0.481,5.644,1.969C42.08,63.442,42.878,62.456,43.008,61.479z"/>
		<path fill="#8AAD09" d="M35.966,63.359c1.969-0.072,3.153,1.568,5.128,1.14c0.032-0.188,0.044-0.361,0.04-0.523
			c-0.991,0.561-2.133,0.621-2.82-0.382l0.468,0.235c-2.864-2.273-6.262-1.086-9.365-0.182c0.341,0.308,0.804,0.432,1.295,0.438
			c0.59-0.249,1.243-0.396,1.881-0.509c-0.53,0.316-1.231,0.517-1.881,0.509c-0.505,0.213-0.968,0.5-1.345,0.918
			c0.928,0.866,2.127,0.128,3.294-0.052c-0.054,0.017-0.413,0.116-0.651,0.25C33.596,64.797,34.128,63.428,35.966,63.359z"/>
		<path fill="#8AAD09" d="M32.594,63.577c-0.639,0.113-1.291,0.26-1.881,0.509C31.363,64.094,32.063,63.894,32.594,63.577z"/>
		<path fill="#FFD766" d="M44.129,40.352c-1.517,4.194-1.805,8.555-3.158,12.867c-1.315,4.185-3.057,8.435-4.757,12.59
			c-1.788,4.372-6.859,20.781-15.675,18.146c0.79,1.978,7.7,2.035,10.429,1.723c17.061-1.928,33.703-7.419,49.747-14.06
			c3.618-1.497,7.886-2.102,11.033-4.89c3.563-3.168,2.743-7.571,2.743-12.109c0-9.837-2.117-16.812-8.048-24.634
			c-5.291-6.978-16.875-9.507-25.254-7.328C53.311,24.702,46.809,32.924,44.129,40.352z"/>
		<path fill="#FFCD50" d="M72.582,66.503c-5.377,2.636-10.946,4.693-16.625,6.673c-4.479,1.563-11.729,2.903-15.443-1.515
			c-3.788-4.5-2.487-8.322-0.97-13.401c0.387-1.31,0.739-2.623,1.071-3.942c-1.266,3.83-2.847,7.7-4.4,11.491
			c-1.788,4.372-6.859,20.781-15.675,18.146c0.79,1.978,7.7,2.035,10.429,1.723c17.061-1.928,33.703-7.419,49.747-14.06
			c3.618-1.497,7.886-2.102,11.033-4.89c3.563-3.168,2.743-7.571,2.743-12.109c0-7.678-1.301-13.61-4.682-19.561
			c1.385,6.756-0.116,14.021-3.605,19.983C83.009,60.503,78.159,63.77,72.582,66.503z"/>
		<path fill="#FFC043" d="M89.155,63.676c-2.397,1.189-4.943,1.848-7.432,2.813c-3.205,1.242-6.377,2.655-9.613,3.824
			c-2.592,0.935-5.268,1.706-7.897,2.529c-4.291,1.342-26.594,9.39-33.206,4.802c-2.587,4.255-6.032,7.613-10.393,6.311
			c0.791,1.978,7.703,2.035,10.432,1.723c17.061-1.928,33.703-7.419,49.745-14.06c3.618-1.497,7.889-2.102,11.033-4.89
			c3.564-3.168,2.741-7.571,2.741-12.109c0-1.191-0.029-2.339-0.099-3.456C94.512,55.99,94.007,61.274,89.155,63.676z"/>
		<path fill="#F9F0C7" d="M28.36,54.865c0.952-0.229,2.149-0.174,2.769-1.094c-0.242-0.244-0.272-0.056-0.593-0.002
			c-0.737,0.119-1.254,0.411-2.028,0.424c-0.625,0.008-1.201,0.099-1.846,0.239c-0.739,0.157-0.782,0.512-1.385,0.851
			c-0.533,0.306-1.137,0.026-1.687-0.12c-1.006-0.271-2.261-0.858-3.081-0.021c-0.435,0.437-0.628,0.892-1.427,0.585
			c-0.621-0.237-0.79-0.992-1.552-0.86l0.071,0.072c-0.531,0.176-0.975-0.136-1.394,0.438c0.451,0.41,0.757-0.2,1.03,0.581
			c0.175,0.495-0.06,1.067,0.23,1.524c0.481-0.028,0.886-0.459,1.377-0.481c0.646-0.027,0.728,0.399,1.257,0.622
			c1.137,0.492,0.926-1.147,1.883-1.392c0.396-0.098,0.875,0.368,1.311,0.466c0.535,0.115,1.105,0.208,1.654,0.287
			c0.856,0.124,1.607-0.1,2.433-0.231c0.105-0.803-1.736-0.17-1.586-1.144C26.553,55.335,27.547,55.058,28.36,54.865z"/>
		<path fill="#FFE799" d="M44.129,40.352c-1.517,4.194-1.805,8.555-3.158,12.867c-1.315,4.185-3.057,8.435-4.757,12.59
			c-1.788,4.372-6.859,20.781-15.675,18.146c0.126,0.32,0.425,0.585,0.827,0.809c1.375,0.133,2.265,0.133,4.23-0.566
			c1.36-0.488,2.778-1.31,4.005-2.333c4.164-5.199,5.886-11.075,8.507-16.768c2.517-5.456,4.284-11.001,5.883-16.776
			c2.311-8.338,5.636-18.223,13.957-22.422c9.928-5.012,23.28-1.762,30.151,7.112c0.851,1.101,1.66,2.229,2.426,3.375
			c-1.092-2.121-2.437-4.231-4.083-6.401c-5.291-6.978-16.875-9.507-25.254-7.328C53.311,24.702,46.809,32.924,44.129,40.352z"/>
	</g>
	<path fill="#F4BC62" d="M81.134,39.649c-0.673,0.128-2.039,0.453-1.394,1.346c0.642,0.385,3.34,0.853,3.987,0.107
		C84.92,39.731,82.038,39.658,81.134,39.649z"/>
	<path fill="#E8AE58" d="M88.896,59.868c-0.56,0.397-1.664,1.262-0.705,1.806c0.741,0.081,3.39-0.616,3.669-1.565
		C92.37,58.365,89.721,59.498,88.896,59.868z"/>
	<path fill="#F4BC62" d="M60.86,66.149c-0.501,0.181-1.511,0.583-0.913,1.193c0.533,0.222,2.657,0.273,3.068-0.374
		C63.77,65.781,61.557,66.057,60.86,66.149z"/>
	<path fill="#F4BC62" d="M52.114,40.029c-0.448,0.283-1.34,0.906-0.617,1.366c0.571,0.094,2.649-0.339,2.902-1.062
		C54.867,39.004,52.769,39.775,52.114,40.029z"/>
	<path fill="#F4BC62" d="M57.244,31.088c0.616-0.132,2.578-0.563,2.54-1.43c-0.075-1.59-1.919-0.795-2.478-0.262
		C56.969,29.875,56.325,30.896,57.244,31.088z"/>
	<path fill="#F4BC62" d="M41.887,68.578c0.618-0.131,2.582-0.565,2.543-1.428c-0.077-1.59-1.92-0.794-2.477-0.263
		C41.617,67.37,40.971,68.386,41.887,68.578z"/>
	<path fill="#E8AE58" d="M43.686,81.966c0.616-0.131,2.58-0.567,2.539-1.432c-0.07-1.588-1.916-0.792-2.475-0.263
		C43.414,80.754,42.77,81.773,43.686,81.966z"/>
	<path fill="#F4BC62" d="M85.161,56.865c0.618-0.13,2.581-0.563,2.538-1.429c-0.072-1.589-1.917-0.79-2.474-0.263
		C84.892,55.655,84.242,56.671,85.161,56.865z"/>
	<path fill="#E8AE58" d="M54.499,77.189c0.618-0.128,2.579-0.563,2.542-1.429c-0.078-1.591-1.92-0.792-2.479-0.263
		C54.226,75.978,53.581,77,54.499,77.189z"/>
	<path fill="#F4BC62" d="M77.313,54.429c0.619-0.132,2.583-0.566,2.54-1.427c-0.072-1.593-1.915-0.797-2.474-0.265
		C77.043,53.217,76.396,54.234,77.313,54.429z"/>
	<path fill="#F4BC62" d="M60.787,55.622c0.608,0.168,2.548,0.697,2.911-0.089c0.675-1.441-1.328-1.59-2.069-1.379
		C61.107,54.419,60.065,55.024,60.787,55.622z"/>
	<path fill="#E8AE58" d="M83.855,67.38c0.608,0.172,2.546,0.699,2.913-0.087c0.668-1.443-1.33-1.59-2.071-1.379
		C84.176,66.181,83.134,66.784,83.855,67.38z"/>
	<path fill="#F4BC62" d="M45.986,51.313c0.606,0.171,2.547,0.694,2.913-0.087c0.671-1.445-1.332-1.592-2.071-1.381
		C46.306,50.11,45.262,50.717,45.986,51.313z"/>
	<path fill="#F4BC62" d="M69.247,32.608c0.607,0.167,2.545,0.697,2.914-0.089c0.668-1.442-1.332-1.59-2.071-1.38
		C69.568,31.408,68.524,32.009,69.247,32.608z"/>
	<path fill="#F4BC62" d="M83.335,48.091c-1.073,0.451,0.245,1.468,0.929,1.052c0.318-0.195,0.604-0.592,0.292-1.013
		C84.256,47.723,83.784,47.952,83.335,48.091z"/>
	<path fill="#F4BC62" d="M73.311,61.731c-1.071,0.453,0.245,1.471,0.929,1.056c0.32-0.195,0.604-0.594,0.292-1.016
		C74.229,61.366,73.763,61.598,73.311,61.731z"/>
	<path fill="#F4BC62" d="M72.431,47.031c-1.072,0.452,0.246,1.47,0.93,1.051c0.318-0.192,0.602-0.59,0.292-1.009
		C73.349,46.664,72.879,46.896,72.431,47.031z"/>
	<path fill="#F4BC62" d="M49.865,57.802c-0.747,0.892,0.888,1.193,1.308,0.512c0.195-0.319,0.264-0.803-0.202-1.034
		C50.51,57.054,50.201,57.476,49.865,57.802z"/>
	<path fill="#F4BC62" d="M69.19,68.125c-0.743,0.892,0.889,1.197,1.308,0.513c0.194-0.318,0.265-0.805-0.204-1.032
		C69.839,67.378,69.527,67.802,69.19,68.125z"/>
	<path fill="#E8AE58" d="M74.033,71.924c-0.743,0.894,0.889,1.196,1.307,0.511c0.195-0.318,0.266-0.802-0.203-1.033
		C74.681,71.176,74.371,71.6,74.033,71.924z"/>
	<path fill="#F4BC62" d="M78.939,30.967c-0.747,0.892,0.89,1.194,1.309,0.511c0.195-0.318,0.264-0.801-0.203-1.03
		C79.587,30.219,79.278,30.64,78.939,30.967z"/>
	<path fill="#F4BC62" d="M70.727,55.563c-1.073,0.448,0.245,1.469,0.931,1.051c0.314-0.192,0.599-0.59,0.289-1.01
		C71.644,55.194,71.177,55.424,70.727,55.563z"/>
	<path fill="#F4BC62" d="M69.19,42.483c-0.743,0.892,0.891,1.194,1.308,0.514c0.194-0.318,0.265-0.804-0.204-1.034
		C69.839,41.737,69.527,42.157,69.19,42.483z"/>
	<path fill="#F4BC62" d="M56.404,58.183c-1.07,0.453,0.247,1.469,0.932,1.051c0.319-0.192,0.603-0.59,0.291-1.009
		C57.325,57.814,56.855,58.046,56.404,58.183z"/>
	<path fill="#F4BC62" d="M65.884,26.543c-1.07,0.453,0.245,1.467,0.93,1.053c0.316-0.193,0.602-0.593,0.292-1.012
		C66.804,26.175,66.332,26.408,65.884,26.543z"/>
	<path fill="#EFB45E" d="M40.501,74.229c-1.07,0.453,0.247,1.471,0.931,1.055c0.316-0.192,0.602-0.596,0.29-1.012
		C41.42,73.862,40.955,74.092,40.501,74.229z"/>
	<path fill="#F4BC62" d="M88.646,48.455c-0.509,1.133,0.941,0.897,1.228,0.069C89.497,48.151,89.027,48.137,88.646,48.455z"/>
	<path fill="#F4BC62" d="M59.22,37.066c0.066,1.238,1.245,0.366,1.123-0.5C59.836,36.405,59.412,36.608,59.22,37.066z"/>
	<path fill="#F4BC62" d="M63.419,61.444c-0.508,1.132,0.941,0.894,1.229,0.07C64.271,61.139,63.804,61.126,63.419,61.444z"/>
	<path fill="#F4BC62" d="M62.33,44.407c-0.509,1.133,0.94,0.895,1.229,0.071C63.182,44.103,62.71,44.092,62.33,44.407z"/>
	<path fill="#E8AE58" d="M79.292,65.145c-0.508,1.131,0.943,0.896,1.229,0.072C80.145,64.841,79.675,64.828,79.292,65.145z"/>
	<path fill="#F4BC62" d="M46.826,66.503c-0.507,1.132,0.941,0.896,1.229,0.073C47.677,66.195,47.207,66.185,46.826,66.503z"/>
	<path fill="#F4BC62" d="M55.072,50.983c-0.508,1.131,0.941,0.897,1.229,0.07C55.925,50.68,55.452,50.667,55.072,50.983z"/>
	<path fill="#E8AE58" d="M61.627,76.04c-0.507,1.131,0.943,0.896,1.229,0.07C62.478,75.736,62.01,75.72,61.627,76.04z"/>
	<path fill="#F4BC62" d="M46.813,72.599c-0.51,1.127,0.941,0.894,1.229,0.068C47.661,72.288,47.194,72.28,46.813,72.599z"/>
	<path fill="#E8AE58" d="M30.869,83.271c-0.508,1.129,0.94,0.897,1.228,0.07C31.72,82.965,31.25,82.952,30.869,83.271z"/>
	<path fill="#F4BC62" d="M88.075,42.625c-0.509,1.13,0.94,0.892,1.229,0.069C88.926,42.315,88.459,42.304,88.075,42.625z"/>
</g>
</svg>
